<svg width="174" height="30" viewBox="0 0 174 30" fill="none" xmlns="http://www.w3.org/2000/svg">
<path d="M12.532 3.22361C12.532 2.99739 12.532 2.77117 12.532 2.51668C12.532 2.29046 12.619 1.97941 12.677 1.75319C12.677 1.75319 12.677 1.30075 12.822 1.21592C12.9671 1.13109 12.822 1.07454 12.9671 0.989704C12.9671 0.904872 12.9671 0.904872 12.9671 0.848318C13.0541 0.706931 13.1121 0.6221 13.1121 0.452436C13.1991 0.31105 13.2571 0.141386 13.4311 0H13.5182C13.7502 0 13.9242 0.226218 13.9242 0.452436C13.9242 0.593822 14.0692 0.593822 14.0692 0.763486C14.0692 0.93315 14.0692 0.989704 14.2143 1.15937C14.3593 1.47042 14.4463 1.69664 14.4463 2.00768C14.4463 2.09252 14.4463 2.09252 14.4463 2.14907C14.4463 2.14907 14.4463 2.14907 14.4463 2.37529C14.4463 2.60151 14.6783 2.60151 14.6783 2.77117C14.6783 2.99739 14.6783 3.30844 14.6783 3.53466C14.6783 3.76087 14.6783 4.07192 14.6783 4.29814C14.6783 4.43953 14.6783 4.52436 14.6783 4.69402C14.6783 4.77886 14.6783 4.83541 14.6783 4.92024C14.6783 5.23129 14.5333 5.37268 14.5333 5.68373C14.5333 5.99478 14.3013 5.68373 14.0692 5.82511H13.5182H12.735C12.59 5.82511 12.416 5.82511 12.329 5.82511C12.242 5.82511 12.329 5.68373 12.329 5.51406C12.329 5.28785 12.329 4.9768 12.329 4.75058C12.329 4.29814 12.329 4.04365 12.329 3.81743C12.329 3.59121 12.329 3.36499 12.329 3.1105L12.532 3.22361ZM26.9182 23.1308C26.9182 22.5087 26.6862 18.8609 26.5122 18.5499C26.4252 18.2388 26.1931 17.9278 25.8741 17.7864C25.729 17.7016 25.555 17.7016 25.323 17.7864V17.4753C25.323 17.4753 25.323 17.0229 25.323 16.7684C25.323 16.2311 25.323 16.1463 25.323 15.609V15.0718C25.323 14.6193 25.236 14.2235 25.178 13.7427C24.7139 13.1206 24.1338 12.6682 23.4377 12.4137L22.5676 12.1027L20.0152 11.3957L19.29 11.0847C19.145 11.0847 18.6519 10.7736 18.5649 10.5474C18.4779 10.3212 18.5649 10.2364 18.5649 9.92532C18.5649 9.61427 18.5649 9.52943 18.5649 9.30322C18.5649 9.16183 18.5649 8.68112 18.5649 8.37007C18.6519 8.14385 18.6519 7.97419 18.5649 7.74797C18.5649 7.60658 18.5649 7.52175 18.5649 7.35209C18.4779 7.2107 18.4199 7.04104 18.3329 6.89965C18.3329 6.81482 18.3329 6.81482 18.3329 6.75826C18.3329 6.75826 18.3329 6.75826 18.3329 6.61688L18.1009 6.47549C18.1009 6.47549 18.1009 6.3341 17.9558 6.3341L16.7667 6.19272C16.5346 6.19272 16.2156 6.19272 15.9835 6.19272C15.6645 6.19272 15.4325 6.19272 14.9394 6.19272L14.1563 6.41894C13.2861 6.41894 12.9671 6.87137 12.8801 6.9562C12.648 7.80452 12.474 8.73767 12.561 9.58599C12.561 9.67082 12.561 9.72737 12.561 9.72737C12.561 9.95359 12.561 10.1798 12.561 10.4909C12.561 10.5757 12.561 10.5757 12.561 10.6322C12.474 11.0281 12.706 11.3957 13.0251 11.6502C13.5762 11.9613 14.2143 12.1875 14.8524 12.3572C15.4034 12.4985 16.1286 12.5834 16.6796 12.753L18.1009 13.0641C18.826 13.1489 19.6091 13.2055 20.3342 13.3751C20.0152 13.3751 18.971 13.5165 18.5939 13.5165C17.6368 13.6579 15.9835 13.969 15.0844 14.1386L13.7212 14.3648C13.4021 14.3648 12.1259 14.6759 11.9809 14.7607C11.8359 14.8456 10.6177 14.9869 10.5597 15.2132C10.4147 15.9201 10.1536 16.3725 10.0086 16.9098C9.86359 17.4471 9.60255 18.154 9.54454 18.465C9.54454 18.6064 9.54454 18.7761 9.54454 18.9175V19.3134C9.54454 19.3982 9.54454 19.4548 9.54454 19.5396C9.54454 19.681 9.54454 19.8506 9.54454 20.0768C9.68956 20.3031 9.86359 20.3879 10.0956 20.3879C10.9658 20.3879 11.9229 20.3879 12.561 20.3031L14.7944 20.0768L16.2156 19.8506C17.6368 19.6244 19 19.3134 20.4212 19.0871C21.4654 18.8609 22.7996 18.6347 23.4377 18.5499C24.0758 18.465 24.7139 18.465 25.352 18.5499C25.439 18.5499 25.352 18.5499 25.352 18.5499C23.9888 19.5679 22.4805 20.4162 20.9723 21.0948C17.3177 22.7915 13.4891 24.1205 9.51553 24.884C7.83327 25.3364 6.26703 25.6475 4.43975 26.0434C3.71464 26.1847 2.93151 26.3544 2.2064 26.4958L0.524142 26.8068C0.37912 26.8068 0.205093 26.9482 0.0600703 27.0331C-0.0849522 27.1179 0.0600703 27.4855 0.205093 27.5703C0.843192 27.7965 1.48129 27.9662 2.1774 27.9662C2.40943 27.9662 2.64147 27.9662 2.90251 27.9662C3.16355 27.9662 4.00468 28.9842 4.26572 29.0407C4.52676 29.0973 4.81681 29.0407 4.99083 29.0407C5.30988 29.1256 5.62893 29.1256 5.94798 29.1256C6.67309 29.3518 7.3692 29.578 8.0073 29.9739C11.8939 30.3698 26.1931 26.1847 27.0923 22.848L26.9182 23.1308ZM40.0283 5.99478C39.9412 5.23129 39.2451 4.60919 38.433 4.60919H38.375C36.4607 4.60919 36.1417 6.53204 36.1417 7.77624C36.1417 9.02044 36.6057 10.8019 38.375 10.8019C38.8391 10.8019 39.3322 10.6605 39.6512 10.3495C39.8832 10.1233 39.9702 9.81221 40.0573 9.50116H41.2464C41.0144 10.8867 39.6512 11.8199 38.23 11.6785C35.4455 11.6785 34.8945 9.27494 34.8945 7.71969C34.8945 6.16444 35.5326 3.70432 38.404 3.70432C39.8252 3.56293 41.1014 4.46781 41.2754 5.88167L40.0283 5.99478ZM45.046 3.90226H46.2352L49.4837 11.6502H48.2945L47.4244 9.47288H43.7698L42.8997 11.6502H41.7975L45.046 3.90226ZM44.0889 8.70939H47.1054L45.6841 4.92024L44.0889 8.70939ZM50.6149 3.90226H52.2101L56.0967 10.3212V3.90226H57.1409V11.6502H55.7197L51.6591 5.06163V11.6502H50.6149V3.90226ZM61.5786 3.90226H62.7678L66.0163 11.6502H64.8271L63.957 9.47288H60.2154L59.3452 11.6502H58.2431L61.5786 3.90226ZM60.6214 8.70939H63.6379L62.2167 4.92024L60.6214 8.70939ZM67.0604 3.90226H69.3518C70.541 3.76087 71.7302 4.12848 72.6003 4.92024C73.2384 5.76856 73.6445 6.78654 73.5574 7.86108C73.6445 9.10527 73.1514 10.2646 72.1942 11.0281C71.3241 11.5654 70.2799 11.7916 69.2648 11.6502H67.0314V3.90226H67.0604ZM68.1626 10.8019H69.2648C69.9899 10.8867 70.686 10.7171 71.3241 10.3495C72.0492 9.72738 72.4263 8.79422 72.3683 7.86108C72.3683 7.01276 72.1362 6.16444 71.5851 5.45751C71.0341 4.92024 70.1639 4.60919 69.3518 4.75058H67.9886V10.8019H68.1626ZM75.0947 3.90226H76.1969V11.6502H75.0947V3.90226ZM80.5765 3.90226H81.7657L84.9562 11.6502H83.767L82.8969 9.47288H79.2423L78.3722 11.6502H77.27L80.5765 3.90226ZM79.6194 8.70939H82.7229L81.3017 4.92024L79.6194 8.70939ZM86.2034 3.90226H87.7116L91.5982 10.3212V3.90226H92.6424V11.6502H91.2212L87.1606 5.06163V11.6502H86.2034V3.90226ZM97.7182 3.90226H99.6905L101.924 10.3212L104.215 3.90226H106.042V11.6502H104.998V4.66575L102.388 11.6502H101.344L98.7914 4.75058V11.6502H97.6892V3.90226H97.7182ZM109.32 3.90226V8.70939C109.32 9.16183 109.407 9.72737 109.639 10.095C110.103 10.6322 110.741 10.8585 111.466 10.8585C112.51 10.9999 113.526 10.2364 113.7 9.21838C113.7 9.077 113.7 8.90733 113.7 8.68112V3.87398H114.802V8.68112C114.889 9.4446 114.657 10.2364 114.164 10.8585C113.526 11.5654 112.568 11.933 111.611 11.933C110.509 12.0178 109.465 11.5371 108.827 10.6888C108.421 10.0667 108.276 9.35977 108.363 8.76595V3.87398H109.32V3.90226ZM117.528 9.41632C117.528 9.95359 117.528 10.9716 119.443 10.9716C121.357 10.9716 121.27 9.95359 121.27 9.58599C121.27 8.73767 120.545 8.51145 119.443 8.25696C118.659 8.17213 117.934 7.94591 117.209 7.55003C116.658 7.23898 116.426 6.61688 116.426 5.99478C116.426 4.43953 117.934 3.76087 119.443 3.76087C120.226 3.76087 121.038 3.98709 121.676 4.52436C121.995 4.92024 122.14 5.37268 122.14 5.85339H121.038C121.038 4.92024 120.168 4.69402 119.356 4.69402C118.572 4.69402 117.615 5.14646 117.615 5.93822C117.615 6.70171 118.079 6.87137 119.036 7.09759C119.907 7.23898 120.777 7.49347 121.647 7.86108C122.111 8.25696 122.43 8.79422 122.43 9.41632C122.43 10.8019 121.328 11.8199 119.24 11.8199C118.369 11.9047 117.412 11.5937 116.774 10.9716C116.455 10.5191 116.31 9.95359 116.31 9.41632H117.528V9.41632ZM123.967 3.90226H128.956V4.83541H125.069V7.23898H128.724V8.17213H125.069V10.7171H129.043V11.6502H123.967V3.90226ZM131.972 3.90226V8.70939C131.972 9.16183 132.06 9.72737 132.292 10.095C132.756 10.6322 133.394 10.8585 134.119 10.8585C135.221 10.9999 136.178 10.2364 136.352 9.16183C136.352 9.02044 136.352 8.85078 136.352 8.70939V3.90226H137.396V8.70939C137.483 9.47288 137.251 10.2646 136.758 10.8867C136.12 11.5937 135.163 11.9613 134.148 11.9613C133.046 12.0461 132.001 11.5654 131.363 10.7171C131.044 10.095 130.899 9.38805 130.957 8.70939V3.90226H131.972V3.90226ZM139.456 3.90226H141.37L143.661 10.3212L145.953 3.90226H147.78V11.6502H146.678V4.66575L144.067 11.6502H143.023L140.471 4.75058V11.6502H139.427V3.90226H139.456ZM152.972 3.90226H157.728V4.83541H154.074V7.23898H157.496V8.17213H154.074V11.6502H152.972V3.90226ZM159.73 4.75058C160.455 4.04365 161.412 3.67604 162.427 3.67604C164.661 3.67604 165.995 5.06163 165.995 7.69141C165.995 9.86876 165.125 11.7916 162.34 11.7916C159.469 11.7916 158.773 9.92532 158.773 7.77624C158.686 6.70171 159.005 5.62717 159.73 4.75058ZM160.6 10.1798C161.064 10.6322 161.702 10.9433 162.34 10.8867C162.978 10.8867 163.703 10.6605 164.08 10.1798C164.545 9.41632 164.806 8.53973 164.806 7.63486C164.806 5.85339 164.255 4.52436 162.427 4.52436C160.6 4.52436 159.875 6.07961 159.875 7.69141C159.788 8.62456 160.049 9.50116 160.6 10.1798ZM167.59 3.90226H170.461C171.1 3.81743 171.738 3.98709 172.289 4.29814C172.84 4.60919 173.159 5.23129 173.159 5.85339C173.159 6.39066 173.014 6.87137 172.608 7.23898C172.376 7.46519 172.057 7.69141 171.651 7.77624C172.376 7.91763 172.753 8.31351 172.84 9.24666C172.927 10.095 173.072 10.8867 173.304 11.6502H172.115C171.97 10.9433 171.796 10.2646 171.709 9.47288C171.564 8.31351 171.303 8.00246 169.968 8.00246H168.547V11.5654H167.445L167.59 3.90226ZM168.605 7.23898H170.345C170.752 7.23898 171.071 7.15415 171.39 7.09759C171.709 6.87137 171.941 6.47549 171.941 6.07961C171.941 4.83541 170.839 4.83541 170.345 4.83541H168.605V7.23898ZM35.1845 27.9379V15.5525H37.8819V20.4162H42.7257V15.5242H45.4231V27.9096H42.7257V22.4804H37.8819V27.9096H35.1845V27.9379ZM59.1132 15.5242V23.2722C59.2002 25.902 57.0539 28.1641 54.3565 28.2207C54.1244 28.2207 53.8924 28.2207 53.5734 28.2207C50.8759 28.5317 48.4106 26.6654 48.0915 24.0357C48.0915 23.8094 48.0045 23.5832 48.0915 23.2722V15.5242H50.7889V22.2542C50.7889 24.4315 50.7889 26.2696 53.5734 26.2696C56.3578 26.2696 56.3578 24.3467 56.3578 22.2542V15.5242C56.3288 15.5242 59.1132 15.5242 59.1132 15.5242ZM69.8449 27.9379H67.5535L64.189 17.3057H64.102V27.9096H61.5496V15.5242H66.0743L68.6847 24.5164H68.7717L71.6431 15.5242H75.9358V27.9096H73.3834V17.3057L69.8449 27.9379ZM77.4731 27.9379L82.0848 15.5525H85.3333L89.713 27.9379H87.1026L86.1454 25.3081H81.1276L80.0835 27.9379H77.4731ZM85.4203 23.2722L83.68 18.0126L81.8527 23.2722C81.8237 23.2722 85.4203 23.2722 85.4203 23.2722ZM98.8494 27.9379L93.8316 17.645V27.9379H91.2212V15.5525H95.2818L100.126 25.3081L100.213 25.2233V15.5525H102.765V27.9379H98.8494ZM112.685 27.9379H109.987V15.5525H115.382C117.615 15.5525 119.762 16.2594 119.762 18.8044C119.762 20.2748 118.659 21.6038 117.151 21.83C119.211 22.0563 119.211 23.3005 119.443 24.9971C119.53 26.0151 119.762 27.0048 120.226 27.9379H117.209C116.977 26.8634 116.89 25.7606 116.745 24.6012C116.745 23.8943 116.513 22.9611 115.556 22.9046H112.685V27.9379ZM112.685 20.8686H114.918C116.107 20.8686 116.832 20.2465 116.832 19.172C116.832 18.0974 116.107 17.6167 114.918 17.6167H112.685V20.8686ZM124.518 27.9379H121.821V15.5525H124.518V27.9379ZM132.93 23.357V21.1797H138.179V27.3724C137.222 27.6834 136.265 27.8248 135.308 27.9096C134.67 27.9096 134.032 27.9096 132.379 27.9096C129.13 27.9945 126.433 25.4212 126.346 22.2542C126.346 22.028 126.346 21.8018 126.346 21.5473C125.94 18.3802 128.318 15.4959 131.595 15.1849C131.827 15.1849 132.06 15.1849 132.321 15.1849C135.975 15.1849 138.266 16.2594 138.266 19.2003H135.337C135.337 17.645 134.293 17.0229 132.785 17.0229C130.406 17.0229 129.217 18.7195 129.217 21.6038C129.217 24.4881 130.406 26.1847 132.785 26.1847C133.655 26.2696 134.525 26.1847 135.337 26.0434V23.4136H132.959V23.357H132.93ZM140.732 27.9379V15.5525H143.429V20.4162H148.273V15.5242H151.057V27.9096H148.273V22.4804H143.429V27.9096H140.732V27.9379V27.9379ZM152.566 15.5242H162.804V17.6167H159.063V27.9096H156.278V17.6167H152.537V15.5242H152.566V15.5242ZM171.158 19.0871C171.245 18.0692 170.432 17.2208 169.417 17.1643C169.272 17.1643 169.098 17.1643 169.011 17.1643C167.967 17.1643 166.952 17.7016 166.952 18.8044C166.952 19.8789 168.228 20.2748 169.243 20.5858C171.216 21.0383 174 21.6038 174 24.0639C174 27.1744 171.303 28.1641 168.518 28.1641C165.821 28.1641 163.5 27.0896 163.587 23.8943H166.372C166.227 24.9688 166.923 25.9868 168.054 26.1282C168.199 26.1282 168.46 26.1282 168.605 26.1282C169.707 26.1282 171.158 25.8171 171.158 24.4881C171.158 23.1591 169.33 22.9329 168.286 22.6218C166.546 22.1694 164.08 21.3776 164.08 19.2003C164.08 16.4008 166.778 15.1001 169.417 15.1001C171.564 14.8738 173.478 16.3443 173.797 18.4368C173.797 18.5782 173.797 18.7478 173.797 18.8892L171.158 19.0871Z" fill="black"/>
</svg>
