<svg width="81" height="87" viewBox="0 0 81 87" fill="none" xmlns="http://www.w3.org/2000/svg">
<path d="M61.0232 10.0912C46.721 -3.66886 23.9056 -3.32911 10.1142 10.9406C-3.67722 25.2102 -3.33669 47.9738 10.9655 61.7338C13.6897 64.3669 14.8816 65.4711 18.1166 67L23.6502 63.1778C20.5854 61.8187 17.6909 59.8652 15.137 57.4019C3.21849 45.9352 2.96311 26.909 14.4559 15.0176C25.9488 3.12622 45.0183 2.8714 56.9368 14.3381C68.8553 25.8048 69.1107 44.831 57.6179 56.7224C55.1491 59.2706 52.3397 61.3091 49.2749 62.7531C49.4452 62.838 54.5531 66.7452 54.5531 66.7452C57.7881 65.0464 59.3205 63.6025 61.9596 60.8844C75.6659 46.6997 75.3253 23.8512 61.0232 10.0912Z" fill="#95C83D"/>
<path d="M54 31H18V40H54V31Z" fill="#65AA02"/>
<path d="M40 18H31V54H40V18Z" fill="#65AA02"/>
<path d="M31.3158 39.917L40 31.2V18H31.3158V31.2H18V40H31.3158V39.917Z" fill="#95C83D"/>
<path opacity="0.5" d="M18 67L21.6 62L24 63.1207" fill="#95C83D"/>
<path d="M36 82H0V87H36V82Z" fill="#65AA02"/>
<path d="M72 82H36V87H72V82Z" fill="#A6CE57"/>
<path d="M76 65V65.4898H74.7692V69H74.2308V65.4898H73V65H76Z" fill="#929497"/>
<path d="M78.8823 67.6939C78.8823 67.7755 78.8824 67.7755 78.9608 67.8571C78.9608 67.7755 78.9608 67.7755 79.0392 67.6939C79.0392 67.6122 79.1177 67.6122 79.1177 67.5306L80.451 65.0816C80.451 65 80.5294 65 80.5294 65H80.6078H81V69H80.5294V66.0612C80.5294 66.0612 80.5294 65.9796 80.5294 65.898C80.5294 65.8163 80.5294 65.8163 80.5294 65.7347L79.1961 68.2653C79.1176 68.3469 79.1176 68.4286 79.0392 68.4286H78.9608C78.8824 68.4286 78.8039 68.3469 78.8039 68.2653L77.4706 65.7347C77.4706 65.8163 77.4706 65.8163 77.4706 65.898C77.4706 65.9796 77.4706 65.9796 77.4706 66.0612V69H77V65H77.3922C77.4706 65 77.4706 65 77.4706 65C77.4706 65 77.549 65 77.549 65.0816L78.8823 67.5306C78.8039 67.6122 78.8823 67.6939 78.8823 67.6939Z" fill="#929497"/>
</svg>
