<?xml version="1.0" encoding="utf-8"?>
<!-- Generator: Adobe Illustrator 16.0.0, SVG Export Plug-In . SVG Version: 6.00 Build 0)  -->
<!DOCTYPE svg PUBLIC "-//W3C//DTD SVG 1.1//EN" "http://www.w3.org/Graphics/SVG/1.1/DTD/svg11.dtd">
<svg version="1.1" id="Layer_1" xmlns="http://www.w3.org/2000/svg" xmlns:xlink="http://www.w3.org/1999/xlink" x="0px" y="0px"
	 width="310.8px" height="66.8px" viewBox="0 0 310.8 66.8" enable-background="new 0 0 310.8 66.8" xml:space="preserve">
<g>
	<g>
		<path fill="#FFFFFF" d="M68.757,57.599c2.963,1.861,6.466,2.941,10.223,2.941c10.63,0,19.249-8.617,19.249-19.248
			c0-10.629-8.618-19.248-19.249-19.248c-0.75,0-1.487,0.047-2.214,0.131c-4.685-8.894-14.013-14.96-24.763-14.96
			c-9.602,0-18.072,4.84-23.11,12.211c-0.525-0.04-1.054-0.067-1.589-0.067c-11.372,0-20.591,9.219-20.591,20.591
			c0,11.371,9.219,20.59,20.591,20.59c3.269,0,31.652,0.043,31.652,0.043"/>
		<path fill="#898989" d="M58.952,63.083c0,0-28.379-0.043-31.648-0.043c-12.732,0-23.091-10.357-23.091-23.09
			c0-12.733,10.358-23.091,23.091-23.091c0.116,0,0.233,0.001,0.353,0.003c5.751-7.632,14.75-12.147,24.347-12.147
			c10.789,0,20.666,5.647,26.161,14.846c0.275-0.011,0.548-0.017,0.816-0.017c11.992,0,21.749,9.756,21.749,21.748
			c0,11.992-9.756,21.748-21.749,21.748c-4.095,0-8.09-1.149-11.553-3.324c-1.169-0.734-1.521-2.278-0.787-3.447
			s2.277-1.521,3.447-0.787c2.665,1.676,5.74,2.561,8.893,2.561c9.235,0,16.749-7.514,16.749-16.748
			c0-9.235-7.513-16.749-16.749-16.749c-0.618,0-1.268,0.039-1.929,0.115l-1.7,0.195l-0.797-1.514
			C70.127,14.937,61.486,9.716,52.003,9.716c-8.419,0-16.287,4.158-21.046,11.122l-0.814,1.192l-1.439-0.11
			c-0.462-0.035-0.928-0.06-1.399-0.06c-9.975,0-18.091,8.115-18.091,18.091c0,9.975,8.116,18.09,18.091,18.09
			c3.27,0,31.656,0.043,31.656,0.043L58.952,63.083z"/>
	</g>
	<g>
		<title>maple leaf (coloured black for unknown Canadian political party)</title>
		<path fill="#A00A0A" d="M52.476,51.026l-12.523,2.229l1.432-3.948c0.119-0.322,0.02-0.685-0.247-0.899l-11.611-9.402l2.617-1.221
			c0.364-0.175,0.543-0.593,0.418-0.977l-2.294-7.058l6.687,1.418c0.375,0.079,0.751-0.118,0.901-0.469l1.296-3.048l5.219,5.602
			c0.305,0.322,0.812,0.335,1.133,0.03c0.2-0.188,0.288-0.464,0.237-0.734l-2.519-12.98l4.036,2.332
			c0.383,0.225,0.874,0.096,1.099-0.286c0.008-0.016,0.016-0.031,0.025-0.048l4.095-8.044"/>
	</g>
	<g>
		<title>maple leaf (coloured black for unknown Canadian political party)</title>
		<path fill="#DD0000" d="M52.476,51.026l12.517,2.229l-1.43-3.948c-0.12-0.322-0.021-0.685,0.247-0.899l11.606-9.402l-2.617-1.221
			c-0.364-0.175-0.543-0.593-0.417-0.977l2.294-7.058l-6.684,1.418c-0.375,0.079-0.751-0.118-0.9-0.469l-1.295-3.048l-5.217,5.602
			c-0.307,0.322-0.812,0.335-1.134,0.03c-0.2-0.188-0.287-0.464-0.236-0.734l2.517-12.98l-4.033,2.332
			c-0.384,0.225-0.875,0.096-1.098-0.286c-0.01-0.016-0.017-0.031-0.026-0.048l-4.093-8.044"/>
	</g>
	<g>
		<path fill="#4D4D4D" d="M138.907,51.166c-2.163,0.735-6.257,1.748-10.352,1.748c-5.659,0-9.753-1.427-12.605-4.187
			c-2.852-2.668-4.417-6.718-4.37-11.271c0.046-10.306,7.545-16.194,17.712-16.194c4.002,0,7.085,0.782,8.603,1.518l-1.472,5.613
			c-1.702-0.736-3.818-1.334-7.223-1.334c-5.842,0-10.259,3.312-10.259,10.028c0,6.396,4.002,10.168,9.753,10.168
			c1.61,0,2.898-0.185,3.45-0.461v-6.485h-4.784v-5.476h11.547V51.166L138.907,51.166z"/>
		<path fill="#4D4D4D" d="M164.851,51.718c-1.288,0.645-4.188,1.334-7.959,1.334c-10.719,0-16.24-6.672-16.24-15.504
			c0-10.582,7.545-16.47,16.93-16.47c3.635,0,6.396,0.736,7.637,1.38l-1.426,5.566c-1.426-0.598-3.404-1.15-5.889-1.15
			c-5.567,0-9.891,3.358-9.891,10.258c0,6.211,3.68,10.121,9.938,10.121c2.115,0,4.461-0.459,5.842-1.012L164.851,51.718z"/>
		<path fill="#4D4D4D" d="M183.341,51.764c-1.059,0.552-3.404,1.288-6.396,1.288c-6.717,0-11.088-4.555-11.088-11.363
			c0-6.854,4.692-11.823,11.962-11.823c2.393,0,4.51,0.598,5.612,1.15l-0.92,3.128c-0.966-0.552-2.484-1.058-4.692-1.058
			c-5.105,0-7.865,3.773-7.865,8.419c0,5.152,3.312,8.326,7.729,8.326c2.3,0,3.818-0.599,4.969-1.104L183.341,51.764z"/>
		<path fill="#4D4D4D" d="M185.776,19.928h4.05v32.664h-4.05V19.928z"/>
		<path fill="#4D4D4D" d="M214.483,41.274c0,8.233-5.705,11.823-11.088,11.823c-6.026,0-10.674-4.417-10.674-11.455
			c0-7.453,4.877-11.823,11.042-11.823C210.158,29.819,214.483,34.466,214.483,41.274z M196.817,41.505
			c0,4.875,2.806,8.557,6.763,8.557c3.864,0,6.764-3.635,6.764-8.648c0-3.772-1.887-8.558-6.672-8.558
			C198.888,32.855,196.817,37.272,196.817,41.505z"/>
		<path fill="#4D4D4D" d="M235.919,46.519c0,2.301,0.045,4.324,0.184,6.072h-3.588l-0.23-3.633h-0.092
			c-1.059,1.793-3.404,4.14-7.361,4.14c-3.496,0-7.683-1.933-7.683-9.753v-13.02h4.05v12.33c0,4.232,1.287,7.085,4.967,7.085
			c2.715,0,4.603-1.888,5.338-3.681c0.229-0.599,0.367-1.334,0.367-2.069V30.325h4.049V46.519L235.919,46.519z"/>
		<path fill="#4D4D4D" d="M259.562,19.928v26.914c0,1.979,0.047,4.232,0.186,5.75h-3.635l-0.185-3.863h-0.093
			c-1.241,2.484-3.955,4.37-7.59,4.37c-5.384,0-9.523-4.554-9.523-11.317c-0.047-7.406,4.555-11.961,9.982-11.961
			c3.404,0,5.705,1.61,6.717,3.404h0.093V19.928H259.562z M255.514,39.388c0-0.506-0.046-1.195-0.185-1.701
			c-0.599-2.577-2.807-4.693-5.843-4.693c-4.187,0-6.671,3.679-6.671,8.603c0,4.508,2.208,8.234,6.579,8.234
			c2.714,0,5.198-1.795,5.935-4.83c0.139-0.553,0.185-1.104,0.185-1.748V39.388z"/>
		<path fill="#4D4D4D" d="M262.55,50.201c0-1.703,1.15-2.898,2.761-2.898s2.714,1.195,2.714,2.898c0,1.654-1.059,2.896-2.76,2.896
			C263.654,53.098,262.55,51.855,262.55,50.201z"/>
		<path fill="#4D4D4D" d="M286.609,51.764c-1.059,0.552-3.404,1.288-6.395,1.288c-6.717,0-11.088-4.555-11.088-11.363
			c0-6.854,4.692-11.823,11.961-11.823c2.394,0,4.51,0.598,5.613,1.15l-0.92,3.128c-0.967-0.552-2.484-1.058-4.693-1.058
			c-5.105,0-7.866,3.773-7.866,8.419c0,5.152,3.312,8.326,7.729,8.326c2.299,0,3.817-0.599,4.967-1.104L286.609,51.764z"/>
		<path fill="#4D4D4D" d="M301.375,52.591l-0.321-2.805h-0.138c-1.242,1.748-3.636,3.312-6.81,3.312c-4.509,0-6.81-3.175-6.81-6.396
			c0-5.383,4.783-8.326,13.388-8.279v-0.461c0-1.84-0.506-5.152-5.062-5.152c-2.069,0-4.231,0.644-5.797,1.656l-0.92-2.668
			c1.84-1.196,4.51-1.978,7.314-1.978c6.809,0,8.465,4.646,8.465,9.109v8.326c0,1.933,0.093,3.818,0.369,5.336H301.375z
			 M300.776,41.229c-4.416-0.092-9.431,0.69-9.431,5.015c0,2.623,1.748,3.864,3.818,3.864c2.897,0,4.738-1.841,5.383-3.728
			c0.138-0.414,0.229-0.873,0.229-1.287L300.776,41.229L300.776,41.229z"/>
	</g>
</g>
<text transform="matrix(1 0 0 1 277.9136 13.5229)" fill="#8E8E8E" font-family="'MyriadPro-Regular'" font-size="12">beta</text>
</svg>
