<svg width="24" height="24" viewBox="0 0 24 24" xmlns="http://www.w3.org/2000/svg"><g fill="none" fill-rule="evenodd"><path d="M0 0h24v24H0z"></path><g transform="translate(0 6) scale(.0025)"><path d="M0 0h2360v4800H0zM7200 0h2400v4800H7200z" fill="#335EEA" opacity=".3"></path><path d="M 4880 4440v -880c -40 -40 0 -80 40 -80 0 0 0 0 0 0l 840 160 -120 -320c 0 0 0 -40 0 -80l 960 -760 -200 -80c 0 0 -40 -40 0 -80l 200 -560 -560 120c 0 0 -80 0 -80 0l -120 -240 -440 440c 0 0 -80 0 -80 0 0 0 0 0 0 -40l 200 -1040 -320 200c 0 0 -80 0 -80 0 0 0 0 0 0 0l -320 -640 -320 640c 0 0 -40 40 -80 0 0 0 0 0 0 0l -320 -200 200 1040c 0 0 0 80 -40 80 0 0 -40 0 -40 0l -440 -440 -120 240c 0 0 -40 40 -80 0l -560 -120 200 560c 0 0 0 80 0 80l -200 80 960 760c 0 0 0 40 0 80l -120 320 840 -160c 40 0 120 0 120 80 0 0 0 0 0 0v 880c -40 0 120 0 120 0Z" fill="#335EEA"></path></g></g></svg>
