<svg width="124" height="77" viewBox="0 0 124 77" fill="none" xmlns="http://www.w3.org/2000/svg">
<path d="M9.06693 66.3191C8.99824 67.8302 8.9639 68.105 8.58611 68.4484C8.13963 68.8949 7.38405 68.9979 5.01429 68.9979C1.92329 68.9979 1.13337 68.8949 0.6182 68.3797C0.171723 67.9333 0 67.0746 0 65.22C0 63.0563 0.171722 62.129 0.721233 61.6826C1.09902 61.4078 1.5455 61.3048 2.71321 61.2017C3.19403 61.1674 4.22437 61.1331 4.84257 61.1331C7.24668 61.1331 8.07094 61.2704 8.55176 61.7856C8.89521 62.129 8.9639 62.3695 8.9639 63.7089H8.00225V63.4341C8.00225 62.6786 7.86488 62.4381 7.4184 62.2664C7.04061 62.129 6.11331 62.0604 4.77388 62.0604C2.71321 62.0604 1.78591 62.1634 1.47681 62.4038C1.20206 62.6442 1.03033 63.3998 1.03033 64.7392C1.03033 65.3918 1.09902 66.6282 1.13337 67.006C1.2364 67.5898 1.47681 67.8302 2.12936 67.8989C2.61018 67.9676 3.7092 68.0019 4.53347 68.0019C6.38807 68.0019 7.38405 67.8989 7.65881 67.7272C7.93356 67.5555 8.00225 67.2807 8.00225 66.5938V66.2504L9.06693 66.3191Z" fill="black"/>
<path d="M18.2026 67.3494H11.9175L10.9902 68.998H9.82251L14.2186 61.2018H15.8671L20.2632 68.998H19.0955L18.2026 67.3494ZM15.2833 62.0947H14.8711L12.4327 66.4221H17.7217L15.2833 62.0947Z" fill="black"/>
<path d="M28.1624 61.2018V62.0947H24.2472V68.998H23.2168V62.0947H19.3016V61.2018H28.1624Z" fill="black"/>
<path d="M30.1888 66.5595V66.7312C30.2231 67.6242 30.2918 67.7959 30.6696 67.9676C30.9787 68.0707 31.8716 68.1394 33.5889 68.1394C34.4818 68.1394 35.5122 68.0707 35.9586 67.9676C36.4738 67.8646 36.7142 67.4868 36.7142 66.8343C36.7142 66.1474 36.5768 65.8383 36.1647 65.7009C35.7869 65.5635 35.7869 65.5635 31.9747 65.5635C29.914 65.5635 29.1584 64.9797 29.1584 63.3998C29.1584 62.7129 29.3645 62.1978 29.7423 61.8543C30.1544 61.5109 30.5322 61.4078 31.4252 61.3048C32.009 61.2361 33.0394 61.2018 33.7949 61.2018C35.5465 61.2018 36.4051 61.3735 36.9203 61.7856C37.3668 62.1291 37.5041 62.5069 37.5041 63.5372H36.4738V63.4342C36.4738 62.6786 36.3708 62.4725 35.8212 62.3008C35.4435 62.1634 34.6879 62.0947 33.7262 62.0947C30.7726 62.0947 30.1888 62.3008 30.1888 63.3998C30.1888 64.1211 30.3261 64.3615 30.8413 64.4989C31.2191 64.6019 31.803 64.6362 32.7303 64.6706C33.3141 64.6706 33.3141 64.6706 35.3748 64.6706C36.5081 64.6706 37.0577 64.8423 37.4011 65.3918C37.6415 65.7353 37.7445 66.1474 37.7445 66.7312C37.7445 67.7272 37.4698 68.3111 36.8516 68.6202C36.2677 68.8949 35.1344 69.0323 32.7989 69.0323C31.013 69.0323 30.3261 68.9293 29.8453 68.6545C29.3302 68.3454 29.1241 67.899 29.1241 67.006C29.1241 66.9373 29.1241 66.7656 29.1241 66.5595H30.1888Z" fill="black"/>
<path d="M46.9145 67.3494H40.6295L39.7022 68.998H38.5345L42.9305 61.2018H44.5791L48.9752 68.998H47.8075L46.9145 67.3494ZM43.9952 62.0947H43.5831L41.1446 66.4221H46.4337L43.9952 62.0947Z" fill="black"/>
<path d="M82.5984 67.3494H76.3133L75.386 68.998H74.2183L78.6144 61.2018H80.2629L84.659 68.998H83.4913L82.5984 67.3494ZM79.6791 62.0947H79.267L76.8285 66.4221H82.1175L79.6791 62.0947Z" fill="black"/>
<path d="M94.4815 66.3191C94.4129 67.8302 94.3785 68.105 94.0007 68.4484C93.5542 68.8949 92.7987 68.9979 90.4289 68.9979C87.3379 68.9979 86.548 68.8949 86.0328 68.3797C85.5863 67.9333 85.4146 67.0746 85.4146 65.22C85.4146 63.0563 85.5863 62.129 86.1358 61.6826C86.5136 61.4078 86.9601 61.3048 88.1278 61.2017C88.6086 61.1674 89.639 61.1331 90.2572 61.1331C92.6613 61.1331 93.4856 61.2704 93.9664 61.7856C94.3098 62.129 94.3785 62.3695 94.3785 63.7089H93.4169V63.4341C93.4169 62.6786 93.2795 62.4381 92.833 62.2664C92.4552 62.129 91.5279 62.0604 90.1885 62.0604C88.1278 62.0604 87.2005 62.1634 86.8914 62.4038C86.6167 62.6442 86.4449 63.3998 86.4449 64.7392C86.4449 65.3918 86.5136 66.6282 86.548 67.006C86.651 67.5898 86.8914 67.8302 87.544 67.8989C88.0248 67.9676 89.1238 68.0019 89.9481 68.0019C91.8027 68.0019 92.7987 67.8989 93.0734 67.7272C93.3482 67.5555 93.4169 67.2807 93.4169 66.5938V66.2504L94.4815 66.3191Z" fill="black"/>
<path d="M96.7139 66.5595V66.7312C96.7483 67.6242 96.817 67.7959 97.1948 67.9676C97.5039 68.0707 98.3968 68.1394 100.114 68.1394C101.007 68.1394 102.037 68.0707 102.484 67.9676C102.999 67.8646 103.239 67.4868 103.239 66.8343C103.239 66.1474 103.102 65.8383 102.69 65.7009C102.312 65.5635 102.312 65.5635 98.4999 65.5635C96.4392 65.5635 95.6836 64.9797 95.6836 63.3998C95.6836 62.7129 95.8897 62.1978 96.2675 61.8543C96.6796 61.5109 97.0574 61.4078 97.9503 61.3048C98.5342 61.2361 99.5645 61.2018 100.32 61.2018C102.072 61.2018 102.93 61.3735 103.445 61.7856C103.892 62.1291 104.029 62.5069 104.029 63.5372H102.999V63.4342C102.999 62.6786 102.896 62.4725 102.346 62.3008C101.969 62.1634 101.213 62.0947 100.251 62.0947C97.2978 62.0947 96.7139 62.3008 96.7139 63.3998C96.7139 64.1211 96.8513 64.3615 97.3665 64.4989C97.7443 64.6019 98.3281 64.6362 99.2554 64.6706C99.8393 64.6706 99.8393 64.6706 101.9 64.6706C103.033 64.6706 103.583 64.8423 103.926 65.3918C104.167 65.7353 104.27 66.1474 104.27 66.7312C104.27 67.7272 103.995 68.3111 103.377 68.6202C102.793 68.8949 101.66 69.0323 99.3241 69.0323C97.5382 69.0323 96.8513 68.9293 96.3705 68.6545C95.8553 68.3454 95.6493 67.899 95.6493 67.006C95.6493 66.9373 95.6493 66.7656 95.6493 66.5595H96.7139Z" fill="black"/>
<path d="M114.092 61.2018V62.0947H110.211V68.998H109.147V62.0947H105.266V61.2018H114.092Z" fill="black"/>
<path d="M121.511 67.3494H115.226L114.298 68.998H113.131L117.527 61.2018H119.175L123.571 68.998H122.404L121.511 67.3494ZM118.591 62.0947H118.179L115.741 66.4221H121.03L118.591 62.0947Z" fill="black"/>
<path d="M63.022 5.63249L80.1943 10.6468L61.7513 0L45.0599 9.61644L43.274 10.6468L45.472 9.99423L60.5149 5.63249L60.8927 7.62446L55.2259 10.8872L54.539 11.2993L55.3976 11.0246L61.7856 9.16996L68.9636 11.2993L62.6443 7.62446L63.022 5.63249Z" fill="black"/>
<path d="M31.5969 21.3279C31.7343 22.1178 31.8716 22.9078 32.009 23.6633C32.0434 23.9037 32.1121 24.1098 32.1464 24.3502C32.2494 24.9341 32.3868 25.5179 32.5242 26.0674C32.5585 26.3079 32.6272 26.5139 32.6959 26.7543C32.8676 27.5099 33.0737 28.2998 33.2798 29.0554C33.2798 29.0898 33.3141 29.1241 33.3141 29.1584C33.5202 29.8797 33.7262 30.6353 33.9323 31.3565C34.001 31.5969 34.0697 31.803 34.1384 32.0434C34.3101 32.6272 34.4818 33.1767 34.6879 33.7606C34.7566 33.9667 34.8253 34.2071 34.894 34.4131C35.1344 35.1687 35.4091 35.9243 35.6839 36.6799C35.7182 36.7486 35.7182 36.8173 35.7526 36.8859C35.993 37.5728 36.2677 38.2597 36.5425 38.9466C36.6455 39.187 36.7142 39.3931 36.8172 39.6335C37.0577 40.183 37.2637 40.7325 37.5041 41.3164C37.6072 41.5224 37.6759 41.7285 37.7789 41.9346C37.8819 42.175 37.985 42.4154 38.088 42.6558C47.7388 35.1 53.1309 26.7543 54.9168 17.2753C47.0175 17.8591 39.1527 19.3016 31.5969 21.3279Z" fill="black"/>
<path d="M56.0845 17.1722C55.7067 24.3158 52.3066 37.9162 41.7972 49.9711C42.0376 50.4176 42.278 50.8641 42.5528 51.3105C42.6214 51.4136 42.6558 51.4823 42.7245 51.5853C43.0679 52.2035 43.4457 52.8217 43.7892 53.4399C43.9265 53.646 44.0296 53.852 44.1669 54.0581C44.5104 54.6076 44.8195 55.1571 45.1629 55.6723C45.1973 55.741 45.2316 55.8097 45.266 55.844C55.9127 44.8538 58.3169 29.6049 59.828 16.9318C58.5573 17.0348 57.3209 17.1035 56.0845 17.1722Z" fill="#231F20"/>
<path d="M49.6621 62.507C49.6277 62.4727 49.5934 62.404 49.5591 62.3696C49.5934 62.404 49.6277 62.4383 49.6621 62.507Z" fill="white"/>
<path d="M91.94 21.3279C84.3843 19.3359 76.5537 17.8935 68.5858 17.2753C70.3717 26.7543 75.7638 35.1 85.4146 42.6558C85.5176 42.4154 85.6207 42.175 85.758 41.9346C85.8611 41.7285 85.9298 41.5224 86.0328 41.3164C86.2732 40.7669 86.5136 40.2174 86.7197 39.6335C86.8227 39.3931 86.8914 39.187 86.9944 38.9466C87.2692 38.2597 87.5439 37.5728 87.7844 36.8859C87.8187 36.8173 87.853 36.7486 87.853 36.6799C88.1278 35.9243 88.4026 35.1687 88.643 34.4131C88.7117 34.2071 88.7803 33.9667 88.849 33.7606C89.0208 33.2111 89.2268 32.6272 89.3985 32.0434C89.4672 31.803 89.5359 31.5969 89.6046 31.3565C89.8107 30.6353 90.0511 29.8797 90.2228 29.1584C90.2228 29.1241 90.2572 29.0898 90.2572 29.0554C90.4632 28.2998 90.6693 27.5099 90.841 26.7543C90.9097 26.5139 90.944 26.3079 90.9784 26.0674C91.1158 25.4836 91.2188 24.8997 91.3562 24.3502C91.3905 24.1098 91.4592 23.9037 91.4935 23.6633C91.6653 22.8734 91.8027 22.0835 91.94 21.3279Z" fill="black"/>
<path d="M81.7398 50.0054C71.2304 37.9162 67.8303 24.3502 67.4525 17.2065C66.2161 17.1378 64.9797 17.0691 63.7433 17.0348C65.2544 29.7079 67.6585 44.9568 78.3053 55.947C78.3397 55.8783 78.374 55.8097 78.4084 55.7753C78.7518 55.2258 79.0609 54.6763 79.4044 54.1611C79.5417 53.9551 79.6448 53.749 79.7821 53.5429C80.1599 52.9247 80.5034 52.3065 80.8468 51.6883C80.9155 51.5853 80.9499 51.5166 81.0185 51.4136C81.259 50.8984 81.4994 50.4519 81.7398 50.0054Z" fill="black"/>
<path d="M72.3981 60.5492C61.8543 45.4377 62.816 22.9764 62.7129 17.0005C62.5412 17.0005 62.4039 17.0005 62.2321 17.0005H61.7857H61.3392C61.1675 17.0005 61.0301 17.0005 60.8584 17.0005C60.7553 22.9764 61.717 45.4377 51.1732 60.5492C50.6924 61.2361 50.2116 61.8887 49.6964 62.5069C49.8338 62.6786 49.9368 62.8503 50.0742 63.022C50.5207 63.6402 51.0015 64.2584 51.448 64.8766C51.5854 65.0484 51.6884 65.2201 51.8258 65.3918C52.1692 65.8726 52.547 66.3191 52.8904 66.7999C53.0965 67.0403 53.2682 67.2807 53.4743 67.5212C53.7834 67.9333 54.0925 68.3111 54.4359 68.6889C54.642 68.9293 54.8137 69.1697 55.0198 69.4101C55.4663 69.9596 55.9128 70.5091 56.3936 71.0243C56.5653 71.2304 56.7027 71.4021 56.8744 71.5738C57.2522 72.0203 57.63 72.4667 58.0078 72.8789C58.2138 73.1193 58.4199 73.3254 58.626 73.5658C58.9694 73.9436 59.2785 74.3214 59.622 74.6648C59.828 74.8709 60.0341 75.1113 60.2402 75.3173C60.6866 75.7982 61.1675 76.3133 61.6139 76.7942C61.6826 76.8628 61.717 76.9315 61.7857 76.9659C61.8543 76.8972 61.8887 76.8285 61.9574 76.7942C62.4382 76.3133 62.8847 75.7982 63.3655 75.3173C63.5716 75.1113 63.7776 74.8709 63.9837 74.6648C64.3271 74.287 64.6362 73.9436 64.9797 73.5658C65.1858 73.3254 65.3918 73.1193 65.5979 72.8789C65.9757 72.4324 66.3535 71.9859 66.7312 71.5738C66.903 71.4021 67.0747 71.196 67.2121 71.0243C67.6586 70.4748 68.1394 69.9596 68.5859 69.4101C68.7919 69.1697 68.9636 68.9293 69.1697 68.6889C69.4788 68.3111 69.7879 67.8989 70.1313 67.5212C70.3374 67.2807 70.5091 67.0403 70.7152 66.7999C71.093 66.3534 71.4364 65.8726 71.7799 65.3918C71.9173 65.2201 72.0546 65.0484 72.1577 64.8766C72.6385 64.2584 73.085 63.6402 73.5314 63.022C73.6001 62.8503 73.7375 62.6786 73.8749 62.5069C73.3597 61.8543 72.8789 61.2018 72.3981 60.5492ZM65.2201 64.9453C65.2201 64.9453 65.1171 65.014 65.0484 65.1857C64.9453 65.4261 65.014 65.5979 65.014 65.5979L65.3231 66.6282L62.3695 66.0787C62.3695 66.0787 62.2321 66.0443 62.0947 66.1474C61.9917 66.2161 61.9917 66.3878 61.9917 66.3878L62.0947 69.4444H61.3048L61.4079 66.3878C61.4079 66.3878 61.4079 66.2504 61.3392 66.1817C61.2018 66.0443 61.0301 66.0787 61.0301 66.0787L58.1108 66.6282L58.4199 65.6666C58.4199 65.6666 58.4886 65.4948 58.4542 65.3231C58.3856 65.0484 58.1795 64.911 58.1795 64.911L55.2602 62.5756L55.741 62.3351C55.741 62.3351 55.8441 62.2665 55.9814 61.9574C56.0158 61.82 55.9814 61.6826 55.9814 61.6826L55.4663 59.7593L56.9774 60.1028C56.9774 60.1028 57.0805 60.1714 57.2178 60.1028C57.3896 60.0341 57.4583 59.8967 57.4583 59.8967L57.8017 59.1068L59.4159 60.7896C59.4159 60.7896 59.5533 60.9614 59.7593 60.7896C59.8624 60.721 59.828 60.5492 59.828 60.5492L59.0381 57.0461L60.2402 57.733C60.2402 57.733 60.3432 57.7673 60.4462 57.733C60.5149 57.6986 60.5836 57.5956 60.5836 57.5956L61.7513 55.3976L62.919 57.63C62.919 57.63 62.9877 57.7673 63.0907 57.7673C63.1938 57.7673 63.2625 57.733 63.2625 57.733L64.4645 57.0804L63.6746 60.6179C63.6746 60.6179 63.6402 60.7896 63.812 60.8927C63.9837 60.9957 64.1211 60.8583 64.1211 60.8583L65.7353 59.2098L66.0444 59.931C66.0444 59.931 66.0787 60.0341 66.1817 60.1371C66.3535 60.3088 66.5595 60.2401 66.5595 60.2401L68.105 59.8967L67.5899 61.7513C67.5899 61.7513 67.5212 61.8887 67.5555 62.0604C67.6242 62.2321 67.7616 62.3008 67.7616 62.3008L68.2424 62.5412L65.2201 64.9453Z" fill="#231F20"/>
</svg>
