<svg width="115" height="49" viewBox="0 0 115 49" fill="none" xmlns="http://www.w3.org/2000/svg">
<path d="M11.9646 39.4128C10.0476 36.0132 8.05382 29.9297 11.479 22.6705C13.2682 18.8875 16.5911 16.0758 19.4283 14.5677C17.818 12.4717 19.8629 10.1202 20.8342 9.17441C20.962 9.07217 20.8342 8.89324 20.7064 8.94436C16.6678 10.887 12.4247 15.4368 10.4821 19.1175C5.59998 28.3961 9.4341 36.2177 11.6579 39.5406C11.9646 40.0518 12.3991 40.2052 11.9646 39.4128Z" fill="black"/>
<path d="M11.8879 42.9147C4.93539 36.1922 4.55198 24.741 8.99955 16.357C11.5301 11.6027 15.7731 7.43634 20.6297 5.18699C21.4988 4.80358 22.3678 4.49685 23.2624 4.24125C22.5723 2.78428 24.5149 1.17395 27.4544 0.688299C27.5055 0.611617 27.4288 0.534935 27.3266 0.509375C26.0741 -0.0274011 20.144 1.94078 19.0449 1.07171C14.444 3.85783 10.3031 7.66639 7.61927 12.4718C1.76585 22.9262 3.37618 35.911 11.709 43.3748C12.6292 44.1671 12.8337 43.7582 11.8879 42.9147Z" fill="black"/>
<path d="M5.42107 12.0626C5.52331 12.0115 5.62555 11.986 5.70223 12.1138C3.35065 15.8712 2.02149 20.2676 2.02149 25.0475C2.02149 29.6229 3.29952 34.096 5.70223 37.9557C6.11121 38.6203 5.90672 38.9014 5.24214 37.9557C1.86812 33.2525 -0.0744942 29.0094 0.00218803 22.0313C0.0277488 20.2165 0.283356 18.4273 0.641207 16.8681C2.09817 17.686 4.27083 12.7528 5.42107 12.0626Z" fill="black"/>
<path d="M51.0214 47.0298C50.1268 47.4388 49.3089 47.6688 48.5165 47.6688C47.3407 47.6688 46.395 47.2854 45.6537 46.5186C44.938 45.7518 44.5801 44.7549 44.5801 43.528C44.5801 43.0423 44.6313 42.4289 44.7591 41.7387L46.9062 29.6996H44.4012L44.6824 28.3705H47.1362L48.2353 22.3637L51.5327 21.3924L50.2802 28.3705H54.7278L54.4466 29.6996H50.0757L47.8519 42.2244C47.7497 42.8123 47.6985 43.4257 47.6985 44.0136C47.6985 44.7038 47.8519 45.215 48.1331 45.5473C48.4143 45.9051 48.8743 46.0585 49.4622 46.0585C49.9735 46.0585 50.6125 45.8796 51.3282 45.4962L51.0214 47.0298Z" fill="black"/>
<path d="M59.6354 47.0298C58.7663 47.4388 57.9228 47.6688 57.1304 47.6688C55.9547 47.6688 54.9833 47.2854 54.2676 46.5186C53.5519 45.7518 53.1941 44.7549 53.1941 43.528C53.1941 43.0423 53.2452 42.4289 53.373 41.7387L55.5201 29.6996H53.0152L53.2963 28.3705H55.7502L56.8237 22.3637L60.1211 21.3924L58.8686 28.3705H64.1085L63.8274 29.6741H58.6385L56.4147 42.1988C56.3125 42.7867 56.2614 43.4002 56.2614 43.9881C56.2614 44.6782 56.4147 45.1894 56.6959 45.5217C56.9771 45.8796 57.4372 46.0329 58.0251 46.0329C58.5363 46.0329 59.1753 45.854 59.9166 45.4706L59.6354 47.0298Z" fill="black"/>
<path d="M76.8634 47.2087L77.0423 46.084L76.7611 46.0584C75.662 45.9817 75.023 45.9051 74.8185 45.8284C74.614 45.7517 74.5118 45.5216 74.5118 45.1638C74.5118 44.4737 74.5884 43.6557 74.7674 42.71L77.3234 28.3193H74.2306C73.6938 28.1915 73.1315 28.0892 72.5947 28.0125C72.2369 27.9614 71.8535 27.9103 71.47 27.9103C68.7095 27.9103 66.1278 29.5206 63.7251 32.7668C61.3224 36.013 60.1466 39.5149 60.1466 43.2723C60.1466 44.7293 60.4278 45.8284 60.9901 46.5441C61.5525 47.2853 62.396 47.6432 63.4951 47.6432C64.8754 47.6432 66.3579 46.8764 67.9427 45.3683C69.5274 43.8602 70.9844 41.8409 72.2624 39.3104L70.8566 47.2342L76.8634 47.2087ZM64.952 45.0616C64.4408 45.0616 64.083 44.8571 63.8274 44.4481C63.5718 44.0391 63.444 43.4001 63.444 42.5566C63.444 40.8696 63.7251 39.0037 64.2619 36.9077C64.8242 34.8117 65.4633 33.1502 66.2301 31.8722C67.2014 30.2874 68.4539 29.5206 70.0131 29.5206C70.6777 29.5206 71.3422 29.6229 71.9813 29.8018C72.6458 30.0063 73.2593 30.2874 73.8472 30.6708L72.7736 36.6776C69.5274 42.2499 66.9202 45.0616 64.952 45.0616Z" fill="black"/>
<path d="M80.3907 47.4133C80.4674 46.0585 80.5185 45.0872 80.5185 44.5249C80.5185 39.3361 79.7773 34.7351 78.2692 30.7732C77.9369 29.8786 77.1445 29.4441 75.8665 29.4441L75.5853 29.4185L75.7642 28.3194H80.8764C82.2056 32.8181 83.0235 37.4446 83.3302 42.0966C86.4742 36.3199 88.3913 31.7701 89.0558 28.4472H89.9505C91.6119 32.8948 92.6088 37.5724 92.9155 42.48L94.4236 40.0006C96.8263 36.1154 98.0021 33.2015 98.0021 31.2589C98.0021 30.1086 97.6698 29.1118 96.9797 28.2938H100.788C100.839 28.6517 100.865 28.9584 100.865 29.1885C100.865 30.7221 99.7913 33.2015 97.6954 36.6522C94.0657 42.5312 91.8164 46.1097 90.9473 47.3877H89.8993C89.976 46.2375 90.0271 45.4195 90.0271 44.985C90.0271 41.0998 89.4904 37.4701 88.3913 34.045C86.7809 37.8024 84.6083 41.9688 81.8988 46.5698C81.8477 46.6464 81.6943 46.9276 81.4387 47.4133H80.3907V47.4133ZM114.514 47.2088L114.693 46.0841L114.412 46.0585C113.313 45.9819 112.674 45.9052 112.469 45.8285C112.265 45.7518 112.188 45.5218 112.188 45.1639C112.188 44.4738 112.265 43.6558 112.444 42.7101L115 28.3194H111.907C111.268 28.1916 110.731 28.0893 110.271 28.0127C109.811 27.936 109.453 27.9104 109.147 27.9104C106.386 27.9104 103.804 29.5207 101.402 32.767C98.999 36.0132 97.8232 39.515 97.8232 43.2724C97.8232 44.7294 98.1043 45.8285 98.6667 46.5442C99.229 47.2855 100.047 47.6433 101.172 47.6433C102.552 47.6433 104.034 46.8765 105.619 45.3684C107.204 43.8603 108.661 41.841 109.939 39.3105L108.533 47.2343H114.514V47.2088V47.2088ZM102.577 45.0617C102.066 45.0617 101.708 44.8572 101.453 44.4482C101.197 44.0392 101.069 43.4002 101.069 42.5567C101.069 40.8697 101.351 39.0038 101.887 36.9078C102.424 34.8118 103.089 33.1504 103.856 31.8723C104.827 30.2876 106.079 29.5207 107.638 29.5207C108.303 29.5207 108.968 29.623 109.581 29.8019C110.246 30.0064 110.859 30.2876 111.447 30.671L110.373 36.6778C107.178 42.25 104.571 45.0617 102.577 45.0617ZM15.901 45.8285C24.6939 50.685 34.7904 46.3908 38.011 39.106C41.1039 32.1279 39.2379 22.9261 33.0011 19.4754C30.8029 18.2485 28.528 17.6861 26.3809 17.6861C19.0449 17.6861 13.1148 23.8974 13.1148 31.54C13.1148 38.5437 18.0992 44.346 24.5661 45.2662C25.4607 45.3684 25.7163 45.624 24.5405 45.5218C19.6584 45.1895 15.6198 41.7388 13.9583 38.8504C12.6803 36.6522 12.0413 34.1728 11.8879 32.2302C11.6068 28.9584 12.4247 25.84 13.8305 23.2328C18.0992 15.4368 27.889 13.1619 35.6594 17.4561C43.4299 21.7503 46.2671 31.54 41.9729 39.3361C36.5796 49.1003 25.3584 51.6052 15.5942 46.2119C13.6772 45.0872 13.396 44.346 14.853 45.215C15.2364 45.4451 15.5687 45.6496 15.901 45.8285Z" fill="black"/>
</svg>
