<svg width="191" height="30" viewBox="0 0 191 30" fill="none" xmlns="http://www.w3.org/2000/svg">
<path d="M13.3148 0H0V27.1518H13.3148V0Z" fill="black"/>
<path d="M56.2617 0H42.9469V27.1518H56.2617V0Z" fill="black"/>
<path d="M26.238 5.61315L28.1961 1.69702L30.1541 5.48261C30.4152 5.87422 30.5457 5.87422 30.9373 5.61315L32.5038 4.82992L31.4595 10.0514C31.1984 11.0957 31.8511 11.3568 32.5038 10.7041L34.8535 8.22389L35.5062 9.65981C35.7672 10.0514 36.0283 10.0514 36.4199 9.92088L38.7696 9.39873L37.8558 12.4011C37.7253 12.7927 37.5948 13.1843 37.9864 13.3149L38.9001 13.7065L33.9397 18.0142C33.4176 18.5364 33.5481 18.6669 33.8092 19.3196L34.3313 20.7555L29.7625 19.9723C29.2404 19.8417 28.8487 19.8417 28.8487 20.2333L28.9793 25.4548H27.5434L27.6739 20.2333C27.6739 19.7112 27.2823 19.7112 26.3685 19.9723L22.0608 20.7555L22.5829 19.3196C22.7135 18.7974 22.844 18.4058 22.4524 18.0142L17.3615 13.837L18.2752 13.3149C18.5363 13.0538 18.5363 12.9232 18.4058 12.4011L17.492 9.26819L19.9722 9.79034C20.6249 9.92088 20.886 9.79034 21.0165 9.39873L21.6692 7.96282L24.0189 10.7041C24.4105 11.2263 25.0632 10.8346 24.8021 10.182L23.6272 4.56885L25.4548 5.61315C25.8464 5.87422 26.1075 5.87422 26.238 5.61315Z" fill="black"/>
<path d="M90.6415 4.47804C90.2499 2.65051 88.814 2.38947 87.7697 2.38947C85.9422 2.38947 84.5062 3.69481 84.5062 6.4361C84.5062 8.78577 85.2895 10.6133 87.9002 10.6133C88.814 10.6133 90.3804 10.2217 90.772 7.87206H92.0774C91.5553 11.6576 88.4224 11.9187 87.6391 11.9187C85.2895 11.9187 83.0703 10.4828 83.0703 6.56668C83.0703 3.43378 84.8979 1.2146 87.7697 1.2146C90.3804 1.2146 91.6858 2.78105 91.9469 4.47804H90.6415Z" fill="#272525"/>
<path d="M98.0913 9.00506C98.0913 10.0494 96.9165 10.702 95.7416 10.702C94.8279 10.702 94.4363 10.1799 94.4363 9.39665C94.4363 8.48289 95.35 8.22186 96.0027 8.22186C97.5692 7.96079 97.8302 7.96076 98.0913 7.69968V9.00506ZM94.6973 6.39431C94.8279 5.87216 94.9584 4.95843 96.3943 4.95843C97.5692 4.95843 98.0913 5.34999 98.0913 6.13322C98.0913 6.91644 97.6997 6.91646 97.4386 7.04699L95.35 7.30808C93.2614 7.56916 93.1309 9.00506 93.1309 9.65774C93.1309 10.9631 94.0447 11.7463 95.4806 11.7463C96.9165 11.7463 97.6997 11.0937 98.0913 10.5715C98.0913 11.0937 98.3524 11.7463 99.3967 11.7463C99.6578 11.7463 99.9188 11.6158 100.049 11.6158V10.702C99.9188 10.702 99.7883 10.702 99.6578 10.702C99.3967 10.702 99.2662 10.5715 99.2662 10.3104V6.00271C99.2662 4.04465 97.1776 3.91406 96.5249 3.91406C94.6973 3.91406 93.5225 4.56678 93.5225 6.39431H94.6973Z" fill="#272525"/>
<path d="M107.436 11.5425H106.131V6.97367C106.131 5.6683 105.739 5.01561 104.565 5.01561C103.912 5.01561 102.607 5.40725 102.607 7.49585V11.5425H101.301V4.10191H102.476V5.1462C102.737 4.75458 103.39 3.84082 104.695 3.84082C105.87 3.84082 107.306 4.36297 107.306 6.45157V11.5425" fill="#272525"/>
<path d="M113.839 9.00506C113.839 10.0494 112.664 10.702 111.49 10.702C110.576 10.702 110.184 10.1799 110.184 9.39665C110.184 8.48289 111.098 8.22186 111.751 8.22186C113.317 7.96079 113.578 7.96076 113.839 7.69968V9.00506ZM110.445 6.39431C110.576 5.87216 110.706 4.95843 112.142 4.95843C113.317 4.95843 113.839 5.34999 113.839 6.13322C113.839 6.91644 113.448 6.91646 113.187 7.04699L111.098 7.30808C109.009 7.56916 108.879 9.00506 108.879 9.65774C108.879 10.9631 109.793 11.7463 111.229 11.7463C112.664 11.7463 113.448 11.0937 113.97 10.5715C113.97 11.0937 114.231 11.7463 115.275 11.7463C115.536 11.7463 115.797 11.6158 115.928 11.6158V10.702C115.797 10.702 115.667 10.702 115.536 10.702C115.275 10.702 115.145 10.5715 115.145 10.3104V6.00271C115.145 4.04465 113.056 3.91406 112.403 3.91406C110.576 3.91406 109.401 4.56678 109.401 6.39431H110.445Z" fill="#272525"/>
<path d="M118.048 7.89284C118.048 6.97908 118.178 5.15151 120.006 5.15151C121.833 5.15151 121.964 7.1096 121.964 8.28444C121.964 10.2425 120.789 10.7646 120.006 10.7646C118.701 10.7646 118.048 9.45929 118.048 7.89284ZM123.269 1.36597H121.964V5.15151C121.703 4.75989 121.05 3.84613 119.745 3.84613C117.787 3.84613 116.612 5.41257 116.612 7.50116C116.612 9.32869 117.395 11.6784 119.875 11.6784C120.659 11.6784 121.442 11.4174 121.964 10.5036V11.5479H123.139V1.36597" fill="#272525"/>
<path d="M129.586 9.00506C129.586 10.0494 128.411 10.702 127.236 10.702C126.323 10.702 125.931 10.1799 125.931 9.39665C125.931 8.48289 126.845 8.22186 127.497 8.22186C129.064 7.96079 129.325 7.96076 129.586 7.69968V9.00506ZM126.192 6.39431C126.323 5.87216 126.453 4.95843 127.889 4.95843C129.064 4.95843 129.586 5.34999 129.586 6.13322C129.586 6.91644 129.194 6.91646 128.933 7.04699L126.845 7.30808C124.756 7.56916 124.626 9.00506 124.626 9.65774C124.626 10.9631 125.539 11.7463 126.975 11.7463C128.411 11.7463 129.194 11.0937 129.586 10.5715C129.586 11.0937 129.847 11.7463 130.891 11.7463C131.152 11.7463 131.414 11.6158 131.544 11.6158V10.702C131.414 10.702 131.283 10.702 131.152 10.702C130.891 10.702 130.761 10.5715 130.761 10.3104V6.00271C130.761 4.04465 128.672 3.91406 128.02 3.91406C126.192 3.91406 125.017 4.56678 125.017 6.39431H126.192Z" fill="#272525"/>
<path d="M138.469 2.54084H141.863C142.516 2.54084 143.691 2.67136 143.691 4.23781C143.691 5.67372 142.646 5.93478 141.602 5.93478H138.469V2.54084ZM138.469 7.24015H141.733C143.43 7.24015 143.56 8.15395 143.56 9.06771C143.56 9.45932 143.56 11.0258 143.821 11.6785H145.518V11.4174C145.127 11.1563 144.996 11.0258 144.996 10.3731L144.866 8.54553C144.866 7.10962 144.213 6.84854 143.691 6.58747C144.343 6.19585 145.127 5.67367 145.127 4.10722C145.127 2.01862 143.43 1.36597 141.733 1.36597H137.033V11.5479H138.469V7.24015Z" fill="#272525"/>
<path d="M148.043 7.32632C148.043 6.15148 148.957 5.10724 150.131 5.10724C151.698 5.10724 152.089 6.15148 152.22 7.32632H148.043ZM152.089 9.28438C152.089 9.80653 151.306 10.7203 150.131 10.7203C148.695 10.7203 148.043 9.80654 148.043 8.24009H153.395C153.395 5.62934 152.35 3.93237 150.262 3.93237C147.782 3.93237 146.737 5.75991 146.737 8.10959C146.737 10.1982 147.912 11.7646 150.001 11.7646C151.176 11.7646 151.698 11.5035 151.959 11.2424C152.873 10.5898 153.264 9.54545 153.264 9.28438H152.089" fill="#272525"/>
<path d="M159.144 4.20776H160.449L157.577 11.6484H156.272L153.531 4.20776H154.966L156.925 10.2125" fill="#272525"/>
<path d="M162.206 7.32632C162.206 6.15148 163.12 5.10724 164.295 5.10724C165.861 5.10724 166.253 6.15148 166.383 7.32632H162.206ZM166.253 9.28438C166.253 9.80653 165.469 10.7203 164.295 10.7203C162.859 10.7203 162.206 9.80654 162.206 8.24009H167.558C167.558 5.62934 166.514 3.93237 164.425 3.93237C161.945 3.93237 160.901 5.75991 160.901 8.10959C160.901 10.1982 162.076 11.7646 164.164 11.7646C165.339 11.7646 165.861 11.5035 166.122 11.2424C167.036 10.5898 167.428 9.54545 167.428 9.28438H166.253" fill="#272525"/>
<path d="M175.058 11.5425H173.752V6.97367C173.752 5.6683 173.361 5.01561 172.186 5.01561C171.533 5.01561 170.228 5.40725 170.228 7.49585V11.5425H168.922V4.10191H170.097V5.1462C170.358 4.75458 171.011 3.84082 172.316 3.84082C173.491 3.84082 174.927 4.36297 174.927 6.45157V11.5425" fill="#272525"/>
<path d="M181.608 11.5426V10.4983C181.086 11.4121 180.433 11.8037 179.258 11.8037C178.214 11.8037 176.908 11.2816 176.908 9.45406V4.10205H178.214V9.06246C178.214 10.2373 178.867 10.6289 179.65 10.6289C181.216 10.6289 181.738 9.19298 181.738 8.14868V4.10205H183.044V11.5426H181.608" fill="#272525"/>
<path d="M185.648 7.32632C185.648 6.15148 186.562 5.10724 187.737 5.10724C189.303 5.10724 189.695 6.15148 189.825 7.32632H185.648ZM189.695 9.28438C189.695 9.80653 188.911 10.7203 187.737 10.7203C186.301 10.7203 185.648 9.80654 185.648 8.24009H191C191 5.62934 189.956 3.93237 187.867 3.93237C185.387 3.93237 184.343 5.75991 184.343 8.10959C184.343 10.1982 185.517 11.7646 187.606 11.7646C188.781 11.7646 189.303 11.5035 189.564 11.2424C190.478 10.5898 190.869 9.54545 190.869 9.28438H189.695" fill="#272525"/>
<path d="M85.5518 21.8106L87.1183 17.3724L88.5542 21.8106H85.5518ZM89.2069 22.9855L90.2512 25.9878H91.6871L88.032 15.8059H86.4656L82.68 25.9878H84.1159L85.1602 22.9855" fill="#272525"/>
<path d="M93.7652 22.3447C93.7652 21.431 93.8958 19.6035 95.7233 19.6035C97.5508 19.6035 97.6814 21.5615 97.6814 22.7363C97.6814 24.6944 96.5065 25.2166 95.5928 25.2166C94.4179 25.086 93.7652 23.9112 93.7652 22.3447ZM98.9867 18.5592H97.8119V19.6035C97.5508 19.2119 96.8981 18.2981 95.5928 18.2981C93.6347 18.2981 92.4599 19.8645 92.4599 21.9531C92.4599 23.7807 93.2431 26.1303 95.7233 26.1303C96.7676 26.1303 97.4203 25.7387 97.6814 25.0861V25.3471C97.6814 26.2608 97.6814 27.9578 95.5928 27.9578C95.3317 27.9578 94.1569 27.9579 93.8958 26.783H92.5904C92.8515 28.7411 94.5485 29.0022 95.4622 29.0022C98.8562 29.0022 98.8562 26.3914 98.8562 25.3471V18.5592" fill="#272525"/>
<path d="M101.611 21.7782C101.611 20.6034 102.524 19.5591 103.699 19.5591C105.266 19.5591 105.657 20.6034 105.788 21.7782H101.611ZM105.657 23.7363C105.657 24.2584 104.874 25.1722 103.699 25.1722C102.263 25.1722 101.611 24.2584 101.611 22.692H106.963C106.963 20.0812 105.918 18.3843 103.83 18.3843C101.35 18.3843 100.305 20.2118 100.305 22.4309C100.305 24.5195 101.48 26.0859 103.569 26.0859C104.743 26.0859 105.266 25.8249 105.527 25.5638C106.44 24.9112 106.832 23.8669 106.832 23.6058H105.657" fill="#272525"/>
<path d="M114.589 25.9945H113.283V21.4257C113.283 20.1203 112.892 19.4676 111.717 19.4676C111.064 19.4676 109.759 19.8592 109.759 21.9478V25.9945H108.453V18.5538H109.628V19.5981C109.889 19.2065 110.542 18.2927 111.847 18.2927C113.022 18.2927 114.458 18.8149 114.458 20.9035V25.9945" fill="#272525"/>
<path d="M120.958 21.1266C120.827 20.0823 120.305 19.5602 119.261 19.5602C117.694 19.5602 117.172 20.9961 117.172 22.3015C117.172 23.6069 117.433 25.1733 119.13 25.1733C119.913 25.1733 120.696 24.5207 120.958 23.4764H122.132C122.002 24.6512 121.219 26.3481 119.13 26.3481C117.041 26.3481 115.867 24.7817 115.867 22.6931C115.867 20.3434 116.911 18.5159 119.391 18.5159C121.349 18.5159 122.002 19.9518 122.132 21.2572H120.958" fill="#272525"/>
<path d="M128.099 18.6571H129.405C128.491 21.0068 127.708 23.487 126.794 25.9673C125.619 28.9696 125.488 29.1001 123.922 29.1001C123.791 29.1001 123.661 29.1001 123.4 28.9696V27.7947C123.53 27.7947 123.791 27.9253 124.183 27.9253C124.836 27.9253 124.836 27.7948 125.488 26.2283L122.747 18.6571H124.183L126.141 24.6619L128.099 18.6571Z" fill="#272525"/>
</svg>
