<svg width="250" height="31" viewBox="0 0 250 31" fill="none" xmlns="http://www.w3.org/2000/svg">
<path d="M27.7072 2.35512C27.7072 2.35512 26.0748 5.62001 25.6667 6.02812C25.4626 6.43623 25.2586 6.43623 24.8504 6.23218C24.4423 6.02812 23.0139 5.2119 23.0139 5.2119C23.0139 5.2119 24.2383 10.7214 24.2383 11.1295C24.4423 11.5376 24.0342 11.7417 23.6261 11.5376C23.4221 11.3336 21.1775 8.68084 21.1775 8.68084C21.1775 8.68084 20.5653 9.90517 20.5653 10.1092C20.3612 10.3133 20.3612 10.5173 19.9531 10.5173C19.545 10.3133 17.3004 9.90517 17.3004 9.90517C17.3004 9.90517 18.1166 12.5579 18.1166 12.966C18.3207 13.1701 18.3207 13.5782 17.9126 13.7822L17.0963 14.1903C17.0963 14.1903 21.7896 18.2714 21.9937 18.4755C22.1977 18.6796 22.4018 18.8836 22.1977 19.4958C21.7896 20.1079 21.5856 20.9242 21.5856 20.9242C21.5856 20.9242 25.8707 19.9039 26.4829 19.9039C26.891 19.9039 27.2991 20.1079 27.2991 20.516C27.2991 20.9242 27.0951 25.6174 27.0951 25.6174H28.5234C28.5234 25.6174 28.3194 20.9242 28.3194 20.516C28.3194 20.1079 28.7275 19.9039 29.1356 19.9039C29.5437 20.1079 34.0329 20.9242 34.0329 20.9242C34.0329 20.9242 33.8289 19.9039 33.6248 19.2917C33.4208 18.6795 33.6248 18.4755 33.8289 18.2714C34.0329 18.0674 38.7262 13.9863 38.7262 13.9863L37.91 13.5782C37.5019 13.3741 37.5019 12.966 37.7059 12.7619C37.91 12.3538 38.5222 9.70111 38.5222 9.70111C38.5222 9.70111 36.2775 10.1092 35.8694 10.3133C35.4613 10.5173 35.4613 10.1092 35.2573 9.90517C35.0532 9.70112 34.6451 8.47678 34.6451 8.47678C34.6451 8.47678 31.9924 11.3336 31.7883 11.5376C31.3802 11.9457 30.9721 11.5376 30.9721 11.1295C30.9721 10.7214 32.1964 5.2119 32.1964 5.2119C32.1964 5.2119 30.768 6.02812 30.3599 6.23218C29.9518 6.43623 29.7478 6.43623 29.5437 6.02812C29.5437 5.62001 27.7072 2.35512 27.7072 2.35512Z" fill="black"/>
<path d="M13.9039 0.206665H0V27.7587H13.8186L13.9039 0.206665Z" fill="black"/>
<path d="M55.4452 0.206665H41.5413V27.7587H55.4452V0.206665Z" fill="black"/>
<path d="M79.9263 0.206665H87.6886V1.48617H81.3764V5.06878H87.2621V6.34828H81.3764V10.2721H87.6886V11.5516H79.841L79.9263 0.206665Z" fill="#231F20" fill-opacity="0.9882"/>
<path d="M89.1963 3.26915H90.4207V4.69754C91.0328 3.67727 91.8491 3.26915 93.0734 3.26915C95.318 3.26915 95.9302 4.49348 95.9302 6.32998V11.6354H94.5018V6.12593C94.5018 5.10565 93.8896 4.49349 92.8693 4.49349C91.2369 4.49349 90.4207 5.51376 90.4207 7.14621V11.8395H88.9923C89.1963 11.4314 89.1963 3.26915 89.1963 3.26915Z" fill="#231F20" fill-opacity="0.9882"/>
<path d="M101.251 11.4662H99.8013L96.8158 3.27734H98.3512L100.654 10.1014L102.872 3.27734H104.237L101.251 11.4662Z" fill="#231F20" fill-opacity="0.9882"/>
<path d="M105.516 1.82737H106.881V0.206665H105.516V1.82737ZM105.516 11.4663H106.881V3.27747H105.516V11.4663Z" fill="#231F20" fill-opacity="0.9882"/>
<path d="M108.814 3.26906H110.039V4.9015C110.651 3.67717 111.671 2.86095 113.1 3.06501V4.4934C110.855 4.4934 110.243 5.71773 110.243 7.75828V11.4313H108.814V3.26906Z" fill="#231F20" fill-opacity="0.9882"/>
<path d="M117.497 3.03282C120.149 3.03282 121.374 4.86933 121.374 7.31799C121.374 9.76665 119.945 11.6031 117.497 11.6031C114.844 11.6031 113.62 9.76665 113.62 7.31799C113.62 5.07338 114.844 3.03282 117.497 3.03282ZM117.497 10.5829C118.925 10.5829 119.945 9.5626 119.945 7.52204C119.945 5.48149 118.721 4.46121 117.497 4.46121C116.272 4.46121 115.048 5.48149 115.048 7.52204C115.048 9.35854 116.068 10.5829 117.497 10.5829Z" fill="#231F20" fill-opacity="0.9882"/>
<path d="M122.944 3.26915H124.168V4.69754C124.78 3.67727 125.596 3.26915 126.821 3.26915C129.065 3.26915 129.677 4.49348 129.677 6.32998V11.6354H128.453V6.12593C128.453 5.10565 127.841 4.49349 126.821 4.49349C125.188 4.49349 124.372 5.51376 124.372 7.14621V11.8395H122.944C122.944 11.4314 122.944 3.26915 122.944 3.26915Z" fill="#231F20" fill-opacity="0.9882"/>
<path d="M131.796 3.26906H133.02V4.4934C133.632 3.67718 134.448 3.06501 135.673 3.06501C136.693 3.06501 137.509 3.47312 137.917 4.4934C138.53 3.67718 139.346 3.06501 140.57 3.06501C142.203 3.06501 143.223 3.67718 143.223 5.51367V11.4313H141.794V6.12584C141.794 5.10556 141.59 4.28934 140.162 4.28934C138.938 4.28934 138.121 5.10556 138.121 6.32989V11.4313H136.693V6.12584C136.693 5.10556 136.285 4.28934 135.061 4.28934C133.428 4.28934 132.816 5.71773 132.816 6.32989V11.4313H131.388C131.796 11.4313 131.796 3.26906 131.796 3.26906Z" fill="#231F20" fill-opacity="0.9882"/>
<path d="M152.156 8.80472C151.748 10.6412 150.524 11.6615 148.688 11.6615C146.035 11.6615 144.81 9.825 144.81 7.37634C144.81 4.92768 146.443 3.09117 148.688 3.09117C151.544 3.09117 152.361 5.74389 152.361 7.78445H146.239C146.239 9.21283 147.055 10.4372 148.688 10.4372C149.708 10.4372 150.524 9.825 150.728 8.80472C150.728 8.80472 152.156 8.80472 152.156 8.80472ZM150.728 6.56012C150.728 5.33578 149.708 4.31551 148.279 4.31551C146.851 4.31551 146.035 5.33578 146.035 6.56012H150.728Z" fill="#231F20" fill-opacity="0.9882"/>
<path d="M153.702 3.26915H154.926V4.69754C155.538 3.67727 156.355 3.26915 157.579 3.26915C159.823 3.26915 160.436 4.49348 160.436 6.32998V11.6354H159.007V6.12593C159.007 5.10565 158.395 4.49349 157.375 4.49349C155.742 4.49349 154.926 5.51376 154.926 7.14621V11.8395H153.498C153.702 11.4314 153.702 3.26915 153.702 3.26915Z" fill="#231F20" fill-opacity="0.9882"/>
<path d="M164.219 3.2691H165.852V4.49344H164.219V9.59482C164.219 10.207 164.423 10.411 165.24 10.411H165.852V11.6354H164.832C163.403 11.6354 162.791 11.4313 162.791 9.79888V4.69749H161.363V3.47316H162.791V1.0245H164.219C164.219 0.820443 164.219 3.2691 164.219 3.2691Z" fill="#231F20" fill-opacity="0.9882"/>
<path d="M178.954 11.3843C178.75 11.5884 178.342 11.5884 177.934 11.5884C177.322 11.5884 176.71 11.1803 176.71 10.364C175.893 11.1803 174.873 11.5884 173.853 11.5884C172.424 11.5884 171.2 10.9762 171.2 9.34377C171.2 7.50727 172.629 7.09916 174.057 6.8951C175.485 6.69105 176.71 6.69105 176.71 5.67077C176.71 4.44644 175.689 4.24238 174.873 4.24238C173.649 4.24238 172.833 4.65049 172.833 5.87482H171.404C171.404 3.83427 173.037 3.22211 174.873 3.22211C176.302 3.22211 177.934 3.63022 177.934 5.46672V9.75188C177.934 10.364 177.934 10.5681 178.342 10.5681C178.546 10.5681 178.546 10.5681 178.75 10.5681C178.954 10.364 178.954 11.3843 178.954 11.3843ZM176.71 7.30321C176.097 7.71132 175.077 7.71132 174.261 7.91538C173.445 8.11943 172.629 8.32349 172.629 9.34377C172.629 10.16 173.445 10.5681 174.261 10.5681C176.097 10.5681 176.71 9.54782 176.71 8.7316V7.30321Z" fill="#231F20" fill-opacity="0.9882"/>
<path d="M180.124 3.26915H181.349V4.69754C181.961 3.67727 182.777 3.26915 184.001 3.26915C186.246 3.26915 186.858 4.49348 186.858 6.32998V11.6354H185.634V6.12593C185.634 5.10565 185.022 4.49349 184.001 4.49349C182.369 4.49349 181.553 5.51376 181.553 7.14621V11.8395H180.124C180.124 11.4314 180.124 3.26915 180.124 3.26915Z" fill="#231F20" fill-opacity="0.9882"/>
<path d="M196.284 11.427H194.856V10.4068C194.448 11.223 193.427 11.6311 192.203 11.6311C189.754 11.6311 188.53 9.59055 188.53 7.34594C188.53 5.10133 189.754 3.06078 192.203 3.06078C193.019 3.06078 194.244 3.46889 194.856 4.28511V-5.0671e-05H196.284C196.284 0.204005 196.284 11.427 196.284 11.427ZM192.407 10.4068C194.244 10.4068 194.856 8.77432 194.856 7.34594C194.856 5.71349 194.04 4.28511 192.203 4.28511C190.367 4.28511 189.754 5.91755 189.754 7.34594C189.958 8.97838 190.775 10.4068 192.407 10.4068Z" fill="#231F20" fill-opacity="0.9882"/>
<path d="M87.7115 19.8529C87.3034 18.2204 86.0791 17.4042 84.6507 17.4042C81.998 17.4042 80.7736 19.6488 80.7736 21.8934C80.7736 24.5461 81.998 26.5867 84.6507 26.5867C86.6912 26.5867 87.7115 25.1583 87.9156 23.3218H89.3439C89.1399 26.1786 87.3034 27.811 84.4466 27.811C80.9777 27.811 79.1412 25.1583 79.1412 21.8934C79.1412 18.6285 80.9777 15.9758 84.4466 15.9758C86.8953 15.9758 88.7318 17.2002 89.1399 19.6488C89.3439 19.8529 87.7115 19.8529 87.7115 19.8529Z" fill="#231F20" fill-opacity="0.9882"/>
<path d="M91.0154 27.7585H92.3802V16.4989H91.0154V27.7585Z" fill="#231F20" fill-opacity="0.9882"/>
<path d="M94.4274 18.1196H95.7922V16.4989H94.4274V18.1196ZM94.4274 27.7585H95.7922V19.5697H94.4274V27.7585Z" fill="#231F20" fill-opacity="0.9882"/>
<path d="M97.7541 19.5698H99.0336V20.764C99.6307 19.8257 100.569 19.3992 101.678 19.3992C102.702 19.3992 103.555 19.8257 103.896 20.764C104.408 19.911 105.431 19.3992 106.455 19.3992C108.075 19.3992 109.184 20.0816 109.184 21.7876V27.7586H107.82V22.3847C107.82 21.3611 107.564 20.5934 106.284 20.5934C105.005 20.5934 104.152 21.4464 104.152 22.6406V27.7586H102.787V22.3847C102.787 21.3611 102.446 20.5934 101.251 20.5934C99.6307 20.5934 99.0336 22.0435 99.0336 22.6406V27.7586H97.6688L97.7541 19.5698Z" fill="#231F20" fill-opacity="0.9882"/>
<path d="M118.397 27.6733C118.141 27.8439 117.885 27.9292 117.458 27.9292C116.776 27.9292 116.35 27.588 116.35 26.6497C115.582 27.5027 114.644 27.9292 113.449 27.9292C111.999 27.9292 110.72 27.2468 110.72 25.6261C110.72 23.7495 112.085 23.4083 113.449 23.1524C114.899 22.8965 116.179 22.9818 116.179 21.9582C116.179 20.764 115.241 20.5934 114.388 20.5934C113.279 20.5934 112.426 20.9346 112.34 22.1288H110.976C111.061 20.0816 112.596 19.3992 114.473 19.3992C115.923 19.3992 117.544 19.7404 117.544 21.617V25.7967C117.544 26.3938 117.544 26.735 117.97 26.735C118.056 26.735 118.226 26.735 118.397 26.6497V27.6733V27.6733ZM116.179 23.4936C115.667 23.8348 114.644 23.9201 113.791 24.0054C112.938 24.176 112.17 24.5172 112.17 25.4555C112.17 26.3085 112.938 26.6497 113.791 26.6497C115.582 26.6497 116.264 25.5408 116.264 24.7731L116.179 23.4936Z" fill="#231F20" fill-opacity="0.9882"/>
<path d="M121.468 19.5695H123.088V20.7637H121.468V25.7965C121.468 26.3936 121.638 26.5642 122.491 26.5642H123.088V27.7584H122.065C120.7 27.7584 120.103 27.5025 120.103 25.9671V20.7637H118.738V19.5695H120.103V17.0958H121.468V19.5695V19.5695Z" fill="#231F20" fill-opacity="0.9882"/>
<path d="M131.192 25.1143C130.851 26.9056 129.571 27.9292 127.694 27.9292C125.05 27.9292 123.856 26.1379 123.771 23.6642C123.771 21.1905 125.391 19.3992 127.609 19.3992C130.509 19.3992 131.362 22.1288 131.277 24.0907H125.135C125.05 25.5408 125.903 26.735 127.694 26.735C128.803 26.735 129.571 26.2232 129.827 25.1143H131.192V25.1143ZM129.912 22.8965C129.827 21.617 128.889 20.5934 127.524 20.5934C126.159 20.5934 125.306 21.617 125.221 22.8965H129.912Z" fill="#231F20" fill-opacity="0.9882"/>
<path d="M145.181 19.8256C144.84 18.2049 143.56 17.4372 142.025 17.4372C139.381 17.4372 138.186 19.655 138.186 21.9581C138.186 24.5171 139.295 26.6496 142.025 26.6496C143.987 26.6496 145.096 25.2848 145.266 23.4082H146.802C146.546 26.2231 144.755 27.9291 141.94 27.9291C138.442 27.9291 136.736 25.3701 136.736 22.0434C136.736 18.802 138.613 16.0724 142.11 16.0724C144.499 16.0724 146.375 17.3519 146.716 19.7403L145.181 19.8256Z" fill="#231F20" fill-opacity="0.9882"/>
<path d="M148.422 16.4989H149.787V20.8492C150.214 19.9109 151.408 19.4844 152.346 19.4844C154.479 19.4844 155.161 20.6786 155.161 22.4699V27.8438H153.796V22.2993C153.796 21.2757 153.199 20.6786 152.176 20.6786C150.555 20.6786 149.787 21.7875 149.787 23.2376V27.8438H148.422V16.4989Z" fill="#231F20" fill-opacity="0.9882"/>
<path d="M164.374 27.6733C164.118 27.8439 163.862 27.9292 163.435 27.9292C162.753 27.9292 162.326 27.588 162.326 26.6497C161.559 27.5027 160.62 27.9292 159.426 27.9292C157.976 27.9292 156.697 27.2468 156.697 25.6261C156.697 23.7495 158.061 23.4083 159.426 23.1524C160.876 22.8965 162.156 22.9818 162.156 21.9582C162.156 20.764 161.218 20.5934 160.365 20.5934C159.256 20.5934 158.403 20.9346 158.317 22.1288H156.952C157.038 20.0816 158.573 19.3992 160.45 19.3992C161.9 19.3992 163.521 19.7404 163.521 21.617V25.7967C163.521 26.3938 163.521 26.735 163.947 26.735C164.032 26.735 164.203 26.735 164.374 26.6497V27.6733ZM162.156 23.4936C161.644 23.8348 160.62 23.9201 159.767 24.0054C158.914 24.176 158.147 24.5172 158.147 25.4555C158.147 26.3085 158.914 26.6497 159.767 26.6497C161.559 26.6497 162.241 25.5408 162.241 24.7731L162.156 23.4936Z" fill="#231F20" fill-opacity="0.9882"/>
<path d="M165.653 19.5698H166.933V20.8493C167.53 19.8257 168.383 19.3992 169.577 19.3992C171.709 19.3992 172.392 20.5934 172.392 22.3847V27.7586H171.027V22.2141C171.027 21.1905 170.43 20.5934 169.406 20.5934C167.786 20.5934 167.018 21.7023 167.018 23.1524V27.7586H165.653V19.5698Z" fill="#231F20" fill-opacity="0.9882"/>
<path d="M181.348 26.9909C181.348 29.6352 180.154 31 177.595 31C176.06 31 174.268 30.4029 174.183 28.6116H175.548C175.633 29.5499 176.742 29.9764 177.68 29.9764C179.472 29.9764 180.154 28.6969 180.154 26.9056V26.3938C179.728 27.4174 178.619 27.8439 177.595 27.8439C175.207 27.8439 173.927 25.9673 173.927 23.7495C173.927 21.7876 174.866 19.3992 177.68 19.3992C178.704 19.3992 179.642 19.8257 180.069 20.764V19.5698H181.348V26.9909ZM180.069 23.4936C180.069 22.0435 179.472 20.5934 177.766 20.5934C176.06 20.5934 175.377 21.9582 175.377 23.5789C175.377 25.029 175.889 26.6497 177.68 26.6497C179.386 26.6497 180.069 25.029 180.069 23.4936Z" fill="#231F20" fill-opacity="0.9882"/>
<path d="M190.305 25.1143C189.964 26.9056 188.684 27.9292 186.808 27.9292C184.163 27.9292 182.969 26.1379 182.884 23.6642C182.884 21.1905 184.504 19.3992 186.722 19.3992C189.623 19.3992 190.476 22.1288 190.39 24.0907H184.249C184.163 25.5408 185.016 26.735 186.808 26.735C187.917 26.735 188.684 26.2232 188.94 25.1143H190.305V25.1143ZM189.025 22.8965C188.94 21.617 188.002 20.5934 186.637 20.5934C185.272 20.5934 184.419 21.617 184.334 22.8965H189.025Z" fill="#231F20" fill-opacity="0.9882"/>
<path d="M204.379 19.8256C204.038 18.2049 202.759 17.4372 201.223 17.4372C198.579 17.4372 197.385 19.655 197.385 21.9581C197.385 24.5171 198.494 26.6496 201.223 26.6496C203.185 26.6496 204.294 25.2848 204.465 23.4082H206C205.744 26.2231 203.953 27.9291 201.138 27.9291C197.641 27.9291 195.935 25.3701 195.935 22.0434C195.935 18.802 197.811 16.0724 201.309 16.0724C203.697 16.0724 205.574 17.3519 205.915 19.7403L204.379 19.8256Z" fill="#231F20" fill-opacity="0.9882"/>
<path d="M214.701 27.6733C214.445 27.8439 214.189 27.9292 213.762 27.9292C213.08 27.9292 212.654 27.588 212.654 26.6497C211.886 27.5027 210.948 27.9292 209.753 27.9292C208.303 27.9292 207.024 27.2468 207.024 25.6261C207.024 23.7495 208.389 23.4083 209.753 23.1524C211.203 22.8965 212.483 22.9818 212.483 21.9582C212.483 20.764 211.545 20.5934 210.692 20.5934C209.583 20.5934 208.73 20.9346 208.644 22.1288H207.28C207.365 20.0816 208.9 19.3992 210.777 19.3992C212.227 19.3992 213.848 19.7404 213.848 21.617V25.7967C213.848 26.3938 213.848 26.735 214.274 26.735C214.36 26.735 214.53 26.735 214.701 26.6497V27.6733ZM212.483 23.4936C211.971 23.8348 210.948 23.9201 210.095 24.0054C209.242 24.176 208.474 24.5172 208.474 25.4555C208.474 26.3085 209.242 26.6497 210.095 26.6497C211.886 26.6497 212.568 25.5408 212.568 24.7731L212.483 23.4936Z" fill="#231F20" fill-opacity="0.9882"/>
<path d="M215.98 19.5698H217.26V20.8493C217.857 19.8257 218.71 19.3992 219.904 19.3992C222.037 19.3992 222.719 20.5934 222.719 22.3847V27.7586H221.354V22.2141C221.354 21.1905 220.757 20.5934 219.734 20.5934C218.113 20.5934 217.345 21.7023 217.345 23.1524V27.7586H215.98V19.5698Z" fill="#231F20" fill-opacity="0.9882"/>
<path d="M231.846 27.6733C231.59 27.8439 231.334 27.9292 230.908 27.9292C230.225 27.9292 229.799 27.588 229.799 26.6497C229.031 27.5027 228.093 27.9292 226.899 27.9292C225.449 27.9292 224.169 27.2468 224.169 25.6261C224.169 23.7495 225.534 23.4083 226.899 23.1524C228.349 22.8965 229.628 22.9818 229.628 21.9582C229.628 20.764 228.69 20.5934 227.837 20.5934C226.728 20.5934 225.875 20.9346 225.79 22.1288H224.425C224.51 20.0816 226.046 19.3992 227.922 19.3992C229.372 19.3992 230.993 19.7404 230.993 21.617V25.7967C230.993 26.3938 230.993 26.735 231.42 26.735C231.505 26.735 231.675 26.735 231.846 26.6497V27.6733ZM229.714 23.4936C229.202 23.8348 228.178 23.9201 227.325 24.0054C226.472 24.176 225.704 24.5172 225.704 25.4555C225.704 26.3085 226.472 26.6497 227.325 26.6497C229.116 26.6497 229.799 25.5408 229.799 24.7731V23.4936H229.714Z" fill="#231F20" fill-opacity="0.9882"/>
<path d="M240.376 27.7585H239.011V26.6496C238.585 27.5879 237.561 27.9291 236.367 27.9291C233.893 27.9291 232.614 25.9672 232.614 23.6641C232.614 21.361 233.808 19.3991 236.367 19.3991C237.22 19.3991 238.414 19.7403 239.011 20.6786V16.4989H240.376V27.7585ZM236.538 26.7349C238.329 26.7349 239.011 25.1995 239.011 23.6641C239.011 22.0434 238.329 20.5933 236.452 20.5933C234.661 20.5933 233.979 22.1287 233.979 23.7494C234.064 25.2848 234.832 26.7349 236.538 26.7349Z" fill="#231F20" fill-opacity="0.9882"/>
<path d="M249.589 27.6733C249.333 27.8439 249.077 27.9292 248.65 27.9292C247.968 27.9292 247.541 27.588 247.541 26.6497C246.774 27.5027 245.835 27.9292 244.641 27.9292C243.191 27.9292 241.912 27.2468 241.912 25.6261C241.912 23.7495 243.276 23.4083 244.641 23.1524C246.091 22.8965 247.371 22.9818 247.371 21.9582C247.371 20.764 246.432 20.5934 245.579 20.5934C244.471 20.5934 243.618 20.9346 243.532 22.1288H242.253C242.338 20.0816 243.873 19.3992 245.75 19.3992C247.2 19.3992 248.821 19.7404 248.821 21.617V25.7967C248.821 26.3938 248.821 26.735 249.247 26.735C249.333 26.735 249.503 26.735 249.674 26.6497V27.6733H249.589ZM247.371 23.4936C246.859 23.8348 245.835 23.9201 244.982 24.0054C244.129 24.176 243.362 24.5172 243.362 25.4555C243.362 26.3085 244.129 26.6497 244.982 26.6497C246.774 26.6497 247.456 25.5408 247.456 24.7731L247.371 23.4936Z" fill="#231F20" fill-opacity="0.9882"/>
</svg>
