<svg width="136" height="28" viewBox="0 0 136 28" fill="none" xmlns="http://www.w3.org/2000/svg">
<path d="M13.7308 0H0V28H13.7308V0Z" fill="black"/>
<path d="M58.0192 0H44.2884V28H58.0192V0Z" fill="black"/>
<path d="M27.0577 5.78858L29.0769 1.75012L31.0961 5.65397C31.3653 6.05781 31.5 6.05781 31.9038 5.78858L33.5192 4.98089L32.4423 10.3655C32.173 11.4424 32.8461 11.7117 33.5192 11.0386L35.9423 8.48089L36.6153 9.96166C36.8846 10.3655 37.1538 10.3655 37.5577 10.2309L39.9807 9.69243L39.0384 12.7886C38.9038 13.1924 38.7692 13.5963 39.173 13.7309L40.1153 14.1347L35 18.577C34.4615 19.1155 34.5961 19.2501 34.8653 19.9232L35.4038 21.404L30.6923 20.5963C30.1538 20.4617 29.75 20.4617 29.75 20.8655L29.8846 26.2501H28.4038L28.5384 20.8655C28.5384 20.327 28.1346 20.327 27.1923 20.5963L22.75 21.404L23.2884 19.9232C23.423 19.3847 23.5577 18.9809 23.1538 18.577L17.9038 14.2694L18.8461 13.7309C19.1153 13.4617 19.1153 13.327 18.9807 12.7886L18.0384 9.55781L20.5961 10.0963C21.2692 10.2309 21.5384 10.0963 21.673 9.69243L22.3461 8.21166L24.7692 11.0386C25.173 11.577 25.8461 11.1732 25.5769 10.5001L24.3653 4.71166L26.25 5.78858C26.6538 6.05781 26.923 6.05781 27.0577 5.78858Z" fill="black"/>
<path d="M78.6154 1.0769H80.2308V5.92306H86.1539V1.0769H87.7693V12.6538H86.1539V7.26921H80.2308V12.6538H78.6154V1.0769Z" fill="black"/>
<path d="M95.577 4.44218C96.1154 4.71141 96.5193 5.11525 96.7885 5.5191C97.0578 5.92295 97.327 6.46141 97.327 6.99987C97.4616 7.40371 97.4616 8.07679 97.4616 8.88448H91.2693C91.2693 9.69218 91.5385 10.4999 91.8077 10.9037C92.2116 11.4422 92.7501 11.7114 93.5577 11.7114C94.2308 11.7114 94.9039 11.4422 95.3078 11.0383C95.577 10.7691 95.7116 10.3653 95.8462 10.096H97.1924C97.1924 10.3653 97.0578 10.7691 96.7885 11.1729C96.5193 11.5768 96.3847 11.846 96.1154 12.1153C95.7116 12.5191 95.1731 12.7883 94.5001 12.9229C94.0962 13.0576 93.827 13.0576 93.2885 13.0576C92.2116 13.0576 91.4039 12.6537 90.5962 11.846C89.9231 11.0383 89.5193 9.96141 89.5193 8.61525C89.5193 7.2691 89.9231 6.19218 90.5962 5.24987C91.8078 4.44218 92.7501 4.03833 93.827 4.03833C94.5001 4.03833 95.0385 4.17295 95.577 4.44218ZM96.1154 7.80756C96.1154 7.13448 95.9808 6.73064 95.7116 6.32679C95.3077 5.65371 94.6347 5.24987 93.827 5.24987C93.1539 5.24987 92.6154 5.5191 92.2116 5.92295C91.8077 6.32679 91.5385 6.99987 91.5385 7.80756H96.1154Z" fill="black"/>
<path d="M104.327 7.53833C104.596 7.53833 104.865 7.40371 105 7.13448C105 6.99987 105.135 6.86525 105.135 6.59602C105.135 6.05756 105 5.78833 104.596 5.5191C104.192 5.24987 103.788 5.24987 103.115 5.24987C102.308 5.24987 101.904 5.38448 101.5 5.78833C101.365 6.05756 101.231 6.32679 101.096 6.73064H99.75C99.75 5.65371 100.154 4.98064 100.827 4.57679C101.5 4.17295 102.308 4.03833 103.115 4.03833C104.058 4.03833 104.865 4.17295 105.538 4.57679C106.212 4.98064 106.481 5.5191 106.481 6.32679V11.1729C106.481 11.3076 106.481 11.4422 106.615 11.5768C106.75 11.7114 106.75 11.7114 107.019 11.7114C107.019 11.7114 107.154 11.7114 107.288 11.7114C107.423 11.7114 107.423 11.7114 107.558 11.7114V12.7883C107.288 12.7883 107.154 12.9229 107.019 12.9229C106.885 12.9229 106.75 12.9229 106.481 12.9229C105.942 12.9229 105.673 12.7883 105.404 12.3845C105.269 12.2499 105.269 11.9806 105.135 11.5768C104.865 11.9806 104.462 12.2499 103.923 12.5191C103.385 12.7883 102.846 12.9229 102.173 12.9229C101.365 12.9229 100.692 12.6537 100.288 12.2499C99.8846 11.846 99.4808 11.1729 99.4808 10.4999C99.4808 9.69218 99.75 9.15371 100.154 8.61525C100.558 8.07679 101.231 7.94218 102.038 7.80756L104.327 7.53833ZM101.365 11.4422C101.635 11.7114 102.038 11.846 102.442 11.846C102.981 11.846 103.385 11.7114 103.923 11.4422C104.596 11.0383 105 10.3653 105 9.55756V8.34602C104.865 8.48064 104.596 8.61525 104.327 8.61525C104.058 8.74987 103.788 8.74987 103.519 8.74987L102.712 8.88448C102.173 9.0191 101.769 9.0191 101.5 9.15371C101.096 9.42295 100.962 9.82679 100.962 10.3653C100.962 10.7691 101.096 11.1729 101.365 11.4422Z" fill="black"/>
<path d="M109.308 1.0769H110.788V12.6538H109.308V1.0769Z" fill="black"/>
<path d="M113.481 1.88452H114.962V4.3076H116.308V5.38452H114.962V10.9038C114.962 11.173 115.096 11.4422 115.231 11.4422C115.365 11.4422 115.5 11.5768 115.769 11.5768C115.904 11.5768 115.904 11.5768 116.038 11.5768C116.173 11.5768 116.173 11.5768 116.308 11.5768V12.6538C116.173 12.6538 116.038 12.7884 115.769 12.7884C115.5 12.7884 115.365 12.7884 115.231 12.7884C114.558 12.7884 114.154 12.6538 113.885 12.2499C113.615 11.8461 113.481 11.4422 113.481 10.9038V5.38452H112.269V4.17298H113.481V1.88452Z" fill="black"/>
<path d="M118.192 1.0769H119.673V5.3846C119.942 4.98075 120.346 4.71152 120.615 4.44229C120.885 4.17306 121.558 4.03844 122.231 4.03844C123.442 4.03844 124.25 4.44229 124.788 5.3846C125.058 5.78844 125.192 6.46152 125.192 7.26921V12.6538H123.711V7.26921C123.711 6.59614 123.577 6.19229 123.442 5.92306C123.173 5.51921 122.635 5.24998 121.961 5.24998C121.423 5.24998 120.885 5.51921 120.346 5.92306C119.808 6.32691 119.673 7.1346 119.673 8.21152V12.6538H118.192V1.0769Z" fill="black"/>
<path d="M86.6923 16.6925C87.5 17.5002 87.9039 18.3079 88.0385 19.3848H86.5577C86.4231 18.5771 86.0192 18.0387 85.4808 17.6348C84.9423 17.231 84.2692 16.9618 83.3269 16.9618C82.25 16.9618 81.3077 17.3656 80.6346 18.1733C79.9616 18.981 79.5577 20.1925 79.5577 21.8079C79.5577 23.1541 79.8269 24.231 80.5 25.1733C81.1731 25.981 82.1154 26.3848 83.3269 26.3848C84.4039 26.3848 85.3462 25.981 85.8846 25.0387C86.1539 24.6348 86.4231 23.9618 86.5577 23.1541H88.0385C87.9039 24.3656 87.5 25.4425 86.6923 26.2502C85.75 27.1925 84.5385 27.731 83.0577 27.731C81.7116 27.731 80.6346 27.3271 79.6923 26.5194C78.4808 25.4425 77.9423 23.8271 77.9423 21.5387C77.9423 19.7887 78.3462 18.4425 79.2885 17.3656C80.2308 16.1541 81.5769 15.6156 83.3269 15.6156C84.8077 15.6156 85.8846 16.0194 86.6923 16.6925Z" fill="black"/>
<path d="M94.9038 22.3462C95.1731 22.3462 95.4423 22.2115 95.5769 21.9423C95.5769 21.8077 95.7115 21.6731 95.7115 21.4039C95.7115 20.8654 95.5769 20.5962 95.1731 20.3269C94.7692 20.0577 94.3654 20.0577 93.6923 20.0577C92.8846 20.0577 92.4808 20.1923 92.0769 20.5962C91.9423 20.8654 91.8077 21.1346 91.6731 21.5385H90.3269C90.3269 20.4615 90.7308 19.7885 91.4038 19.3846C92.0769 18.9808 92.75 18.7115 93.6923 18.7115C94.6346 18.7115 95.4423 18.8462 96.1154 19.25C96.7884 19.6539 97.0577 20.1923 97.0577 21V25.8462C97.0577 25.9808 97.0577 26.1154 97.1923 26.25C97.3269 26.3846 97.3269 26.3846 97.5961 26.3846C97.5961 26.3846 97.7307 26.3846 97.8654 26.3846C98 26.3846 98 26.3846 98.1346 26.3846V27.4615C97.8654 27.4615 97.7308 27.5962 97.5961 27.5962C97.4615 27.5962 97.3269 27.5962 97.0577 27.5962C96.5192 27.5962 96.25 27.4615 95.9808 27.0577C95.8461 26.9231 95.8461 26.6539 95.7115 26.25C95.4423 26.6539 95.0384 26.9231 94.5 27.1923C93.9615 27.4615 93.4231 27.5962 92.75 27.5962C91.9423 27.5962 91.2692 27.3269 90.8654 26.9231C90.4615 26.5192 90.0577 25.8462 90.0577 25.1731C90.0577 24.3654 90.3269 23.8269 90.7308 23.2885C91.1346 22.75 91.8077 22.6154 92.6154 22.4808L94.9038 22.3462ZM91.9423 26.25C92.2115 26.5192 92.6154 26.6539 93.0192 26.6539C93.5577 26.6539 93.9615 26.5192 94.5 26.25C95.3077 25.8462 95.7115 25.1731 95.7115 24.3654V23.2885C95.5769 23.4231 95.3077 23.5577 95.0384 23.5577C94.7692 23.6923 94.5 23.6923 94.2308 23.6923L93.4231 23.8269C92.8846 23.9615 92.4808 23.9615 92.2115 24.0962C91.6731 24.2308 91.5384 24.6346 91.5384 25.1731C91.5384 25.5769 91.6731 25.9808 91.9423 26.25Z" fill="black"/>
<path d="M99.75 18.9806H101.096V20.1921C101.5 19.6536 101.904 19.3844 102.308 19.1152C102.712 18.8459 103.25 18.8459 103.788 18.8459C105 18.8459 105.808 19.2498 106.212 20.0575C106.481 20.4613 106.615 21.1344 106.615 22.0767V27.4613H105.135V22.0767C105.135 21.5383 105 21.1344 104.865 20.8652C104.596 20.3267 104.192 20.0575 103.519 20.0575C103.25 20.0575 102.846 20.0575 102.712 20.1921C102.308 20.3267 102.038 20.5959 101.635 20.8652C101.365 21.1344 101.231 21.4036 101.231 21.6729C101.231 21.9421 101.096 22.3459 101.096 22.8844V27.3267H99.6154L99.75 18.9806Z" fill="black"/>
<path d="M113.75 22.3462C114.019 22.3462 114.288 22.2115 114.423 21.9423C114.423 21.8077 114.558 21.6731 114.558 21.4039C114.558 20.8654 114.423 20.5962 114.019 20.3269C113.615 20.0577 113.212 20.0577 112.538 20.0577C111.731 20.0577 111.327 20.1923 110.923 20.5962C110.788 20.8654 110.654 21.1346 110.519 21.5385H109.173C109.173 20.4615 109.577 19.7885 110.25 19.3846C110.923 18.9808 111.596 18.7115 112.538 18.7115C113.481 18.7115 114.288 18.8462 114.962 19.25C115.635 19.6539 115.904 20.1923 115.904 21V25.8462C115.904 25.9808 115.904 26.1154 116.038 26.25C116.173 26.3846 116.173 26.3846 116.442 26.3846C116.442 26.3846 116.577 26.3846 116.712 26.3846C116.846 26.3846 116.846 26.3846 116.981 26.3846V27.4615C116.712 27.4615 116.577 27.5962 116.442 27.5962C116.308 27.5962 116.173 27.5962 115.904 27.5962C115.365 27.5962 115.096 27.4615 114.827 27.0577C114.692 26.9231 114.692 26.6539 114.558 26.25C114.288 26.6539 113.885 26.9231 113.346 27.1923C112.808 27.4615 112.269 27.5962 111.596 27.5962C110.788 27.5962 110.115 27.3269 109.712 26.9231C109.308 26.5192 108.904 25.8462 108.904 25.1731C108.904 24.3654 109.173 23.8269 109.577 23.2885C109.981 22.75 110.654 22.6154 111.462 22.4808L113.75 22.3462ZM110.788 26.25C111.058 26.5192 111.462 26.6539 111.865 26.6539C112.404 26.6539 112.808 26.5192 113.346 26.25C114.154 25.8462 114.558 25.1731 114.558 24.3654V23.2885C114.423 23.4231 114.154 23.5577 113.885 23.5577C113.615 23.6923 113.346 23.6923 113.077 23.6923L112.269 23.8269C111.731 23.9615 111.327 23.9615 111.058 24.0962C110.654 24.3654 110.385 24.7692 110.385 25.3077C110.25 25.5769 110.519 25.9808 110.788 26.25Z" fill="black"/>
<path d="M123.308 19.25C123.577 19.3846 123.846 19.6538 124.115 20.0577V15.75H125.462V27.3269H124.25V26.1154C123.981 26.6538 123.577 27.0577 123.038 27.1923C122.635 27.4615 122.096 27.5962 121.558 27.5962C120.615 27.5962 119.808 27.1923 119.135 26.3846C118.462 25.5769 118.058 24.5 118.058 23.2885C118.058 22.0769 118.327 21 119 20.0577C119.673 19.1154 120.481 18.7115 121.692 18.7115C122.231 18.8462 122.769 18.9808 123.308 19.25ZM120.077 25.5769C120.481 26.25 121.019 26.5192 121.962 26.5192C122.635 26.5192 123.173 26.25 123.577 25.7115C123.981 25.1731 124.25 24.3654 124.25 23.2885C124.25 22.2115 123.981 21.4038 123.577 20.8654C123.173 20.3269 122.635 20.0577 121.962 20.0577C121.288 20.0577 120.615 20.3269 120.212 20.8654C119.808 21.4038 119.538 22.2115 119.538 23.2885C119.538 24.2308 119.673 25.0385 120.077 25.5769Z" fill="black"/>
<path d="M132.596 22.3462C132.865 22.3462 133.135 22.2115 133.269 21.9423C133.269 21.8077 133.404 21.6731 133.404 21.4039C133.404 20.8654 133.269 20.5962 132.865 20.3269C132.462 20.0577 132.058 20.0577 131.385 20.0577C130.577 20.0577 130.173 20.1923 129.769 20.5962C129.635 20.8654 129.5 21.1346 129.365 21.5385H128.019C128.019 20.4615 128.423 19.7885 129.096 19.3846C129.769 18.9808 130.442 18.7115 131.385 18.7115C132.327 18.7115 133.135 18.8462 133.808 19.25C134.481 19.6539 134.75 20.1923 134.75 21V25.8462C134.75 25.9808 134.75 26.1154 134.885 26.25C135.019 26.3846 135.019 26.3846 135.288 26.3846C135.288 26.3846 135.423 26.3846 135.558 26.3846C135.692 26.3846 135.692 26.3846 135.827 26.3846V27.4615C135.558 27.4615 135.423 27.5962 135.288 27.5962C135.154 27.5962 135.019 27.5962 134.75 27.5962C134.212 27.5962 133.942 27.4615 133.673 27.0577C133.538 26.9231 133.538 26.6539 133.404 26.25C133.135 26.6539 132.731 26.9231 132.192 27.1923C131.654 27.4615 131.115 27.5962 130.442 27.5962C129.635 27.5962 128.962 27.3269 128.558 26.9231C128.154 26.5192 127.75 25.8462 127.75 25.1731C127.75 24.3654 128.019 23.8269 128.423 23.2885C128.827 22.75 129.5 22.6154 130.308 22.4808L132.596 22.3462ZM129.5 26.25C129.769 26.5192 130.173 26.6539 130.577 26.6539C131.115 26.6539 131.519 26.5192 132.058 26.25C132.865 25.8462 133.269 25.1731 133.269 24.3654V23.2885C133.135 23.4231 132.865 23.5577 132.596 23.5577C132.327 23.6923 132.058 23.6923 131.788 23.6923L130.981 23.8269C130.442 23.9615 130.038 23.9615 129.769 24.0962C129.365 24.3654 129.096 24.7692 129.096 25.3077C129.096 25.5769 129.231 25.9808 129.5 26.25Z" fill="black"/>
</svg>
