<svg width="296" height="31" viewBox="0 0 296 31" fill="none" xmlns="http://www.w3.org/2000/svg">
<path d="M12.6485 0.918823H0V26.7119H12.6485V0.918823Z" fill="black"/>
<path d="M53.4461 0.918823H40.7976V26.7119H53.4461V0.918823Z" fill="black"/>
<path d="M24.925 6.25104L26.785 2.53088L28.6451 6.12703C28.8931 6.49904 29.0171 6.49905 29.3891 6.25104L30.8772 5.507L29.8852 10.4672C29.6371 11.4592 30.2572 11.7073 30.8772 11.0872L33.1093 8.73114L33.7293 10.0952C33.9773 10.4672 34.2253 10.4672 34.5973 10.3432L36.8294 9.84718L35.9614 12.6993C35.8374 13.0713 35.7134 13.4433 36.0854 13.5673L36.9534 13.9393L32.2413 18.0315C31.7452 18.5275 31.8692 18.6515 32.1172 19.2716L32.6133 20.6356L28.2731 19.8916C27.7771 19.7676 27.4051 19.7676 27.4051 20.1396L27.5291 25.0998H26.165L26.289 20.1396C26.289 19.6436 25.917 19.6436 25.049 19.8916L20.9568 20.6356L21.4528 19.2716C21.5768 18.7755 21.7008 18.4035 21.3288 18.0315L16.4926 14.0634L17.3606 13.5673C17.6087 13.3193 17.6087 13.1953 17.4847 12.6993L16.6166 9.72318L18.9727 10.2192C19.5927 10.3432 19.8408 10.2192 19.9648 9.84718L20.5848 8.48313L22.8169 11.0872C23.1889 11.5833 23.8089 11.2112 23.5609 10.5912L22.4449 5.25899L24.1809 6.25104C24.5529 6.49905 24.801 6.49905 24.925 6.25104Z" fill="black"/>
<path d="M74.031 3.39905H75.5191V14.0635H74.031V3.39905Z" fill="black"/>
<path d="M78.1232 6.3751H79.3632V7.49115C79.7352 6.99513 80.1073 6.74712 80.4793 6.49911C80.8513 6.2511 81.3473 6.2511 81.8433 6.2511C82.9594 6.2511 83.7034 6.62311 84.0754 7.36714C84.3234 7.73916 84.4474 8.35918 84.4474 9.10321V14.0634H83.0834V9.10321C83.0834 8.7312 83.0834 8.35918 82.8354 8.11117C82.5874 7.61515 82.2153 7.36714 81.5953 7.36714C81.3473 7.36714 80.9753 7.36714 80.8513 7.49115C80.4793 7.61515 80.2313 7.86316 79.8592 8.11117C79.6112 8.35918 79.4872 8.60719 79.4872 8.8552C79.4872 9.10321 79.3632 9.59923 79.3632 10.0953V14.1874H78.1232V6.3751Z" fill="black"/>
<path d="M86.8035 6.3751H88.0435V7.49115C88.4155 6.99513 88.7875 6.74712 89.1596 6.49911C89.5316 6.2511 90.0276 6.2511 90.5236 6.2511C91.6397 6.2511 92.3837 6.62311 92.7557 7.36714C93.0037 7.73916 93.1277 8.35918 93.1277 9.10321V14.0634H91.7637V9.10321C91.7637 8.60719 91.6397 8.23518 91.5157 7.98717C91.2677 7.49115 90.8956 7.24314 90.2756 7.24314C90.0276 7.24314 89.6556 7.24314 89.5316 7.36714C89.1596 7.49115 88.9116 7.73916 88.5395 7.98717C88.2915 8.23518 88.1675 8.48319 88.1675 8.7312C88.1675 8.97921 88.0435 9.59923 88.0435 10.0953V14.1874H86.8035V6.3751Z" fill="black"/>
<path d="M101.064 7.11924C101.808 7.73926 102.056 8.7313 102.056 10.0954C102.056 11.3354 101.808 12.3274 101.188 13.1955C100.568 14.0635 99.7 14.4355 98.336 14.4355C97.2199 14.4355 96.4759 14.0635 95.8559 13.3195C95.2358 12.5755 94.8638 11.5834 94.8638 10.3434C94.8638 8.97931 95.2358 7.98727 95.8559 7.24324C96.4759 6.49921 97.3439 6.1272 98.46 6.1272C99.576 6.1272 100.32 6.49921 101.064 7.11924ZM100.196 12.3274C100.568 11.7074 100.692 10.9634 100.692 10.0954C100.692 9.35133 100.568 8.7313 100.32 8.35929C99.948 7.61526 99.328 7.24324 98.46 7.24324C97.7159 7.24324 97.0959 7.49125 96.7239 8.11128C96.3519 8.7313 96.2279 9.47533 96.2279 10.3434C96.2279 11.2114 96.3519 11.8314 96.7239 12.4515C97.0959 12.9475 97.7159 13.3195 98.46 13.3195C99.328 13.3195 99.948 12.9475 100.196 12.3274Z" fill="black"/>
<path d="M104.66 6.37512L106.768 12.6994L108.876 6.37512H110.364L107.388 14.1874H106.024L103.172 6.37512H104.66V6.37512Z" fill="black"/>
<path d="M116.069 9.47533C116.317 9.47533 116.565 9.35133 116.689 9.10332C116.689 8.97931 116.813 8.85531 116.813 8.6073C116.813 8.11128 116.689 7.86327 116.317 7.61526C115.945 7.36725 115.573 7.36725 114.953 7.36725C114.209 7.36725 113.837 7.49125 113.465 7.86327C113.341 8.11128 113.217 8.35929 113.093 8.7313H111.852C111.852 7.73926 112.224 7.11924 112.845 6.74722C113.465 6.37521 114.085 6.1272 114.953 6.1272C115.821 6.1272 116.565 6.2512 117.185 6.62322C117.805 6.99523 118.053 7.61526 118.053 8.35929V12.8235C118.053 12.9475 118.053 13.0715 118.177 13.1955C118.301 13.3195 118.301 13.3195 118.549 13.3195C118.549 13.3195 118.673 13.3195 118.797 13.3195C118.921 13.3195 118.921 13.3195 119.045 13.3195V14.3115C118.797 14.3115 118.673 14.4355 118.549 14.4355C118.425 14.4355 118.301 14.4355 118.053 14.4355C117.557 14.4355 117.309 14.3115 117.061 13.9395C116.937 13.8155 116.937 13.5675 116.813 13.1955C116.565 13.5675 116.193 13.8155 115.697 14.0635C115.201 14.3115 114.705 14.4355 114.085 14.4355C113.341 14.4355 112.721 14.1875 112.349 13.8155C111.728 13.3195 111.48 12.6995 111.48 12.0794C111.48 11.3354 111.728 10.8394 112.1 10.3434C112.597 9.97135 113.093 9.72334 113.837 9.59934L116.069 9.47533ZM113.341 12.9475C113.589 13.1955 113.961 13.3195 114.333 13.3195C114.829 13.3195 115.201 13.1955 115.697 12.9475C116.441 12.5755 116.813 11.9554 116.813 11.2114V10.2194C116.689 10.3434 116.441 10.4674 116.193 10.4674C115.945 10.5914 115.697 10.5914 115.449 10.5914L114.705 10.7154C114.085 10.7154 113.713 10.8394 113.465 10.9634C113.093 11.2114 112.845 11.5834 112.845 12.0794C112.845 12.4515 113.093 12.6995 113.341 12.9475Z" fill="black"/>
<path d="M120.781 4.14307H122.145V6.37516H123.385V7.4912H122.145V12.5754C122.145 12.8234 122.269 13.0714 122.393 13.0714C122.517 13.0714 122.641 13.1954 122.889 13.1954C123.013 13.1954 123.013 13.1954 123.137 13.1954C123.261 13.1954 123.261 13.1954 123.385 13.1954V14.1875C123.261 14.1875 123.137 14.3115 122.889 14.3115C122.641 14.3115 122.517 14.3115 122.393 14.3115C121.773 14.3115 121.401 14.1875 121.153 13.8155C120.905 13.4434 120.781 13.0714 120.781 12.5754V7.3672H119.665V6.37516H120.781V4.14307Z" fill="black"/>
<path d="M125.121 3.39905H126.485V4.88711H125.121V3.39905ZM125.121 6.37517H126.485V14.0635H125.121V6.37517Z" fill="black"/>
<path d="M134.421 7.11924C135.165 7.73926 135.413 8.7313 135.413 10.0954C135.413 11.3354 135.165 12.3274 134.545 13.1955C133.925 14.0635 133.057 14.4355 131.693 14.4355C130.577 14.4355 129.833 14.0635 129.213 13.3195C128.593 12.5755 128.221 11.5834 128.221 10.3434C128.221 8.97931 128.593 7.98727 129.213 7.24324C129.833 6.49921 130.701 6.1272 131.817 6.1272C132.933 6.1272 133.677 6.49921 134.421 7.11924ZM133.553 12.3274C133.925 11.7074 134.049 10.9634 134.049 10.0954C134.049 9.35133 133.925 8.7313 133.677 8.35929C133.305 7.61526 132.685 7.24324 131.817 7.24324C131.073 7.24324 130.453 7.49125 130.081 8.11128C129.709 8.7313 129.585 9.47533 129.585 10.3434C129.585 11.2114 129.709 11.8314 130.081 12.4515C130.453 12.9475 130.949 13.3195 131.817 13.3195C132.685 13.3195 133.305 12.9475 133.553 12.3274Z" fill="black"/>
<path d="M137.398 6.3751H138.638V7.49115C139.01 6.99513 139.382 6.74712 139.754 6.49911C140.126 6.2511 140.622 6.2511 141.118 6.2511C142.234 6.2511 142.978 6.62311 143.35 7.36714C143.598 7.73916 143.722 8.35918 143.722 9.22722V14.1874H142.358V9.22722C142.358 8.7312 142.234 8.35918 142.11 8.11117C141.862 7.61515 141.49 7.36714 140.87 7.36714C140.622 7.36714 140.25 7.36714 140.126 7.49115C139.754 7.61515 139.506 7.86316 139.134 8.11117C139.01 8.35918 138.886 8.60719 138.886 8.8552C138.886 9.10321 138.762 9.47523 138.762 9.97125V14.0634H137.398V6.3751Z" fill="black"/>
<path d="M146.326 15.6756C146.698 15.6756 146.946 15.4276 147.07 14.9315C147.194 14.6835 147.194 14.5595 147.194 14.3115V14.1875C147.194 14.1875 147.194 14.1875 147.194 14.0635H146.326V12.5754H147.938V14.0635C147.938 14.6835 147.814 15.1795 147.566 15.5516C147.318 15.9236 146.946 16.2956 146.326 16.2956V15.6756Z" fill="black"/>
<path d="M156.246 10.7153C156.246 11.3354 156.37 11.8314 156.618 12.2034C157.114 12.9474 157.858 13.3194 159.098 13.3194C159.594 13.3194 160.091 13.1954 160.587 13.0714C161.455 12.8234 161.827 12.2034 161.827 11.4594C161.827 10.8393 161.703 10.4673 161.331 10.2193C160.959 9.9713 160.463 9.72329 159.594 9.59928L158.23 9.22727C157.362 8.97926 156.618 8.73125 156.246 8.48324C155.626 7.98722 155.254 7.36719 155.254 6.49916C155.254 5.50711 155.626 4.76308 156.246 4.14306C156.866 3.52303 157.858 3.27502 158.974 3.27502C160.091 3.27502 160.959 3.52303 161.703 4.14306C162.447 4.76308 162.819 5.50711 162.819 6.74716H161.455C161.331 6.12714 161.207 5.75512 160.959 5.38311C160.587 4.88709 159.843 4.51507 158.85 4.51507C157.982 4.51507 157.486 4.63908 157.114 5.01109C156.742 5.38311 156.618 5.75513 156.618 6.25115C156.618 6.74717 156.866 7.11918 157.238 7.36719C157.486 7.4912 158.106 7.73921 159.098 7.98722L160.587 8.35923C161.331 8.48324 161.827 8.73125 162.199 8.97926C162.819 9.47528 163.191 10.2193 163.191 11.2113C163.191 12.4514 162.819 13.1954 161.951 13.6914C161.083 14.1875 160.091 14.4355 158.974 14.4355C157.734 14.4355 156.618 14.0635 155.874 13.4434C155.13 12.8234 154.758 11.8314 154.758 10.7153H156.246Z" fill="black"/>
<path d="M170.631 6.74722C171.127 7.11924 171.499 7.86327 171.623 8.97931H170.383C170.259 8.48329 170.135 8.11128 169.887 7.73926C169.639 7.36725 169.143 7.24324 168.523 7.24324C167.655 7.24324 167.035 7.61526 166.787 8.48329C166.539 8.97931 166.415 9.59934 166.415 10.4674C166.415 11.2114 166.539 11.9554 166.911 12.4515C167.283 12.9475 167.779 13.1955 168.523 13.1955C169.019 13.1955 169.515 13.0715 169.763 12.6995C170.011 12.3274 170.259 11.9554 170.383 11.3354H171.623C171.499 12.3274 171.127 13.0715 170.507 13.5675C169.887 14.0635 169.143 14.3115 168.275 14.3115C167.283 14.3115 166.415 13.9395 165.795 13.1955C165.175 12.4515 164.927 11.5834 164.927 10.4674C164.927 9.10332 165.299 7.98727 165.919 7.24324C166.539 6.49921 167.407 6.1272 168.399 6.1272C169.391 6.1272 170.011 6.37521 170.631 6.74722Z" fill="black"/>
<path d="M173.235 3.39905H174.599V4.88711H173.235V3.39905ZM173.235 6.37517H174.599V14.0635H173.235V6.37517Z" fill="black"/>
<path d="M181.791 6.49921C182.287 6.74722 182.659 7.11924 182.907 7.49125C183.155 7.86327 183.403 8.35929 183.403 8.85531C183.527 9.22732 183.527 9.84735 183.527 10.5914H177.823C177.823 11.3354 178.071 11.9554 178.319 12.4515C178.567 12.9475 179.187 13.1955 179.931 13.1955C180.551 13.1955 181.171 12.9475 181.543 12.5755C181.791 12.3274 181.915 11.9554 182.039 11.7074H183.279C183.279 11.9554 183.155 12.3274 182.907 12.6995C182.659 13.0715 182.535 13.3195 182.287 13.5675C181.915 13.9395 181.419 14.1875 180.799 14.3115C180.427 14.4355 180.179 14.4355 179.683 14.4355C178.691 14.4355 177.947 14.0635 177.203 13.3195C176.583 12.5755 176.211 11.5834 176.211 10.3434C176.211 9.10332 176.583 8.11128 177.203 7.24324C177.823 6.49921 178.815 6.1272 179.807 6.1272C180.675 6.1272 181.295 6.2512 181.791 6.49921ZM182.287 9.59934C182.287 8.97931 182.163 8.6073 181.915 8.23528C181.543 7.61526 180.923 7.24324 180.179 7.24324C179.559 7.24324 179.063 7.49125 178.691 7.86327C178.319 8.23528 178.071 8.85531 178.071 9.47533L182.287 9.59934Z" fill="black"/>
<path d="M185.636 6.3751H186.876V7.49115C187.248 6.99513 187.62 6.74712 187.992 6.49911C188.364 6.2511 188.86 6.2511 189.356 6.2511C190.472 6.2511 191.216 6.62311 191.588 7.36714C191.836 7.73916 191.96 8.35918 191.96 9.22722V14.1874H190.596V9.22722C190.596 8.7312 190.472 8.35918 190.348 8.11117C190.1 7.61515 189.728 7.36714 189.108 7.36714C188.86 7.36714 188.488 7.36714 188.364 7.49115C187.992 7.61515 187.744 7.86316 187.372 8.11117C187.124 8.35918 187 8.60719 187 8.8552C187 9.10321 186.876 9.47523 186.876 9.97125V14.0634H185.512L185.636 6.3751Z" fill="black"/>
<path d="M199.4 6.74722C199.896 7.11924 200.268 7.86327 200.392 8.97931H199.152C199.028 8.48329 198.904 8.11128 198.656 7.73926C198.408 7.36725 197.912 7.24324 197.292 7.24324C196.424 7.24324 195.804 7.61526 195.556 8.48329C195.308 8.97931 195.184 9.59934 195.184 10.4674C195.184 11.2114 195.308 11.9554 195.68 12.4515C196.052 12.9475 196.548 13.1955 197.292 13.1955C197.788 13.1955 198.284 13.0715 198.532 12.6995C198.78 12.3274 199.028 11.9554 199.152 11.3354H200.392C200.268 12.3274 199.896 13.0715 199.276 13.5675C198.656 14.0635 197.912 14.3115 197.044 14.3115C196.052 14.3115 195.184 13.9395 194.564 13.1955C193.944 12.4515 193.696 11.5834 193.696 10.4674C193.696 9.10332 194.068 7.98727 194.688 7.24324C195.308 6.49921 196.176 6.1272 197.168 6.1272C198.16 6.1272 198.904 6.37521 199.4 6.74722Z" fill="black"/>
<path d="M206.964 6.49921C207.46 6.74722 207.832 7.11924 208.08 7.49125C208.328 7.86327 208.576 8.35929 208.576 8.85531C208.7 9.22732 208.7 9.84735 208.7 10.5914H202.996C202.996 11.3354 203.244 11.9554 203.492 12.4515C203.74 12.9475 204.36 13.1955 205.104 13.1955C205.724 13.1955 206.344 12.9475 206.716 12.5755C206.964 12.3274 207.088 11.9554 207.212 11.7074H208.452C208.452 11.9554 208.328 12.3274 208.08 12.6995C207.832 13.0715 207.708 13.3195 207.46 13.5675C207.088 13.9395 206.592 14.1875 205.972 14.3115C205.6 14.4355 205.352 14.4355 204.856 14.4355C203.864 14.4355 203.12 14.0635 202.376 13.3195C201.632 12.5755 201.384 11.5834 201.384 10.3434C201.384 9.10332 201.756 8.11128 202.376 7.24324C202.996 6.37521 203.988 6.1272 204.98 6.1272C205.848 6.1272 206.468 6.2512 206.964 6.49921ZM207.46 9.59934C207.46 8.97931 207.336 8.6073 207.088 8.23528C206.716 7.61526 206.096 7.24324 205.352 7.24324C204.732 7.24324 204.236 7.49125 203.864 7.86327C203.368 8.35929 203.12 8.97931 203.12 9.59934H207.46Z" fill="black"/>
<path d="M219.489 9.47533C219.737 9.47533 219.985 9.35133 220.109 9.10332C220.109 8.97931 220.233 8.85531 220.233 8.6073C220.233 8.11128 220.109 7.86327 219.737 7.61526C219.365 7.36725 218.993 7.36725 218.373 7.36725C217.753 7.36725 217.257 7.49125 216.885 7.86327C216.761 8.11128 216.637 8.35929 216.513 8.7313H215.273C215.273 7.73926 215.645 7.11924 216.265 6.74722C216.885 6.37521 217.505 6.1272 218.373 6.1272C219.241 6.1272 219.985 6.2512 220.605 6.62322C221.225 6.99523 221.473 7.49125 221.473 8.23528V12.6995C221.473 12.8235 221.473 12.9475 221.597 13.0715C221.721 13.1955 221.721 13.1955 221.969 13.1955C221.969 13.1955 222.093 13.1955 222.217 13.1955C222.341 13.1955 222.341 13.1955 222.465 13.1955V14.1875C222.217 14.1875 222.093 14.3115 221.969 14.3115C221.845 14.3115 221.721 14.3115 221.473 14.3115C220.977 14.3115 220.729 14.1875 220.481 13.8155C220.357 13.6915 220.357 13.4435 220.233 13.0715C219.985 13.4435 219.613 13.6915 219.117 13.9395C218.621 14.1875 218.125 14.3115 217.505 14.3115C216.761 14.3115 216.141 14.0635 215.769 13.6915C215.273 13.1955 215.025 12.6995 215.025 12.0794C215.025 11.3354 215.273 10.8394 215.645 10.3434C216.141 9.97135 216.637 9.72334 217.381 9.59934L219.489 9.47533ZM216.761 12.9475C217.009 13.1955 217.381 13.3195 217.753 13.3195C218.249 13.3195 218.621 13.1955 219.117 12.9475C219.861 12.5755 220.233 11.9554 220.233 11.2114V10.2194C220.109 10.3434 219.861 10.4674 219.613 10.4674C219.365 10.4674 219.117 10.5914 218.869 10.5914L218.125 10.7154C217.629 10.8394 217.257 10.8394 217.009 10.9634C216.637 11.2114 216.389 11.5834 216.389 12.0794C216.265 12.4515 216.513 12.6995 216.761 12.9475Z" fill="black"/>
<path d="M223.953 6.3751H225.193V7.49115C225.565 6.99513 225.937 6.74712 226.309 6.49911C226.681 6.2511 227.177 6.2511 227.673 6.2511C228.789 6.2511 229.533 6.62311 229.905 7.36714C230.153 7.73916 230.277 8.35918 230.277 9.22722V14.1874H228.913V9.22722C228.913 8.7312 228.789 8.35918 228.665 8.11117C228.417 7.61515 228.045 7.36714 227.425 7.36714C227.177 7.36714 226.805 7.36714 226.681 7.49115C226.309 7.61515 226.061 7.86316 225.689 8.11117C225.441 8.35918 225.317 8.60719 225.317 8.8552C225.317 9.10321 225.193 9.47523 225.193 9.97125V14.0634H223.829L223.953 6.3751Z" fill="black"/>
<path d="M236.85 6.62318C237.098 6.74718 237.346 6.99519 237.594 7.36721V3.39905H238.834V14.0635H237.718V13.0714C237.47 13.5675 237.098 13.9395 236.602 14.0635C236.106 14.1875 235.734 14.4355 235.238 14.4355C234.369 14.4355 233.625 14.0635 233.005 13.3195C232.385 12.5754 232.013 11.5834 232.013 10.4673C232.013 9.35129 232.261 8.35925 232.881 7.49121C233.501 6.62318 234.245 6.25116 235.362 6.25116C235.982 6.25116 236.478 6.37517 236.85 6.62318ZM233.997 12.4514C234.369 13.0714 234.866 13.3195 235.734 13.3195C236.354 13.3195 236.85 13.0714 237.222 12.5754C237.594 12.0794 237.842 11.3354 237.842 10.3433C237.842 9.35129 237.594 8.60726 237.222 8.11124C236.85 7.61522 236.354 7.36721 235.734 7.36721C235.114 7.36721 234.493 7.61522 234.121 8.11124C233.749 8.60726 233.501 9.35129 233.501 10.3433C233.501 11.2114 233.625 11.8314 233.997 12.4514Z" fill="black"/>
<path d="M73.907 17.0396H81.5953V18.4036H75.271V21.6277H81.0993V22.8678H75.271V26.4639H81.7193V27.704H73.907V17.0396Z" fill="black"/>
<path d="M89.0356 20.3878C89.5316 20.7599 89.9036 21.5039 90.0276 22.6199H88.7876C88.6636 22.1239 88.5396 21.7519 88.2916 21.3799C88.0436 21.0079 87.5475 20.8839 86.9275 20.8839C86.0595 20.8839 85.4394 21.2559 85.1914 22.1239C84.9434 22.6199 84.8194 23.364 84.8194 24.108C84.8194 24.852 84.9434 25.5961 85.3154 26.0921C85.6875 26.5881 86.1835 26.8361 86.9275 26.8361C87.4235 26.8361 87.9195 26.7121 88.1676 26.3401C88.4156 25.9681 88.6636 25.5961 88.7876 24.976H90.0276C89.9036 25.9681 89.5316 26.7121 88.9116 27.2081C88.2916 27.7041 87.5475 27.9522 86.6795 27.9522C85.6875 27.9522 84.8194 27.5801 84.1994 26.8361C83.5794 26.0921 83.3314 25.224 83.3314 24.108C83.3314 22.7439 83.7034 21.6279 84.3234 20.8839C84.9434 20.1398 85.8115 19.7678 86.8035 19.7678C87.7955 19.7678 88.4156 20.0158 89.0356 20.3878Z" fill="black"/>
<path d="M97.3439 20.7599C98.088 21.3799 98.336 22.3719 98.336 23.736C98.336 24.976 98.088 25.9681 97.4679 26.8361C96.8479 27.7041 95.9799 28.0762 94.6158 28.0762C93.4998 28.0762 92.7557 27.7041 92.1357 26.9601C91.5157 26.2161 91.1437 25.224 91.1437 23.984C91.1437 22.6199 91.5157 21.6279 92.1357 20.8839C92.7557 20.1398 93.6238 19.7678 94.7398 19.7678C95.8559 19.7678 96.5999 20.1398 97.3439 20.7599ZM96.4759 25.9681C96.8479 25.348 96.9719 24.604 96.9719 23.736C96.9719 22.992 96.8479 22.3719 96.5999 21.9999C96.2279 21.2559 95.6079 20.8839 94.7398 20.8839C93.9958 20.8839 93.3758 21.1319 93.0038 21.7519C92.6317 22.3719 92.5077 23.116 92.5077 23.984C92.5077 24.852 92.6317 25.4721 93.0038 26.0921C93.3758 26.5881 93.8718 26.9601 94.7398 26.9601C95.6079 26.9601 96.2279 26.5881 96.4759 25.9681Z" fill="black"/>
<path d="M100.32 20.0157H101.56V21.1318C101.932 20.6358 102.304 20.3877 102.676 20.1397C103.048 19.8917 103.544 19.8917 104.04 19.8917C105.156 19.8917 105.9 20.2637 106.272 21.0078C106.644 21.3798 106.644 21.9998 106.644 22.7438V27.704H105.404V22.7438C105.404 22.2478 105.28 21.8758 105.156 21.6278C104.908 21.1318 104.536 20.8838 103.916 20.8838C103.668 20.8838 103.296 20.8838 103.172 21.0078C102.8 21.1318 102.552 21.3798 102.18 21.6278C101.932 21.8758 101.808 22.1238 101.808 22.3718C101.808 22.6198 101.684 23.2399 101.684 23.7359V27.828H100.32V20.0157Z" fill="black"/>
<path d="M114.705 20.7599C115.449 21.3799 115.697 22.3719 115.697 23.736C115.697 24.976 115.449 25.9681 114.829 26.8361C114.209 27.7041 113.341 28.0762 111.977 28.0762C110.86 28.0762 110.116 27.7041 109.496 26.9601C108.876 26.2161 108.504 25.224 108.504 23.984C108.504 22.6199 108.876 21.6279 109.496 20.8839C110.116 20.1398 110.984 19.7678 112.101 19.7678C113.093 19.7678 113.961 20.1398 114.705 20.7599ZM113.837 25.9681C114.209 25.348 114.333 24.604 114.333 23.736C114.333 22.992 114.209 22.3719 113.961 21.9999C113.589 21.2559 112.969 20.8839 112.101 20.8839C111.357 20.8839 110.736 21.1319 110.364 21.7519C109.992 22.3719 109.868 23.116 109.868 23.984C109.868 24.852 109.992 25.4721 110.364 26.0921C110.736 26.5881 111.233 26.9601 112.101 26.9601C112.969 26.9601 113.589 26.5881 113.837 25.9681Z" fill="black"/>
<path d="M117.681 20.0158H118.921V21.1319C119.169 20.7599 119.541 20.5119 119.789 20.2638C120.161 20.0158 120.657 19.7678 121.277 19.7678C121.897 19.7678 122.393 19.8918 122.765 20.2638C123.013 20.3878 123.137 20.6359 123.385 21.0079C123.633 20.6359 124.005 20.2638 124.377 20.1398C124.749 20.0158 125.245 19.8918 125.741 19.8918C126.733 19.8918 127.477 20.2638 127.849 21.0079C128.097 21.3799 128.097 21.9999 128.097 22.6199V27.8281H126.733V22.3719C126.733 21.8759 126.609 21.5039 126.361 21.2559C126.113 21.0079 125.741 21.0079 125.369 21.0079C124.873 21.0079 124.377 21.1319 124.005 21.5039C123.633 21.8759 123.509 22.3719 123.509 23.24V27.7041H122.145V22.6199C122.145 22.1239 122.021 21.7519 121.897 21.5039C121.649 21.1319 121.277 21.0079 120.781 21.0079C120.285 21.0079 119.789 21.2559 119.417 21.6279C119.045 21.9999 119.045 22.6199 119.045 23.612V27.7041H117.681V20.0158Z" fill="black"/>
<path d="M130.453 17.0396H131.817V18.5276H130.453V17.0396ZM130.453 20.0157H131.817V27.704H130.453V20.0157Z" fill="black"/>
<path d="M139.258 20.3878C139.754 20.7599 140.126 21.5039 140.25 22.6199H139.01C138.886 22.1239 138.762 21.7519 138.514 21.3799C138.266 21.0079 137.77 20.8839 137.15 20.8839C136.282 20.8839 135.661 21.2559 135.413 22.1239C135.165 22.6199 135.041 23.364 135.041 24.108C135.041 24.852 135.165 25.5961 135.537 26.0921C135.91 26.5881 136.406 26.8361 137.15 26.8361C137.646 26.8361 138.142 26.7121 138.39 26.3401C138.638 25.9681 138.886 25.5961 139.01 24.976H140.25C140.126 25.9681 139.754 26.7121 139.134 27.2081C138.514 27.7041 137.77 27.9522 136.902 27.9522C135.91 27.9522 135.041 27.5801 134.421 26.8361C133.801 26.0921 133.553 25.224 133.553 24.108C133.553 22.7439 133.925 21.6279 134.545 20.8839C135.165 20.1398 136.034 19.7678 137.026 19.7678C138.018 19.7678 138.762 20.0158 139.258 20.3878Z" fill="black"/>
<path d="M146.698 17.0396H150.914C152.402 17.0396 153.518 17.5356 154.262 18.6516C155.006 19.6437 155.378 20.7597 155.378 22.2478C155.378 23.3638 155.13 24.3558 154.758 25.3479C154.014 26.96 152.774 27.828 150.914 27.828H146.698V17.0396ZM150.79 26.5879C151.286 26.5879 151.658 26.5879 152.03 26.4639C152.526 26.2159 153.022 25.9679 153.394 25.3479C153.642 24.9759 153.89 24.3558 154.014 23.7358C154.138 23.3638 154.138 22.9918 154.138 22.6198C154.138 21.2557 153.89 20.2637 153.394 19.5197C152.898 18.7756 152.03 18.4036 150.914 18.4036H148.434V26.5879H150.79Z" fill="black"/>
<path d="M162.447 20.1398C162.943 20.3878 163.315 20.7599 163.563 21.1319C163.811 21.5039 164.059 21.9999 164.059 22.4959C164.183 22.8679 164.183 23.488 164.183 24.232H158.478C158.478 24.976 158.726 25.5961 158.974 26.0921C159.222 26.5881 159.842 26.8361 160.586 26.8361C161.207 26.8361 161.827 26.5881 162.199 26.2161C162.447 25.9681 162.571 25.5961 162.695 25.348H163.935C163.935 25.5961 163.811 25.9681 163.563 26.3401C163.315 26.7121 163.191 26.9601 162.943 27.2081C162.571 27.5801 162.075 27.8281 161.455 27.9522C161.083 28.0762 160.834 28.0762 160.338 28.0762C159.346 28.0762 158.602 27.7041 157.858 26.9601C157.114 26.2161 156.866 25.224 156.866 23.984C156.866 22.7439 157.238 21.7519 157.858 20.8839C158.478 20.0158 159.47 19.7678 160.462 19.7678C161.455 19.7678 161.951 19.8918 162.447 20.1398ZM162.943 23.24C162.943 22.6199 162.819 22.2479 162.571 21.8759C162.199 21.2559 161.579 20.8839 160.834 20.8839C160.214 20.8839 159.718 21.1319 159.346 21.5039C158.974 21.9999 158.726 22.4959 158.726 23.116L162.943 23.24Z" fill="black"/>
<path d="M166.911 20.0157L169.019 26.34L171.127 20.0157H172.615L169.639 27.8281H168.275L165.423 20.0157C165.423 20.0157 166.911 20.0157 166.911 20.0157Z" fill="black"/>
<path d="M178.939 20.1398C179.435 20.3878 179.807 20.7599 180.055 21.1319C180.303 21.5039 180.551 21.9999 180.551 22.4959C180.675 22.8679 180.675 23.488 180.675 24.232H174.971C174.971 24.976 175.219 25.5961 175.467 26.0921C175.839 26.5881 176.335 26.8361 177.079 26.8361C177.699 26.8361 178.319 26.5881 178.691 26.2161C178.939 25.9681 179.063 25.5961 179.187 25.348H180.427C180.427 25.5961 180.303 25.9681 180.055 26.3401C179.807 26.7121 179.683 26.9601 179.435 27.2081C179.063 27.5801 178.567 27.8281 177.947 27.9522C177.575 28.0762 177.327 28.0762 176.831 28.0762C175.839 28.0762 175.095 27.7041 174.351 26.9601C173.731 26.2161 173.359 25.224 173.359 23.984C173.359 22.7439 173.731 21.7519 174.351 20.8839C174.971 20.1398 175.963 19.7678 176.955 19.7678C177.947 19.7678 178.443 19.8918 178.939 20.1398ZM179.435 23.24C179.435 22.6199 179.311 22.2479 179.063 21.8759C178.691 21.2559 178.071 20.8839 177.327 20.8839C176.707 20.8839 176.211 21.1319 175.839 21.5039C175.467 21.9999 175.219 22.4959 175.219 23.116L179.435 23.24Z" fill="black"/>
<path d="M182.783 17.0396H184.147V27.704H182.783V17.0396Z" fill="black"/>
<path d="M192.084 20.7599C192.828 21.3799 193.076 22.3719 193.076 23.736C193.076 24.976 192.828 25.9681 192.208 26.8361C191.588 27.7041 190.72 28.0762 189.356 28.0762C188.24 28.0762 187.496 27.7041 186.876 26.9601C186.256 26.2161 185.884 25.224 185.884 23.984C185.884 22.6199 186.256 21.6279 186.876 20.8839C187.496 20.1398 188.364 19.7678 189.48 19.7678C190.596 19.7678 191.464 20.1398 192.084 20.7599ZM191.34 25.9681C191.712 25.348 191.836 24.604 191.836 23.736C191.836 22.992 191.712 22.3719 191.464 21.9999C191.092 21.2559 190.472 20.8839 189.604 20.8839C188.86 20.8839 188.24 21.1319 187.868 21.7519C187.496 22.3719 187.372 23.116 187.372 23.984C187.372 24.852 187.496 25.4721 187.868 26.0921C188.24 26.5881 188.736 26.9601 189.604 26.9601C190.472 26.9601 190.968 26.5881 191.34 25.9681Z" fill="black"/>
<path d="M195.06 20.0157H196.3V21.0077C196.548 20.6357 196.796 20.3877 197.168 20.1397C197.664 19.8917 198.16 19.6437 198.78 19.6437C199.648 19.6437 200.392 20.0157 201.012 20.6357C201.632 21.2557 201.88 22.2478 201.88 23.4878C201.88 25.2239 201.384 26.3399 200.516 27.084C199.896 27.58 199.276 27.828 198.532 27.828C197.912 27.828 197.416 27.704 197.044 27.456C196.796 27.332 196.548 27.084 196.3 26.712V30.6801H194.936L195.06 20.0157ZM200.02 26.0919C200.392 25.5959 200.64 24.8519 200.64 23.8598C200.64 23.2398 200.516 22.7438 200.392 22.2478C200.02 21.3797 199.4 21.0077 198.532 21.0077C197.664 21.0077 197.044 21.5038 196.672 22.3718C196.548 22.8678 196.424 23.4878 196.424 24.2319C196.424 24.8519 196.548 25.3479 196.672 25.7199C197.044 26.464 197.664 26.96 198.532 26.96C199.028 26.836 199.524 26.588 200.02 26.0919Z" fill="black"/>
<path d="M203.864 20.0158H205.104V21.1319C205.352 20.7599 205.724 20.5119 205.972 20.2638C206.344 20.0158 206.84 19.7678 207.46 19.7678C208.08 19.7678 208.576 19.8918 208.948 20.2638C209.197 20.3878 209.321 20.6359 209.569 21.0079C209.817 20.6359 210.189 20.2638 210.561 20.1398C210.933 20.0158 211.429 19.8918 211.925 19.8918C212.917 19.8918 213.661 20.2638 214.033 21.0079C214.281 21.3799 214.281 21.9999 214.281 22.6199V27.8281H212.917V22.3719C212.917 21.8759 212.793 21.5039 212.545 21.2559C212.297 21.0079 211.925 21.0079 211.553 21.0079C211.057 21.0079 210.561 21.1319 210.189 21.5039C209.817 21.8759 209.693 22.3719 209.693 23.24V27.7041H208.328V22.6199C208.328 22.1239 208.204 21.7519 208.08 21.5039C207.832 21.1319 207.46 21.0079 206.964 21.0079C206.468 21.0079 205.972 21.2559 205.6 21.6279C205.228 21.9999 204.98 22.7439 204.98 23.736V27.8281H203.616L203.864 20.0158Z" fill="black"/>
<path d="M221.349 20.1398C221.845 20.3878 222.217 20.7599 222.465 21.1319C222.713 21.5039 222.961 21.9999 222.961 22.4959C223.085 22.8679 223.085 23.488 223.085 24.232H217.381C217.381 24.976 217.629 25.5961 217.877 26.0921C218.249 26.5881 218.745 26.8361 219.489 26.8361C220.109 26.8361 220.729 26.5881 221.101 26.2161C221.349 25.9681 221.473 25.5961 221.597 25.348H222.837C222.837 25.5961 222.713 25.9681 222.465 26.3401C222.217 26.7121 222.093 26.9601 221.845 27.2081C221.473 27.5801 220.977 27.8281 220.357 27.9522C219.985 28.0762 219.737 28.0762 219.241 28.0762C218.249 28.0762 217.505 27.7041 216.761 26.9601C216.141 26.2161 215.769 25.224 215.769 23.984C215.769 22.7439 216.141 21.7519 216.761 20.8839C217.381 20.1398 218.373 19.7678 219.365 19.7678C220.357 19.7678 220.853 19.8918 221.349 20.1398ZM221.845 23.24C221.845 22.6199 221.721 22.2479 221.473 21.8759C221.101 21.2559 220.481 20.8839 219.737 20.8839C219.117 20.8839 218.621 21.1319 218.249 21.5039C217.877 21.8759 217.629 22.4959 217.629 23.116L221.845 23.24Z" fill="black"/>
<path d="M225.317 20.0157H226.557V21.1318C226.929 20.6358 227.301 20.3877 227.673 20.1397C228.045 19.8917 228.541 19.8917 229.037 19.8917C230.153 19.8917 230.897 20.2637 231.269 21.0078C231.517 21.3798 231.641 21.9998 231.641 22.8678V27.828H230.277V22.8678C230.277 22.3718 230.153 21.9998 230.029 21.7518C229.781 21.2558 229.409 21.0078 228.789 21.0078C228.541 21.0078 228.169 21.0078 228.045 21.1318C227.673 21.2558 227.425 21.5038 227.053 21.7518C226.805 21.9998 226.681 22.2478 226.681 22.4958C226.681 22.7438 226.557 23.1159 226.557 23.6119V27.704H225.193L225.317 20.0157Z" fill="black"/>
<path d="M234.245 17.7836H235.61V20.0157H236.85V21.1317H235.61V26.2159C235.61 26.4639 235.734 26.7119 235.858 26.7119C235.982 26.7119 236.106 26.8359 236.354 26.8359C236.478 26.8359 236.478 26.8359 236.602 26.8359C236.726 26.8359 236.726 26.8359 236.85 26.8359V27.828C236.726 27.828 236.602 27.952 236.354 27.952C236.106 27.952 235.982 27.952 235.858 27.952C235.238 27.952 234.866 27.828 234.618 27.456C234.37 27.0839 234.245 26.7119 234.245 26.2159V21.0077H233.129V19.8917H234.245V17.7836Z" fill="black"/>
<path d="M250.738 17.9076C251.482 18.6517 251.854 19.3957 251.978 20.3877H250.49C250.366 19.6437 249.994 19.1477 249.498 18.7757C249.002 18.4036 248.382 18.1556 247.514 18.1556C246.522 18.1556 245.654 18.5277 245.034 19.2717C244.414 20.0157 244.042 21.1318 244.042 22.6198C244.042 23.8599 244.29 24.8519 244.91 25.7199C245.53 26.464 246.398 26.836 247.514 26.836C248.506 26.836 249.374 26.464 249.87 25.5959C250.118 25.2239 250.366 24.6039 250.49 23.8599H251.854C251.73 24.9759 251.358 25.968 250.614 26.712C249.746 27.58 248.63 28.076 247.266 28.076C246.026 28.076 245.034 27.704 244.166 26.96C243.05 25.968 242.554 24.4799 242.554 22.3718C242.554 20.7597 242.926 19.5197 243.794 18.5277C244.662 17.4116 245.902 16.9156 247.514 16.9156C248.878 16.7916 249.994 17.1636 250.738 17.9076Z" fill="black"/>
<path d="M258.302 23.116C258.55 23.116 258.799 22.992 258.923 22.7439C258.923 22.6199 259.047 22.4959 259.047 22.2479C259.047 21.7519 258.923 21.5039 258.55 21.2559C258.178 21.0079 257.806 21.0079 257.186 21.0079C256.566 21.0079 256.07 21.1319 255.698 21.5039C255.574 21.7519 255.45 21.9999 255.45 22.3719H254.21C254.21 21.3799 254.582 20.7599 255.202 20.3878C255.822 20.0158 256.442 19.7678 257.31 19.7678C258.178 19.7678 258.923 19.8918 259.543 20.2638C260.163 20.6359 260.411 21.1319 260.411 21.8759V26.3401C260.411 26.4641 260.411 26.5881 260.535 26.7121C260.659 26.8361 260.659 26.8361 260.907 26.8361C260.907 26.8361 261.031 26.8361 261.155 26.8361C261.279 26.8361 261.279 26.8361 261.403 26.8361V27.8281C261.155 27.8281 261.031 27.9522 260.907 27.9522C260.783 27.9522 260.659 27.9522 260.411 27.9522C259.915 27.9522 259.667 27.8281 259.419 27.4561C259.295 27.3321 259.295 27.0841 259.171 26.7121C258.923 27.0841 258.551 27.3321 258.054 27.5801C257.558 27.8281 257.062 27.9522 256.442 27.9522C255.698 27.9522 255.078 27.7041 254.706 27.3321C254.21 26.8361 253.962 26.3401 253.962 25.7201C253.962 24.976 254.21 24.48 254.582 23.984C255.078 23.612 255.574 23.364 256.318 23.24L258.302 23.116ZM255.574 26.5881C255.822 26.8361 256.194 26.9601 256.566 26.9601C257.062 26.9601 257.434 26.8361 257.93 26.5881C258.674 26.2161 259.047 25.5961 259.047 24.852V23.86C258.923 23.984 258.674 24.108 258.426 24.108C258.178 24.108 257.93 24.232 257.682 24.232L256.938 24.356C256.442 24.48 256.07 24.48 255.822 24.604C255.45 24.852 255.202 25.224 255.202 25.7201C255.078 26.0921 255.202 26.3401 255.574 26.5881Z" fill="black"/>
<path d="M262.767 20.0157H264.007V21.1318C264.379 20.6358 264.751 20.3877 265.123 20.1397C265.495 19.8917 265.991 19.8917 266.487 19.8917C267.603 19.8917 268.347 20.2637 268.719 21.0078C268.967 21.3798 269.091 21.9998 269.091 22.8678V27.828H267.727V22.8678C267.727 22.3718 267.603 21.9998 267.479 21.7518C267.231 21.2558 266.859 21.0078 266.239 21.0078C265.991 21.0078 265.619 21.0078 265.495 21.1318C265.123 21.2558 264.875 21.5038 264.503 21.7518C264.255 21.9998 264.131 22.2478 264.131 22.4958C264.131 22.7438 264.131 23.2399 264.131 23.7359V27.828H262.767V20.0157Z" fill="black"/>
<path d="M275.539 23.116C275.787 23.116 276.035 22.992 276.159 22.7439C276.159 22.6199 276.283 22.4959 276.283 22.2479C276.283 21.7519 276.159 21.5039 275.787 21.2559C275.415 21.0079 275.043 21.0079 274.423 21.0079C273.679 21.0079 273.307 21.1319 272.935 21.5039C272.811 21.7519 272.687 21.9999 272.563 22.3719H271.323C271.323 21.3799 271.695 20.7599 272.315 20.3878C272.935 20.0158 273.555 19.7678 274.423 19.7678C275.291 19.7678 276.035 19.8918 276.655 20.2638C277.275 20.6359 277.523 21.1319 277.523 21.8759V26.3401C277.523 26.4641 277.523 26.5881 277.647 26.7121C277.771 26.8361 277.771 26.8361 278.019 26.8361C278.019 26.8361 278.143 26.8361 278.267 26.8361C278.391 26.8361 278.391 26.8361 278.515 26.8361V27.8281C278.267 27.8281 278.143 27.9522 278.019 27.9522C277.895 27.9522 277.771 27.9522 277.523 27.9522C277.027 27.9522 276.779 27.8281 276.531 27.4561C276.407 27.3321 276.407 27.0841 276.283 26.7121C276.035 27.0841 275.663 27.3321 275.167 27.5801C274.671 27.8281 274.175 27.9522 273.555 27.9522C272.811 27.9522 272.191 27.7041 271.819 27.3321C271.323 26.8361 271.075 26.3401 271.075 25.7201C271.075 24.976 271.323 24.48 271.695 23.984C272.191 23.612 272.687 23.364 273.431 23.24L275.539 23.116ZM272.811 26.5881C273.059 26.8361 273.431 26.9601 273.803 26.9601C274.299 26.9601 274.671 26.8361 275.167 26.5881C275.911 26.2161 276.283 25.5961 276.283 24.852V23.86C276.159 23.984 275.911 24.108 275.663 24.108C275.415 24.108 275.167 24.232 274.919 24.232L274.175 24.356C273.679 24.48 273.307 24.48 273.059 24.604C272.687 24.852 272.439 25.224 272.439 25.7201C272.439 26.0921 272.563 26.3401 272.811 26.5881Z" fill="black"/>
<path d="M284.344 20.2637C284.592 20.3877 284.84 20.6357 285.088 21.0077V17.0396H286.328V27.704H285.212V26.5879C284.964 27.084 284.592 27.456 284.096 27.58C283.6 27.704 283.227 27.952 282.731 27.952C281.863 27.952 281.119 27.58 280.499 26.8359C279.879 26.0919 279.507 25.0999 279.507 23.9838C279.507 22.8678 279.755 21.8757 280.375 21.0077C280.995 20.1397 281.739 19.7677 282.855 19.7677C283.476 19.8917 283.972 20.0157 284.344 20.2637ZM281.491 26.0919C281.863 26.7119 282.359 26.96 283.227 26.96C283.848 26.96 284.344 26.7119 284.716 26.2159C285.088 25.7199 285.336 24.9759 285.336 23.9838C285.336 22.9918 285.088 22.2478 284.716 21.7517C284.344 21.2557 283.848 21.0077 283.227 21.0077C282.607 21.0077 281.987 21.2557 281.615 21.7517C281.243 22.2478 280.995 22.9918 280.995 23.9838C280.871 24.8519 281.119 25.4719 281.491 26.0919Z" fill="black"/>
<path d="M292.9 23.116C293.148 23.116 293.396 22.992 293.52 22.7439C293.52 22.6199 293.644 22.4959 293.644 22.2479C293.644 21.7519 293.52 21.5039 293.148 21.2559C292.776 21.0079 292.404 21.0079 291.784 21.0079C291.164 21.0079 290.668 21.1319 290.296 21.5039C290.172 21.7519 290.048 21.9999 290.048 22.3719H288.808C288.808 21.3799 289.18 20.7599 289.8 20.3878C290.42 20.0158 291.04 19.7678 291.908 19.7678C292.776 19.7678 293.52 19.8918 294.14 20.2638C294.76 20.6359 295.008 21.1319 295.008 21.8759V26.3401C295.008 26.4641 295.008 26.5881 295.132 26.7121C295.256 26.8361 295.256 26.8361 295.504 26.8361C295.504 26.8361 295.628 26.8361 295.752 26.8361C295.876 26.8361 295.876 26.8361 296 26.8361V27.8281C295.752 27.8281 295.628 27.9522 295.504 27.9522C295.38 27.9522 295.256 27.9522 295.008 27.9522C294.512 27.9522 294.264 27.8281 294.016 27.4561C293.892 27.3321 293.892 27.0841 293.768 26.7121C293.52 27.0841 293.148 27.3321 292.652 27.5801C292.156 27.8281 291.66 27.9522 291.04 27.9522C290.296 27.9522 289.676 27.7041 289.304 27.3321C288.808 26.8361 288.56 26.3401 288.56 25.7201C288.56 24.976 288.808 24.48 289.18 23.984C289.676 23.612 290.172 23.364 290.916 23.24L292.9 23.116ZM290.172 26.5881C290.42 26.8361 290.792 26.9601 291.164 26.9601C291.66 26.9601 292.032 26.8361 292.528 26.5881C293.272 26.2161 293.644 25.5961 293.644 24.852V23.86C293.52 23.984 293.272 24.108 293.024 24.108C292.776 24.108 292.528 24.232 292.28 24.232L291.536 24.356C291.04 24.48 290.668 24.48 290.42 24.604C290.048 24.852 289.8 25.224 289.8 25.7201C289.8 26.0921 289.924 26.3401 290.172 26.5881Z" fill="black"/>
</svg>
