<svg width="212" height="31" viewBox="0 0 212 31" fill="none" xmlns="http://www.w3.org/2000/svg">
<path d="M87.8295 11.3821H89.1947V2.6707L94.8506 11.3821H96.4109V0.525342H95.0457V9.30179L89.3247 0.460327H87.8295V11.3821V11.3821ZM105.642 11.3171C105.382 11.4471 105.122 11.5122 104.732 11.5122C104.082 11.5122 103.627 11.1221 103.627 10.277C102.912 11.1221 101.937 11.5122 100.832 11.5122C99.4014 11.5122 98.2312 10.862 98.2312 9.30179C98.2312 7.5465 99.5314 7.15643 100.897 6.89639C102.327 6.63634 103.562 6.70136 103.562 5.7262C103.562 4.62102 102.652 4.42599 101.807 4.42599C100.702 4.42599 99.9215 4.75103 99.8565 5.92123H98.5562C98.6213 3.9709 100.116 3.25579 101.872 3.25579C103.302 3.25579 104.797 3.58085 104.797 5.40115V9.43182C104.797 10.0169 104.797 10.342 105.187 10.342C105.317 10.342 105.382 10.342 105.577 10.277L105.642 11.3171ZM103.497 7.28645C102.977 7.67652 102.002 7.67653 101.157 7.80655C100.312 7.93657 99.5964 8.26162 99.5964 9.23678C99.5964 10.0819 100.312 10.407 101.092 10.407C102.782 10.407 103.497 9.3668 103.497 8.65168V7.28645ZM108.633 1.11043H107.333V3.45083H105.967V4.62102H107.333V9.62685C107.333 11.0571 107.853 11.3171 109.218 11.3171H110.193V10.1469H109.608C108.828 10.1469 108.633 10.0169 108.633 9.43182V4.55601H110.193V3.38581H108.633V1.11043ZM118.124 3.51584H116.824V7.93656C116.824 9.3668 116.044 10.407 114.484 10.407C113.509 10.407 112.859 9.75686 112.859 8.84671V3.51584H111.558V8.7167C111.558 10.407 112.208 11.5772 114.289 11.5772C115.394 11.5772 116.304 11.1221 116.824 10.1469V11.3821H118.059L118.124 3.51584ZM120.075 11.3821H121.375V7.87155C121.375 5.85621 122.155 4.68603 124.235 4.68603V3.32081C122.805 3.25579 121.96 3.9059 121.31 5.14111V3.45083H120.075V11.3821ZM132.167 11.3171C131.907 11.4471 131.647 11.5122 131.257 11.5122C130.607 11.5122 130.151 11.1221 130.151 10.277C129.436 11.1221 128.461 11.5122 127.356 11.5122C125.926 11.5122 124.756 10.862 124.756 9.30179C124.756 7.5465 126.056 7.15643 127.421 6.89639C128.851 6.63634 130.086 6.70136 130.086 5.7262C130.086 4.62102 129.176 4.42599 128.331 4.42599C127.226 4.42599 126.446 4.75103 126.381 5.92123H125.081C125.146 3.9709 126.641 3.25579 128.396 3.25579C129.826 3.25579 131.322 3.58085 131.322 5.40115V9.43182C131.322 10.0169 131.322 10.342 131.712 10.342C131.842 10.342 131.907 10.342 132.102 10.277V11.3171H132.167ZM130.021 7.28645C129.501 7.67652 128.526 7.67653 127.681 7.80655C126.836 7.93657 126.121 8.26162 126.121 9.23678C126.121 10.0819 126.836 10.407 127.616 10.407C129.306 10.407 130.021 9.3668 130.021 8.65168V7.28645ZM133.402 11.3821H134.702V0.525342H133.402V11.3821ZM141.138 0.460327H146.274C148.289 0.460327 149.59 1.56552 149.59 3.32081C149.59 4.62102 149.005 5.7262 147.704 6.05125C148.94 6.3113 149.2 7.22144 149.33 8.26162C149.395 9.30179 149.33 10.537 149.98 11.2521H148.354C147.964 10.797 148.159 9.62684 147.964 8.58667C147.834 7.5465 147.574 6.63635 146.144 6.63635H142.634V11.2521H141.203L141.138 0.460327ZM145.624 5.46616C146.989 5.46616 148.159 5.14111 148.159 3.51584C148.159 2.47567 147.574 1.63052 146.209 1.63052H142.634V5.40115H145.624V5.46616ZM158.106 8.84671C157.781 10.602 156.481 11.5122 154.726 11.5122C152.19 11.5122 151.02 9.75687 150.955 7.35147C150.955 5.01108 152.515 3.25579 154.661 3.25579C157.456 3.25579 158.301 5.85623 158.236 7.74154H152.32C152.255 9.10676 153.035 10.342 154.791 10.342C155.831 10.342 156.611 9.82189 156.806 8.78171L158.106 8.84671ZM156.871 6.63635C156.806 5.40114 155.896 4.42599 154.595 4.42599C153.23 4.42599 152.45 5.46615 152.32 6.63635H156.871ZM159.081 8.84671C159.146 10.797 160.641 11.5122 162.397 11.5122C164.022 11.5122 165.777 10.9271 165.777 9.04175C165.777 7.54651 164.477 7.09143 163.177 6.83139C161.942 6.57135 160.576 6.37631 160.576 5.46616C160.576 4.68603 161.487 4.491 162.267 4.491C163.112 4.491 164.022 4.81605 164.087 5.79122H165.387C165.257 3.84089 163.892 3.32081 162.137 3.32081C160.772 3.32081 159.211 3.97092 159.211 5.53118C159.211 7.02642 160.511 7.48149 161.812 7.74154C163.112 8.00158 164.412 8.1966 164.412 9.17176C164.412 10.1469 163.307 10.342 162.527 10.342C161.487 10.342 160.446 9.95189 160.381 8.84671H159.081V8.84671ZM170.588 3.32081C173.059 3.32081 174.424 5.14111 174.424 7.41648C174.424 9.69186 173.124 11.5122 170.588 11.5122C168.118 11.5122 166.753 9.69186 166.753 7.41648C166.753 5.14111 168.053 3.32081 170.588 3.32081ZM170.588 10.407C171.953 10.407 173.059 9.36681 173.059 7.41648C173.059 5.46616 171.953 4.42599 170.588 4.42599C169.223 4.42599 168.118 5.46616 168.118 7.41648C168.118 9.3018 169.223 10.407 170.588 10.407ZM182.42 3.51584H181.12V7.93656C181.12 9.3668 180.34 10.407 178.779 10.407C177.804 10.407 177.154 9.75686 177.154 8.84671V3.51584H175.854V8.7167C175.854 10.407 176.504 11.5772 178.584 11.5772C179.69 11.5772 180.6 11.1221 181.12 10.1469V11.3821H182.355V3.51584H182.42ZM184.37 11.3821H185.671V7.87155C185.671 5.85621 186.451 4.68603 188.531 4.68603V3.32081C187.101 3.25579 186.256 3.9059 185.671 5.14111V3.45083H184.435V11.3821H184.37ZM196.137 5.98624C195.942 4.10093 194.512 3.25579 192.757 3.25579C190.286 3.25579 189.051 5.14111 189.051 7.4815C189.051 9.82189 190.351 11.5122 192.757 11.5122C194.707 11.5122 195.942 10.342 196.202 8.45666H194.902C194.707 9.62685 193.992 10.342 192.757 10.342C191.132 10.342 190.481 8.91174 190.481 7.4815C190.481 5.85623 191.067 4.42599 192.952 4.42599C193.992 4.42599 194.707 5.01108 194.902 5.98624H196.137ZM204.329 8.84671C204.004 10.602 202.703 11.5122 200.948 11.5122C198.413 11.5122 197.243 9.75687 197.178 7.35147C197.178 5.01108 198.738 3.25579 200.883 3.25579C203.679 3.25579 204.524 5.85623 204.459 7.74154H198.543C198.478 9.10676 199.258 10.342 201.013 10.342C202.053 10.342 202.833 9.82189 203.028 8.78171L204.329 8.84671ZM203.094 6.63635C203.028 5.40114 202.118 4.42599 200.818 4.42599C199.453 4.42599 198.673 5.46615 198.543 6.63635H203.094ZM205.304 8.84671C205.369 10.797 206.864 11.5122 208.619 11.5122C210.245 11.5122 212 10.9271 212 9.04175C212 7.54651 210.7 7.09143 209.4 6.83139C208.164 6.57135 206.799 6.37631 206.799 5.46616C206.799 4.68603 207.709 4.491 208.489 4.491C209.335 4.491 210.245 4.81605 210.31 5.79122H211.61C211.48 3.84089 210.115 3.32081 208.359 3.32081C206.994 3.32081 205.434 3.97092 205.434 5.53118C205.434 7.02642 206.734 7.48149 208.034 7.74154C209.335 8.00158 210.635 8.1966 210.635 9.17176C210.635 10.1469 209.53 10.342 208.749 10.342C207.709 10.342 206.669 9.95189 206.604 8.84671H205.304V8.84671ZM96.931 22.1739C96.6059 19.8335 94.7206 18.6633 92.4452 18.6633C89.0647 18.6633 87.3094 21.2638 87.3094 24.3843C87.3094 27.5698 88.9347 30.0402 92.3152 30.0402C95.0457 30.0402 96.7359 28.415 96.996 25.6845H95.5657C95.4357 27.5048 94.3305 28.805 92.4452 28.805C89.8448 28.805 88.7396 26.7247 88.7396 24.2543C88.7396 21.9789 89.8448 19.8335 92.4452 19.8335C93.9405 19.8335 95.1757 20.6137 95.5007 22.1739H96.931ZM105.642 29.7152C105.382 29.8452 105.122 29.9102 104.732 29.9102C104.082 29.9102 103.627 29.5201 103.627 28.675C102.912 29.5201 101.937 29.9102 100.832 29.9102C99.4014 29.9102 98.2312 29.2601 98.2312 27.6998C98.2312 25.9445 99.5314 25.5545 100.897 25.2944C102.327 25.0344 103.562 25.0994 103.562 24.1242C103.562 23.019 102.652 22.824 101.807 22.824C100.702 22.824 99.9215 23.1491 99.8565 24.3193H98.5562C98.6213 22.369 100.116 21.6538 101.872 21.6538C103.302 21.6538 104.797 21.9789 104.797 23.7992V27.8299C104.797 28.4149 104.797 28.74 105.187 28.74C105.317 28.74 105.382 28.74 105.577 28.675L105.642 29.7152ZM103.497 25.6845C102.977 26.0746 102.002 26.0746 101.157 26.2046C100.312 26.3346 99.5964 26.6597 99.5964 27.6348C99.5964 28.48 100.312 28.805 101.092 28.805C102.782 28.805 103.497 27.7648 103.497 27.0497V25.6845ZM106.813 29.7802H108.113V25.3595C108.113 23.9292 108.893 22.889 110.453 22.889C111.428 22.889 112.078 23.5391 112.078 24.4493V29.7802H113.379V24.5793C113.379 22.889 112.729 21.7188 110.648 21.7188C109.543 21.7188 108.633 22.1739 108.113 23.1491V21.9139H106.878L106.813 29.7802ZM122.285 29.7152C122.025 29.8452 121.765 29.9102 121.375 29.9102C120.725 29.9102 120.27 29.5201 120.27 28.675C119.555 29.5201 118.58 29.9102 117.474 29.9102C116.044 29.9102 114.874 29.2601 114.874 27.6998C114.874 25.9445 116.174 25.5545 117.539 25.2944C118.97 25.0344 120.205 25.0994 120.205 24.1242C120.205 23.019 119.295 22.824 118.45 22.824C117.344 22.824 116.564 23.1491 116.499 24.3193H115.199C115.264 22.369 116.759 21.6538 118.515 21.6538C119.945 21.6538 121.44 21.9789 121.44 23.7992V27.8299C121.44 28.4149 121.44 28.74 121.83 28.74C121.96 28.74 122.025 28.74 122.22 28.675V29.7152H122.285ZM120.14 25.6845C119.62 26.0746 118.645 26.0746 117.799 26.2046C116.954 26.3346 116.239 26.6597 116.239 27.6348C116.239 28.48 116.954 28.805 117.734 28.805C119.425 28.805 120.14 27.7648 120.14 27.0497V25.6845ZM130.477 29.7802H129.176V28.74C128.721 29.5851 127.746 29.9752 126.641 29.9752C124.235 29.9752 123 28.0249 123 25.8145C123 23.6041 124.17 21.7188 126.576 21.7188C127.356 21.7188 128.526 22.0439 129.111 22.954V18.9234H130.412L130.477 29.7802ZM126.836 28.805C128.591 28.805 129.241 27.3098 129.241 25.8145C129.241 24.2543 128.526 22.824 126.771 22.824C125.016 22.824 124.431 24.3193 124.431 25.8795C124.431 27.3748 125.146 28.805 126.836 28.805ZM139.448 29.7152C139.188 29.8452 138.928 29.9102 138.538 29.9102C137.888 29.9102 137.433 29.5201 137.433 28.675C136.718 29.5201 135.742 29.9102 134.637 29.9102C133.207 29.9102 132.037 29.2601 132.037 27.6998C132.037 25.9445 133.337 25.5545 134.702 25.2944C136.132 25.0344 137.368 25.0994 137.368 24.1242C137.368 23.019 136.458 22.824 135.612 22.824C134.507 22.824 133.727 23.1491 133.662 24.3193H132.362C132.427 22.369 133.922 21.6538 135.677 21.6538C137.108 21.6538 138.603 21.9789 138.603 23.7992V27.8299C138.603 28.4149 138.603 28.74 138.993 28.74C139.123 28.74 139.188 28.74 139.383 28.675V29.7152H139.448ZM137.368 25.6845C136.848 26.0746 135.872 26.0746 135.027 26.2046C134.182 26.3346 133.467 26.6597 133.467 27.6348C133.467 28.48 134.182 28.805 134.962 28.805C136.653 28.805 137.368 27.7648 137.368 27.0497V25.6845Z" fill="black"/>
<path d="M0 29.4552H14.2374V0.525391H0V29.4552ZM45.7676 0.525391H60.0049V29.4552H45.7676V0.525391ZM28.0196 6.50639L30.035 2.34569L32.0503 6.31134C32.3103 6.70141 32.5054 6.70142 32.8954 6.50639L34.6507 5.66123L33.5455 11.2522C33.3505 12.3573 33.9356 12.6824 34.5857 11.9023L37.0561 9.23682L37.7062 10.7321C37.9663 11.1872 38.2913 11.1221 38.6814 11.0571L41.2168 10.537L40.3717 13.7876V13.8526C40.2416 14.2427 40.0466 14.6327 40.5667 14.8278L41.4769 15.2828L36.211 19.7036C35.6909 20.2887 35.8209 20.4187 36.081 21.0688L36.601 22.564L31.6602 21.6539C31.0751 21.5239 30.6201 21.5239 30.6201 21.9789L30.8151 27.6349H29.3198L29.5149 22.0439C29.5149 21.4589 29.1248 21.5239 28.0846 21.7189L23.5339 22.564L24.119 21.0688C24.314 20.4837 24.379 20.0936 23.924 19.7036L18.5281 15.3478L19.5032 14.7627C19.7633 14.5677 19.8283 14.3077 19.6332 13.8526L18.6581 10.6021L21.2585 11.1871C21.9736 11.3822 22.1687 11.1871 22.3637 10.7971L23.0788 9.30184L25.6142 12.2273C26.0693 12.7474 26.7194 12.4224 26.5244 11.6422L25.2892 5.59622L27.1745 6.70141C27.4995 6.89644 27.8246 6.96145 28.0196 6.57138" fill="black"/>
</svg>
