<?xml version="1.0" encoding="utf-8"?>
<!-- Generator: Adobe Illustrator 28.1.0, SVG Export Plug-In . SVG Version: 6.00 Build 0)  -->
<svg version="1.1" id="Layer_1" xmlns="http://www.w3.org/2000/svg" xmlns:xlink="http://www.w3.org/1999/xlink" x="0px" y="0px"
	 viewBox="0 0 166 100" style="enable-background:new 0 0 166 100;" xml:space="preserve">
<style type="text/css">
	.st0{fill:#EA4335;}
	.st1{fill:#FBBC04;}
	.st2{fill:#4284F4;}
	.st3{fill:#34A853;}
	.st4{fill:#606469;}
</style>
<path class="st0" d="M31.8,33c4.6-4.8,11.4-7.3,18-7.1c3.9,0.3,7.8,1.3,11.1,3.3c1.4,0.9,2.8,1.8,3.8,3c-1,1.2-2.3,2.3-3.4,3.5
	c-1.2,1.1-2.3,2.4-3.5,3.5c-1.9-1.7-4.3-3-6.8-3.4c-2.7-0.3-5.5-0.2-7.9,1c-2.7,1.2-5,3.3-6.5,5.9c-0.5,0.9-0.9,1.8-1.3,2.7
	c-2.7-2-5.3-4.1-8-6.2C28.3,37,29.9,34.8,31.8,33"/>
<path class="st1" d="M27.3,39.3c2.7,2,5.3,4.2,8,6.2c-0.4,1.9-1,3.9-0.6,5.9c0.1,1.1,0.4,2.2,0.6,3.3c-2.1,1.7-4.3,3.3-6.4,5
	c-0.5,0.4-1.1,0.8-1.7,1.1c-1.4-2.9-2.4-6.1-2.5-9.4c-0.1-2.1,0-4.3,0.4-6.4C25.7,43.1,26.3,41.1,27.3,39.3"/>
<path class="st2" d="M49,45.7c6.6,0,13.2,0,19.8,0c0.8,0,1.7-0.1,2.5,0.1c1.5,7.2-0.1,15.1-4.9,20.8c-0.5,0.6-1,1.3-1.7,1.7
	c-2.6-1.9-5.2-4-7.8-6c2.3-1.7,4-4.3,4.4-7.2c-4.1-0.1-8.2,0-12.4,0c-0.1-2.4,0-4.9,0-7.3C48.9,47,48.7,46.3,49,45.7"/>
<path class="st3" d="M28.9,59.7c2.1-1.7,4.3-3.3,6.4-5c0.5,1,0.8,2,1.5,3c1.9,3.1,5,5.5,8.5,6.4c2.5,0.6,5.1,0.5,7.5,0
	c1.5-0.4,2.8-1.1,4.1-1.8c2.6,2,5.1,4.1,7.8,6c-0.6,0.8-1.5,1.4-2.3,2c-3.9,2.8-8.8,3.9-13.5,4c-4.8-0.1-9.6-1.5-13.6-4.2
	c-3.4-2.3-6.2-5.5-8-9.2C27.8,60.5,28.4,60.1,28.9,59.7"/>
<path class="st4" d="M83.1,35c1.7-1.3,4.1-1.4,6.1-0.7c0.7,0.3,1.5,0.7,1.8,1.5c-0.3,0.4-0.7,0.7-1.1,1c-0.6-0.5-1.1-1-1.9-1.2
	c-1.8-0.5-3.8,0-4.9,1.6c-0.9,1.1-0.9,2.6-0.8,3.9c0.4,2.1,2.5,3.6,4.6,3.4c1.9,0,3.7-1.6,3.7-3.5c-1.4-0.1-2.7,0-4.1-0.1
	c-0.2-0.4-0.2-0.9-0.1-1.4c1.9-0.2,3.8-0.1,5.7-0.1c0.2,1.7-0.1,3.6-1.3,4.9c-2.1,2.2-5.9,2.3-8.2,0.3c-1.4-1.2-2.3-3.2-2.2-5.1
	C80.7,37.7,81.7,36,83.1,35 M122.3,34.1c0.5-0.1,1.1-0.1,1.6-0.1c0.1,3.8,0,7.7,0,11.5c-0.5,0.2-1.1,0.1-1.7,0.1
	C122.3,41.8,122.3,38,122.3,34.1 M96.7,37.2c1.2-0.3,2.5-0.1,3.5,0.6c2,1.3,2.5,4.2,1.3,6.2c-0.7,1.4-2.3,2.1-3.9,2.1
	c-1-0.1-2.1-0.5-2.8-1.2c-1.2-1.2-1.6-3.1-1.1-4.7C94,38.7,95.3,37.6,96.7,37.2 M96.9,38.8c-1,0.3-1.6,1.3-1.7,2.3
	c-0.1,1,0.1,2.2,1,2.8c1.3,1.2,3.7,0.4,4.1-1.3c0.2-1.1,0.2-2.4-0.7-3.2C99,38.6,97.8,38.5,96.9,38.8 M106.1,37.2
	c1.1-0.2,2.3-0.2,3.3,0.4c2.3,1.2,2.9,4.5,1.5,6.6c-0.8,1.2-2.2,1.9-3.6,1.9c-1.3-0.1-2.7-0.7-3.5-1.8c-0.7-1-0.9-2.3-0.7-3.5
	C103.2,39.1,104.5,37.7,106.1,37.2 M106.5,38.7c-2.2,0.7-2.5,4.1-0.6,5.3c0.9,0.6,2.3,0.6,3.1-0.1c1.3-1,1.4-3.2,0.3-4.5
	C108.5,38.7,107.4,38.5,106.5,38.7 M112.6,40.1c0.4-1.7,2.1-3.3,4-3.1c0.9-0.1,1.6,0.5,2.4,1c0.1-0.2,0.1-0.5,0.2-0.7
	c0.5,0,1,0,1.5,0c0.1,2.7,0,5.4,0,8c0,1.3-0.5,2.7-1.7,3.5c-1,0.6-2.3,0.7-3.4,0.5c-1.3-0.2-2.4-1.1-2.8-2.3
	c0.4-0.3,0.8-0.7,1.4-0.6c0.4,0.5,0.8,1,1.4,1.3c1.1,0.5,2.4,0.1,3.1-0.9c0.4-0.6,0.4-1.3,0.4-1.9c-0.9,0.6-1.8,1.2-2.9,1.1
	c-1.1-0.2-2.2-0.6-2.8-1.6C112.4,43.2,112.2,41.6,112.6,40.1 M115.6,38.8c-1.8,0.8-2.1,3.6-0.8,5c0.7,0.8,2,0.9,2.9,0.4
	c1.8-1.1,1.8-4.1,0.1-5.3C117.2,38.6,116.3,38.5,115.6,38.8 M126.6,38.2c0.8-0.8,1.9-1.3,3-1.2c1.4-0.1,2.7,0.8,3.4,2
	c0.5,0.8,0.5,1.8,0.5,2.8c-2.1,0.3-4.2,0-6.3,0.1c-0.2,1.6,1.5,2.9,3,2.5c0.9-0.1,1.3-0.8,1.9-1.4c0.4,0.2,0.9,0.4,1.3,0.6
	c-0.3,1.2-1.5,2-2.7,2.3c-1.2,0.4-2.6,0-3.6-0.7c-1.1-0.8-1.6-2.3-1.7-3.6C125.3,40.4,125.7,39.1,126.6,38.2 M128.4,38.8
	c-0.7,0.3-1,1-1.3,1.7c1.5,0,3,0,4.6,0c-0.2-0.5-0.3-1-0.7-1.4C130.2,38.5,129.2,38.5,128.4,38.8"/>
<g>
	<path class="st4" d="M81.7,62.5c0.7,0.4,1.6,0.8,2.7,0.8c1.5,0,2.4-0.8,2.4-2c0-1.1-0.6-1.7-2.2-2.3c-1.9-0.7-3-1.6-3-3.3
		c0-1.8,1.5-3.1,3.7-3.1c1.2,0,2,0.3,2.5,0.6l-0.4,1.2c-0.4-0.2-1.1-0.5-2.2-0.5c-1.6,0-2.2,0.9-2.2,1.7c0,1.1,0.7,1.6,2.3,2.2
		c1.9,0.8,2.9,1.7,2.9,3.4c0,1.8-1.3,3.3-4,3.3c-1.1,0-2.3-0.3-2.9-0.7L81.7,62.5z"/>
	<path class="st4" d="M97.3,60.1c0,3.1-2.1,4.4-4.1,4.4c-2.2,0-4-1.6-4-4.3c0-2.8,1.8-4.4,4.1-4.4C95.7,55.9,97.3,57.6,97.3,60.1z
		 M90.8,60.2c0,1.8,1,3.2,2.5,3.2c1.4,0,2.5-1.3,2.5-3.2c0-1.4-0.7-3.2-2.5-3.2C91.5,57,90.8,58.6,90.8,60.2z"/>
	<path class="st4" d="M98.6,52.2h1.5v12.1h-1.5V52.2z"/>
	<path class="st4" d="M109,62.1c0,0.9,0,1.6,0.1,2.3h-1.3l-0.1-1.3h0c-0.4,0.7-1.3,1.5-2.7,1.5c-1.3,0-2.9-0.7-2.9-3.6v-4.8h1.5v4.6
		c0,1.6,0.5,2.6,1.8,2.6c1,0,1.7-0.7,2-1.4c0.1-0.2,0.1-0.5,0.1-0.8v-5.1h1.5V62.1z"/>
	<path class="st4" d="M112.8,53.7v2.4h2.2v1.1h-2.2v4.5c0,1,0.3,1.6,1.1,1.6c0.4,0,0.7-0.1,0.9-0.1l0.1,1.1
		c-0.3,0.1-0.8,0.2-1.3,0.2c-0.7,0-1.3-0.2-1.6-0.6c-0.4-0.4-0.6-1.2-0.6-2.2v-4.5H110v-1.1h1.3v-2L112.8,53.7z"/>
	<path class="st4" d="M117.7,53.7c0,0.5-0.4,0.9-1,0.9c-0.5,0-0.9-0.4-0.9-0.9c0-0.5,0.4-0.9,0.9-0.9
		C117.4,52.8,117.7,53.2,117.7,53.7z M116,64.3v-8.3h1.5v8.3H116z"/>
	<path class="st4" d="M127,60.1c0,3.1-2.1,4.4-4.1,4.4c-2.2,0-4-1.6-4-4.3c0-2.8,1.8-4.4,4.1-4.4C125.3,55.9,127,57.6,127,60.1z
		 M120.4,60.2c0,1.8,1,3.2,2.5,3.2c1.4,0,2.5-1.3,2.5-3.2c0-1.4-0.7-3.2-2.5-3.2S120.4,58.6,120.4,60.2z"/>
	<path class="st4" d="M128.3,58.3c0-0.9,0-1.6-0.1-2.2h1.3l0.1,1.4h0c0.4-0.8,1.4-1.6,2.7-1.6c1.1,0,2.9,0.7,2.9,3.5v4.9h-1.5v-4.8
		c0-1.3-0.5-2.4-1.9-2.4c-1,0-1.8,0.7-2,1.5c-0.1,0.2-0.1,0.4-0.1,0.7v5h-1.5V58.3z"/>
	<path class="st4" d="M137,62.8c0.4,0.3,1.2,0.6,2,0.6c1.1,0,1.6-0.5,1.6-1.2c0-0.7-0.4-1.1-1.5-1.5c-1.5-0.5-2.2-1.3-2.2-2.3
		c0-1.3,1.1-2.4,2.9-2.4c0.8,0,1.6,0.2,2,0.5l-0.4,1.1c-0.3-0.2-0.9-0.5-1.7-0.5c-0.9,0-1.4,0.5-1.4,1.1c0,0.7,0.5,1,1.6,1.4
		c1.4,0.5,2.2,1.3,2.2,2.5c0,1.5-1.1,2.5-3.1,2.5c-0.9,0-1.7-0.2-2.3-0.6L137,62.8z"/>
</g>
</svg>
