<?xml version="1.0" encoding="utf-8"?>
<!-- Generator: Adobe Illustrator 28.1.0, SVG Export Plug-In . SVG Version: 6.00 Build 0)  -->
<svg version="1.1" id="Layer_1" xmlns="http://www.w3.org/2000/svg" xmlns:xlink="http://www.w3.org/1999/xlink" x="0px" y="0px"
	 viewBox="0 0 166 100" style="enable-background:new 0 0 166 100;" xml:space="preserve">
<style type="text/css">
	.st0{fill:#004990;}
</style>
<path class="st0" d="M42.4,29.7v40.5h41.4l40.5-40.5L42.4,29.7z M53.6,37.3L53.6,37.3c3,0,6.5,0.8,9.1,2.2l-2.8,4.9
	c-2.9-1.4-4.3-1.5-5.9-1.6c-2.4-0.1-3.6,0.7-3.7,1.7c0,1.1,2.3,2.2,4.5,2.9c3.3,1,7.5,2.4,8.1,6.5l6-15.9h7l7,19l0-19H91
	c7.7,0,11.3,2.6,11.3,8.6c0,5.4-3.7,8.6-10,8.6h-2.6l0,7.1l-12.2,0L76.6,59c-1.3,0.4-2.7,0.7-4.2,0.7c-1.6,0-3-0.2-4.3-0.7l-1.2,3.1
	l-6.8,0l0.3-1.6c-0.1,0.1-0.2,0.2-0.3,0.3c-1.8,1.5-4.1,2.1-6.9,2.2h-0.7c-3.1,0-6.1-0.8-8.8-2.3l2.5-4.9c2.7,1.6,4.4,1.9,6.7,1.9
	c1.2,0,2-0.2,2.6-0.8c0.3-0.3,0.5-0.8,0.5-1.3c0-1.3-1.8-1.9-4-2.6c-1.8-0.6-3.9-1.3-5.5-2.5c-1.9-1.4-2.8-3.1-2.8-5.6
	c0-1.8,0.7-3.4,1.9-4.7C47.3,38.4,50.1,37.3,53.6,37.3L53.6,37.3z M89.7,42.9v6.5h1.8c2.4,0,4.2-0.8,4.2-3.3c0-2.4-1.9-3.2-4.2-3.2
	L89.7,42.9z M72.3,45.6l-2.5,8c0.8,0.3,1.6,0.5,2.6,0.5c0.9,0,1.8-0.2,2.5-0.4L72.3,45.6L72.3,45.6z"/>
</svg>
