<?xml version="1.0" encoding="utf-8"?>
<!-- Generator: Adobe Illustrator 28.1.0, SVG Export Plug-In . SVG Version: 6.00 Build 0)  -->
<svg version="1.1" id="Layer_1" xmlns="http://www.w3.org/2000/svg" xmlns:xlink="http://www.w3.org/1999/xlink" x="0px" y="0px"
	 viewBox="0 0 166 100" style="enable-background:new 0 0 166 100;" xml:space="preserve">
<style type="text/css">
	.st0{fill:#00A1E0;}
	.st1{fill:#FFFFFF;}
</style>
<g>
	<path class="st0" d="M75.8,25.2c2.9-3,7-4.9,11.5-4.9c6,0,11.2,3.3,14,8.3c2.4-1.1,5.1-1.7,7.9-1.7c10.8,0,19.5,8.8,19.5,19.7
		c0,10.9-8.7,19.7-19.5,19.7c-1.3,0-2.6-0.1-3.8-0.4c-2.4,4.4-7.1,7.3-12.5,7.3c-2.2,0-4.4-0.5-6.2-1.4c-2.5,5.8-8.3,9.9-15,9.9
		c-7,0-13-4.4-15.3-10.7c-1,0.2-2,0.3-3.1,0.3c-8.4,0-15.1-6.8-15.1-15.3c0-5.7,3-10.6,7.6-13.2c-0.9-2.1-1.4-4.5-1.4-7
		c0-9.7,7.9-17.6,17.6-17.6C67.5,18.2,72.5,21,75.8,25.2"/>
	<path class="st1" d="M51.2,51.1c-0.1,0.1,0,0.2,0,0.2c0.2,0.1,0.3,0.2,0.5,0.3c0.9,0.5,1.8,0.6,2.7,0.6c1.9,0,3-1,3-2.6v0
		c0-1.5-1.3-2-2.5-2.4l-0.2-0.1c-0.9-0.3-1.7-0.6-1.7-1.2v0c0-0.5,0.5-0.9,1.2-0.9c0.8,0,1.8,0.3,2.4,0.6c0,0,0.2,0.1,0.2-0.1
		c0-0.1,0.3-0.9,0.4-1c0-0.1,0-0.2-0.1-0.2c-0.7-0.4-1.7-0.7-2.7-0.7l-0.2,0c-1.7,0-2.9,1-2.9,2.5v0c0,1.6,1.3,2.1,2.5,2.4l0.2,0.1
		c0.9,0.3,1.7,0.5,1.7,1.1v0c0,0.6-0.5,1-1.3,1c-0.3,0-1.3,0-2.4-0.7c-0.1-0.1-0.2-0.1-0.3-0.2c-0.1,0-0.2-0.1-0.2,0.1L51.2,51.1
		L51.2,51.1z M78.4,51.1c-0.1,0.1,0,0.2,0,0.2c0.2,0.1,0.3,0.2,0.5,0.3c0.9,0.5,1.8,0.6,2.7,0.6c1.9,0,3-1,3-2.6v0
		c0-1.5-1.3-2-2.5-2.4L82,47.2c-0.9-0.3-1.7-0.6-1.7-1.2v0c0-0.5,0.5-0.9,1.2-0.9c0.8,0,1.8,0.3,2.4,0.6c0,0,0.2,0.1,0.2-0.1
		c0-0.1,0.3-0.9,0.4-1c0-0.1,0-0.2-0.1-0.2c-0.7-0.4-1.7-0.7-2.7-0.7l-0.2,0c-1.7,0-2.9,1-2.9,2.5v0c0,1.6,1.3,2.1,2.5,2.4l0.2,0.1
		c0.9,0.3,1.7,0.5,1.7,1.1v0c0,0.6-0.5,1-1.3,1c-0.3,0-1.3,0-2.4-0.7c-0.1-0.1-0.2-0.1-0.3-0.2c0,0-0.2-0.1-0.2,0.1L78.4,51.1
		L78.4,51.1z M97,48c0,0.9-0.2,1.6-0.5,2.1c-0.3,0.5-0.8,0.7-1.5,0.7c-0.7,0-1.2-0.2-1.5-0.7C93.1,49.6,93,48.9,93,48
		c0-0.9,0.2-1.6,0.5-2.1c0.3-0.5,0.8-0.7,1.5-0.7c0.7,0,1.2,0.2,1.5,0.7C96.8,46.4,97,47.1,97,48 M98.5,46.4c-0.2-0.5-0.4-1-0.7-1.3
		c-0.3-0.4-0.7-0.7-1.2-0.9c-0.5-0.2-1-0.3-1.7-0.3c-0.6,0-1.2,0.1-1.7,0.3c-0.5,0.2-0.9,0.5-1.2,0.9c-0.3,0.4-0.6,0.8-0.7,1.3
		c-0.2,0.5-0.2,1.1-0.2,1.7s0.1,1.2,0.2,1.7c0.2,0.5,0.4,1,0.7,1.3c0.3,0.4,0.7,0.7,1.2,0.9c0.5,0.2,1,0.3,1.7,0.3
		c0.6,0,1.2-0.1,1.7-0.3c0.5-0.2,0.9-0.5,1.2-0.9c0.3-0.4,0.6-0.8,0.7-1.3c0.2-0.5,0.2-1.1,0.2-1.7S98.7,46.9,98.5,46.4 M111.3,50.6
		c-0.1-0.2-0.2-0.1-0.2-0.1c-0.2,0.1-0.5,0.2-0.7,0.2c-0.3,0-0.5,0.1-0.9,0.1c-0.8,0-1.3-0.2-1.8-0.7c-0.4-0.4-0.7-1.2-0.7-2.1
		c0-0.9,0.2-1.5,0.6-2c0.4-0.5,1-0.8,1.7-0.8c0.6,0,1.1,0.1,1.6,0.2c0,0,0.1,0.1,0.2-0.1c0.1-0.4,0.2-0.6,0.4-1.1
		c0-0.1-0.1-0.2-0.1-0.2c-0.2-0.1-0.7-0.2-1-0.3c-0.3-0.1-0.7-0.1-1.2-0.1c-0.7,0-1.2,0.1-1.7,0.3c-0.5,0.2-0.9,0.5-1.2,0.9
		c-0.3,0.4-0.6,0.8-0.8,1.3c-0.2,0.5-0.3,1.1-0.3,1.7c0,1.3,0.3,2.3,1,3.1c0.7,0.8,1.7,1.2,3.1,1.2c0.8,0,1.6-0.2,2.2-0.4
		c0,0,0.1-0.1,0.1-0.2L111.3,50.6L111.3,50.6z M114,47.2c0.1-0.5,0.2-0.9,0.4-1.2c0.3-0.5,0.8-0.8,1.5-0.8s1.1,0.3,1.5,0.8
		c0.2,0.3,0.3,0.8,0.3,1.2H114L114,47.2z M119.2,46.1c-0.1-0.5-0.5-1-0.7-1.2c-0.3-0.4-0.7-0.6-1-0.8c-0.4-0.2-0.9-0.3-1.5-0.3
		c-0.7,0-1.3,0.1-1.7,0.3c-0.5,0.2-0.9,0.5-1.2,0.9c-0.3,0.4-0.6,0.8-0.7,1.4c-0.2,0.5-0.2,1.1-0.2,1.7c0,0.6,0.1,1.2,0.2,1.7
		c0.2,0.5,0.4,1,0.8,1.3c0.3,0.4,0.8,0.7,1.3,0.9c0.5,0.2,1.2,0.3,1.9,0.3c1.5,0,2.3-0.3,2.6-0.5c0.1,0,0.1-0.1,0-0.3l-0.3-1
		c-0.1-0.1-0.2-0.1-0.2-0.1c-0.4,0.1-0.9,0.4-2.2,0.4c-0.8,0-1.4-0.2-1.8-0.6c-0.4-0.4-0.6-1-0.6-1.7l5.3,0c0,0,0.1,0,0.2-0.1
		C119.4,48.3,119.5,47.3,119.2,46.1 M71.9,47.2c0.1-0.5,0.2-0.9,0.4-1.2c0.3-0.5,0.8-0.8,1.5-0.8c0.7,0,1.1,0.3,1.5,0.8
		c0.2,0.3,0.3,0.8,0.3,1.2H71.9z M77.1,46.1c-0.1-0.5-0.5-1-0.7-1.2c-0.3-0.4-0.7-0.6-1-0.8c-0.4-0.2-0.9-0.3-1.5-0.3
		c-0.7,0-1.3,0.1-1.7,0.3c-0.5,0.2-0.9,0.5-1.2,0.9c-0.3,0.4-0.6,0.8-0.7,1.4c-0.2,0.5-0.2,1.1-0.2,1.7c0,0.6,0.1,1.2,0.2,1.7
		c0.2,0.5,0.4,1,0.8,1.3c0.3,0.4,0.8,0.7,1.3,0.9c0.5,0.2,1.2,0.3,1.9,0.3c1.5,0,2.3-0.3,2.6-0.5c0.1,0,0.1-0.1,0-0.3l-0.3-1
		c-0.1-0.1-0.2-0.1-0.2-0.1c-0.4,0.1-0.9,0.4-2.2,0.4c-0.8,0-1.4-0.2-1.8-0.6c-0.4-0.4-0.6-1-0.6-1.7l5.3,0c0,0,0.1,0,0.2-0.1
		C77.3,48.3,77.5,47.3,77.1,46.1 M60.5,50.6c-0.2-0.2-0.2-0.2-0.3-0.3c-0.1-0.2-0.2-0.4-0.2-0.7c0-0.5,0.2-0.8,0.5-1
		c0,0,0.5-0.4,1.5-0.4c0.8,0,1.4,0.1,1.4,0.1v2.4h0c0,0-0.7,0.1-1.4,0.2C61,51,60.5,50.6,60.5,50.6 M62.6,46.9c-0.2,0-0.5,0-0.8,0
		c-0.5,0-0.9,0.1-1.3,0.2c-0.4,0.1-0.8,0.3-1.1,0.5c-0.3,0.2-0.6,0.5-0.8,0.9c-0.2,0.3-0.3,0.8-0.3,1.2c0,0.5,0.1,0.9,0.2,1.2
		c0.2,0.3,0.4,0.6,0.7,0.8c0.3,0.2,0.7,0.4,1.1,0.5c0.4,0.1,0.9,0.1,1.4,0.1c0.5,0,1.1,0,1.6-0.1c0.5-0.1,1.1-0.2,1.3-0.3
		c0.1,0,0.2-0.1,0.4-0.1c0.1,0,0.1-0.2,0.1-0.2l0-4.8c0-1.1-0.3-1.8-0.8-2.3c-0.6-0.5-1.4-0.7-2.4-0.7c-0.4,0-1,0.1-1.4,0.1
		c0,0-1.1,0.2-1.6,0.6c0,0-0.1,0.1,0,0.2l0.4,1c0,0.1,0.2,0.1,0.2,0.1s0,0,0.1,0c1-0.5,2.3-0.5,2.3-0.5c0.6,0,1,0.1,1.3,0.3
		c0.3,0.2,0.4,0.6,0.4,1.3V47C63.1,47,62.6,46.9,62.6,46.9 M105,44.2c0-0.1,0-0.2-0.1-0.2c-0.1,0-0.5-0.1-0.9-0.2
		c-0.7,0-1,0.1-1.4,0.2c-0.3,0.1-0.7,0.4-0.9,0.7v-0.6c0-0.1-0.1-0.2-0.2-0.2h-1.3c-0.1,0-0.2,0.1-0.2,0.2v7.8
		c0,0.1,0.1,0.2,0.2,0.2h1.4c0.1,0,0.2-0.1,0.2-0.2V48c0-0.5,0.1-1,0.2-1.4c0.1-0.3,0.3-0.6,0.5-0.8c0.2-0.2,0.4-0.3,0.6-0.4
		c0.2-0.1,0.5-0.1,0.7-0.1c0.3,0,0.6,0.1,0.6,0.1c0.1,0,0.2-0.1,0.2-0.1C104.7,45.1,105,44.4,105,44.2"/>
	<path class="st1" d="M92.1,40.6c-0.2-0.1-0.3-0.1-0.5-0.1c-0.2,0-0.4-0.1-0.7-0.1c-1,0-1.7,0.3-2.2,0.8c-0.5,0.5-0.9,1.3-1.1,2.4
		l-0.1,0.4h-1.2c0,0-0.1,0-0.2,0.2l-0.2,1.1c0,0.1,0,0.2,0.2,0.2h1.2l-1.2,6.6c-0.1,0.5-0.2,1-0.3,1.3c-0.1,0.3-0.2,0.6-0.4,0.7
		c-0.1,0.2-0.3,0.3-0.5,0.4c-0.2,0.1-0.4,0.1-0.6,0.1c-0.1,0-0.3,0-0.4,0c-0.1,0-0.2-0.1-0.3-0.1c0,0-0.1-0.1-0.2,0.1
		c0,0.1-0.4,1-0.4,1.1c0,0.1,0,0.2,0.1,0.2c0.2,0.1,0.3,0.1,0.5,0.1c0.3,0.1,0.5,0.1,0.8,0.1c0.5,0,0.9-0.1,1.3-0.2
		c0.4-0.1,0.7-0.4,1-0.7c0.3-0.3,0.5-0.7,0.7-1.2c0.2-0.5,0.3-1.1,0.5-1.8l1.2-6.7h1.7c0,0,0.1,0,0.2-0.2l0.2-1.1
		c0-0.1,0-0.2-0.2-0.2h-1.7c0,0,0.1-0.6,0.3-1.2c0.1-0.2,0.2-0.4,0.4-0.6c0.1-0.1,0.3-0.2,0.4-0.3c0.2-0.1,0.4-0.1,0.6-0.1
		c0.2,0,0.3,0,0.4,0c0.2,0,0.2,0.1,0.3,0.1c0.2,0.1,0.2,0,0.2-0.1l0.4-1.1C92.2,40.6,92.1,40.6,92.1,40.6 M68.6,51.9
		c0,0.1-0.1,0.2-0.2,0.2H67c-0.1,0-0.1-0.1-0.1-0.2V40.7c0-0.1,0.1-0.2,0.1-0.2h1.4c0.1,0,0.2,0.1,0.2,0.2V51.9z"/>
</g>
</svg>
