<svg width="93" height="66" viewBox="0 0 93 66" fill="none" xmlns="http://www.w3.org/2000/svg">
<path d="M36.0339 63.2053H36.4864V63.0544L36.0339 62.1495L35.5814 63.0544V63.2053H36.0339V63.5069H35.4306C35.4306 63.8086 35.129 64.7135 35.129 64.7135C35.129 64.8643 35.2798 64.8643 35.2798 65.0151H35.5814C35.5814 65.166 35.4306 65.166 35.4306 65.166H34.224V65.0151H34.5257C34.5257 64.8643 34.6765 64.8643 34.6765 64.8643L36.1847 61.3954V61.2446C36.3356 61.2446 36.3356 61.2446 36.3356 61.3954L37.3913 64.5627C37.5421 64.8643 37.693 64.8643 37.693 65.0151H37.9946C37.9946 65.166 37.9946 65.166 37.8438 65.166H36.4864V65.0151H36.788C36.788 64.8643 36.9389 64.8643 36.9389 64.7135L36.6372 63.6577C36.4864 63.5069 36.4864 63.5069 36.0339 63.5069V63.2053ZM30.6002 61.3954H31.2035C31.8068 61.5462 31.8068 61.5462 31.8068 61.9987C31.8068 62.1495 31.8068 62.1495 31.656 62.1495C31.5051 62.1495 31.3543 61.5462 30.6002 61.5462C29.8461 61.5462 29.092 62.3003 29.092 63.3561C29.092 64.261 29.6953 65.0151 30.6002 65.0151C31.0527 65.0151 31.3543 64.8643 31.5051 64.5627C31.656 64.4119 31.656 64.261 31.8068 64.261V64.4119C31.8068 64.7135 31.656 64.8643 31.656 64.8643C31.656 65.0151 31.2035 65.166 30.6002 65.166C29.5444 65.166 28.4887 64.5627 28.4887 63.3561C28.4887 62.3003 29.2428 61.3954 30.6002 61.3954ZM43.8808 61.8479C43.8808 61.697 43.73 61.697 43.4283 61.697C43.2775 61.697 43.2775 61.697 43.2775 61.5462C43.2775 61.3954 43.2775 61.3954 43.4283 61.3954H44.6349C44.6349 61.3954 44.7857 61.3954 44.7857 61.5462C44.7857 61.5462 44.6349 61.697 44.4841 61.697C44.1824 61.697 44.1824 61.697 44.1824 62.1495V65.166C44.1824 65.166 44.1824 65.3168 44.0316 65.3168C43.8808 65.3168 43.8808 65.166 43.73 65.166L41.3168 62.1495H41.166V64.5627C41.166 64.8643 41.3168 64.8643 41.4676 64.8643C41.7693 65.0151 41.9201 65.0151 41.9201 65.0151V65.166H40.4119C40.4119 65.166 40.261 65.166 40.261 65.0151L40.7135 64.8643C40.8643 64.8643 40.8643 64.8643 40.8643 64.7135L41.0152 62.4512V62.1495C41.0152 61.697 40.8643 61.697 40.7135 61.697C40.4119 61.697 40.261 61.697 40.261 61.5462L40.4119 61.3954H41.166C41.3168 61.3954 41.4676 61.5462 41.4676 61.5462L43.8808 64.4119V61.8479ZM48.858 63.2053H49.3104V63.0544L49.0088 62.1495H48.858L48.4055 63.0544V63.2053H48.858V63.5069H48.4055C48.2547 63.8086 47.953 64.7135 47.953 64.7135C47.953 64.8643 48.1038 64.8643 48.1038 64.8643C48.2547 65.0151 48.4055 65.0151 48.4055 65.0151C48.4055 65.166 48.2547 65.166 48.2547 65.166H47.0481V65.0151C47.0481 65.0151 47.1989 65.0151 47.3497 64.8643C47.5006 64.8643 47.5005 64.8643 47.5005 64.7135L49.0088 61.2446C49.1596 61.2446 49.1596 61.2446 49.1596 61.3954L50.2154 64.5627C50.3662 64.8643 50.517 64.8643 50.517 64.8643C50.6678 65.0151 50.8187 65.0151 50.8187 65.0151C50.8187 65.166 50.8187 65.166 50.6678 65.166H49.3104V65.0151C49.3104 65.0151 49.4613 65.0151 49.6121 64.8643C49.6121 64.8643 49.7629 64.8643 49.7629 64.7135V64.5627L49.4612 63.6577C49.4612 63.5069 49.3104 63.5069 48.858 63.5069V63.2053ZM54.2876 63.0544V64.4119C54.2876 64.7135 54.5892 65.0151 55.0417 65.0151C55.4942 65.0151 56.5499 64.5627 56.5499 63.3561C56.5499 62.1495 55.4942 61.5462 54.7401 61.5462C54.2876 61.5462 54.2876 61.697 54.2876 61.8479V63.0544H53.6843V61.697H53.3827L53.2318 61.5462C53.2318 61.3954 53.3827 61.3954 53.3827 61.3954H54.8909C56.0975 61.3954 57.1532 61.9987 57.1532 63.5069C57.1532 64.4119 56.3991 65.166 55.3434 65.166H53.3867C53.3867 65.166 53.2359 65.166 53.2359 65.0151H53.5375C53.6884 64.8643 53.6884 64.8643 53.6884 64.5627V63.0544H54.2876ZM61.3804 63.2053H61.8328V63.0544L61.3804 62.1495L60.9279 63.0544V63.2053H61.3804V63.5069H60.9279C60.7771 63.8086 60.4754 64.7135 60.4754 64.7135C60.4754 64.8643 60.6262 64.8643 60.6262 64.8643C60.7771 65.0151 60.9279 65.0151 60.9279 65.0151C60.9279 65.166 60.7771 65.166 60.7771 65.166H59.5705V65.0151C59.5705 65.0151 59.7213 65.0151 59.8721 64.8643C59.8721 64.8643 60.023 64.8643 60.023 64.7135L61.5312 61.2446C61.682 61.2446 61.682 61.2446 61.682 61.3954L62.7378 64.5627C62.8886 64.8643 63.0394 64.8643 63.0394 64.8643C63.1902 65.0151 63.3411 65.0151 63.3411 65.0151C63.3411 65.166 63.3411 65.166 63.1902 65.166H61.8328V65.0151C61.8328 65.0151 61.9836 65.0151 62.1345 64.8643C62.1345 64.8643 62.2853 64.8643 62.2853 64.7135V64.5627L61.9837 63.6577C61.8328 63.5069 61.8328 63.5069 61.3804 63.5069V63.2053ZM38.2963 35.2908C38.2963 35.1399 38.1454 34.8383 37.8438 34.8383C36.3356 35.2908 35.129 35.4416 34.224 35.2908C32.1125 34.9891 31.5092 35.2908 30.9059 35.5924C30.6043 35.7432 30.4535 35.4416 30.7551 35.2908C32.8666 33.7825 35.5814 33.9333 36.6413 34.0842C37.697 34.235 40.1102 34.3858 41.3168 34.235C42.5234 33.9333 42.6742 33.9333 43.1267 33.9333C43.5791 33.9333 43.8808 33.9333 43.8808 34.235C43.8808 34.5366 43.5791 34.3858 42.825 34.6875C42.3726 34.8383 41.3168 35.4416 41.0152 36.799L37.697 50.6788C37.5462 50.9804 37.5462 51.7346 37.5462 52.187C37.5462 52.7903 37.8479 52.7903 38.3003 52.7903C39.5069 52.9411 39.6577 53.092 39.6577 53.3936C39.6577 53.5444 39.5069 53.6953 39.2053 53.6953C38.1495 53.6953 36.4905 53.5444 35.1331 53.5444C33.7756 53.5444 33.0215 53.6953 32.4182 53.6953C32.1166 53.6953 31.9658 53.5444 31.9658 53.3936C31.9658 53.092 32.1166 52.9411 32.7199 52.9411C33.3232 52.7903 34.0773 52.4887 34.2281 51.5837C35.8168 45.2209 36.7076 41.6536 38.2963 35.2908Z" fill="black"/>
<path d="M41.0111 46.0032C41.6144 46.0032 41.916 46.6065 42.2177 47.0589C42.5193 47.5114 42.9718 48.1147 43.7259 48.1147C44.3292 48.1147 44.48 47.5114 44.48 47.2098C44.48 46.154 43.8767 44.9474 43.2734 43.8916C42.6701 42.8359 42.0668 41.9309 42.0668 41.026C42.0668 39.6686 44.0275 37.8587 45.8374 37.8587C46.7424 37.8587 47.6473 38.3112 47.6473 39.3669C47.6473 39.8194 47.3456 40.2719 46.7423 40.2719C46.4407 40.2719 46.2899 40.1211 45.9882 39.8194C45.5358 39.3669 45.2341 38.6128 44.6308 38.6128C44.1784 38.6128 43.8767 38.9145 43.8767 39.5178C43.8767 40.2719 44.6308 41.3277 45.2341 42.2326C45.8374 43.2884 46.4407 44.3441 46.4407 45.2491C46.4407 47.2098 44.3292 48.8688 42.2177 48.8688C41.3127 48.8688 40.257 48.2655 40.257 47.2098C40.257 46.6065 40.4078 46.0032 41.0111 46.0032ZM60.0229 44.9474C58.9672 46.3048 57.0065 48.718 55.0458 48.8729C53.8392 49.0237 53.5375 48.4204 53.5375 47.2138C53.2359 43.7449 58.2131 38.9145 61.0828 38.6128C61.6861 38.6128 61.8369 38.7637 62.2894 38.7637C62.8927 37.8587 62.8927 37.8587 63.4959 37.8587C64.4009 37.8587 65.155 38.0095 65.155 38.3112C65.155 38.9145 61.9877 45.8564 61.9877 46.6105C61.9877 46.7614 61.8369 47.2138 62.4402 47.2138C63.0435 47.3647 64.7025 45.1023 64.7025 45.1023C64.8534 45.1023 64.8534 45.2531 65.0042 45.4039C65.0042 45.7056 63.1943 48.7221 60.4795 48.8729C59.7254 48.8729 59.5745 48.7221 59.4237 48.2696C59.4237 47.2138 60.7811 44.6498 60.7811 44.3482C60.7811 44.1974 60.7811 44.1974 60.6303 44.1974C60.6262 44.1933 60.4754 44.4949 60.0229 44.9474L59.5705 44.6458C60.0229 44.1933 60.1738 43.7408 60.4754 43.4392C61.5312 41.9309 61.9836 40.5735 61.9836 40.1211C62.1345 39.5178 61.8328 39.2161 61.2295 39.2161C59.118 39.367 55.9507 43.8957 56.1015 45.8564C56.1015 46.3089 56.4032 46.4597 57.0065 46.4597C57.7606 46.4597 58.6655 45.5548 59.5705 44.499L60.0229 44.9474ZM53.8392 33.6316C54.1408 33.6316 54.4425 33.7824 54.4425 34.0841C54.4425 34.3857 53.99 34.989 53.8392 35.4415L51.2752 42.8359C50.5211 45.0982 50.0686 46.154 50.0686 46.4556C50.0686 46.6065 50.2194 46.9081 50.5211 46.9081C50.8227 46.9081 51.5768 46.154 52.1801 45.3999C52.6326 44.9474 52.7834 44.6458 52.7834 44.6458C52.9342 44.6458 52.9343 44.7966 52.9343 44.9474C52.9343 45.0982 52.331 46.154 51.5768 46.9081C50.5211 47.9639 49.4653 48.8688 48.5604 48.8688C47.9571 48.8688 47.6554 48.718 47.6554 47.813C47.6554 47.2098 47.6554 46.6065 48.1079 45.5507L51.2752 36.3464C51.426 35.8939 51.426 35.5923 51.426 35.4415C51.426 34.989 51.1244 34.6874 50.0686 34.5365C49.767 34.5365 49.6161 34.5365 49.6161 34.3857C49.6161 34.0841 49.767 33.7824 50.3703 33.9332C52.0252 34.0841 52.7794 33.9332 53.8392 33.6316ZM68.4731 40.8752L66.3616 47.063C66.2108 47.3647 66.0599 47.6663 66.0599 48.1188C66.0599 48.4204 66.2108 48.8729 66.9649 48.8729C67.5682 48.8729 67.8698 48.4204 68.4731 47.2138C71.6404 41.935 72.8511 39.0653 74.5101 39.0653C74.8118 39.0653 75.1134 39.2161 75.1134 39.5178C75.1134 39.8194 74.9626 40.1211 74.3593 41.1768L71.4937 47.0589C71.0412 47.9639 70.8904 49.0196 72.0969 49.0196C75.1134 49.0196 77.2249 45.8523 77.2249 45.3999C77.2249 45.2491 77.0741 45.0982 76.9233 45.0982C76.7725 45.249 76.6216 45.7015 76.1692 46.0032C76.0183 46.3048 75.1134 47.2098 74.6609 47.2098C74.5101 47.2098 74.2085 47.0589 74.2085 46.9081C74.2085 46.6065 74.3593 46.3048 74.8118 45.3999L76.7725 41.4785C77.2249 40.4227 77.3758 39.8194 77.3758 39.3669C77.3758 38.1604 76.32 37.7079 75.4151 37.7079C72.8511 37.7079 71.3388 41.7801 69.0764 45.4039V45.2531C69.9813 42.84 71.0371 40.5735 71.0371 39.0653C71.0371 38.3112 70.7355 37.8587 69.8305 37.8587C68.1715 37.8587 67.4174 39.5178 66.3616 40.7244C65.7583 41.4785 65.9091 41.6293 65.9091 41.7801H66.0599C66.2108 41.9309 66.3616 41.4785 66.9649 40.7244C67.719 39.9702 68.0206 39.5178 68.3223 39.5178C68.7748 39.5178 68.7748 40.1211 68.4731 40.8752ZM88.8424 29.5594H90.6523C91.2556 29.5594 91.5572 29.5594 92.3113 29.4085C92.7638 29.2577 92.9146 29.5594 92.9146 29.7102C92.9146 29.861 92.9146 30.0118 92.613 30.6151L86.7309 45.3999C86.58 45.8523 86.4292 46.6065 86.4292 46.9081C86.4292 47.2098 86.58 47.3606 86.7309 47.3606C87.1833 47.3606 87.7866 46.7573 88.5407 45.8523C89.144 45.249 88.9932 45.2491 89.144 45.2491C89.2949 45.2491 89.2949 45.3999 89.2949 45.3999C89.2949 45.8523 87.3342 48.8688 84.7702 49.0196C84.1669 49.0196 84.016 48.8688 83.8652 48.4163C83.8652 47.813 84.016 47.3606 84.016 47.0589C84.1669 46.4556 84.6193 45.2491 84.921 44.7966V44.6458C84.6193 44.9474 84.3177 45.3999 84.016 45.7015L83.7144 45.0982C85.2226 43.59 86.7309 40.7203 86.7309 39.3629C86.7309 38.9104 86.2784 38.6088 85.8259 38.6088C83.4128 38.6088 80.2414 43.7367 80.3922 45.5507C80.3922 46.4556 80.9955 46.7573 81.448 46.6065C82.2021 46.3048 82.9562 45.7015 83.7103 45.0982L84.012 45.7015C82.6546 47.0589 80.9955 49.0196 79.1856 49.0196C77.979 49.0196 77.5266 47.5114 77.5266 46.9081C77.5266 44.0425 78.884 41.9309 79.9397 40.8711C82.8054 38.1563 84.9169 37.8546 85.3694 37.8546C86.1235 37.8546 86.7268 38.0055 87.0284 38.4579L89.7433 31.8176C89.8941 31.516 90.0449 31.0635 90.0449 30.7619C90.0449 30.4602 89.8941 30.3094 89.5924 30.1586C88.6875 30.1586 88.3859 30.1586 88.3859 29.8569C88.3899 29.5594 88.5407 29.5594 88.8424 29.5594ZM29.6953 3.00633L28.0362 9.49581C32.4101 9.34498 34.0732 6.1777 34.0732 4.66947C33.9224 2.2563 31.3584 0.597241 28.9452 0.597241C24.1189 0.748064 20.6459 2.40712 19.4393 4.51864C19.1376 5.42358 20.0426 5.57441 19.8918 6.63017C19.7409 7.53511 19.1376 8.1384 18.3835 8.1384C17.7802 8.1384 16.8753 7.53511 16.8753 6.32852C17.3278 2.85959 24.873 -0.764245 31.5092 0.140694C35.129 0.593164 36.788 1.79975 36.9388 4.21292C37.0897 6.17362 35.7323 9.79338 28.7903 10.2499H27.8854L26.8296 14.9254C26.6788 15.5287 26.6788 15.8304 26.6788 16.132C26.6788 16.7353 26.9804 16.8861 27.2821 16.8861C29.2428 17.037 28.9411 17.1878 28.9411 17.4894C28.9411 17.6403 28.7903 17.7911 28.187 17.7911C27.4329 17.7911 26.528 17.6403 25.0197 17.6403C23.8132 17.6403 21.7016 17.7911 21.2492 17.7911C20.9475 17.7911 20.7967 17.7911 20.7967 17.4894C20.7967 17.1878 20.7967 17.1878 21.2492 17.037C21.8525 16.8861 23.059 17.037 23.2099 15.9812C23.8132 13.4172 26.2263 3.45881 26.2263 3.45881C26.2263 3.30798 26.3771 3.30798 26.528 3.30798C26.9804 3.15716 28.7903 3.00634 29.3936 2.85551C29.6953 2.85144 29.6953 3.00633 29.6953 3.00633ZM69.9813 6.77691C71.0371 6.77691 72.2437 7.22938 72.2437 8.28515C72.2437 8.88844 71.942 9.34091 71.1879 9.34091C70.5846 9.34091 70.283 9.03926 69.8305 8.43597C69.6797 7.9835 69.6797 7.53103 69.0764 7.53103C68.3223 7.53103 67.5682 9.64256 67.2665 10.3967C66.6632 11.9049 66.3616 13.564 66.3616 14.3181C66.3616 15.3738 66.8141 15.6755 67.4173 15.6755C67.8698 15.6755 68.4731 15.6755 69.0764 15.0722C69.5289 14.6197 69.8305 14.0164 69.9813 14.0164C70.1322 14.0164 70.1322 14.3181 70.1322 14.3181C70.1322 14.6197 68.3223 18.0887 66.0559 18.0887C64.3968 18.0887 63.7935 16.5804 63.7935 15.0722C63.7976 11.3016 66.2108 6.77691 69.9813 6.77691ZM51.5728 0.438265C52.1761 0.438265 52.7794 0.739912 52.7794 1.64485C52.7794 2.85144 51.7236 3.9072 50.6678 3.9072C50.2154 3.9072 49.6121 3.60555 49.6121 2.54979C49.6121 1.19238 50.8187 0.438265 51.5728 0.438265ZM80.9955 18.2436C73.9027 18.3944 71.7912 16.5845 71.7912 14.3221C71.6404 10.4007 75.1093 6.77691 77.6733 6.77691C79.1816 6.77691 79.9357 7.68185 79.7849 9.03926C79.634 12.0557 75.411 12.659 73.7478 12.9607C73.8987 12.659 73.8987 12.5082 73.8987 12.5082C77.8201 11.6033 79.634 7.22938 77.6692 7.22938C76.161 7.22938 74.6528 10.5475 74.0495 12.2065C72.3904 17.0329 82.198 16.2788 82.3488 16.2788C87.0284 16.2788 90.1957 13.564 89.8941 12.5082C89.8941 12.3574 89.5924 11.9049 88.6875 11.7541C87.7826 11.6033 87.4809 10.2458 88.3859 9.64256C88.5367 9.49173 89.5924 9.03926 90.0449 9.9442C91.8589 13.564 88.0883 18.2436 80.9955 18.2436ZM47.6514 15.223C47.5005 15.6755 47.3497 16.4296 48.1038 16.2788C48.4055 16.2788 49.0088 15.6755 49.4612 15.223C49.9137 14.6197 50.0645 14.3181 50.2154 14.3181C50.3662 14.3181 50.517 14.3181 50.517 14.4689C50.517 15.223 47.6514 18.0887 45.389 18.0887C44.7857 18.0887 44.4841 17.9378 44.4841 17.3345C44.4841 17.0329 44.7857 16.4296 45.0874 15.8263L48.1038 9.7893C48.2547 9.33683 48.4055 9.03519 48.4055 9.03519C48.4055 8.73354 48.1038 8.58272 47.953 8.58272C47.3497 8.58272 46.8972 9.03519 46.4448 9.48765C45.8415 10.0909 45.6907 10.2418 45.5398 10.2418L45.389 10.0909C45.389 9.48766 48.7071 6.77284 50.2154 6.77284C50.9695 6.77284 51.1203 7.07449 51.1203 7.67778C51.1203 8.13025 50.9695 8.73354 50.8187 9.03519L47.6514 15.223ZM35.8831 11.6033C36.1847 11.4524 36.9388 9.03926 37.9946 8.88844C38.1454 8.88844 38.4471 9.19009 38.4471 9.34091C38.4471 9.79338 38.4471 9.9442 38.2963 10.6983C36.3356 16.7353 36.3356 16.5845 36.3356 17.037C36.3356 17.3386 36.1847 18.0927 37.3913 18.0927C37.9946 18.0927 38.4471 16.4337 40.4078 12.659C40.8602 11.9049 42.3685 8.58679 42.9718 8.58679C43.2734 8.58679 43.4242 8.73762 43.4242 9.19009C43.4242 9.79338 43.5751 10.2458 44.0275 10.2458C44.9325 10.2458 45.2341 9.49173 45.2341 8.58679C45.2341 7.9835 45.0833 6.77691 44.0275 6.77691C42.3685 6.77691 41.4635 9.49173 39.5028 13.4172V13.2664C40.1061 11.1549 40.4078 9.79745 40.4078 7.98758C40.5586 7.23346 40.1061 6.78099 39.5028 6.78099C37.8438 6.78099 35.5814 10.5516 35.5814 11.4565C35.5814 11.6033 35.7323 11.6033 35.8831 11.6033ZM54.2876 9.9442L52.0252 16.132C51.8744 16.4337 51.8744 16.7353 51.8744 17.1878C51.8744 17.4894 51.8744 17.9419 52.7794 17.9419C53.3826 17.9419 53.5335 17.4894 54.2876 16.2828C57.4549 11.004 58.5106 7.9835 60.1738 7.9835C60.4754 7.9835 60.7771 8.28515 60.7771 8.58679C60.7771 8.88844 60.6262 9.19009 60.1738 10.2458L57.3081 16.132C56.8557 17.037 56.7048 17.9419 57.7606 17.9419C60.7771 17.9419 62.8886 14.9254 62.8886 14.473C62.8886 14.1713 62.7378 14.1713 62.7378 14.1713C62.4361 14.3221 62.4361 14.7746 61.9836 15.0763C61.682 15.3779 60.9279 16.2828 60.4754 16.2828C60.1738 16.2828 60.0229 16.132 60.0229 15.9812C60.0229 15.6796 60.0229 15.3779 60.4754 14.3221L62.5869 10.5516C63.0394 9.49581 63.0394 8.89252 63.0394 8.44005C63.0394 7.23346 62.1345 6.78099 61.2295 6.78099C58.6655 6.78099 57.0024 10.8532 54.8909 14.477V14.3262C55.7958 11.9131 56.8516 9.65071 56.8516 8.1384C56.8516 7.23346 56.5499 6.93182 55.645 6.93182C53.9859 6.93182 53.2318 8.59087 52.1761 9.79746C51.5728 10.5516 51.7236 10.7024 51.7236 10.7024C51.7236 10.8532 51.7236 10.8532 51.8744 10.8532C52.0252 10.8532 52.1761 10.5516 52.7794 9.79746C53.5335 9.04334 53.6843 8.59087 54.1368 8.59087C54.4425 8.58679 54.5933 9.19009 54.2876 9.9442ZM7.81775 32.5758C7.21445 32.5758 6.30951 32.7267 5.70622 32.7267C5.25375 32.7267 4.95211 32.7267 4.95211 32.425C4.95211 32.1234 5.25375 32.1234 5.70622 31.9725C6.61116 31.8217 7.21445 31.0676 7.5161 29.5594C8.72269 22.4666 10.0801 18.0927 10.0801 17.6403C10.0801 17.1878 9.77845 17.037 8.11939 16.8861C7.81775 16.8861 7.66692 16.8861 7.66692 16.7353C7.66692 16.4337 7.81775 16.2828 8.11939 16.2828H19.1336C19.586 16.2828 19.7369 16.4337 19.7369 16.7353C19.7369 17.037 19.7369 17.1878 19.586 17.3386L19.2844 19.2993C19.1336 19.7518 19.1336 20.0534 18.9827 20.0534C18.5303 20.0534 18.5303 19.9026 18.3794 19.4501C18.3794 17.7911 17.7762 17.037 15.9663 17.037H14.0056C13.5531 17.037 13.4023 17.037 13.4023 17.4894L12.0449 23.0699V23.5224C12.0449 23.6732 12.1957 23.6732 13.2515 23.6732C16.4187 23.6732 16.8712 23.0699 17.4745 21.7125C17.6253 21.26 17.6253 21.1092 17.927 21.1092C18.0778 21.1092 18.0778 21.26 18.0778 21.4108C18.0778 21.7125 17.7762 22.9191 17.6253 23.6732C17.4745 24.4273 17.3237 24.8798 17.3237 25.9355C17.1729 26.388 17.022 26.9913 16.7204 26.9913C16.4187 26.9913 16.4187 26.8405 16.4187 26.5388V25.6339C16.4187 24.4273 15.6646 24.2765 14.3072 24.2765H12.3465C12.0449 24.2765 11.894 24.1257 11.894 24.2765L10.5366 29.8569C10.3858 30.3094 10.235 30.9127 10.235 31.2143C10.235 31.6668 10.5366 31.9685 11.4416 31.9685H12.9498C17.1729 31.9685 17.3237 30.3094 17.927 29.1028C18.0778 28.952 18.0778 28.6504 18.3794 28.6504C18.6811 28.6504 18.6811 28.952 18.6811 29.1028V29.8569L18.0778 32.4209C18.0778 32.5718 18.0778 32.7226 17.6253 32.7226L7.81775 32.5758ZM55.1966 28.9561C54.1408 30.1627 52.1801 32.7267 50.2194 32.8775C49.0129 33.0283 48.7112 32.2742 48.7112 31.2184C48.4096 27.7495 53.3908 22.7682 56.2564 22.6174C56.8597 22.6174 57.0106 22.7682 57.463 22.7682C57.9155 21.8633 58.0663 21.7125 58.5188 21.8633C59.5745 21.8633 60.3287 21.8633 60.3287 22.3158C60.3287 22.9191 57.1614 29.7102 57.1614 30.6151C57.1614 30.6151 57.0106 31.2184 57.6138 31.2184C58.2171 31.2184 59.7254 29.1069 59.8762 29.1069C60.027 29.1069 60.027 29.2577 60.027 29.4085C60.1778 29.5594 58.368 32.7267 55.6491 32.8775C54.895 32.8775 54.5933 32.7267 54.5933 32.2742C54.5933 31.2184 55.9507 28.5036 55.9507 28.202H55.7999C55.7999 28.202 55.6491 28.5036 55.1966 28.9561L54.7441 28.5036C55.0458 28.0511 55.3474 27.7495 55.6491 27.4478C56.7048 25.9396 57.1573 24.5822 57.1573 24.1297C57.3081 23.3756 57.0065 23.074 56.4032 23.2248C54.1408 23.3756 51.1244 27.9003 51.2752 29.7143C51.2752 30.3176 51.5768 30.4684 52.1801 30.4684C52.7834 30.3176 53.8392 29.5634 54.7441 28.5077L55.1966 28.9561ZM33.7716 30.766C33.7716 29.2577 35.4306 26.2413 35.8831 24.7289C35.8831 24.5781 35.7323 23.9748 35.129 23.9748C34.8273 23.9748 34.3749 24.1257 33.7716 24.8798C32.8666 25.9355 32.7158 26.2372 32.565 26.2372C32.565 26.2372 32.4142 26.2372 32.4142 26.0864C32.4142 25.4831 35.4306 21.7125 37.2446 21.7125C38.1495 21.7125 38.602 22.165 38.602 22.9191C38.602 23.2207 38.4512 23.824 38.3003 24.2765L36.6413 28.6504C36.4905 29.1028 36.3396 29.2536 36.3396 29.8569C36.3396 30.4602 36.6413 30.9127 37.3954 30.9127C39.2053 30.9127 41.4676 25.9355 41.9201 24.8757L42.825 22.4625C43.1267 21.8592 43.1267 21.7084 44.3333 21.7084C45.0874 21.7084 45.2382 21.8592 45.2382 22.1609C45.2382 22.3117 45.0874 22.7642 44.9365 23.3675L43.1267 27.8922C42.825 28.6463 42.825 29.4004 42.825 30.0037C42.825 30.607 43.1267 30.9086 43.8808 30.9086C44.4841 30.9086 45.5398 30.1545 45.8415 29.702C47.0481 28.1938 48.2547 26.6856 48.2547 24.8757C48.2547 23.8199 47.6514 23.3675 47.6514 22.6133C47.6514 21.8592 48.1038 21.5576 48.7071 21.5576C49.3104 21.5576 49.7629 22.0101 49.7629 22.915C49.7629 25.7806 45.2382 32.8734 41.7652 32.8734C41.1619 32.8734 40.1061 32.2701 40.1061 31.2143C40.1061 30.1586 40.5586 28.8012 40.8602 28.0471C39.6537 29.7061 37.9946 32.8734 35.7323 32.8734C34.0732 32.8775 33.7716 31.0676 33.7716 30.766ZM61.3803 26.388C61.682 26.388 62.4361 23.9748 63.4919 23.824C63.6427 23.824 63.9443 23.9748 63.9443 24.2765C63.9443 24.5781 63.9443 24.8798 63.7935 25.6339C61.9836 31.6668 61.8328 31.5201 61.8328 31.8176C61.8328 32.1193 61.682 32.8734 62.8886 32.8734C63.4919 32.8734 63.9443 31.3652 65.905 27.5946C66.3575 26.6897 67.8657 23.3715 68.6199 23.3715C68.7707 23.3715 68.9215 23.6732 68.9215 23.9748C68.9215 24.7289 69.0723 25.1814 69.5248 25.1814C70.4297 25.1814 70.7314 24.4273 70.7314 23.5224C70.7314 22.9191 70.5806 21.7125 69.5248 21.7125C67.8657 21.7125 66.9608 24.4273 65.1509 28.202H65.0001C65.6034 26.0904 65.905 24.5822 66.0559 22.9191C66.0559 22.0141 65.6034 21.7125 65.0001 21.7125C63.4919 21.7125 61.0746 25.4831 61.0746 26.388C61.0787 26.388 61.2295 26.5429 61.3803 26.388Z" fill="black"/>
<path d="M31.2035 13.4133C31.5051 13.4133 32.4101 13.5641 33.0134 13.4133C33.6167 13.4133 33.9183 13.4133 34.6724 13.2625C35.1249 13.2625 35.2757 13.4133 35.2757 13.5641C35.2757 13.7149 35.1249 14.0166 34.9741 14.469L29.092 29.4087C28.9411 29.7103 28.6395 30.6153 28.6395 30.9169C28.6395 31.0677 28.7903 31.3694 29.092 31.3694C29.5444 31.2186 29.9969 30.6153 30.9018 29.7103C31.3543 29.2579 31.3543 29.107 31.3543 29.107C31.5051 29.107 31.5051 29.2579 31.5051 29.4087C31.5051 29.8612 29.5444 32.8776 26.9804 32.8776C26.528 32.8776 26.2263 32.8776 26.2263 32.2743C26.2263 31.671 26.2263 31.3694 26.3772 30.9169C26.528 30.3136 26.9804 29.107 27.1313 28.6546C26.9804 28.9562 26.528 29.2579 26.2263 29.7103L25.9247 29.107C27.5837 27.448 28.9411 24.7332 28.9411 23.3717C28.9411 22.9192 28.4887 22.6176 28.187 22.6176C25.623 22.6176 22.6025 27.5947 22.6025 29.5595C22.6025 30.3136 23.2058 30.6153 23.8091 30.4644C24.4124 30.3136 25.3173 29.7103 25.9206 28.9562L26.2223 29.5595C25.0157 31.0677 23.2058 32.8776 21.5467 32.8776C20.1893 32.8776 19.8877 31.3694 19.8877 30.7661C19.7369 28.0513 21.2451 25.9397 22.3009 24.8799C25.0157 22.0143 27.1272 21.8634 27.5797 21.7126C28.4846 21.7126 28.9371 22.0143 29.3895 22.3159L31.9535 15.6756C32.1044 15.374 32.2552 14.9215 32.2552 14.7707C32.2552 14.469 32.1044 14.1674 31.8027 14.1674C30.8978 14.1674 30.7469 14.0166 30.7469 13.8657C30.751 13.5641 30.751 13.5641 31.2035 13.4133ZM80.3922 13.4133H82.0513C82.6546 13.4133 82.9562 13.4133 83.7103 13.2625C84.1628 13.2625 84.3136 13.4133 84.3136 13.5641C84.3136 13.7149 84.3136 14.0166 84.1628 14.469L78.1299 29.2538C77.9791 29.7063 77.8282 30.6112 77.8282 30.762C77.8282 31.0637 77.9791 31.2145 78.1299 31.2145C78.7332 31.2145 79.1856 30.6112 80.0906 29.7063L80.543 29.103C80.6939 29.103 80.6939 29.2538 80.6939 29.4046C80.6939 29.7063 78.7332 32.8735 76.1692 32.8735C75.7167 32.8735 75.4151 32.7227 75.4151 32.2702C75.2642 31.667 75.4151 31.3653 75.5659 30.9128C75.5659 30.3095 76.1692 29.103 76.32 28.6505C76.0184 28.8013 75.7167 29.2538 75.4151 29.5554L75.1134 28.9521C76.7725 27.4439 78.1299 24.5783 78.1299 23.2168C78.1299 22.7643 77.6774 22.4627 77.3758 22.4627C74.8118 22.6135 71.7953 27.5947 71.7953 29.4046C71.7953 30.3095 72.3986 30.6112 72.8511 30.4604C73.6052 30.3095 74.3593 29.5554 75.1134 28.9521L75.4151 29.5554C74.2085 30.9128 72.3986 32.8735 70.5846 32.8735C69.3781 32.8735 69.0764 31.3653 69.0764 30.762C68.9256 27.8964 70.283 25.9357 71.4896 24.725C74.2044 22.0102 76.3159 21.7085 76.7684 21.7085C77.6733 21.7085 78.1258 22.0102 78.5783 22.3118L81.1423 15.6715C81.2931 15.3699 81.4439 14.9174 81.4439 14.6158C81.4439 14.3141 81.2931 14.1633 80.9914 14.1633C80.0865 14.0125 79.9357 14.0125 79.9357 13.7108C79.9398 13.5641 79.9398 13.4133 80.3922 13.4133Z" fill="black"/>
<path d="M0.879881 53.6992C7.82182 57.319 17.1729 58.6764 37.0897 55.5091C52.7794 52.9451 76.6216 50.2303 92.1605 58.5256C92.613 58.6764 92.3113 59.2797 91.8589 58.9781C75.7167 51.7385 60.023 54.3025 49.9137 56.1124C21.6976 60.792 6.76198 58.3748 0.427412 54.1517C-0.326704 53.5484 -0.0250582 53.2468 0.879881 53.6992Z" fill="black"/>
<path d="M26.8296 45.249L24.8689 46.3048L26.0755 44.6457C26.0755 44.6457 26.2263 44.9474 26.3772 45.0982C26.528 45.249 26.8296 45.249 26.8296 45.249ZM24.5673 45.249L24.7181 43.8916C24.7181 43.8916 24.8689 43.8916 25.0197 43.7408L25.3214 43.59C25.3214 43.59 25.3214 43.7408 25.4722 43.8916C25.623 43.8916 25.7739 44.0424 25.7739 44.0424C25.7739 44.0424 25.4722 44.4949 25.3214 44.6457C25.0197 44.9474 24.7181 45.3998 24.5673 45.3998V45.249ZM23.059 46.154C23.059 45.7015 22.9082 44.3441 22.9082 44.3441H23.059L23.3607 44.0424C23.3607 44.0424 23.3607 44.1933 23.5115 44.1933H23.8132C23.8132 44.1933 23.8132 44.7966 23.6623 45.249C23.5115 45.5507 23.2099 46.154 23.059 46.154ZM21.2492 45.249C21.2492 45.249 21.5508 45.0982 21.7016 45.0982C22.0033 44.9474 22.1541 44.6457 22.1541 44.6457C22.1541 44.6457 22.3049 45.0982 22.3049 45.3998C22.4557 45.8523 22.4557 46.6064 22.4557 46.6064L21.2492 45.249ZM7.06363 53.6992L7.5161 53.2467C7.66692 52.9451 7.66692 52.4926 7.66692 52.4926V47.8171C7.66692 47.8171 7.66692 47.3646 7.5161 47.063C7.36528 46.9122 7.21445 46.6105 7.06363 46.6105L6.61116 47.063C6.46034 47.3646 6.46034 47.8171 6.46034 47.8171V52.4926C6.46034 52.4926 6.46034 52.9451 6.61116 53.2467L7.06363 53.6992ZM9.17515 53.85C9.17515 53.85 9.4768 53.6992 9.62762 53.3976C9.77845 53.2467 9.92927 52.7943 9.92927 52.7943V47.8171C9.92927 47.8171 9.77845 47.3646 9.62762 47.063C9.4768 46.9122 9.32598 46.6105 9.17515 46.6105C9.17515 46.6105 8.87351 46.9122 8.87351 47.063C8.57186 47.3646 8.57186 47.8171 8.57186 47.8171V52.7943C8.57186 52.7943 8.57186 53.2467 8.87351 53.3976C8.87351 53.6992 9.17515 53.85 9.17515 53.85ZM4.95211 53.0959C5.25375 53.0959 5.25375 52.9451 5.40457 52.7943C5.5554 52.4926 5.5554 52.0401 5.5554 52.0401V47.8171C5.5554 47.8171 5.5554 47.3646 5.40457 47.063L4.95211 46.6105C4.80128 46.7613 4.49964 46.9122 4.19799 46.9122C3.89634 46.9122 3.5947 46.7613 3.44387 46.4597C3.14223 46.4597 2.84058 46.158 2.84058 45.8564C2.84058 45.7056 2.9914 45.5547 3.14223 45.4039C2.9914 45.2531 2.84058 45.1023 2.84058 44.8006C2.84058 44.499 2.9914 44.1973 3.44387 44.1973C3.29305 44.0465 3.29305 43.8957 3.29305 43.8957C3.29305 43.594 3.5947 43.2924 3.89634 43.2924V42.9908C3.89634 42.6891 4.34881 42.3875 4.80128 42.3875H5.10293C5.10293 42.0858 5.40457 41.7842 5.85704 41.7842C6.15869 41.7842 6.46034 41.935 6.61116 42.2366C6.76198 42.0858 6.76198 42.0858 6.91281 42.0858V41.935C6.91281 41.4825 7.21445 41.3317 7.66692 41.3317C7.96857 41.3317 8.27021 41.4825 8.42104 41.7842H9.17515C9.17515 41.6333 9.4768 41.3317 9.92927 41.3317C10.2309 41.3317 10.5326 41.6333 10.5326 41.935H10.8342C10.985 41.6333 11.2867 41.4825 11.5883 41.4825C12.0408 41.4825 12.3424 41.7842 12.3424 42.0858C12.3424 42.2366 12.1916 42.5383 12.0408 42.5383C12.1916 42.6891 12.1916 42.6891 12.1916 42.8399C12.3424 42.6891 12.4933 42.6891 12.6441 42.6891C13.0966 42.6891 13.3982 42.9908 13.3982 43.4432C13.3982 43.7449 13.0966 44.0465 12.7949 44.0465V44.1973H12.9457C13.3982 44.1973 13.6998 44.499 13.6998 44.6498C13.6998 44.9515 13.549 45.1023 13.2474 45.2531C13.3982 45.2531 13.3982 45.4039 13.3982 45.5547C13.3982 45.8564 13.0966 46.0072 12.7949 46.158C12.7949 46.4597 12.3424 46.9122 11.7391 46.9122C11.5883 46.9122 11.4375 46.7613 11.2867 46.7613C11.1359 46.7613 10.985 46.9122 10.8342 47.063C10.6834 47.3646 10.6834 47.8171 10.6834 47.8171V52.7943C10.6834 52.7943 10.6834 53.3976 10.985 53.6992C10.985 53.6992 11.1359 54.1517 11.4375 54.1517C15.2081 54.4533 17.927 53.85 20.491 53.2467C20.6418 52.9451 21.8484 51.8893 21.9992 50.6827C22.15 49.9286 22.3008 49.0237 22.15 48.5712C21.9992 48.2696 21.8484 48.2696 21.6976 47.9679C21.6976 47.6663 21.8484 47.5155 21.8484 47.3646C21.6976 46.7613 21.0943 46.4597 21.0943 46.4597C20.9434 46.4597 20.491 46.9122 20.1893 46.9122C20.0385 46.9122 19.7369 46.7613 19.586 46.4597C19.4352 46.6105 19.2844 46.7613 18.9827 46.7613C18.3794 46.7613 17.927 46.3089 17.927 45.8564H17.022C16.8712 46.0072 16.7204 46.158 16.4187 46.158C15.8154 46.3089 15.363 45.8564 15.363 45.4039C15.0613 45.2531 14.9105 45.1023 14.9105 44.8006C14.9105 44.499 15.0613 44.3482 15.2122 44.1973C15.0613 44.0465 14.9105 43.7449 15.0613 43.4432C15.2122 42.9908 15.363 42.9908 15.5138 42.8399C15.0613 42.6891 14.7597 42.3875 14.7597 41.935C14.7597 41.4825 15.0613 41.1809 15.6646 41.0301L15.8155 40.5776C15.6646 40.4268 15.6646 40.2759 15.5138 40.1251C15.5138 39.8235 15.8155 39.371 16.2679 39.371C16.4187 39.371 16.5696 39.371 16.7204 39.5218C16.8712 39.371 17.022 39.2202 17.1729 39.2202C17.022 39.0694 17.022 38.7677 17.022 38.6169C17.022 38.1644 17.3237 37.7119 17.927 37.7119H18.3794C18.6811 37.7119 18.8319 37.4103 18.9827 37.4103C19.2844 37.4103 19.586 37.5611 19.7369 37.5611C19.586 37.5611 19.586 37.4103 19.586 37.4103C19.586 36.9578 20.0385 36.5054 20.491 36.5054C20.491 36.0529 20.7926 35.7512 21.2451 35.6004C21.3959 35.6004 21.5467 35.7512 21.6976 35.9021C21.8484 35.4496 22.3008 35.1479 22.6025 35.1479C23.2058 35.1479 23.5074 35.4496 23.6583 35.9021C23.8091 35.4496 24.2615 35.1479 24.714 35.1479C25.1665 35.1479 25.619 35.4496 25.7698 35.9021C26.2222 35.9021 26.5239 36.2037 26.5239 36.6562V36.807H26.6747C27.1272 36.807 27.5797 37.1087 27.5797 37.5611C27.5797 37.7119 27.5797 37.8628 27.4288 38.0136C27.7305 38.0136 27.8813 38.1644 27.8813 38.3152H28.3338C28.9371 38.1644 29.3895 38.7677 29.5404 39.2202C29.5404 39.5218 29.3895 39.6726 29.2387 39.8235C29.5404 39.9743 29.6912 40.1251 29.6912 40.4268C29.6912 40.5776 29.6912 40.7284 29.5404 40.7284C29.9928 40.7284 30.2945 41.0301 30.4453 41.4825C30.4453 41.4825 30.4453 41.6333 30.2945 41.6333C30.7469 41.7842 30.8978 42.0858 30.8978 42.3875C30.8978 42.8399 30.7469 43.1416 30.2945 43.1416C30.5961 43.2924 30.5961 43.594 30.7469 43.8957C30.7469 44.3482 30.4453 44.6498 29.9928 44.8006V45.1023C30.1437 45.7056 29.5404 46.158 28.9371 46.158C28.7862 46.158 28.4846 46.158 28.3338 46.0072C28.183 46.3089 27.8813 46.4597 27.5797 46.4597C27.278 46.4597 26.9764 46.3089 26.9764 46.0072C26.2222 46.4597 25.1665 46.9122 25.0157 47.063C24.8648 47.2138 24.4124 47.8171 24.4124 48.4204C24.4124 48.8729 24.714 49.1745 24.714 49.3253C24.714 50.0794 24.4124 49.9286 24.4124 50.6827C24.4124 51.4368 25.0157 52.0401 25.3173 52.191C26.3731 52.191 27.7305 52.0401 28.9371 52.191C31.0486 52.6434 30.5961 53.5484 30.1437 53.6992C27.278 54.755 11.5842 57.6206 1.02255 52.4926C0.268434 52.0401 0.268434 51.5877 1.47502 52.0401C2.6816 52.4926 3.73737 52.7943 4.79313 53.0959H4.95211Z" fill="black"/>
</svg>
