<svg width="148" height="29" viewBox="0 0 148 29" fill="none" xmlns="http://www.w3.org/2000/svg">
<path d="M13.6856 0.0270996H0V27.8872H13.6856V0.0270996Z" fill="black"/>
<path d="M57.7023 0.0270996H44.0167V27.8872H57.7023V0.0270996Z" fill="black"/>
<path d="M26.9368 5.81093L28.8919 1.84644L30.8198 5.67516C31.0642 6.08247 31.2543 6.05531 31.6345 5.86523L33.2909 5.05061L32.2047 10.4C31.9875 11.459 32.5849 11.7577 33.2365 11.0517L35.6261 8.52633L36.2506 9.9655C36.4679 10.4 36.7937 10.3457 37.201 10.2642L39.6449 9.74826L38.8303 12.8438L38.8031 12.8981C38.6945 13.3054 38.5044 13.6313 38.9661 13.8485L39.835 14.283L34.7843 18.5733C34.2684 19.1164 34.4585 19.2793 34.6486 19.8767L35.1102 21.3159L30.4125 20.3926C29.8423 20.2569 29.435 20.2569 29.4078 20.7185L29.5979 26.1222H28.1859L28.376 20.7185C28.376 20.1754 27.9687 20.2026 27.0183 20.3926L22.6465 21.2344L23.2167 19.7953C23.4068 19.2522 23.4611 18.872 23.0266 18.4919L17.8674 14.283L18.8177 13.7128C19.0893 13.4955 19.1164 13.2783 18.9535 12.8167L17.976 9.6668L20.4741 10.2099C21.1801 10.3728 21.3702 10.2099 21.5332 9.82973L22.2392 8.41772L24.683 11.1874C25.1175 11.7034 25.742 11.3775 25.552 10.6172L24.3843 4.80623L26.2036 5.86523C26.5023 6.05531 26.801 6.08247 26.9911 5.75662" fill="black"/>
<path d="M91.3838 0V1.33055H87.6094V11.2146H86.0888V1.33055H82.3144V0H91.3838Z" fill="#010101"/>
<path d="M92.0627 3.04127H93.3661V4.45329C93.4747 4.18174 93.7462 3.8559 94.1535 3.44859C94.5609 3.04127 95.0496 2.8512 95.5927 2.8512C95.6199 2.8512 95.6742 2.8512 95.7285 2.8512C95.7828 2.8512 95.8914 2.87835 96.0543 2.87835V4.34467C95.9729 4.31752 95.8914 4.31752 95.8371 4.31752C95.7556 4.31752 95.7013 4.31752 95.6199 4.31752C94.941 4.31752 94.3979 4.53475 94.0178 4.99637C93.6376 5.43083 93.4475 5.94676 93.4475 6.54415V11.2418H92.0627V3.04127V3.04127Z" fill="#010101"/>
<path d="M101.621 6.27259C101.947 6.24544 102.137 6.10967 102.245 5.86528C102.3 5.72951 102.327 5.56659 102.327 5.34936C102.327 4.88774 102.164 4.53473 101.838 4.3175C101.512 4.10027 101.023 3.99165 100.399 3.99165C99.6929 3.99165 99.177 4.18173 98.8783 4.56189C98.7154 4.77912 98.6068 5.10497 98.5525 5.51228H97.2762C97.3034 4.50758 97.6292 3.80157 98.2538 3.39426C98.8783 2.98695 99.6115 2.79688 100.426 2.79688C101.376 2.79688 102.164 2.98695 102.761 3.33996C103.359 3.69296 103.657 4.26319 103.657 5.05066V9.74831C103.657 9.88408 103.685 9.9927 103.739 10.1013C103.793 10.2099 103.929 10.2371 104.119 10.2371C104.173 10.2371 104.255 10.2371 104.336 10.2371C104.418 10.2371 104.499 10.2099 104.581 10.2099V11.2146C104.363 11.2689 104.201 11.3232 104.092 11.3232C103.983 11.3504 103.82 11.3504 103.63 11.3504C103.169 11.3504 102.816 11.1875 102.598 10.8345C102.49 10.6444 102.408 10.4 102.354 10.0742C102.082 10.4272 101.675 10.753 101.159 11.0246C100.643 11.2961 100.046 11.4319 99.4214 11.4319C98.6611 11.4319 98.0365 11.2146 97.5749 10.753C97.0861 10.2914 96.8418 9.72116 96.8418 9.01515C96.8418 8.25484 97.0862 7.6846 97.5478 7.25014C98.0094 6.84283 98.6339 6.57129 99.4214 6.48983L101.621 6.27259ZM98.7154 9.96554C99.0141 10.1828 99.3399 10.3185 99.7472 10.3185C100.236 10.3185 100.698 10.2099 101.159 9.9927C101.92 9.61254 102.3 9.01515 102.3 8.17338V7.06006C102.137 7.16868 101.92 7.25014 101.648 7.3316C101.376 7.41306 101.132 7.46737 100.861 7.49453L100.019 7.60314C99.53 7.65745 99.1499 7.76607 98.9055 7.90184C98.471 8.14622 98.2809 8.52638 98.2809 9.04231C98.2809 9.42246 98.4167 9.74831 98.7154 9.96554Z" fill="#010101"/>
<path d="M105.911 3.04127H107.215V4.2089C107.595 3.72013 108.002 3.39428 108.437 3.17704C108.871 2.95981 109.36 2.8512 109.876 2.8512C111.043 2.8512 111.831 3.25851 112.238 4.07313C112.455 4.50759 112.564 5.15929 112.564 5.97391V11.2146H111.179V6.05537C111.179 5.5666 111.098 5.15929 110.962 4.8606C110.718 4.34467 110.283 4.10028 109.631 4.10028C109.306 4.10028 109.034 4.12744 108.817 4.2089C108.437 4.31752 108.111 4.53475 107.812 4.88775C107.595 5.15929 107.432 5.43083 107.378 5.72953C107.296 6.02822 107.269 6.43553 107.269 6.95146V11.2418H105.884L105.911 3.04127Z" fill="#010101"/>
<path d="M115.415 8.63494C115.469 9.09656 115.578 9.44956 115.768 9.69395C116.121 10.1284 116.746 10.3456 117.615 10.3456C118.131 10.3456 118.592 10.237 118.972 10.0198C119.38 9.80257 119.57 9.44956 119.57 8.98794C119.57 8.63494 119.407 8.3634 119.108 8.17332C118.918 8.06471 118.511 7.92894 117.913 7.79317L116.8 7.52163C116.094 7.3587 115.578 7.16862 115.225 6.95139C114.628 6.57123 114.329 6.05531 114.329 5.40361C114.329 4.6433 114.601 3.9916 115.171 3.52998C115.741 3.04121 116.501 2.82397 117.452 2.82397C118.701 2.82397 119.597 3.17698 120.14 3.91014C120.493 4.37176 120.656 4.86053 120.656 5.40361H119.353C119.325 5.10491 119.217 4.80622 119.027 4.56183C118.701 4.20883 118.131 4.01875 117.343 4.01875C116.8 4.01875 116.42 4.12737 116.148 4.31745C115.877 4.50753 115.741 4.77907 115.741 5.10491C115.741 5.45792 115.931 5.75661 116.284 5.94669C116.501 6.08246 116.8 6.19108 117.207 6.27254L118.131 6.48977C119.135 6.73416 119.814 6.95139 120.14 7.19578C120.683 7.54878 120.927 8.09186 120.927 8.85217C120.927 9.58533 120.656 10.2099 120.086 10.7258C119.515 11.2417 118.674 11.5133 117.533 11.5133C116.311 11.5133 115.442 11.2417 114.926 10.6987C114.41 10.1556 114.139 9.47672 114.112 8.6621L115.415 8.63494Z" fill="#010101"/>
<path d="M122.312 3.06836H123.643V4.15452C123.914 3.77437 124.213 3.50283 124.539 3.28559C125.001 2.9869 125.544 2.82397 126.168 2.82397C127.091 2.82397 127.879 3.17698 128.531 3.88298C129.182 4.58899 129.508 5.59369 129.508 6.92424C129.508 8.7164 129.046 9.96549 128.096 10.7258C127.499 11.2146 126.82 11.459 126.032 11.459C125.408 11.459 124.892 11.3232 124.485 11.0517C124.24 10.8887 123.969 10.6443 123.67 10.2642V14.4459H122.285V3.06836H122.312ZM127.472 9.47672C127.906 8.93364 128.123 8.14617 128.123 7.06001C128.123 6.40831 128.042 5.83807 127.852 5.37646C127.499 4.48037 126.847 4.01875 125.897 4.01875C124.946 4.01875 124.295 4.50753 123.942 5.45792C123.751 5.97384 123.67 6.62554 123.67 7.38586C123.67 8.0104 123.751 8.55348 123.942 8.98794C124.295 9.82972 124.946 10.2642 125.897 10.2642C126.521 10.2913 127.037 10.0198 127.472 9.47672Z" fill="#010101"/>
<path d="M137.03 3.85582C137.763 4.56182 138.116 5.59367 138.116 6.95138C138.116 8.25477 137.79 9.36809 137.166 10.2099C136.541 11.0788 135.536 11.4861 134.206 11.4861C133.092 11.4861 132.196 11.1059 131.545 10.3456C130.893 9.58532 130.567 8.55347 130.567 7.27723C130.567 5.89237 130.92 4.80621 131.599 3.99159C132.278 3.17696 133.228 2.76965 134.396 2.76965C135.428 2.79681 136.324 3.14981 137.03 3.85582ZM136.188 9.28663C136.514 8.60777 136.677 7.82031 136.677 6.97853C136.677 6.21822 136.568 5.59367 136.324 5.13206C135.944 4.37174 135.292 3.99159 134.342 3.99159C133.5 3.99159 132.902 4.31743 132.522 4.94198C132.142 5.59368 131.952 6.35399 131.952 7.25007C131.952 8.119 132.142 8.85216 132.522 9.4224C132.902 9.99263 133.5 10.2913 134.314 10.2913C135.238 10.3185 135.835 9.96548 136.188 9.28663Z" fill="#010101"/>
<path d="M139.827 3.04127H141.13V4.45329C141.239 4.18174 141.51 3.8559 141.917 3.44859C142.325 3.04127 142.814 2.8512 143.357 2.8512C143.384 2.8512 143.438 2.8512 143.492 2.8512C143.547 2.8512 143.655 2.87835 143.818 2.87835V4.34467C143.737 4.31752 143.655 4.31752 143.601 4.31752C143.52 4.31752 143.465 4.31752 143.384 4.31752C142.705 4.31752 142.162 4.53475 141.782 4.99637C141.402 5.43083 141.211 5.94676 141.211 6.54415V11.2418H139.827V3.04127Z" fill="#010101"/>
<path d="M145.285 0.760254H146.669V3.04119H147.973V4.15451H146.669V9.50386C146.669 9.7754 146.778 9.99263 146.968 10.0741C147.077 10.1284 147.24 10.1556 147.511 10.1556C147.566 10.1556 147.647 10.1556 147.728 10.1556C147.81 10.1556 147.891 10.1556 148 10.1284V11.2146C147.837 11.2689 147.674 11.296 147.511 11.3232C147.348 11.3503 147.158 11.3503 146.968 11.3503C146.316 11.3503 145.882 11.1874 145.665 10.8616C145.448 10.5357 145.312 10.1012 145.312 9.58532V4.15451H144.198V3.04119H145.312L145.285 0.760254Z" fill="#010101"/>
<path d="M91.1666 17.4601C91.9541 18.2204 92.3614 19.0621 92.4428 20.0125H90.9493C90.7864 19.2794 90.4606 18.7091 89.9718 18.3018C89.483 17.8674 88.777 17.6773 87.9081 17.6773C86.8219 17.6773 85.953 18.0574 85.2742 18.8449C84.5953 19.6324 84.2695 20.8 84.2695 22.4021C84.2695 23.7055 84.5682 24.7916 85.1655 25.6063C85.7629 26.4209 86.659 26.8282 87.8538 26.8282C88.94 26.8282 89.7817 26.3937 90.352 25.552C90.6507 25.0903 90.895 24.493 91.0308 23.7598H92.5243C92.3885 24.9274 91.954 25.9321 91.2209 26.7196C90.352 27.67 89.1572 28.1587 87.6637 28.1587C86.3875 28.1587 85.3013 27.7514 84.4324 26.964C83.2919 25.9321 82.6945 24.3029 82.6945 22.1305C82.6945 20.4742 83.129 19.1164 83.9979 18.0574C84.9211 16.917 86.2245 16.3196 87.8538 16.3196C89.293 16.3467 90.3791 16.6997 91.1666 17.4601Z" fill="#010101"/>
<path d="M98.7154 22.918C99.0413 22.8908 99.2313 22.7551 99.34 22.5107C99.3943 22.3749 99.4214 22.212 99.4214 21.9947C99.4214 21.5331 99.2585 21.1801 98.9327 20.9629C98.6068 20.7457 98.118 20.637 97.4935 20.637C96.7875 20.637 96.2716 20.8271 95.9729 21.2073C95.8099 21.4245 95.7013 21.7504 95.647 22.1577H94.3708C94.3979 21.153 94.7238 20.447 95.3483 20.0397C95.9729 19.6323 96.706 19.4423 97.5206 19.4423C98.471 19.4423 99.2585 19.6323 99.8559 19.9853C100.453 20.3383 100.752 20.9086 100.752 21.696V26.3937C100.752 26.5295 100.779 26.6381 100.833 26.7467C100.888 26.8282 101.024 26.8825 101.214 26.8825C101.268 26.8825 101.349 26.8825 101.431 26.8825C101.512 26.8825 101.594 26.8553 101.675 26.8553V27.86C101.458 27.9143 101.295 27.9686 101.186 27.9686C101.078 27.9958 100.915 27.9958 100.725 27.9958C100.263 27.9958 99.9102 27.8329 99.693 27.4799C99.5844 27.2898 99.5029 27.0454 99.4486 26.7195C99.177 27.0725 98.7697 27.3984 98.2538 27.6699C97.7379 27.9415 97.1405 28.0772 96.5159 28.0772C95.7556 28.0772 95.1311 27.86 94.6695 27.3984C94.1807 26.9368 93.9363 26.3665 93.9363 25.6605C93.9363 24.9002 94.1807 24.33 94.6423 23.8955C95.1039 23.4882 95.7285 23.2167 96.5159 23.1352L98.7154 22.918ZM95.8371 26.6109C96.1358 26.8282 96.4616 26.9639 96.869 26.9639C97.3577 26.9639 97.8193 26.8553 98.281 26.6381C99.0413 26.2579 99.4214 25.6605 99.4214 24.8188V23.7054C99.2585 23.8141 99.0413 23.8955 98.7697 23.977C98.4982 24.0585 98.2538 24.1128 97.9823 24.1399L97.1405 24.2485C96.6517 24.3028 96.2716 24.4115 96.0272 24.5472C95.5927 24.7916 95.4026 25.1718 95.4026 25.6877C95.4026 26.0678 95.5384 26.3937 95.8371 26.6109Z" fill="#010101"/>
<path d="M103.033 19.6867H104.336V20.8543C104.716 20.3655 105.124 20.0397 105.558 19.8224C105.993 19.6052 106.481 19.4966 106.997 19.4966C108.165 19.4966 108.952 19.9039 109.36 20.7185C109.577 21.153 109.686 21.8047 109.686 22.6193V27.86H108.301V22.7008C108.301 22.212 108.219 21.8047 108.084 21.506C107.839 20.9901 107.405 20.7457 106.753 20.7457C106.427 20.7457 106.156 20.7728 105.938 20.8543C105.558 20.9629 105.232 21.1801 104.934 21.5331C104.716 21.8047 104.553 22.0762 104.499 22.3749C104.418 22.6736 104.391 23.0809 104.391 23.5968V27.8872H103.006L103.033 19.6867Z" fill="#010101"/>
<path d="M116.094 22.918C116.42 22.8908 116.61 22.7551 116.719 22.5107C116.773 22.3749 116.8 22.212 116.8 21.9947C116.8 21.5331 116.637 21.1801 116.311 20.9629C115.985 20.7457 115.497 20.637 114.872 20.637C114.166 20.637 113.65 20.8271 113.351 21.2073C113.189 21.4245 113.08 21.7504 113.026 22.1577H111.749C111.777 21.153 112.102 20.447 112.727 20.0397C113.351 19.6323 114.085 19.4423 114.899 19.4423C115.85 19.4423 116.637 19.6323 117.234 19.9853C117.832 20.3383 118.131 20.9086 118.131 21.696V26.3937C118.131 26.5295 118.158 26.6381 118.212 26.7467C118.266 26.8282 118.402 26.8825 118.592 26.8825C118.646 26.8825 118.728 26.8825 118.809 26.8825C118.891 26.8825 118.972 26.8553 119.054 26.8553V27.86C118.837 27.9143 118.674 27.9686 118.565 27.9686C118.456 27.9958 118.293 27.9958 118.103 27.9958C117.642 27.9958 117.289 27.8329 117.072 27.4799C116.963 27.2898 116.881 27.0454 116.827 26.7195C116.556 27.0725 116.148 27.3984 115.632 27.6699C115.116 27.9415 114.519 28.0772 113.895 28.0772C113.134 28.0772 112.51 27.86 112.048 27.3984C111.559 26.9368 111.315 26.3665 111.315 25.6605C111.315 24.9002 111.559 24.33 112.021 23.8955C112.483 23.4882 113.107 23.2167 113.895 23.1352L116.094 22.918ZM113.216 26.6109C113.514 26.8282 113.84 26.9639 114.248 26.9639C114.736 26.9639 115.198 26.8553 115.66 26.6381C116.42 26.2579 116.8 25.6605 116.8 24.8188V23.7054C116.637 23.8141 116.42 23.8955 116.148 23.977C115.877 24.0585 115.632 24.1128 115.361 24.1399L114.519 24.2485C114.03 24.3028 113.65 24.4115 113.406 24.5472C112.971 24.7916 112.781 25.1718 112.781 25.6877C112.781 26.0678 112.917 26.3937 113.216 26.6109Z" fill="#010101"/>
<path d="M124.892 19.9311C125.136 20.094 125.408 20.3384 125.734 20.7185V16.6183H127.064V27.8601H125.815V26.7196C125.489 27.2355 125.109 27.5885 124.675 27.8058C124.24 28.023 123.751 28.1316 123.181 28.1316C122.285 28.1316 121.498 27.7514 120.819 26.9911C120.167 26.2308 119.814 25.199 119.814 23.9227C119.814 22.7279 120.113 21.6961 120.71 20.8272C121.308 19.9582 122.177 19.5238 123.317 19.5238C123.969 19.5238 124.485 19.6595 124.892 19.9311ZM121.824 26.0679C122.204 26.6653 122.774 26.964 123.589 26.964C124.213 26.964 124.729 26.6924 125.136 26.1494C125.544 25.6063 125.761 24.8188 125.761 23.787C125.761 22.7551 125.544 21.9948 125.136 21.506C124.729 21.0172 124.186 20.7729 123.589 20.7729C122.91 20.7729 122.339 21.0444 121.905 21.5603C121.471 22.0763 121.253 22.8637 121.253 23.8956C121.28 24.7373 121.471 25.4705 121.824 26.0679Z" fill="#010101"/>
<path d="M133.473 22.918C133.798 22.8908 133.989 22.7551 134.097 22.5107C134.151 22.3749 134.179 22.212 134.179 21.9947C134.179 21.5331 134.016 21.1801 133.69 20.9629C133.364 20.7457 132.875 20.637 132.251 20.637C131.545 20.637 131.029 20.8271 130.73 21.2073C130.567 21.4245 130.458 21.7504 130.404 22.1577H129.128C129.155 21.153 129.481 20.447 130.105 20.0397C130.73 19.6323 131.463 19.4423 132.278 19.4423C133.228 19.4423 134.016 19.6323 134.613 19.9853C135.21 20.3383 135.509 20.9086 135.509 21.696V26.3937C135.509 26.5295 135.536 26.6381 135.591 26.7467C135.645 26.8282 135.781 26.8825 135.971 26.8825C136.025 26.8825 136.107 26.8825 136.188 26.8825C136.269 26.8825 136.351 26.8553 136.432 26.8553V27.86C136.215 27.9143 136.052 27.9686 135.944 27.9686C135.835 27.9958 135.672 27.9958 135.482 27.9958C135.02 27.9958 134.667 27.8329 134.45 27.4799C134.342 27.2898 134.26 27.0454 134.206 26.7195C133.934 27.0725 133.527 27.3984 133.011 27.6699C132.495 27.9415 131.898 28.0772 131.273 28.0772C130.513 28.0772 129.888 27.86 129.427 27.3984C128.938 26.9368 128.693 26.3665 128.693 25.6605C128.693 24.9002 128.938 24.33 129.399 23.8955C129.861 23.4882 130.486 23.2167 131.273 23.1352L133.473 22.918ZM130.594 26.6109C130.893 26.8282 131.219 26.9639 131.626 26.9639C132.115 26.9639 132.577 26.8553 133.038 26.6381C133.798 26.2579 134.179 25.6605 134.179 24.8188V23.7054C134.016 23.8141 133.798 23.8955 133.527 23.977C133.255 24.0585 133.011 24.1128 132.739 24.1399L131.898 24.2485C131.409 24.3028 131.029 24.4115 130.784 24.5472C130.35 24.7916 130.16 25.1718 130.16 25.6877C130.16 26.0678 130.296 26.3937 130.594 26.6109Z" fill="#010101"/>
</svg>
