<svg width="180" height="49" viewBox="0 0 180 49" fill="none" xmlns="http://www.w3.org/2000/svg">
<path d="M67.7057 42.9425C67.6309 42.1944 67.5561 41.2218 67.5561 39.576C66.2842 41.7455 64.1895 43.0922 61.7955 43.0922C59.7007 43.0922 58.1296 42.1196 57.4563 40.3989C57.1571 39.5011 57.0074 38.2293 57.0074 35.3864V30.0747C57.0074 28.354 56.8578 27.6807 56.5586 27.4563C56.3341 27.2318 56.1097 27.157 55.4364 27.157C54.9875 27.157 54.9875 27.157 54.8379 27.157V26.4089L59.8503 26.1096C59.7007 29.1021 59.6259 29.9251 59.6259 32.1695V35.0124C59.6259 38.3041 59.7007 39.1271 60.0748 40.3241C60.4488 41.5211 61.3466 42.1196 62.6932 42.1196C64.4887 42.1196 66.0598 40.9226 66.8827 38.9775C67.3316 37.8553 67.4812 37.1819 67.4812 35.162V30.1495C67.4812 28.4288 67.4064 27.8303 66.9576 27.5311C66.7331 27.3066 66.4339 27.2318 65.8354 27.2318H65.2369V26.4837L70.2493 26.1844C70.1745 28.5784 70.0997 30.748 70.0997 32.2443V38.2293C70.0997 41.4463 70.399 42.0448 72.0448 42.0448H72.2693V42.7929L67.7057 42.9425Z" fill="black"/>
<path d="M80.5735 22.5187C82.5187 20.0499 85.3616 18.8529 88.8029 18.8529C92.3192 18.8529 95.0872 20.0499 97.0324 22.5187C98.8279 24.7631 99.7256 27.606 99.7256 30.9726C99.7256 34.3392 98.8279 37.2569 97.0324 39.4265C95.0124 41.8953 92.3192 43.1671 88.8029 43.1671C85.2867 43.1671 82.4438 41.8953 80.5735 39.4265C78.778 37.1821 77.8802 34.3392 77.8802 30.9726C77.8802 27.606 78.778 24.7631 80.5735 22.5187ZM82.8927 38.7532C84.1645 41.0724 86.2593 42.2694 88.8029 42.2694C91.3466 42.2694 93.4413 41.0724 94.7132 38.7532C95.9102 36.6584 96.4339 34.1148 96.4339 30.9726C96.4339 27.8305 95.8354 25.2868 94.7132 23.1921C93.4413 20.8729 91.3466 19.6758 88.8029 19.6758C86.2593 19.6758 84.1645 20.8729 82.8927 23.1921C81.6957 25.3616 81.172 27.9053 81.172 30.9726C81.172 34.0399 81.7705 36.5836 82.8927 38.7532Z" fill="black"/>
<path d="M107.132 38.1545C107.132 40.0248 107.207 40.9226 107.581 41.3715C107.88 41.8204 108.404 42.0448 109.152 42.0448C109.9 42.0448 110.499 41.8952 111.172 41.4463L111.471 42.2692C110.424 42.7929 109.377 43.0922 108.18 43.0922C106.608 43.0922 105.411 42.5685 104.813 41.5211C104.439 40.8478 104.364 40.1745 104.364 37.7805V27.3066H102.344V26.5585C104.289 26.4089 105.187 25.1371 105.711 22.0697L107.207 21.6208C107.132 23.0423 107.132 24.2393 107.132 26.4089H111.022V27.3066H107.132V38.1545Z" fill="black"/>
<path d="M117.83 38.1545C117.83 40.0248 117.905 40.9226 118.279 41.3715C118.579 41.8204 119.102 42.0448 119.85 42.0448C120.598 42.0448 121.197 41.8952 121.87 41.4463L122.17 42.2692C121.122 42.7929 120.075 43.0922 118.878 43.0922C117.307 43.0922 116.11 42.5685 115.511 41.5211C115.137 40.8478 115.062 40.1745 115.062 37.7805V27.3066H113.042V26.5585C114.987 26.4089 115.96 25.1371 116.409 22.0697L117.905 21.6208C117.83 23.0423 117.83 24.2393 117.83 26.4089H121.721V27.3066H117.83V38.1545Z" fill="black"/>
<path d="M139.451 42.6433C138.18 42.8677 136.758 42.9425 136.085 42.9425C135.112 42.9425 134.888 42.4188 134.738 40.2492C134.214 40.8477 133.766 41.2218 133.167 41.6707C131.746 42.7181 130.623 43.0921 128.978 43.0921C127.556 43.0921 126.509 42.7929 125.686 42.1196C124.788 41.3714 124.264 40.0248 124.264 38.6782C124.264 36.1345 125.91 34.4886 129.052 33.7405C130.773 33.3664 132.419 33.142 134.813 32.9924V30.9724C134.813 29.4762 134.663 28.728 134.364 28.0547C133.915 27.2318 133.017 26.7829 131.671 26.7829C129.501 26.7829 128.454 27.7555 128.304 29.7754C128.304 30.4487 128.229 30.6732 127.93 30.8976C127.706 31.0472 127.257 31.1221 126.808 31.1221C125.686 31.1221 125.237 30.8228 125.237 30.1495C125.237 28.9525 126.06 27.8303 127.406 27.0073C128.603 26.334 130.249 25.96 132.12 25.96C134.214 25.96 135.711 26.4088 136.459 27.3814C137.132 28.2044 137.431 29.2517 137.431 31.0472C137.431 31.1221 137.431 31.1221 137.357 34.339V37.4063V38.9026C137.357 40.2492 137.506 41.4462 137.731 41.6707C137.955 41.8951 138.329 42.0448 139.526 42.0448V42.6433H139.451ZM134.738 33.7405C131.82 33.965 130.623 34.2642 129.277 34.9375C127.855 35.6108 127.107 36.8827 127.107 38.6034C127.107 40.6233 128.229 42.0448 129.8 42.0448C131.446 42.0448 133.167 41.0722 133.915 39.6507C134.439 38.753 134.663 37.4063 134.663 35.2368V33.7405H134.738Z" fill="black"/>
<path d="M147.531 42.8678H145.885L141.845 29.4014C141.322 27.5311 140.873 27.157 139.302 27.0822V26.3341H146.484V27.0822C144.913 27.157 144.314 27.4563 144.314 28.2792C144.314 28.5037 144.389 29.0274 144.613 29.7007L147.531 39.8753L151.795 26.783H153.142L157.257 39.8753L160.1 30.374C160.324 29.5511 160.474 28.9526 160.474 28.5037C160.474 27.98 160.175 27.5311 159.576 27.3067C159.202 27.1571 158.978 27.157 158.155 27.0822V26.3341H164.514V27.0822C162.718 27.157 162.12 27.8304 161.372 30.2992L157.481 42.8678H155.686L151.646 30.4488L147.531 42.8678Z" fill="black"/>
<path d="M179.85 42.6433C178.579 42.8677 177.157 42.9425 176.484 42.9425C175.511 42.9425 175.287 42.4188 175.137 40.2492C174.613 40.8477 174.165 41.2218 173.566 41.6707C172.145 42.7181 171.022 43.0921 169.377 43.0921C167.955 43.0921 166.908 42.7929 166.085 42.1196C165.187 41.3714 164.663 40.0248 164.663 38.6782C164.663 36.1345 166.309 34.4886 169.451 33.7405C171.097 33.3664 172.818 33.142 175.212 32.9924V30.9724C175.212 29.4762 175.062 28.728 174.763 28.0547C174.314 27.2318 173.416 26.7829 172.145 26.7829C169.975 26.7829 168.928 27.7555 168.778 29.7754C168.778 30.4487 168.703 30.6732 168.404 30.8976C168.18 31.0472 167.731 31.1221 167.282 31.1221C166.16 31.1221 165.711 30.8228 165.711 30.1495C165.711 28.9525 166.534 27.8303 167.88 27.0073C169.077 26.334 170.723 25.96 172.593 25.96C174.688 25.96 176.185 26.4088 176.933 27.3814C177.606 28.2044 177.905 29.2517 177.905 31.0472C177.905 31.1221 177.905 31.1221 177.83 34.339V37.4063V38.9026C177.83 40.2492 177.98 41.4462 178.204 41.6707C178.429 41.8951 178.803 42.0448 180 42.0448V42.6433H179.85ZM175.137 33.7405C172.219 33.965 171.022 34.2642 169.676 34.9375C168.254 35.6108 167.506 36.8827 167.506 38.6034C167.506 40.6233 168.628 42.0448 170.199 42.0448C171.845 42.0448 173.566 41.0722 174.314 39.6507C174.838 38.753 175.062 37.4063 175.062 35.2368V33.7405H175.137Z" fill="black"/>
<path d="M10.2494 5.53616C9.35162 5.53616 5.08728 5.53616 5.08728 5.53616C5.08728 5.53616 5.08728 7.4813 5.08728 8.22943C3.74065 8.22943 0 8.22943 0 8.22943V48.0299H41.8953V8.22943C41.8953 8.22943 38.1546 8.22943 36.808 8.22943C36.808 7.4813 36.808 5.53616 36.808 5.53616C36.808 5.53616 32.5436 5.53616 31.6459 5.53616C29.4763 1.94514 25.6609 0 20.9476 0C16.2344 0 12.4938 1.94514 10.2494 5.53616ZM10.9227 7.70574H11.596L11.8953 7.10723C14.1397 2.99252 18.1047 2.16958 21.0224 2.16958C23.9402 2.16958 27.9052 2.99252 30.1496 7.10723L30.4489 7.70574C30.4489 7.70574 33.3666 7.70574 34.6384 7.70574C34.6384 8.45387 34.6384 10.399 34.6384 10.399C34.6384 10.399 38.3791 10.399 39.7257 10.399C39.7257 12.419 39.7257 43.7656 39.7257 45.7855C37.7057 45.7855 4.33915 45.7855 2.3192 45.7855C2.3192 43.7656 2.3192 12.419 2.3192 10.399C3.66584 10.399 7.40648 10.399 7.40648 10.399C7.40648 10.399 7.40648 8.45387 7.40648 7.70574C8.60349 7.70574 10.9227 7.70574 10.9227 7.70574Z" fill="black"/>
<path d="M4.56356 39.8755H37.3316V41.0725H4.56356V39.8755Z" fill="black"/>
<path d="M3.59103 41.97H38.3042V43.2418H3.59103V41.97Z" fill="black"/>
<path d="M20.5736 12.9425L4.18953 18.8527L4.93766 20.9475C4.93766 20.9475 20.1995 15.4861 20.9476 15.1869C21.6958 15.4113 36.9576 20.9475 36.9576 20.9475L37.7057 18.8527L20.9476 12.7928L20.5736 12.9425Z" fill="black"/>
<path d="M35.0873 36.4338L34.788 23.9401C34.8628 24.0149 35.0124 24.0149 35.0873 24.0149C35.4613 24.0149 35.7606 23.7156 35.7606 23.3416C35.7606 23.1171 35.6858 22.9675 35.5361 22.8927H36.0598V21.6957H5.76056V22.8927H6.28425C6.13463 23.0423 6.05982 23.1919 6.05982 23.3416C6.05982 23.7156 6.35907 24.0149 6.73313 24.0149C6.80794 24.0149 6.95757 24.0149 7.03238 23.9401L6.80795 36.4338H5.68575V38.4538H36.2094V36.4338H35.0873ZM13.167 36.4338H9.65084L9.35159 23.9401C9.4264 24.0149 9.57602 24.0149 9.65084 24.0149C10.0249 24.0149 10.3242 23.7156 10.3242 23.3416C10.3242 23.1171 10.2493 22.9675 10.0997 22.8927H12.5685C12.4189 23.0423 12.3441 23.1919 12.3441 23.3416C12.3441 23.7156 12.6434 24.0149 13.0174 24.0149C13.167 24.0149 13.2419 24.0149 13.3167 23.9401L13.167 36.4338ZM19.5262 36.4338H16.0099L15.7107 23.9401C15.7855 24.0149 15.9351 24.0149 16.0099 24.0149C16.384 24.0149 16.6833 23.7156 16.6833 23.3416C16.6833 23.1171 16.6084 22.9675 16.4588 22.8927H18.9276C18.778 23.0423 18.7032 23.1919 18.7032 23.3416C18.7032 23.7156 19.0025 24.0149 19.3765 24.0149C19.4513 24.0149 19.601 24.0149 19.6758 23.9401L19.5262 36.4338ZM25.8853 36.4338H22.369L22.0698 23.9401C22.1446 24.0149 22.2942 24.0149 22.369 24.0149C22.7431 24.0149 23.0424 23.7156 23.0424 23.3416C23.0424 23.1171 22.9675 22.9675 22.8179 22.8927H25.2868C25.1371 23.0423 25.0623 23.1919 25.0623 23.3416C25.0623 23.7156 25.3616 24.0149 25.7356 24.0149C25.8853 24.0149 25.9601 24.0149 26.0349 23.9401L25.8853 36.4338ZM32.2444 36.4338H28.7281L28.4289 23.9401C28.5037 24.0149 28.6533 24.0149 28.7281 24.0149C29.1022 24.0149 29.4015 23.7156 29.4015 23.3416C29.4015 23.1171 29.3267 22.9675 29.177 22.8927H31.6459C31.4962 23.0423 31.4214 23.1919 31.4214 23.3416C31.4214 23.7156 31.7207 24.0149 32.0947 24.0149C32.1695 24.0149 32.3192 24.0149 32.394 23.9401L32.2444 36.4338Z" fill="black"/>
</svg>
