<svg width="124" height="86" viewBox="0 0 124 86" fill="none" xmlns="http://www.w3.org/2000/svg">
<path d="M81.9872 0.748867C81.3872 -0.0511333 80.1872 -0.251133 79.2872 0.348867L40.5872 29.1489L59.4872 5.64887C60.1872 4.84887 60.0872 3.54887 59.1872 2.94887C58.3872 2.24887 57.0872 2.34887 56.4872 3.24887C56.4872 3.24887 56.4872 3.34887 56.3872 3.34887L38.6872 27.1489L42.0872 10.4489L42.1872 10.1489C42.2872 9.84887 42.0872 9.44887 41.7872 9.34887C41.4872 9.24887 41.0872 9.44887 40.9872 9.74887C40.9872 9.84887 40.9872 9.84887 40.9872 9.94887L40.8872 10.2489L35.6872 29.7489L31.1872 21.4489L30.9872 21.2489C30.8872 20.9489 30.5872 20.8489 30.2872 20.9489C29.9872 21.0489 29.8872 21.3489 29.9872 21.6489C29.9872 21.6489 29.9872 21.7489 30.0872 21.7489L30.1872 21.9489L34.0872 30.9489L21.6872 23.3489L21.1872 23.0489C20.2872 22.4489 19.0872 22.7489 18.4872 23.6489C17.8872 24.5489 18.1872 25.7489 19.0872 26.3489L19.1872 26.4489L19.6872 26.7489L28.7872 31.3489L10.0872 30.9489C8.98721 30.9489 8.18721 31.8489 8.18721 32.8489C8.18721 33.9489 9.08721 34.7489 10.0872 34.7489L30.0872 34.2489L2.18721 44.0489C1.18721 44.4489 0.687212 45.5489 1.08721 46.5489C1.48721 47.5489 2.48721 48.0489 3.48721 47.6489L28.9872 37.8489L13.4872 49.3489C13.1872 49.4489 12.9872 49.8489 13.0872 50.1489C13.1872 50.4489 13.5872 50.6489 13.8872 50.5489C13.9872 50.5489 14.0872 50.4489 14.1872 50.3489L28.9872 40.0489L15.3872 58.4489C15.0872 58.6489 15.0872 59.0489 15.2872 59.3489C15.4872 59.6489 15.8872 59.6489 16.1872 59.4489C16.2872 59.3489 16.2872 59.3489 16.3872 59.2489L33.3872 38.0489L29.5872 52.4489L29.3872 53.0489C29.1872 54.0489 29.7872 55.1489 30.7872 55.3489C31.7872 55.5489 32.8872 54.9489 33.0872 53.9489L33.1872 53.3489L36.4872 36.8489L39.7872 44.2489L39.9872 44.7489C40.3872 45.5489 41.2872 45.8489 42.0872 45.4489C42.8872 45.0489 43.1872 44.1489 42.7872 43.3489L42.6872 42.9489L39.1872 36.4489L48.3872 41.0489L48.6872 41.1489C48.9872 41.3489 49.3872 41.2489 49.5872 40.9489C49.7872 40.6489 49.6872 40.2489 49.3872 40.0489C49.3872 40.0489 49.2872 40.0489 49.2872 39.9489H49.0872L39.3872 34.0489L67.9872 33.3489C68.3872 33.3489 68.5872 32.9489 68.5872 32.6489C68.5872 32.3489 68.2872 32.1489 67.9872 32.0489L44.9872 31.5489L75.2872 19.9489C75.5872 19.8489 75.8872 19.5489 75.7872 19.1489C75.6872 18.8489 75.3872 18.5489 74.9872 18.6489C74.9872 18.6489 74.8872 18.6489 74.8872 18.7489L44.6872 29.2489L81.5872 3.44887C82.4872 2.84887 82.5872 1.64887 81.9872 0.748867Z" fill="black"/>
<path d="M78.3872 0.54885C79.2872 -0.0511502 80.4872 0.24885 81.0872 1.14885C81.5872 1.94885 81.4872 3.04885 80.6872 3.74885L13.3872 50.7488C13.0872 50.8488 12.6872 50.7489 12.5872 50.3489C12.4872 50.1489 12.4872 49.8488 12.6872 49.7488L78.3872 0.54885Z" fill="#464747"/>
<path d="M55.4872 3.54888C56.1872 2.74888 57.3872 2.54888 58.1872 3.24888C58.9872 3.94888 59.1872 5.14888 58.4872 5.94888L15.4872 59.5489C15.2872 59.8489 14.8872 59.9489 14.5872 59.8489C14.2872 59.7489 14.1872 59.2489 14.2872 58.9489C14.2872 58.8489 14.3872 58.8489 14.4872 58.7489L55.4872 3.54888Z" fill="#383A39"/>
<path d="M2.58722 47.9488C1.58722 48.2488 0.487217 47.7488 0.0872167 46.7488C-0.212783 45.7488 0.287217 44.7488 1.18722 44.3488L73.8872 18.9488C74.1872 18.7488 74.5872 18.9488 74.7872 19.2488C74.9872 19.5488 74.7872 19.9488 74.4872 20.1488C74.4872 20.1488 74.3872 20.1488 74.3872 20.2488L2.58722 47.9488Z" fill="black"/>
<path d="M9.08721 35.0489C7.98721 35.0489 7.18721 34.1489 7.18721 33.1489C7.18721 32.0489 8.08721 31.2489 9.08721 31.2489L66.9872 32.3489C67.3872 32.3489 67.5872 32.7489 67.5872 33.0489C67.5872 33.3489 67.2872 33.5489 66.9872 33.6489L9.08721 35.0489Z" fill="black"/>
<path d="M32.2872 54.2488C32.0872 55.2488 30.9872 55.9488 29.9872 55.7488C28.9872 55.5488 28.2872 54.4488 28.5872 53.4488L28.7872 52.8488L39.9872 10.5488L40.0872 10.2488C40.0872 9.8488 40.4872 9.6488 40.7872 9.6488C41.1872 9.6488 41.3872 10.0488 41.3872 10.3488V10.4488L41.2872 10.7488L32.5872 53.5488L32.2872 54.2488Z" fill="#515151"/>
<path d="M18.3872 26.7489C17.4872 26.1489 17.1872 24.9489 17.7872 24.0489C18.2872 23.1489 19.3872 22.8489 20.2872 23.3489L20.7872 23.6489L48.0872 40.2489L48.3872 40.4489C48.6872 40.5489 48.8872 40.9489 48.6872 41.3489C48.5872 41.6489 48.1872 41.8489 47.7872 41.6489C47.7872 41.6489 47.6872 41.6489 47.6872 41.5489L47.3872 41.4489L18.9872 26.9489L18.3872 26.7489Z" fill="black"/>
<path d="M41.9872 43.6488C42.3872 44.4488 42.0872 45.3488 41.2872 45.7488C40.4872 46.1488 39.5872 45.8488 39.1872 45.0488L38.9872 44.5488L29.1872 22.1488L29.0872 21.9488C28.8872 21.7488 28.9872 21.3488 29.2872 21.2488C29.4872 21.0488 29.8872 21.1488 29.9872 21.4488C29.9872 21.4488 29.9872 21.5488 30.0872 21.5488L30.1872 21.7488L41.7872 43.2488L41.9872 43.6488Z" fill="black"/>
<path d="M49.2872 56.9488C48.9872 56.9488 48.7872 56.7488 48.7872 56.5488V56.4488V49.2488C48.7872 48.9488 48.9872 48.6488 49.3872 48.5488H49.4872H49.9872C50.3872 48.5488 50.7872 48.7488 50.7872 49.1488L52.8872 54.9488L54.8872 49.1488C54.9872 48.7488 55.2872 48.4488 55.6872 48.5488H56.1872C56.4872 48.5488 56.7872 48.7488 56.8872 49.1488V49.2488V56.3488C56.8872 56.6488 56.6872 56.9488 56.3872 56.9488H56.2872C55.9872 56.9488 55.6872 56.7488 55.6872 56.4488V56.3488V50.0488L53.2872 56.5488C53.2872 56.7488 52.9872 56.9488 52.7872 56.9488C52.5872 56.9488 52.2872 56.7488 52.2872 56.5488L49.7872 50.0488V56.4488C49.7872 56.7488 49.5872 56.9488 49.3872 56.9488C49.3872 57.0488 49.3872 57.0488 49.2872 56.9488Z" fill="black"/>
<path d="M59.7872 54.0488C59.8872 55.5488 60.5872 56.1488 61.7872 56.1488C62.9872 56.1488 63.1872 55.5488 63.5872 55.5488C63.7872 55.5488 63.9872 55.7488 63.9872 55.9488C63.9872 56.1488 63.7872 56.4488 63.5872 56.5488C62.9872 56.8488 62.2872 57.0488 61.5872 57.0488C59.9872 57.1488 58.6872 55.9488 58.5872 54.3488C58.5872 54.1488 58.5872 54.0488 58.5872 53.8488C58.3872 52.2488 59.5872 50.8488 61.1872 50.6488C61.2872 50.6488 61.3872 50.6488 61.4872 50.6488C63.2872 50.6488 64.1872 51.6488 64.1872 53.5488C64.1872 53.8488 63.9872 54.0488 63.6872 54.1488H63.5872L59.7872 54.0488ZM59.7872 53.2488H62.9872C62.9872 51.8488 62.3872 51.3488 61.4872 51.3488C60.5872 51.3488 59.9872 51.9488 59.7872 53.2488Z" fill="black"/>
<path d="M66.7872 52.2489V56.4489C66.7872 56.7489 66.5872 57.0489 66.2872 57.0489H66.1872C65.8872 57.0489 65.5872 56.8489 65.5872 56.5489V56.4489V51.2489C65.4872 50.9489 65.6872 50.7489 65.9872 50.6489C66.0872 50.6489 66.0872 50.6489 66.1872 50.6489C66.5872 50.6489 66.7872 50.8489 66.7872 51.5489C67.4872 50.9489 68.3872 50.6489 69.2872 50.6489C70.0872 50.5489 70.8872 51.0489 70.9872 51.8489C70.9872 52.0489 70.9872 52.1489 70.9872 52.3489V56.4489C70.9872 56.7489 70.7872 57.0489 70.4872 57.0489H70.3872C70.0872 57.0489 69.7872 56.8489 69.7872 56.5489V56.4489V52.6489C69.8872 52.1489 69.5872 51.7489 69.0872 51.6489C68.9872 51.6489 68.8872 51.6489 68.7872 51.6489C68.0872 51.6489 67.3872 51.8489 66.7872 52.2489Z" fill="black"/>
<path d="M72.4872 51.5489C72.2872 51.5489 72.0872 51.4489 72.0872 51.2489V51.1489C72.0872 50.9489 72.1872 50.7489 72.3872 50.7489H72.4872H72.8872V49.5489C72.8872 49.2489 73.0872 48.9489 73.3872 48.9489H73.4872C73.7872 48.9489 73.9872 49.1489 74.0872 49.4489V49.5489V50.7489H75.1872C75.3872 50.7489 75.5872 50.8489 75.5872 51.0489V51.1489C75.5872 51.3489 75.4872 51.5489 75.2872 51.5489H75.1872H74.0872V55.3489C73.9872 55.7489 74.2872 56.1489 74.6872 56.2489C74.7872 56.2489 74.8872 56.2489 74.9872 56.2489H75.1872C75.3872 56.2489 75.5872 56.3489 75.6872 56.5489V56.6489C75.6872 56.8489 75.5872 57.0489 75.2872 57.0489C75.0872 57.0489 74.7872 57.1489 74.5872 57.1489C73.7872 57.2489 73.0872 56.7489 72.8872 55.9489C72.8872 55.8489 72.8872 55.6489 72.8872 55.5489V51.6489L72.4872 51.5489Z" fill="black"/>
<path d="M80.4872 56.2489C79.9872 56.7489 79.2872 57.0489 78.5872 57.0489C77.5872 57.1489 76.6872 56.4489 76.5872 55.4489C76.5872 55.3489 76.5872 55.2489 76.5872 55.2489C76.5872 53.9489 77.5872 53.3489 79.0872 53.3489C79.5872 53.3489 80.0872 53.4489 80.4872 53.5489V52.6489C80.4872 52.0489 80.0872 51.5489 79.4872 51.5489C79.3872 51.5489 79.2872 51.5489 79.1872 51.5489C77.9872 51.5489 77.8872 52.1489 77.3872 52.1489C77.1872 52.1489 76.9872 51.9489 76.9872 51.7489C76.9872 51.4489 77.1872 51.1489 77.4872 51.0489C78.0872 50.8489 78.6872 50.7489 79.2872 50.7489C80.7872 50.7489 81.6872 51.2489 81.6872 52.6489V56.5489C81.7872 56.8489 81.5872 57.0489 81.2872 57.1489C81.1872 57.1489 81.1872 57.1489 81.0872 57.1489C80.7872 57.0489 80.4872 56.7489 80.4872 56.2489C80.4872 56.2489 80.4872 56.3489 80.4872 56.2489ZM80.4872 55.4489V54.0489C80.0872 53.9489 79.6872 53.8489 79.2872 53.8489C78.3872 53.8489 77.7872 54.1489 77.7872 54.9489C77.6872 55.5489 78.0872 56.0489 78.6872 56.1489C78.7872 56.1489 78.8872 56.1489 78.9872 56.1489C79.5872 56.2489 80.0872 55.9489 80.4872 55.4489Z" fill="black"/>
<path d="M84.6872 49.4488V56.4488C84.6872 56.7488 84.4872 57.0488 84.1872 57.0488H84.0872C83.7872 57.0488 83.4872 56.8488 83.4872 56.5488V56.4488V49.1488C83.3872 48.8488 83.5872 48.6488 83.8872 48.5488C83.9872 48.5488 83.9872 48.5488 84.0872 48.5488C84.4872 48.5488 84.6872 48.7488 84.6872 49.4488Z" fill="black"/>
<path d="M90.4872 56.3488C90.4872 56.6488 90.2872 56.9488 89.9872 56.9488H89.8872C89.5872 56.9488 89.2872 56.7488 89.2872 56.4488V56.3488V49.1488C89.2872 48.8488 89.4872 48.5488 89.8872 48.5488C89.8872 48.5488 89.8872 48.5488 89.9872 48.5488C90.2872 48.5488 90.5872 48.7488 90.5872 49.0488C90.5872 49.0488 90.5872 49.0488 90.5872 49.1488V52.1488H94.4872V49.1488C94.4872 48.8488 94.6872 48.5488 94.9872 48.5488H95.0872C95.3872 48.5488 95.6872 48.7488 95.6872 49.0488V49.1488V56.3488C95.6872 56.6488 95.4872 56.9488 95.0872 56.9488C95.0872 56.9488 95.0872 56.9488 94.9872 56.9488C94.6872 56.9488 94.3872 56.7488 94.3872 56.4488V56.3488V53.1488H90.4872V56.3488Z" fill="black"/>
<path d="M98.3872 54.0489C98.4872 55.5489 99.1872 56.1489 100.387 56.1489C101.587 56.1489 101.787 55.5489 102.187 55.5489C102.387 55.5489 102.587 55.7489 102.587 55.9489C102.587 55.9489 102.587 55.9489 102.587 56.0489C102.587 56.2489 102.387 56.5489 102.187 56.6489C101.587 56.9489 100.887 57.1489 100.187 57.1489C98.5872 57.2489 97.2872 56.0489 97.1872 54.4489C97.1872 54.2489 97.1872 54.1489 97.1872 53.9489C96.9872 52.3489 98.1872 50.9489 99.7872 50.7489C99.8872 50.7489 99.9872 50.7489 100.087 50.7489C101.887 50.7489 102.787 51.7489 102.787 53.6489C102.787 53.9489 102.587 54.1489 102.287 54.2489H102.187L98.3872 54.0489ZM98.3872 53.2489H101.587C101.587 51.8489 100.987 51.3489 100.087 51.3489C99.1872 51.3489 98.5872 51.9489 98.3872 53.2489Z" fill="black"/>
<path d="M107.787 56.2489C107.287 56.7489 106.587 57.0489 105.887 57.0489C104.887 57.1489 103.987 56.4489 103.887 55.4489C103.887 55.3489 103.887 55.2489 103.887 55.2489C103.887 53.9489 104.887 53.3489 106.387 53.3489C106.887 53.3489 107.387 53.4489 107.787 53.5489V52.6489C107.787 52.0489 107.387 51.5489 106.787 51.5489C106.687 51.5489 106.587 51.5489 106.487 51.5489C105.287 51.5489 105.187 52.1489 104.687 52.1489C104.487 52.1489 104.287 51.9489 104.287 51.7489C104.287 51.4489 104.487 51.1489 104.787 51.0489C105.387 50.8489 105.987 50.7489 106.587 50.7489C108.087 50.7489 108.987 51.2489 108.987 52.6489V56.5489C109.087 56.8489 108.887 57.0489 108.587 57.1489C108.487 57.1489 108.487 57.1489 108.387 57.1489C108.087 57.0489 107.787 56.7489 107.787 56.2489C107.787 56.2489 107.787 56.3489 107.787 56.2489ZM107.787 55.4489V54.0489C107.387 53.9489 106.987 53.9489 106.587 53.9489C105.687 53.9489 105.087 54.2489 105.087 55.0489C105.087 55.6489 105.487 56.1489 106.087 56.1489C106.187 56.1489 106.287 56.1489 106.287 56.1489C106.787 56.2489 107.387 55.9489 107.787 55.4489Z" fill="black"/>
<path d="M111.987 49.4488V56.4488C111.987 56.7488 111.787 57.0488 111.487 57.0488H111.387C111.087 57.0488 110.787 56.8488 110.787 56.5488V56.4488V49.1488C110.687 48.8488 110.887 48.6488 111.187 48.5488C111.287 48.5488 111.287 48.5488 111.387 48.5488C111.787 48.5488 111.987 48.7488 111.987 49.4488Z" fill="black"/>
<path d="M113.587 51.5489C113.387 51.5489 113.187 51.4489 113.187 51.2489V51.1489C113.187 50.9489 113.287 50.7489 113.487 50.7489H113.587H113.987V49.5489C113.987 49.2489 114.187 48.9489 114.487 48.9489H114.587C114.887 48.9489 115.087 49.1489 115.187 49.4489V49.5489V50.7489H116.287C116.487 50.7489 116.687 50.8489 116.687 51.0489V51.1489C116.687 51.3489 116.587 51.5489 116.387 51.5489H116.287H115.187V55.3489C115.087 55.7489 115.387 56.1489 115.787 56.2489C115.887 56.2489 115.987 56.2489 116.087 56.2489H116.287C116.487 56.2489 116.687 56.3489 116.787 56.5489V56.6489C116.787 56.8489 116.687 57.0489 116.387 57.0489C116.187 57.0489 115.887 57.1489 115.687 57.1489C114.887 57.2489 114.187 56.7489 113.987 55.9489C113.987 55.8489 113.987 55.6489 113.987 55.5489V51.6489L113.587 51.5489Z" fill="black"/>
<path d="M119.287 52.2488V56.4488C119.287 56.7488 119.087 57.0488 118.787 57.0488H118.687C118.387 57.0488 118.087 56.8488 118.087 56.5488V56.4488V49.1488C117.987 48.8488 118.187 48.6488 118.487 48.5488C118.587 48.5488 118.587 48.5488 118.687 48.5488C119.087 48.5488 119.287 48.7488 119.287 49.4488V51.5488C119.987 50.9488 120.887 50.6488 121.787 50.6488C122.587 50.5488 123.387 51.1488 123.487 51.9488C123.487 52.0488 123.487 52.2488 123.487 52.3488V56.4488C123.487 56.7488 123.287 57.0488 122.987 57.0488H122.887C122.587 57.0488 122.287 56.8488 122.287 56.5488V56.4488V52.6488C122.387 52.1488 122.087 51.7488 121.587 51.6488C121.487 51.6488 121.387 51.6488 121.287 51.6488C120.487 51.6488 119.787 51.8488 119.287 52.2488Z" fill="black"/>
<path d="M52.1872 70.9489C49.8872 70.9489 48.3872 69.4489 48.3872 66.6489C48.3872 63.8489 50.0872 62.3489 52.2872 62.3489C52.9872 62.3489 53.6872 62.4489 54.2872 62.7489C54.5872 62.8489 54.7872 63.1489 54.7872 63.4489C54.7872 63.7489 54.5872 63.9489 54.3872 63.9489C54.3872 63.9489 54.3872 63.9489 54.2872 63.9489C53.7872 63.9489 53.5872 63.2489 52.2872 63.2489C50.7872 63.2489 49.6872 64.3489 49.6872 66.5489C49.6872 68.7489 50.5872 69.9489 52.1872 69.9489C53.7872 69.9489 53.9872 69.0489 54.3872 69.0489C54.5872 69.0489 54.7872 69.2489 54.8872 69.4489C54.8872 69.4489 54.8872 69.4489 54.8872 69.5489C54.8872 69.8489 54.6872 70.1489 54.2872 70.3489C53.7872 70.7489 52.9872 70.9489 52.1872 70.9489Z" fill="black"/>
<path d="M58.9872 70.9489C57.2872 70.9489 55.9872 69.6489 55.9872 67.9489C55.9872 67.8489 55.9872 67.8489 55.9872 67.7489C55.8872 66.0489 57.1872 64.6489 58.8872 64.5489C60.5872 64.4489 61.9872 65.7489 62.0872 67.4489C62.0872 67.5489 62.0872 67.6489 62.0872 67.7489C62.1872 69.4489 60.8872 70.8489 59.2872 70.9489C59.1872 70.9489 59.0872 70.9489 58.9872 70.9489ZM58.9872 70.0489C60.0872 70.0489 60.7872 69.2489 60.7872 67.7489C60.7872 66.2489 60.0872 65.4489 58.9872 65.4489C57.8872 65.4489 57.1872 66.2489 57.1872 67.8489C57.1872 69.4489 57.8872 70.1489 58.9872 70.0489Z" fill="black"/>
<path d="M64.6872 66.1489V70.3489C64.6872 70.6489 64.4872 70.9489 64.1872 70.9489H64.0872C63.7872 70.9489 63.4872 70.7489 63.4872 70.4489V70.3489V65.1489C63.3872 64.8489 63.5872 64.6489 63.8872 64.5489C63.9872 64.5489 63.9872 64.5489 64.0872 64.5489C64.4872 64.5489 64.6872 64.7489 64.6872 65.3489C65.3872 64.8489 66.1872 64.5489 66.9872 64.4489C67.6872 64.3489 68.2872 64.7489 68.4872 65.3489C69.1872 64.7489 69.9872 64.4489 70.8872 64.4489C71.6872 64.3489 72.3872 64.9489 72.4872 65.7489C72.4872 65.8489 72.4872 65.9489 72.4872 66.1489V70.3489C72.4872 70.6489 72.2872 70.9489 71.9872 70.9489H71.8872C71.5872 70.9489 71.3872 70.7489 71.2872 70.4489V70.3489V66.4489C71.3872 66.0489 71.0872 65.5489 70.6872 65.4489C70.5872 65.4489 70.4872 65.4489 70.3872 65.4489C69.7872 65.4489 69.0872 65.7489 68.5872 66.0489V70.2489C68.5872 70.5489 68.3872 70.8489 68.0872 70.8489H67.9872C67.6872 70.8489 67.3872 70.6489 67.3872 70.3489V70.2489V66.4489C67.4872 66.0489 67.1872 65.5489 66.7872 65.4489C66.6872 65.4489 66.5872 65.4489 66.4872 65.4489C65.7872 65.5489 65.1872 65.7489 64.6872 66.1489Z" fill="black"/>
<path d="M75.4872 66.1489V70.3489C75.4872 70.6489 75.2872 70.9489 74.9872 70.9489C74.6872 70.9489 74.3872 70.7489 74.3872 70.4489V70.3489V65.1489C74.2872 64.8489 74.4872 64.6489 74.7872 64.5489C74.8872 64.5489 74.8872 64.5489 74.9872 64.5489C75.3872 64.5489 75.5872 64.7489 75.5872 65.3489C76.2872 64.8489 77.0872 64.5489 77.8872 64.4489C78.5872 64.3489 79.1872 64.7489 79.3872 65.3489C80.0872 64.7489 80.8872 64.4489 81.7872 64.4489C82.5872 64.3489 83.2872 64.9489 83.3872 65.7489C83.3872 65.8489 83.3872 65.9489 83.3872 66.1489V70.3489C83.3872 70.6489 83.1872 70.9489 82.8872 70.9489H82.7872C82.4872 70.9489 82.2872 70.7489 82.1872 70.4489V70.3489V66.4489C82.2872 66.0489 81.9872 65.5489 81.5872 65.4489C81.4872 65.4489 81.3872 65.4489 81.2872 65.4489C80.6872 65.4489 79.9872 65.7489 79.4872 66.0489V70.2489C79.4872 70.5489 79.2872 70.8489 78.9872 70.8489H78.8872C78.5872 70.8489 78.2872 70.6489 78.2872 70.3489V70.2489V66.4489C78.3872 66.0489 78.0872 65.5489 77.6872 65.4489C77.5872 65.4489 77.4872 65.4489 77.3872 65.4489C76.6872 65.5489 76.0872 65.7489 75.4872 66.1489Z" fill="black"/>
<path d="M85.7872 63.9488C85.3872 63.9488 85.0872 63.6488 85.0872 63.2488C85.0872 62.8488 85.3872 62.5488 85.7872 62.5488C86.1872 62.5488 86.4872 62.8488 86.4872 63.2488C86.4872 63.6488 86.1872 63.9488 85.7872 63.9488ZM86.3872 70.3488C86.3872 70.6488 86.1872 70.9488 85.8872 70.9488H85.7872C85.4872 70.9488 85.1872 70.7488 85.1872 70.4488V70.3488V65.1488C85.0872 64.8488 85.2872 64.6488 85.5872 64.5488C85.6872 64.5488 85.6872 64.5488 85.7872 64.5488C86.1872 64.5488 86.3872 64.7488 86.3872 65.4488V70.3488Z" fill="black"/>
<path d="M89.9872 70.9488C89.3872 70.9488 88.8872 70.8488 88.3872 70.6488C88.0872 70.5488 87.8872 70.2488 87.8872 69.9488C87.8872 69.6488 88.0872 69.4488 88.2872 69.4488C88.2872 69.4488 88.2872 69.4488 88.3872 69.4488C88.7872 69.4488 88.8872 70.0488 89.9872 70.0488C90.8872 70.0488 91.3872 69.7488 91.3872 69.0488C91.3872 68.3488 91.0872 68.3488 89.9872 68.1488C88.6872 67.9488 87.9872 67.4488 87.9872 66.3488C87.9872 65.2488 88.8872 64.5488 90.2872 64.5488C90.7872 64.5488 91.2872 64.6488 91.6872 64.7488C91.9872 64.8488 92.1872 65.0488 92.1872 65.3488C92.1872 65.5488 91.9872 65.8488 91.7872 65.8488C91.2872 65.6488 90.7872 65.4488 90.2872 65.4488C89.4872 65.4488 89.0872 65.7488 89.0872 66.2488C89.0872 66.7488 89.4872 66.9488 90.4872 67.1488C91.8872 67.3488 92.5872 67.8488 92.5872 68.9488C92.5872 70.0488 91.6872 70.9488 89.9872 70.9488Z" fill="black"/>
<path d="M95.6872 70.9488C95.0872 70.9488 94.5872 70.8488 93.9872 70.6488C93.6872 70.5488 93.4872 70.2488 93.4872 69.9488C93.4872 69.6488 93.5872 69.4488 93.8872 69.4488H93.9872C94.3872 69.4488 94.4872 70.0488 95.5872 70.0488C96.4872 70.0488 96.9872 69.7488 96.9872 69.0488C96.9872 68.3488 96.6872 68.2488 95.5872 68.1488C94.2872 67.9488 93.5872 67.4488 93.5872 66.3488C93.5872 65.2488 94.4872 64.5488 95.8872 64.5488C96.3872 64.5488 96.8872 64.6488 97.2872 64.7488C97.5872 64.8488 97.7872 65.0488 97.7872 65.3488C97.7872 65.5488 97.5872 65.8488 97.3872 65.8488C96.8872 65.6488 96.3872 65.4488 95.8872 65.4488C95.0872 65.4488 94.6872 65.7488 94.6872 66.2488C94.6872 66.7488 94.9872 67.0488 95.9872 67.1488C97.3872 67.3488 98.0872 67.8488 98.0872 68.9488C98.0872 70.0488 97.2872 70.9488 95.6872 70.9488Z" fill="black"/>
<path d="M100.187 63.9488C99.7872 63.9488 99.4872 63.6488 99.4872 63.2488C99.4872 62.8488 99.7872 62.5488 100.187 62.5488C100.587 62.5488 100.887 62.8488 100.887 63.2488C100.887 63.6488 100.587 63.9488 100.187 63.9488ZM100.787 70.3488C100.787 70.6488 100.587 70.9488 100.287 70.9488H100.187C99.8872 70.9488 99.5872 70.7488 99.5872 70.4488V70.3488V65.1488C99.4872 64.8488 99.6872 64.6488 99.9872 64.5488C100.087 64.5488 100.087 64.5488 100.187 64.5488C100.587 64.5488 100.787 64.7488 100.787 65.4488V70.3488Z" fill="black"/>
<path d="M105.287 70.9489C103.587 70.9489 102.287 69.6489 102.287 67.9489C102.287 67.8489 102.287 67.8489 102.287 67.7489C102.187 66.0489 103.487 64.6489 105.187 64.5489C106.887 64.4489 108.287 65.7489 108.387 67.4489C108.387 67.5489 108.387 67.6489 108.387 67.7489C108.487 69.4489 107.187 70.8489 105.587 70.9489C105.487 70.9489 105.387 70.9489 105.287 70.9489ZM105.287 70.0489C106.387 70.0489 107.087 69.2489 107.087 67.7489C107.087 66.2489 106.387 65.3489 105.287 65.3489C104.187 65.3489 103.487 66.1489 103.487 67.7489C103.487 69.3489 104.187 70.1489 105.287 70.0489Z" fill="black"/>
<path d="M110.987 66.1489V70.3489C110.987 70.6489 110.787 70.9489 110.487 70.9489H110.387C110.087 70.9489 109.787 70.7489 109.787 70.4489V70.3489V65.1489C109.687 64.8489 109.887 64.6489 110.187 64.5489C110.287 64.5489 110.287 64.5489 110.387 64.5489C110.787 64.5489 110.987 64.7489 110.987 65.4489C111.687 64.8489 112.587 64.5489 113.487 64.5489C114.287 64.4489 115.087 65.0489 115.187 65.8489C115.187 65.9489 115.187 66.1489 115.187 66.2489V70.3489C115.187 70.6489 114.987 70.9489 114.687 70.9489H114.587C114.287 70.9489 113.987 70.7489 113.987 70.4489V70.3489V66.5489C114.087 66.0489 113.787 65.6489 113.287 65.5489C113.187 65.5489 113.087 65.5489 112.987 65.5489C112.287 65.5489 111.587 65.8489 110.987 66.1489Z" fill="black"/>
<path d="M51.2872 84.9489C49.5872 84.9489 48.2872 83.6489 48.2872 81.9489C48.2872 81.8489 48.2872 81.8489 48.2872 81.7489C48.1872 80.0489 49.4872 78.6489 51.1872 78.5489C52.8872 78.4489 54.2872 79.7489 54.3872 81.4489C54.3872 81.5489 54.3872 81.6489 54.3872 81.7489C54.4872 83.4489 53.1872 84.8489 51.5872 84.9489C51.4872 84.9489 51.3872 84.9489 51.2872 84.9489ZM51.2872 84.0489C52.3872 84.0489 53.0872 83.2489 53.0872 81.7489C53.0872 80.2489 52.3872 79.3489 51.2872 79.3489C50.1872 79.3489 49.4872 80.1489 49.4872 81.7489C49.4872 83.3489 50.1872 84.0489 51.2872 84.0489Z" fill="black"/>
<path d="M56.5872 84.9489C56.2872 84.9489 55.9872 84.7489 55.9872 84.4489C55.9872 84.3489 55.9872 84.3489 55.9872 84.2489V79.3489H55.5872C55.3872 79.3489 55.1872 79.2489 55.1872 79.0489V78.9489C55.1872 78.7489 55.2872 78.5489 55.4872 78.5489H55.5872H55.9872V77.9489C55.8872 77.1489 56.4872 76.3489 57.3872 76.2489C57.4872 76.2489 57.5872 76.2489 57.7872 76.2489C57.9872 76.2489 58.1872 76.2489 58.3872 76.3489C58.5872 76.3489 58.7872 76.5489 58.6872 76.7489C58.6872 76.9489 58.4872 77.1489 58.2872 77.1489C58.2872 77.1489 58.2872 77.1489 58.1872 77.1489C57.4872 77.2489 57.1872 77.2489 57.1872 77.9489V78.4489H58.1872C58.3872 78.4489 58.5872 78.5489 58.5872 78.7489V78.8489C58.5872 79.0489 58.4872 79.2489 58.2872 79.2489H58.1872H57.1872V84.1489C57.2872 84.4489 57.0872 84.7489 56.7872 84.7489C56.7872 84.9489 56.6872 84.9489 56.5872 84.9489Z" fill="black"/>
<path d="M65.8872 84.9489C63.5872 84.9489 61.9872 83.3489 61.9872 80.6489C61.9872 77.9489 63.6872 76.3489 65.8872 76.3489C66.5872 76.3489 67.2872 76.4489 67.8872 76.7489C68.1872 76.8489 68.3872 77.1489 68.3872 77.4489C68.3872 77.7489 68.1872 77.9489 67.9872 77.9489C67.9872 77.9489 67.9872 77.9489 67.8872 77.9489C67.3872 77.9489 67.1872 77.2489 65.8872 77.2489C64.2872 77.2489 63.2872 78.3489 63.2872 80.5489C63.2872 82.7489 64.1872 83.8489 65.8872 83.8489C67.5872 83.8489 67.6872 82.9489 68.0872 82.9489C68.2872 82.9489 68.4872 83.1489 68.5872 83.3489C68.5872 83.3489 68.5872 83.3489 68.5872 83.4489C68.5872 83.7489 68.3872 84.0489 67.9872 84.2489C67.3872 84.7489 66.5872 84.9489 65.8872 84.9489Z" fill="black"/>
<path d="M73.5872 84.1488C72.9872 84.6488 72.2872 84.9488 71.5872 84.9488C70.5872 85.0488 69.6872 84.3488 69.5872 83.3488C69.5872 83.2488 69.5872 83.1488 69.5872 83.1488C69.5872 81.8488 70.5872 81.2488 72.0872 81.2488C72.5872 81.2488 73.0872 81.3488 73.4872 81.4488V80.5488C73.4872 79.9488 73.0872 79.4488 72.4872 79.4488C72.3872 79.4488 72.2872 79.4488 72.1872 79.4488C70.9872 79.4488 70.8872 80.0488 70.3872 80.0488C70.1872 80.0488 69.8872 79.8488 69.8872 79.6488C69.8872 79.6488 69.8872 79.6488 69.8872 79.5488C69.8872 79.2488 70.0872 78.9488 70.3872 78.8488C70.9872 78.6488 71.5872 78.5488 72.1872 78.5488C73.6872 78.5488 74.5872 79.0488 74.5872 80.4488V84.3488C74.6872 84.6488 74.4872 84.8488 74.1872 84.9488C74.0872 84.9488 74.0872 84.9488 73.9872 84.9488C73.7872 84.9488 73.4872 84.6488 73.5872 84.1488C73.4872 84.1488 73.4872 84.2488 73.5872 84.1488ZM73.5872 83.3488V81.9488C73.0872 81.9488 72.6872 81.9488 72.2872 81.9488C71.3872 81.9488 70.7872 82.2488 70.7872 83.0488C70.7872 83.6488 71.2872 84.1488 71.7872 84.1488C71.8872 84.1488 71.8872 84.1488 71.9872 84.1488C72.5872 84.1488 73.1872 83.8488 73.5872 83.3488Z" fill="black"/>
<path d="M77.6872 80.1489V84.3489C77.6872 84.6489 77.4872 84.9489 77.1872 84.9489H77.0872C76.7872 84.9489 76.4872 84.7489 76.4872 84.4489V84.3489V79.1489C76.3872 78.8489 76.5872 78.6489 76.8872 78.5489C76.9872 78.5489 76.9872 78.5489 77.0872 78.5489C77.4872 78.5489 77.6872 78.7489 77.6872 79.4489C78.3872 78.8489 79.2872 78.5489 80.1872 78.5489C80.9872 78.4489 81.7872 79.0489 81.8872 79.8489C81.8872 79.9489 81.8872 80.1489 81.8872 80.2489V84.3489C81.8872 84.6489 81.6872 84.9489 81.3872 84.9489H81.2872C80.9872 84.9489 80.6872 84.7489 80.6872 84.4489V84.3489V80.5489C80.7872 80.0489 80.4872 79.6489 79.9872 79.5489C79.8872 79.5489 79.7872 79.5489 79.6872 79.5489C78.9872 79.5489 78.2872 79.7489 77.6872 80.1489Z" fill="black"/>
<path d="M87.1872 84.1488C86.6872 84.6488 85.9872 84.9488 85.2872 84.9488C84.2872 85.0488 83.3872 84.3488 83.2872 83.3488C83.2872 83.2488 83.2872 83.1488 83.2872 83.1488C83.2872 81.8488 84.2872 81.2488 85.7872 81.2488C86.2872 81.2488 86.7872 81.3488 87.1872 81.4488V80.5488C87.1872 79.9488 86.7872 79.4488 86.1872 79.4488C86.0872 79.4488 85.9872 79.4488 85.8872 79.4488C84.6872 79.4488 84.5872 80.0488 84.0872 80.0488C83.8872 80.0488 83.6872 79.8488 83.6872 79.6488C83.6872 79.3488 83.8872 79.0488 84.1872 78.9488C84.7872 78.7488 85.3872 78.5488 85.9872 78.5488C87.4872 78.5488 88.3872 79.0488 88.3872 80.4488V84.3488C88.4872 84.6488 88.2872 84.8488 87.9872 84.9488C87.8872 84.9488 87.8872 84.9488 87.7872 84.9488C87.4872 84.8488 87.1872 84.5488 87.1872 84.1488ZM87.1872 83.3488V81.9488C86.7872 81.9488 86.3872 81.9488 85.9872 81.9488C85.0872 81.9488 84.4872 82.2488 84.4872 83.0488C84.4872 83.6488 84.8872 84.1488 85.4872 84.1488C85.5872 84.1488 85.5872 84.1488 85.6872 84.1488C86.2872 84.1488 86.7872 83.8488 87.1872 83.3488Z" fill="black"/>
<path d="M95.4872 84.3489C95.5872 84.6489 95.3872 84.8489 95.1872 84.9489C95.0872 84.9489 95.0872 84.9489 94.9872 84.9489C94.5872 84.9489 94.3872 84.6489 94.3872 84.0489C93.8872 84.6489 93.1872 84.9489 92.3872 84.9489C91.0872 84.9489 89.8872 84.0489 89.8872 81.8489C89.8872 79.4489 91.2872 78.5489 92.5872 78.5489C93.2872 78.5489 93.8872 78.7489 94.3872 79.2489V77.0489C94.2872 76.7489 94.4872 76.5489 94.7872 76.4489C94.8872 76.4489 94.8872 76.4489 94.9872 76.4489C95.3872 76.4489 95.5872 76.6489 95.5872 77.3489L95.4872 84.3489ZM90.9872 81.7489C90.9872 83.4489 91.6872 84.0489 92.5872 84.0489C93.2872 84.0489 93.8872 83.7488 94.3872 83.1488V79.9489C93.9872 79.5489 93.3872 79.3489 92.8872 79.3489C91.8872 79.4489 90.9872 79.9489 90.9872 81.7489Z" fill="black"/>
<path d="M100.887 84.1488C100.387 84.6488 99.6872 84.9488 98.9872 84.9488C97.9872 85.0488 97.0872 84.3488 96.9872 83.3488C96.9872 83.2488 96.9872 83.1488 96.9872 83.1488C96.9872 81.8488 97.9872 81.2488 99.4872 81.2488C99.9872 81.2488 100.487 81.3488 100.887 81.4488V80.5488C100.887 79.9488 100.487 79.4488 99.8872 79.4488C99.7872 79.4488 99.6872 79.4488 99.5872 79.4488C98.3872 79.4488 98.2872 80.0488 97.7872 80.0488C97.5872 80.0488 97.3872 79.8488 97.3872 79.6488C97.3872 79.3488 97.5872 79.0488 97.8872 78.9488C98.4872 78.7488 99.0872 78.6488 99.6872 78.6488C101.187 78.6488 102.087 79.1488 102.087 80.5488V84.4488C102.187 84.7488 101.987 84.9488 101.687 85.0488C101.587 85.0488 101.587 85.0488 101.487 85.0488C101.087 85.0488 100.787 84.7488 100.787 84.4488C100.887 84.2488 100.887 84.2488 100.887 84.1488ZM100.887 83.3488V81.9488C100.487 81.8488 100.087 81.8488 99.6872 81.8488C98.7872 81.8488 98.1872 82.1488 98.1872 82.9488C98.1872 83.5488 98.5872 84.0488 99.1872 84.0488C99.2872 84.0488 99.2872 84.0488 99.3872 84.0488C99.9872 84.1488 100.487 83.8488 100.887 83.3488Z" fill="black"/>
</svg>
