<?xml version="1.0" encoding="utf-8"?>
<!-- Generator: Adobe Illustrator 28.1.0, SVG Export Plug-In . SVG Version: 6.00 Build 0)  -->
<svg version="1.1" id="Layer_1" xmlns="http://www.w3.org/2000/svg" xmlns:xlink="http://www.w3.org/1999/xlink" x="0px" y="0px"
	 viewBox="0 0 166 100" style="enable-background:new 0 0 166 100;" xml:space="preserve">
<style type="text/css">
	.st0{fill:#252F3E;}
	.st1{fill:#FF9900;}
</style>
<g>
	<path class="st0" d="M65.6,43.4c0,1,0.1,1.8,0.3,2.4c0.2,0.6,0.5,1.2,0.9,1.9c0.1,0.2,0.2,0.4,0.2,0.6c0,0.3-0.2,0.5-0.5,0.8
		l-1.7,1.1c-0.2,0.2-0.5,0.2-0.7,0.2c-0.3,0-0.5-0.1-0.8-0.4c-0.4-0.4-0.7-0.8-1-1.3c-0.3-0.5-0.5-1-0.8-1.6
		c-2.1,2.5-4.7,3.7-7.9,3.7c-2.3,0-4.1-0.6-5.4-1.9s-2-3-2-5.2c0-2.3,0.8-4.1,2.4-5.5s3.8-2.1,6.6-2.1c0.9,0,1.9,0.1,2.8,0.2
		c1,0.1,2,0.3,3.1,0.6v-2c0-2-0.4-3.5-1.3-4.3c-0.9-0.8-2.3-1.2-4.4-1.2c-0.9,0-1.9,0.1-2.9,0.3c-1,0.2-2,0.5-2.9,0.9
		c-0.4,0.2-0.8,0.3-0.9,0.3c-0.2,0.1-0.3,0.1-0.4,0.1c-0.4,0-0.6-0.3-0.6-0.8v-1.3c0-0.4,0.1-0.8,0.2-0.9c0.1-0.2,0.4-0.4,0.8-0.6
		c0.9-0.5,2.1-0.9,3.4-1.2c1.3-0.3,2.7-0.5,4.2-0.5c3.2,0,5.5,0.7,7,2.2c1.5,1.5,2.2,3.7,2.2,6.6L65.6,43.4L65.6,43.4z M54.7,47.4
		c0.9,0,1.8-0.2,2.8-0.5c1-0.3,1.8-0.9,2.6-1.7c0.4-0.5,0.8-1.1,0.9-1.7c0.2-0.6,0.3-1.4,0.3-2.3v-1.1c-0.8-0.2-1.6-0.3-2.5-0.5
		c-0.9-0.1-1.7-0.2-2.5-0.2c-1.8,0-3.1,0.3-4,1.1c-0.9,0.7-1.3,1.7-1.3,3.1c0,1.3,0.3,2.2,1,2.8C52.5,47.1,53.5,47.4,54.7,47.4z
		 M76.3,50.3c-0.5,0-0.8-0.1-1-0.3c-0.2-0.2-0.4-0.5-0.6-1l-6.3-20.8c-0.2-0.5-0.2-0.9-0.2-1.1c0-0.4,0.2-0.7,0.6-0.7h2.6
		c0.5,0,0.9,0.1,1,0.3c0.2,0.2,0.4,0.5,0.5,1l4.5,17.8l4.2-17.8c0.1-0.5,0.3-0.9,0.5-1s0.6-0.3,1.1-0.3h2.1c0.5,0,0.9,0.1,1.1,0.3
		c0.2,0.2,0.4,0.5,0.5,1l4.2,18l4.6-18c0.2-0.5,0.3-0.9,0.5-1c0.2-0.2,0.6-0.3,1-0.3h2.5c0.4,0,0.7,0.2,0.7,0.7c0,0.1,0,0.3-0.1,0.4
		c0,0.2-0.1,0.4-0.2,0.7L94,49.1c-0.2,0.5-0.3,0.9-0.6,1s-0.6,0.3-1,0.3h-2.3c-0.5,0-0.9-0.1-1.1-0.3s-0.4-0.5-0.5-1.1l-4.2-17.3
		L80.2,49c-0.1,0.5-0.3,0.9-0.5,1.1c-0.2,0.2-0.6,0.3-1.1,0.3H76.3z M110.8,51.1c-1.4,0-2.8-0.2-4.1-0.5c-1.3-0.3-2.4-0.7-3.1-1.1
		c-0.4-0.2-0.7-0.5-0.8-0.8c-0.1-0.2-0.2-0.5-0.2-0.8v-1.4c0-0.6,0.2-0.8,0.6-0.8c0.2,0,0.3,0,0.5,0.1c0.2,0.1,0.4,0.2,0.7,0.3
		c0.9,0.4,1.9,0.7,3,0.9c1.1,0.2,2.1,0.3,3.2,0.3c1.7,0,3-0.3,3.9-0.9c0.9-0.6,1.4-1.5,1.4-2.6c0-0.8-0.2-1.4-0.7-1.9
		c-0.5-0.5-1.4-1-2.7-1.4l-3.9-1.2c-2-0.6-3.4-1.5-4.3-2.7c-0.9-1.2-1.3-2.5-1.3-3.9c0-1.1,0.2-2.1,0.7-3c0.5-0.9,1.1-1.6,1.9-2.2
		c0.8-0.6,1.7-1.1,2.8-1.4c1.1-0.3,2.2-0.5,3.4-0.5c0.6,0,1.2,0,1.8,0.1c0.6,0.1,1.2,0.2,1.7,0.3c0.5,0.1,1,0.3,1.5,0.4
		c0.5,0.2,0.9,0.3,1.1,0.5c0.4,0.2,0.6,0.4,0.8,0.7c0.2,0.2,0.2,0.5,0.2,0.9v1.3c0,0.6-0.2,0.9-0.6,0.9c-0.2,0-0.6-0.1-1-0.3
		c-1.5-0.7-3.3-1-5.2-1c-1.5,0-2.7,0.2-3.6,0.8c-0.8,0.5-1.3,1.3-1.3,2.4c0,0.8,0.3,1.4,0.8,1.9s1.5,1,3,1.5l3.8,1.2
		c1.9,0.6,3.3,1.5,4.2,2.6c0.8,1.1,1.2,2.4,1.2,3.8c0,1.2-0.2,2.2-0.7,3.1c-0.5,0.9-1.1,1.7-2,2.4c-0.8,0.7-1.8,1.2-3,1.5
		C113.5,50.9,112.2,51.1,110.8,51.1z"/>
	<path class="st1" d="M115.9,64.1c-8.8,6.5-21.7,10-32.7,10c-15.5,0-29.4-5.7-40-15.2c-0.8-0.8-0.1-1.8,0.9-1.2
		c11.4,6.6,25.4,10.6,40,10.6c9.8,0,20.6-2,30.5-6.2C116.1,61.4,117.4,63.1,115.9,64.1z M119.6,59.9c-1.1-1.5-7.5-0.7-10.3-0.3
		c-0.9,0.1-1-0.6-0.2-1.2c5.1-3.5,13.4-2.5,14.3-1.3c1,1.2-0.3,9.5-5,13.5c-0.7,0.6-1.4,0.3-1.1-0.5
		C118.3,67.4,120.7,61.4,119.6,59.9z"/>
</g>
</svg>
