<?xml version="1.0" encoding="utf-8"?>
<!-- Generator: Adobe Illustrator 28.1.0, SVG Export Plug-In . SVG Version: 6.00 Build 0)  -->
<svg version="1.1" id="Layer_1" xmlns="http://www.w3.org/2000/svg" xmlns:xlink="http://www.w3.org/1999/xlink" x="0px" y="0px"
	 viewBox="0 0 166 100" style="enable-background:new 0 0 166 100;" xml:space="preserve">
<style type="text/css">
	.st0{fill:#009DDE;}
</style>
<g>
	<path class="st0" d="M27.1,30.6c0.7,2.7,3.1,5.2,5.6,7.7l0.5,0.5c4,4,8.5,8.5,8.5,15.3c0,5.2-2.8,10-7.3,12.6
		c-4.5,2.6-10.1,2.6-14.6,0c-4.5-2.6-7.3-7.4-7.3-12.6c0-6.6,4.3-11.1,8.2-15l0.2-0.2l0,0l0.1-0.1C23.8,36,26.4,33.5,27.1,30.6z
		 M126.8,52.4c0.9,4.8-2,9.4-6.7,10.7c-4.4,1.1-6.4-2.3-6.7-3.2c0-0.1-0.1-0.2-0.2-0.2c-0.2,0-0.2,0.2-0.2,0.2l0,0l0,2.4l0,0v6.4
		h-4.8V54.1c0-4.8,3.7-8.9,8.5-9.3C121.5,44.3,125.9,47.6,126.8,52.4z M27.1,52.5c0,0-0.9,1-1.9,2.1l-0.1,0.1
		c-0.7,0.8-1.4,1.6-1.8,2c-0.8,0.9-1.2,2.1-1.2,3.3c0,1.3,0.5,2.6,1.5,3.5c0.9,0.9,2.2,1.5,3.5,1.5c2.8,0,5-2.2,5-5
		c0-1.2-0.4-2.4-1.3-3.3c-0.4-0.4-1-1.2-1.7-1.9L29,54.6C28.1,53.5,27.1,52.5,27.1,52.5z M139,44.8c4.8,0.4,8.4,4.4,8.5,9.2l0,0.1
		v8.7h-4.8l0-2.9c0,0,0-0.2-0.2-0.2c-0.2,0-0.2,0.1-0.2,0.2c-0.4,0.9-2.3,4.3-6.7,3.2c-4.7-1.3-7.6-6-6.7-10.7S134.2,44.3,139,44.8z
		 M106.5,45.1l0,8.9c0,5.1-3.4,9.3-8.5,9.3c-5.1,0-8.4-4.1-8.5-9.2l0-0.2l0-8.9h4.7V54c0,2.6,1.1,4.7,3.7,4.7c2.6,0,3.7-2.1,3.7-4.6
		l0-0.1l0-8.9H106.5z M154.2,39.6v23.2h-4.7V39.6H154.2z M85.7,44.9c0.6,0.1,1.2,0.4,1.8,0.7l0.2,0.1V51l0,0c0,0,0,0-0.1-0.1l0,0
		c-0.3-0.2-1.2-0.9-2.8-1.3c-4-1-6.2,2.7-6.2,3.5l0,0v9.6h-4.8V45.1H78l0.5,3.1c0,0,0,0.2,0.2,0.2c0.2,0,0.2-0.1,0.2-0.2
		C79,48,81.6,43.9,85.7,44.9z M59.2,39.6c7,0,12.4,1.3,12.4,11.6c0,10.2-5.6,11.6-12.8,11.6h-5.4V39.6H59.2z M138.1,49.4
		c-1.9,0-3.7,1.2-4.4,2.9c-0.7,1.8-0.3,3.8,1,5.2c1.4,1.4,3.4,1.8,5.2,1c1.8-0.7,2.9-2.5,2.9-4.4C142.9,51.5,140.7,49.4,138.1,49.4z
		 M117.6,49.4c-2.6,0-4.7,2.1-4.7,4.7c0,1.9,1.2,3.7,2.9,4.4c1.8,0.7,3.8,0.3,5.2-1c1.4-1.4,1.8-3.4,1-5.2S119.5,49.4,117.6,49.4z
		 M60.3,43.6l-2,0v15.1l2,0.1c4,0,6.6-0.4,6.6-7.6C66.8,44.3,64.6,43.7,60.3,43.6z M27.1,39C27.1,39,27.1,39,27.1,39L27.1,39
		c-0.1,0.1-0.1,0.1-0.2,0.2l-0.4,0.4c-0.1,0.1-0.3,0.3-0.4,0.4l-0.7,0.7c-0.1,0.1-0.2,0.2-0.4,0.4l-0.3,0.3c0,0,0,0-0.1,0.1
		l-0.3,0.3c0,0-0.1,0.1-0.1,0.1l0,0c-0.6,0.6-1.7,1.6-0.3,3.1c0.7,0.8,2.8,2.9,4.9,5.2l0.3,0.3c2.5,2.7,5.1,5.5,5.6,6.3
		c0.4,0.6,0.5,0.9,1.1,0.9c0.3,0,0.6-0.4,0.7-0.6c0.5-1.1,1.4-4.5-1.1-8.3c-1.7-2.7-5.1-6.2-7-8.1l-0.2-0.2
		C27.6,39.5,27.1,39,27.1,39z M20.7,45.7c-6.1,6.1-2.8,11.7-1.9,11.8c0.1,0,0.2,0,0.4-0.3c0.5-1.4,4.6-5.6,5.6-6.5
		c0.1-0.1,0.1-0.2,0.1-0.3c0-0.1,0-0.2-0.1-0.3l0,0L20.7,45.7z"/>
</g>
</svg>
