<svg width="247" height="28" viewBox="0 0 247 28" fill="none" xmlns="http://www.w3.org/2000/svg">
<path d="M0 0H12.8V26.1H0V0Z" fill="black"/>
<path d="M41.3 0H54.1V26.1H41.3V0Z" fill="black"/>
<path d="M25.3 5.39995L27.1 1.69995L28.9 5.29995C29.1 5.69995 29.3 5.59995 29.7 5.49995L31.3 4.69995L30.3 9.69995C30.1 10.7 30.6 11 31.3 10.3L33.5 7.89995L34 9.29995C34.2 9.69995 34.5 9.59995 34.9 9.59995L37.2 9.09995L36.4 12V12.1C36.3 12.5 36.1 12.8 36.6 13L37.4 13.4L32.7 17.4C32.2 17.9 32.4 18.1 32.6 18.6L33 19.9L28.6 19.1C28 19 27.6 19 27.6 19.4L27.8 24.5H26.5L26.7 19.4C26.7 18.9 26.3 18.9 25.4 19.1L21.3 19.9L21.8 18.6C22 18.1 22 17.7 21.6 17.4L16.8 13.4L17.7 12.9C18 12.7 18 12.5 17.8 12.1L16.9 9.09995L19.2 9.59995C19.9 9.79995 20 9.59995 20.2 9.19995L20.9 7.89995L23.2 10.5C23.6 11 24.2 10.7 24 9.99995L22.9 4.59995L24.6 5.59995C24.8 5.59995 25.1 5.69995 25.3 5.39995Z" fill="black"/>
<path d="M78.6 1.30005V2.60005H75V12.1H73.5V2.60005H69.9V1.30005H78.6Z" fill="#100F0D"/>
<path d="M79.2 4.2H80.5V5.6C80.6 5.3 80.9 5 81.3 4.6C81.6 4.2 82.1 4 82.6 4H82.7C82.8 4 82.9 4 83 4V5.4H82.8H82.6C81.9 5.4 81.4 5.6 81.1 6C80.7 6.4 80.6 6.9 80.6 7.5V12H79.3L79.2 4.2Z" fill="#100F0D"/>
<path d="M89.5 7.5C89.4 6.9 89.3 6.5 89.1 6.1C88.7 5.5 88.1 5.1 87.3 5.1C86.7 5.1 86.2 5.3 85.8 5.8C85.4 6.2 85.2 6.8 85.2 7.5H89.5ZM89.1 4.4C89.6 4.7 90 5 90.3 5.4C90.6 5.8 90.7 6.3 90.8 6.8C90.9 7.2 90.9 7.7 90.9 8.5H85.2C85.2 9.3 85.4 9.9 85.8 10.4C86.1 10.9 86.7 11.1 87.4 11.1C88.1 11.1 88.6 10.9 89 10.4C89.2 10.1 89.4 9.8 89.5 9.5H90.8C90.8 9.8 90.7 10.1 90.5 10.5C90.3 10.9 90.1 11.1 89.9 11.4C89.5 11.8 89 12.1 88.4 12.2C88.1 12.3 87.7 12.3 87.3 12.3C86.3 12.3 85.5 11.9 84.8 11.2C84.1 10.5 83.8 9.5 83.8 8.2C83.8 6.9 84.1 5.9 84.8 5.1C85.5 4.4 86.3 4 87.4 4C88 4 88.5 4.2 89.1 4.4Z" fill="#100F0D"/>
<path d="M94 10.9C94.3 11.1 94.6 11.2 95 11.2C95.5 11.2 95.9 11.1 96.4 10.9C97.1 10.5 97.5 10 97.5 9.1V8.1C97.3 8.2 97.1 8.3 96.9 8.4C96.6 8.5 96.4 8.5 96.2 8.5L95.4 8.6C94.9 8.7 94.6 8.8 94.3 8.9C93.9 9.1 93.7 9.5 93.7 10C93.6 10.4 93.7 10.7 94 10.9ZM96.8 7.3C97.1 7.3 97.3 7.1 97.4 6.9C97.5 6.8 97.5 6.6 97.5 6.4C97.5 5.9 97.3 5.6 97 5.4C96.7 5.2 96.2 5.1 95.6 5.1C94.9 5.1 94.4 5.3 94.1 5.7C93.9 5.9 93.8 6.2 93.8 6.6H92.6C92.6 5.6 92.9 5 93.5 4.6C94.2 4.2 94.9 4 95.7 4C96.6 4 97.4 4.2 98 4.5C98.6 4.9 98.9 5.4 98.9 6.1V10.6C98.9 10.7 98.9 10.8 99 10.9C99.1 11 99.2 11 99.4 11H99.6H99.8V12C99.6 12.1 99.4 12.1 99.3 12.1C99.2 12.1 99 12.1 98.9 12.1C98.4 12.1 98.1 11.9 97.9 11.6C97.8 11.4 97.7 11.2 97.7 10.9C97.4 11.3 97 11.6 96.5 11.8C96 12.1 95.4 12.2 94.8 12.2C94.1 12.2 93.5 12 93 11.5C92.5 11.1 92.3 10.5 92.3 9.8C92.3 9.1 92.5 8.5 93 8.1C93.5 7.7 94.1 7.5 94.8 7.4L96.8 7.3Z" fill="#100F0D"/>
<path d="M101.7 9.60002C101.7 10 101.9 10.4 102 10.6C102.3 11 102.9 11.2 103.8 11.2C104.3 11.2 104.7 11.1 105.1 10.9C105.5 10.7 105.7 10.4 105.7 9.90002C105.7 9.60002 105.5 9.30002 105.2 9.10002C105 9.00002 104.6 8.90002 104.1 8.70002L103 8.50002C102.3 8.30002 101.8 8.10002 101.5 7.90002C100.9 7.50002 100.6 7.00002 100.6 6.40002C100.6 5.70002 100.9 5.10002 101.4 4.60002C101.9 4.10002 102.7 3.90002 103.6 3.90002C104.8 3.90002 105.7 4.20002 106.2 4.90002C106.5 5.30002 106.7 5.80002 106.7 6.30002H105.5C105.5 6.00002 105.4 5.70002 105.2 5.50002C104.9 5.20002 104.4 5.00002 103.6 5.00002C103.1 5.00002 102.7 5.10002 102.4 5.30002C102.1 5.50002 102 5.70002 102 6.10002C102 6.40002 102.2 6.70002 102.5 6.90002C102.7 7.00002 103 7.10002 103.4 7.20002L104.3 7.40002C105.3 7.60002 105.9 7.90002 106.2 8.10002C106.7 8.40002 107 9.00002 107 9.70002C107 10.4 106.7 11 106.2 11.5C105.7 12 104.8 12.3 103.7 12.3C102.5 12.3 101.7 12 101.2 11.5C100.7 11 100.4 10.3 100.4 9.50002L101.7 9.60002Z" fill="#100F0D"/>
<path d="M109.8 4.19995V9.39995C109.8 9.79995 109.9 10.1 110 10.4C110.2 10.9 110.7 11.1 111.3 11.1C112.2 11.1 112.8 10.7 113.1 9.89995C113.3 9.49995 113.4 8.89995 113.4 8.09995V4.19995H114.7V12.1H113.5V10.9C113.3 11.2 113.1 11.5 112.9 11.7C112.4 12.1 111.8 12.3 111.1 12.3C110 12.3 109.2 11.9 108.9 11.2C108.7 10.8 108.6 10.3 108.6 9.59995V4.19995H109.8Z" fill="#100F0D"/>
<path d="M116.9 4.2H118.2V5.6C118.3 5.3 118.6 5 119 4.6C119.4 4.2 119.9 4 120.4 4H120.5C120.6 4 120.7 4 120.8 4V5.4H120.6H120.4C119.7 5.4 119.2 5.6 118.9 6C118.5 6.4 118.4 6.9 118.4 7.5V12H117.1L116.9 4.2Z" fill="#100F0D"/>
<path d="M126.8 4.19995H128.3C128.1 4.69995 127.7 5.89995 127.1 7.69995C126.6 9.09995 126.2 10.2 125.9 11C125.1 13 124.6 14.2 124.3 14.7C124 15.1 123.5 15.4 122.7 15.4C122.5 15.4 122.4 15.4 122.3 15.4C122.2 15.4 122.1 15.4 121.9 15.3V14C122.1 14.1 122.3 14.1 122.4 14.1H122.7C122.9 14.1 123.1 14.1 123.2 14C123.3 13.9 123.4 13.8 123.5 13.7C123.5 13.7 123.6 13.5 123.8 13.1C124 12.7 124.1 12.5 124.1 12.3L121 4.19995H122.5L124.6 10.6L126.8 4.19995Z" fill="#100F0D"/>
<path d="M138.3 10.8C139.2 10.8 139.8 10.5 140.2 10C140.4 9.70005 140.6 9.30005 140.6 8.80005C140.6 8.00005 140.2 7.50005 139.5 7.20005C139.2 7.10005 138.7 7.00005 138 7.00005H135.1V10.8H138.3ZM137.8 5.80005C138.4 5.80005 138.9 5.70005 139.3 5.50005C139.8 5.20005 140.1 4.70005 140.1 4.00005C140.1 3.30005 139.8 2.80005 139.2 2.60005C138.9 2.50005 138.4 2.40005 137.7 2.40005H135.1V5.70005H137.8V5.80005ZM133.7 1.30005H138.4C139.7 1.30005 140.6 1.70005 141.1 2.40005C141.4 2.80005 141.6 3.40005 141.6 3.90005C141.6 4.60005 141.4 5.10005 141 5.60005C140.8 5.80005 140.5 6.00005 140.1 6.20005C140.7 6.40005 141.1 6.60005 141.3 6.90005C141.8 7.40005 142 8.00005 142 8.80005C142 9.50005 141.8 10.1 141.3 10.7C140.6 11.5 139.6 12 138.2 12H133.6L133.7 1.30005Z" fill="#100F0D"/>
<path d="M148.5 10.2C148.8 9.50002 149 8.80002 149 8.00002C149 7.30002 148.9 6.70002 148.7 6.20002C148.3 5.50002 147.7 5.10002 146.8 5.10002C146 5.10002 145.4 5.40002 145.1 6.00002C144.7 6.60002 144.6 7.40002 144.6 8.20002C144.6 9.00002 144.8 9.70002 145.1 10.3C145.5 10.9 146 11.1 146.8 11.1C147.5 11.2 148.1 10.9 148.5 10.2ZM149.3 5.00002C150 5.70002 150.3 6.70002 150.3 8.00002C150.3 9.30002 150 10.3 149.4 11.1C148.8 11.9 147.8 12.3 146.5 12.3C145.4 12.3 144.6 11.9 143.9 11.2C143.3 10.5 143 9.50002 143 8.30002C143 7.00002 143.3 5.90002 144 5.10002C144.7 4.30002 145.6 3.90002 146.7 3.90002C147.7 4.00002 148.6 4.30002 149.3 5.00002Z" fill="#100F0D"/>
<path d="M153.4 10.9C153.7 11.1 154 11.2 154.4 11.2C154.9 11.2 155.3 11.1 155.8 10.9C156.5 10.5 156.9 10 156.9 9.1V8.1C156.7 8.2 156.5 8.3 156.3 8.4C156 8.5 155.8 8.5 155.6 8.5L154.8 8.6C154.3 8.7 154 8.8 153.7 8.9C153.3 9.1 153.1 9.5 153.1 10C153 10.4 153.1 10.7 153.4 10.9ZM156.2 7.3C156.5 7.3 156.7 7.1 156.8 6.9C156.9 6.8 156.9 6.6 156.9 6.4C156.9 5.9 156.7 5.6 156.4 5.4C156.1 5.2 155.6 5.1 155 5.1C154.3 5.1 153.8 5.3 153.5 5.7C153.3 5.9 153.2 6.2 153.2 6.6H152C152 5.6 152.3 5 152.9 4.6C153.5 4.2 154.2 4 155 4C155.9 4 156.7 4.2 157.3 4.5C157.9 4.9 158.2 5.4 158.2 6.1V10.6C158.2 10.7 158.2 10.8 158.3 10.9C158.4 11 158.5 11 158.7 11H158.9H159.1V12C158.9 12.1 158.7 12.1 158.6 12.1C158.5 12.1 158.3 12.1 158.2 12.1C157.7 12.1 157.4 11.9 157.2 11.6C157.1 11.4 157 11.2 157 10.9C156.7 11.3 156.3 11.6 155.8 11.8C155.3 12.1 154.7 12.2 154.1 12.2C153.4 12.2 152.8 12 152.3 11.5C151.8 11.1 151.6 10.5 151.6 9.8C151.6 9.1 151.8 8.5 152.3 8.1C152.8 7.7 153.4 7.5 154.1 7.4L156.2 7.3Z" fill="#100F0D"/>
<path d="M160.3 4.2H161.6V5.6C161.7 5.3 162 5 162.4 4.6C162.8 4.2 163.3 4 163.8 4H163.9C164 4 164.1 4 164.2 4V5.4H164H163.8C163.1 5.4 162.6 5.6 162.3 6C161.9 6.4 161.8 6.9 161.8 7.5V12H160.5L160.3 4.2Z" fill="#100F0D"/>
<path d="M166.7 10.3C167.1 10.9 167.6 11.2 168.4 11.2C169 11.2 169.5 10.9 169.9 10.4C170.3 9.89995 170.5 9.09995 170.5 8.09995C170.5 7.09995 170.3 6.39995 169.9 5.89995C169.5 5.39995 169 5.19995 168.4 5.19995C167.7 5.19995 167.2 5.49995 166.8 5.99995C166.4 6.49995 166.2 7.29995 166.2 8.19995C166.2 9.09995 166.3 9.79995 166.7 10.3ZM169.6 4.39995C169.8 4.49995 170.1 4.79995 170.4 5.19995V1.19995H171.7V12H170.5V11C170.2 11.5 169.8 11.8 169.4 12.1C169 12.3 168.5 12.4 168 12.4C167.1 12.4 166.4 12 165.7 11.3C165.1 10.6 164.7 9.59995 164.7 8.39995C164.7 7.29995 165 6.29995 165.6 5.39995C166.2 4.59995 167 4.09995 168.1 4.09995C168.7 4.09995 169.2 4.19995 169.6 4.39995Z" fill="#100F0D"/>
<path d="M182.8 10.2C183.1 9.5 183.3 8.8 183.3 8C183.3 7.3 183.2 6.7 183 6.2C182.6 5.5 182 5.1 181.1 5.1C180.3 5.1 179.7 5.4 179.4 6C179 6.6 178.9 7.4 178.9 8.2C178.9 9 179.1 9.7 179.4 10.3C179.8 10.9 180.3 11.1 181.1 11.1C181.8 11.2 182.4 10.9 182.8 10.2ZM183.6 5C184.3 5.7 184.6 6.7 184.6 8C184.6 9.3 184.3 10.3 183.7 11.1C183.1 11.9 182.1 12.3 180.8 12.3C179.7 12.3 178.9 11.9 178.2 11.2C177.6 10.5 177.3 9.5 177.3 8.3C177.3 7 177.6 5.9 178.3 5.1C179 4.4 179.9 4 181 4C182 4 182.9 4.3 183.6 5Z" fill="#100F0D"/>
<path d="M186.9 1.79998C187.2 1.39998 187.8 1.09998 188.7 1.09998H189H189.3V2.29998C189.2 2.29998 189.1 2.29998 189 2.29998H188.8C188.4 2.29998 188.2 2.39998 188.1 2.59998C188 2.79998 188 3.29998 188 4.19998H189.3V5.19998H188V12H186.7V5.29998H185.6V4.29998H186.7V2.99998C186.6 2.49998 186.7 2.09998 186.9 1.79998Z" fill="#100F0D"/>
<path d="M202.4 2.09998C203.1 2.79998 203.6 3.59998 203.6 4.59998H202.2C202 3.89998 201.7 3.39998 201.3 2.89998C200.8 2.49998 200.2 2.29998 199.3 2.29998C198.3 2.29998 197.4 2.69998 196.8 3.39998C196.2 4.09998 195.8 5.29998 195.8 6.79998C195.8 8.09998 196.1 9.09998 196.7 9.89998C197.3 10.7 198.1 11.1 199.3 11.1C200.4 11.1 201.2 10.7 201.7 9.89998C202 9.49998 202.2 8.89998 202.4 8.19998H203.8C203.7 9.29998 203.3 10.3 202.6 11.1C201.8 12 200.6 12.5 199.2 12.5C198 12.5 196.9 12.1 196.1 11.4C195 10.4 194.4 8.79998 194.4 6.69998C194.4 5.09998 194.8 3.79998 195.6 2.79998C196.5 1.69998 197.7 1.09998 199.3 1.09998C200.6 0.99998 201.7 1.29998 202.4 2.09998Z" fill="#100F0D"/>
<path d="M206.9 10.9C207.2 11.1 207.5 11.2 207.9 11.2C208.4 11.2 208.8 11.1 209.3 10.9C210 10.5 210.4 10 210.4 9.1V8.1C210.2 8.2 210 8.3 209.8 8.4C209.5 8.5 209.3 8.5 209.1 8.5L208.3 8.6C207.8 8.7 207.5 8.8 207.2 8.9C206.8 9.1 206.6 9.5 206.6 10C206.5 10.4 206.6 10.7 206.9 10.9ZM209.7 7.3C210 7.3 210.2 7.1 210.3 6.9C210.4 6.8 210.4 6.6 210.4 6.4C210.4 5.9 210.2 5.6 209.9 5.4C209.6 5.2 209.1 5.1 208.5 5.1C207.8 5.1 207.3 5.3 207 5.7C206.8 5.9 206.7 6.2 206.7 6.6H205.5C205.5 5.6 205.8 5 206.4 4.6C207 4.2 207.7 4 208.5 4C209.4 4 210.2 4.2 210.8 4.5C211.4 4.9 211.7 5.4 211.7 6.1V10.6C211.7 10.7 211.7 10.8 211.8 10.9C211.9 11 212 11 212.2 11H212.4H212.6V12C212.4 12.1 212.2 12.1 212.1 12.1C212 12.1 211.8 12.1 211.7 12.1C211.2 12.1 210.9 11.9 210.7 11.6C210.6 11.4 210.5 11.2 210.5 10.9C210.2 11.3 209.8 11.6 209.3 11.8C208.8 12.1 208.2 12.2 207.6 12.2C206.9 12.2 206.3 12 205.8 11.5C205.3 11.1 205.1 10.5 205.1 9.8C205.1 9.1 205.3 8.5 205.8 8.1C206.3 7.7 206.9 7.5 207.6 7.4L209.7 7.3Z" fill="#100F0D"/>
<path d="M213.8 4.2H215.1V5.3C215.5 4.8 215.9 4.5 216.3 4.3C216.7 4.1 217.2 4 217.7 4C218.8 4 219.6 4.4 220 5.2C220.2 5.6 220.3 6.2 220.3 7V12H219V7C219 6.5 218.9 6.1 218.8 5.8C218.6 5.3 218.1 5.1 217.5 5.1C217.2 5.1 216.9 5.1 216.7 5.2C216.3 5.3 216 5.5 215.7 5.8C215.5 6.1 215.3 6.3 215.3 6.6C215.2 6.9 215.2 7.3 215.2 7.8V11.9H213.9L213.8 4.2Z" fill="#100F0D"/>
<path d="M223.6 10.9C223.9 11.1 224.2 11.2 224.6 11.2C225.1 11.2 225.5 11.1 226 10.9C226.7 10.5 227.1 10 227.1 9.1V8.1C226.9 8.2 226.7 8.3 226.5 8.4C226.2 8.5 226 8.5 225.7 8.5L224.9 8.6C224.4 8.7 224.1 8.8 223.8 8.9C223.4 9.1 223.2 9.5 223.2 10C223.2 10.4 223.4 10.7 223.6 10.9ZM226.4 7.3C226.7 7.3 226.9 7.1 227 6.9C227.1 6.8 227.1 6.6 227.1 6.4C227.1 5.9 226.9 5.6 226.6 5.4C226.3 5.2 225.8 5.1 225.2 5.1C224.5 5.1 224 5.3 223.7 5.7C223.5 5.9 223.4 6.2 223.4 6.6H222.2C222.2 5.6 222.5 5 223.1 4.6C223.7 4.2 224.4 4 225.2 4C226.1 4 226.9 4.2 227.5 4.5C228.1 4.9 228.4 5.4 228.4 6.1V10.6C228.4 10.7 228.4 10.8 228.5 10.9C228.6 11 228.7 11 228.9 11H229.1H229.3V12C229.1 12.1 228.9 12.1 228.8 12.1C228.7 12.1 228.5 12.1 228.4 12.1C227.9 12.1 227.6 11.9 227.4 11.6C227.3 11.4 227.2 11.2 227.2 10.9C226.9 11.3 226.5 11.6 226 11.8C225.5 12.1 224.9 12.2 224.3 12.2C223.6 12.2 223 12 222.5 11.5C222 11.1 221.8 10.5 221.8 9.8C221.8 9.1 222 8.5 222.5 8.1C223 7.7 223.6 7.5 224.3 7.4L226.4 7.3Z" fill="#100F0D"/>
<path d="M231.9 10.3C232.3 10.9 232.8 11.2 233.6 11.2C234.2 11.2 234.7 10.9 235.1 10.4C235.5 9.89995 235.7 9.09995 235.7 8.09995C235.7 7.09995 235.5 6.39995 235.1 5.89995C234.7 5.39995 234.2 5.19995 233.6 5.19995C232.9 5.19995 232.4 5.49995 232 5.99995C231.6 6.49995 231.4 7.29995 231.4 8.19995C231.4 9.09995 231.6 9.79995 231.9 10.3ZM234.9 4.39995C235.1 4.49995 235.4 4.79995 235.7 5.19995V1.19995H237V12H235.8V11C235.5 11.5 235.1 11.8 234.7 12.1C234.3 12.3 233.8 12.4 233.3 12.4C232.4 12.4 231.7 12 231 11.3C230.4 10.6 230 9.59995 230 8.39995C230 7.29995 230.3 6.29995 230.9 5.39995C231.5 4.59995 232.3 4.09995 233.4 4.09995C234 4.09995 234.5 4.19995 234.9 4.39995Z" fill="#100F0D"/>
<path d="M240.4 10.9C240.7 11.1 241 11.2 241.4 11.2C241.9 11.2 242.3 11.1 242.8 10.9C243.5 10.5 243.9 10 243.9 9.1V8.1C243.7 8.2 243.5 8.3 243.3 8.4C243 8.5 242.8 8.5 242.6 8.5L241.8 8.6C241.3 8.7 241 8.8 240.7 8.9C240.3 9.1 240.1 9.5 240.1 10C240 10.4 240.1 10.7 240.4 10.9ZM243.2 7.3C243.5 7.3 243.7 7.1 243.8 6.9C243.9 6.8 243.9 6.6 243.9 6.4C243.9 5.9 243.7 5.6 243.4 5.4C243.1 5.2 242.6 5.1 242 5.1C241.3 5.1 240.8 5.3 240.5 5.7C240.3 5.9 240.2 6.2 240.2 6.6H239C239 5.6 239.3 5 239.9 4.6C240.5 4.2 241.2 4 242 4C242.9 4 243.7 4.2 244.3 4.5C244.9 4.9 245.2 5.4 245.2 6.1V10.6C245.2 10.7 245.2 10.8 245.3 10.9C245.4 11 245.5 11 245.7 11H245.9H246.1V12C245.9 12.1 245.7 12.1 245.6 12.1C245.5 12.1 245.3 12.1 245.2 12.1C244.7 12.1 244.4 11.9 244.2 11.6C244.1 11.4 244 11.2 244 10.9C243.7 11.3 243.3 11.6 242.8 11.8C242.3 12.1 241.7 12.2 241.1 12.2C240.4 12.2 239.8 12 239.3 11.5C238.8 11.1 238.6 10.5 238.6 9.8C238.6 9.1 238.8 8.5 239.3 8.1C239.8 7.7 240.4 7.5 241.1 7.4L243.2 7.3Z" fill="#100F0D"/>
<path d="M71.7 23.6C71.7 24.2 71.9 24.7 72.1 25.1C72.6 25.8 73.4 26.2 74.6 26.2C75.1 26.2 75.6 26.1 76 26C76.8 25.7 77.3 25.2 77.3 24.4C77.3 23.8 77.1 23.4 76.8 23.1C76.4 22.9 75.9 22.6 75.1 22.5L73.7 22.2C72.8 22 72.1 21.7 71.7 21.5C71 21 70.7 20.4 70.7 19.5C70.7 18.5 71 17.7 71.7 17.1C72.4 16.5 73.3 16.2 74.5 16.2C75.6 16.2 76.5 16.5 77.3 17C78.1 17.5 78.5 18.4 78.5 19.6H77C76.9 19 76.8 18.5999 76.6 18.2999C76.2 17.6999 75.4 17.5 74.4 17.5C73.6 17.5 73 17.7 72.6 18C72.2 18.4 72.1 18.7999 72.1 19.2999C72.1 19.7999 72.3 20.2 72.7 20.5C73 20.7 73.6 20.9 74.6 21.1L76.1 21.4C76.8 21.6 77.4 21.8 77.7 22.1C78.4 22.6 78.7 23.2999 78.7 24.2999C78.7 25.4999 78.3 26.3 77.4 26.9C76.6 27.4 75.6 27.7 74.4 27.7C73.1 27.7 72.1 27.4 71.3 26.7C70.6 26 70.2 25.1 70.2 23.9L71.7 23.6Z" fill="#100F0D"/>
<path d="M85.9 22.6C85.8 22 85.7 21.6 85.5 21.2C85.1 20.6 84.5 20.2 83.7 20.2C83.1 20.2 82.6 20.4 82.2 20.9C81.8 21.3 81.6 21.9 81.6 22.6H85.9ZM85.4 19.5C85.9 19.8 86.3 20.1 86.6 20.5C86.9 20.9 87 21.4 87.1 21.9C87.2 22.3 87.2 22.8 87.2 23.6H81.5C81.5 24.4 81.7 25 82.1 25.5C82.4 26 83 26.2 83.7 26.2C84.4 26.2 84.9 26 85.3 25.5C85.5 25.2 85.7 24.9 85.8 24.6H87.1C87.1 24.9 87 25.2 86.8 25.6C86.6 26 86.4 26.2 86.2 26.5C85.8 26.9 85.3 27.2 84.7 27.3C84.4 27.4 84 27.4 83.6 27.4C82.6 27.4 81.8 27 81.1 26.3C80.4 25.6 80.1 24.6 80.1 23.3C80.1 22 80.4 21 81.1 20.2C81.8 19.4 82.7 19 83.8 19C84.4 19.1 84.9 19.2 85.4 19.5Z" fill="#100F0D"/>
<path d="M94.2 19.7C94.8 20.1 95.1 20.9 95.2 21.9H93.9C93.8 21.4 93.6 21 93.4 20.7C93.1 20.4 92.7 20.2 92.1 20.2C91.3 20.2 90.7 20.6 90.3 21.4C90.1 21.9 89.9 22.6 89.9 23.4C89.9 24.2 90.1 24.8 90.4 25.4C90.7 26 91.3 26.2 92 26.2C92.5 26.2 93 26 93.3 25.7C93.6 25.4 93.8 24.9 94 24.3H95.3C95.2 25.3 94.8 26.1 94.2 26.6C93.6 27.1 92.9 27.3 91.9 27.3C90.9 27.3 90.1 26.9 89.4 26.2C88.8 25.4 88.5 24.5 88.5 23.4C88.5 22 88.8 20.9 89.5 20.2C90.2 19.5 90.9 19 92 19C92.9 19 93.6 19.2 94.2 19.7Z" fill="#100F0D"/>
<path d="M96.5 19.2H97.8V20.6C97.9 20.3 98.2 20 98.6 19.6C99 19.2 99.5 19 100 19H100.1C100.2 19 100.3 19 100.4 19V20.4H100.2H100C99.3 20.4 98.8 20.6 98.5 21C98.1 21.4 98 21.9 98 22.5V27H96.7L96.5 19.2Z" fill="#100F0D"/>
<path d="M106.8 22.6C106.7 22 106.6 21.6 106.4 21.2C106 20.6 105.4 20.2 104.6 20.2C104 20.2 103.5 20.4 103.1 20.9C102.7 21.3 102.5 21.9 102.5 22.6H106.8ZM106.3 19.5C106.8 19.8 107.2 20.1 107.5 20.5C107.8 20.9 107.9 21.4 108 21.9C108.1 22.3 108.1 22.8 108.1 23.6H102.4C102.4 24.4 102.6 25 103 25.5C103.3 26 103.9 26.2 104.6 26.2C105.3 26.2 105.8 26 106.2 25.5C106.4 25.2 106.6 24.9 106.7 24.6H108C108 24.9 107.9 25.2 107.7 25.6C107.5 26 107.3 26.2 107.1 26.5C106.7 26.9 106.2 27.2 105.6 27.3C105.3 27.4 104.9 27.4 104.5 27.4C103.5 27.4 102.7 27 102 26.3C101.3 25.6 101 24.6 101 23.3C101 22 101.3 21 102 20.2C102.7 19.4 103.6 19 104.7 19C105.3 19.1 105.8 19.2 106.3 19.5Z" fill="#100F0D"/>
<path d="M110.1 17H111.4V19.2H112.7V20.3H111.4V25.4C111.4 25.7 111.5 25.9 111.7 25.9C111.8 26 112 26 112.2 26H112.4H112.7V27.1C112.5 27.1 112.4 27.2 112.2 27.2C112 27.2 111.9 27.2 111.7 27.2C111.1 27.2 110.7 27 110.4 26.7C110.2 26.4 110.1 26 110.1 25.5V20.3H109V19.2H110.1V17Z" fill="#100F0D"/>
<path d="M115.5 25.9C115.8 26.1 116.1 26.2 116.5 26.2C117 26.2 117.4 26.1 117.9 25.9C118.6 25.5 119 25 119 24.1V23C118.8 23.1 118.6 23.2 118.4 23.3C118.1 23.4 117.9 23.4 117.7 23.4L116.9 23.5C116.4 23.6 116.1 23.7 115.8 23.8C115.4 24 115.2 24.4 115.2 24.9C115 25.4 115.2 25.7 115.5 25.9ZM118.3 22.4C118.6 22.4 118.8 22.2 118.9 22C119 21.9 119 21.7 119 21.5C119 21 118.8 20.7 118.5 20.5C118.2 20.3 117.7 20.2 117.1 20.2C116.4 20.2 115.9 20.4 115.6 20.8C115.4 21 115.3 21.3 115.3 21.7H114.1C114.1 20.7 114.4 20.1 115 19.7C115.6 19.3 116.3 19.1 117.1 19.1C118 19.1 118.8 19.3 119.4 19.6C120 20 120.3 20.5 120.3 21.2V25.7C120.3 25.8 120.3 25.9 120.4 26C120.5 26.1 120.6 26.1 120.8 26.1H121H121.2V27.1C121 27.2 120.8 27.2 120.7 27.2C120.6 27.2 120.4 27.2 120.3 27.2C119.8 27.2 119.5 27 119.3 26.7C119.2 26.5 119.1 26.3 119.1 26C118.8 26.4 118.4 26.7 117.9 26.9C117.4 27.2 116.8 27.3 116.2 27.3C115.5 27.3 114.9 27.1 114.4 26.6C113.9 26.2 113.7 25.6 113.7 24.9C113.7 24.2 113.9 23.6 114.4 23.2C114.9 22.8 115.5 22.6 116.2 22.5L118.3 22.4Z" fill="#100F0D"/>
<path d="M122.4 19.2H123.7V20.6C123.8 20.3 124.1 20 124.5 19.6C124.9 19.2 125.4 19 125.9 19H126C126.1 19 126.2 19 126.3 19V20.4H126.1H125.9C125.2 20.4 124.7 20.6 124.4 21C124 21.4 123.9 21.9 123.9 22.5V27H122.6L122.4 19.2Z" fill="#100F0D"/>
<path d="M127.4 19.3H128.7V27.1H127.4V19.3V19.3ZM127.4 16.3H128.7V17.8H127.4V16.3" fill="#100F0D"/>
<path d="M132.2 25.9C132.5 26.1 132.8 26.2 133.2 26.2C133.7 26.2 134.1 26.1 134.6 25.9C135.3 25.5 135.7 25 135.7 24.1V23C135.5 23.1 135.3 23.2 135.1 23.3C134.8 23.4 134.6 23.4 134.4 23.4L133.6 23.5C133.1 23.6 132.8 23.7 132.5 23.8C132.1 24 131.9 24.4 131.9 24.9C131.8 25.4 131.9 25.7 132.2 25.9ZM135 22.4C135.3 22.4 135.5 22.2 135.6 22C135.7 21.9 135.7 21.7 135.7 21.5C135.7 21 135.5 20.7 135.2 20.5C134.9 20.3 134.4 20.2 133.8 20.2C133.1 20.2 132.6 20.4 132.3 20.8C132.1 21 132 21.3 132 21.7H130.8C130.8 20.7 131.1 20.1 131.7 19.7C132.3 19.3 133 19.1 133.8 19.1C134.7 19.1 135.5 19.3 136.1 19.6C136.7 20 137 20.5 137 21.2V25.7C137 25.8 137 25.9 137.1 26C137.2 26.1 137.3 26.1 137.5 26.1H137.7H137.9V27.1C137.7 27.2 137.5 27.2 137.4 27.2C137.3 27.2 137.1 27.2 137 27.2C136.5 27.2 136.2 27 136 26.7C135.9 26.5 135.8 26.3 135.8 26C135.5 26.4 135.1 26.7 134.6 26.9C134.1 27.2 133.5 27.3 132.9 27.3C132.2 27.3 131.6 27.1 131.1 26.6C130.6 26.2 130.4 25.6 130.4 24.9C130.4 24.2 130.6 23.6 131.1 23.2C131.6 22.8 132.2 22.6 132.9 22.5L135 22.4Z" fill="#100F0D"/>
<path d="M139.4 17H140.7V19.2H142V20.3H140.7V25.4C140.7 25.7 140.8 25.9 141 25.9C141.1 26 141.3 26 141.5 26H141.7H142V27.1C141.8 27.1 141.7 27.2 141.5 27.2C141.3 27.2 141.2 27.2 141 27.2C140.4 27.2 140 27 139.7 26.7C139.5 26.4 139.4 26 139.4 25.5V20.3H138.3V19.2H139.4V17Z" fill="#100F0D"/>
</svg>
