<?xml version="1.0" encoding="UTF-8"?>
<svg xmlns="http://www.w3.org/2000/svg" xmlns:xlink="http://www.w3.org/1999/xlink" viewBox="0 0 24 24" width="24px" height="24px">
<g id="surface1347509">
	<path style="stroke:none;fill-rule:nonzero;fill:#484848;fill-opacity:1;" d="M15.3,5.5c-1.6-1.6-3.2-3.2-3.7-4.9c-0.4,1.8-2,3.3-3.7,4.9C5.6,8,2.8,10.8,2.8,14.9c-0.1,4.9,3.8,8.9,8.6,9.1
		c4.9,0.1,8.9-3.8,9.1-8.6v-0.4C20.6,10.8,17.8,8,15.3,5.5L15.3,5.5z M7.4,15.7c-0.2,0.4-0.5,0.7-0.7,1.1C6.6,16.9,6.6,17,6.5,17
		H6.5C6.3,17,6,16.6,6,16.6c-0.1-0.1-0.1-0.2-0.1-0.3l-0.1-0.1c-0.5-1.2-0.1-2.8-0.1-2.8c0.2-0.8,0.6-1.6,1-2.3
		c0.3-0.4,0.7-0.8,1-1.3l0.4,0.4l2,2c0.1,0.1,0.1,0.2,0,0.3l-2.1,2.3L7.4,15.7L7.4,15.7z M11.7,21.6c-1.7,0-3.1-1.4-3-3.1
		c0-0.7,0.3-1.5,0.7-2c0.7-0.7,1.4-1.6,2.3-2.5c1,1.1,1.7,1.8,2.3,2.7c0.1,0.1,0.1,0.1,0.1,0.2c0.4,0.5,0.5,1.1,0.5,1.7
		C14.8,20.2,13.4,21.6,11.7,21.6L11.7,21.6z M17.5,16.7c-0.1,0.1-0.1,0.2-0.3,0.2h-0.1c-0.1-0.1-0.2-0.1-0.3-0.2
		c-0.5-0.8-1.1-1.6-1.8-2.2l-0.8-0.8l-2.7-2.8c-0.5-0.5-1.1-1.1-1.6-1.6c0-0.1-0.1-0.1-0.1-0.1C9.8,9,9.7,8.9,9.6,8.7V8.6
		c-0.1-0.4,0.1-1,0.4-1.3c0.5-0.5,1-1,1.6-1.6c0.5,0.6,1.1,1.2,1.7,1.8c1.2,1.1,2.2,2.3,3.2,3.6c0.8,1.1,1.3,2.4,1.3,3.8
		C17.8,15.5,17.7,16.1,17.5,16.7L17.5,16.7z"/>
</g>
</svg>
