<?xml version="1.0" encoding="UTF-8"?>
<svg xmlns="http://www.w3.org/2000/svg" xmlns:xlink="http://www.w3.org/1999/xlink" viewBox="0 0 24 24" width="24px" height="24px">
<g id="surface1347509">
<path style=" stroke:none;fill-rule:nonzero;fill:#484848;fill-opacity:1;" d="M 12 2.398438 C 6.699219 2.398438 2.398438 6.699219 2.398438 12 C 2.398438 16.5 5.496094 20.261719 9.671875 21.304688 C 9.628906 21.175781 9.601562 21.023438 9.601562 20.835938 L 9.601562 19.195312 C 9.210938 19.195312 8.558594 19.195312 8.394531 19.195312 C 7.738281 19.195312 7.152344 18.914062 6.871094 18.390625 C 6.554688 17.804688 6.5 16.914062 5.722656 16.367188 C 5.492188 16.1875 5.667969 15.980469 5.933594 16.007812 C 6.425781 16.148438 6.832031 16.484375 7.21875 16.984375 C 7.597656 17.488281 7.777344 17.601562 8.492188 17.601562 C 8.839844 17.601562 9.359375 17.582031 9.847656 17.503906 C 10.109375 16.835938 10.5625 16.222656 11.117188 15.933594 C 7.921875 15.605469 6.394531 14.015625 6.394531 11.855469 C 6.394531 10.925781 6.789062 10.027344 7.464844 9.269531 C 7.242188 8.519531 6.964844 6.984375 7.546875 6.398438 C 8.988281 6.398438 9.855469 7.332031 10.066406 7.585938 C 10.78125 7.339844 11.570312 7.199219 12.394531 7.199219 C 13.226562 7.199219 14.015625 7.339844 14.734375 7.585938 C 14.941406 7.335938 15.808594 6.398438 17.253906 6.398438 C 17.835938 6.984375 17.558594 8.523438 17.332031 9.273438 C 18.003906 10.03125 18.394531 10.929688 18.394531 11.855469 C 18.394531 14.011719 16.871094 15.601562 13.679688 15.933594 C 14.558594 16.390625 15.199219 17.679688 15.199219 18.652344 L 15.199219 20.835938 C 15.199219 20.921875 15.179688 20.980469 15.171875 21.050781 C 18.914062 19.742188 21.601562 16.1875 21.601562 12 C 21.601562 6.699219 17.300781 2.398438 12 2.398438 Z M 12 2.398438 "/>
</g>
</svg>
