<svg width="215" height="45" viewBox="0 0 215 45" fill="none" xmlns="http://www.w3.org/2000/svg">
<path d="M40.9048 6.77149C31.3381 -2.4747 16.0289 -2.21933 6.77659 7.33751C-2.47685 16.8972 -2.22127 32.1929 7.3448 41.4386C9.15099 43.1839 9.97992 43.9284 12.1193 45L15.8475 42.4213C13.7897 41.4967 11.8546 40.205 10.1408 38.5492C2.16756 30.8443 1.95818 18.0999 9.66785 10.1323C17.3781 2.16863 30.1367 1.95716 38.1076 9.66146C46.0774 17.364 46.2925 30.1124 38.5823 38.0789C36.9193 39.7946 35.0212 41.1524 32.9874 42.1465C33.073 42.2246 36.5142 44.8068 36.5142 44.8068C38.6736 43.6542 39.6833 42.7205 41.473 40.8691C50.7247 31.3134 50.4697 16.0182 40.9048 6.77149Z" fill="#95C83D"/>
<path d="M36.1864 20.8929H12.0621V26.5179H36.1864V20.8929Z" fill="#65AA02"/>
<path d="M27.3408 11.25H21.7118V36.1607H27.3408V11.25Z" fill="#65AA02"/>
<path d="M21.302 26.5179L27.3408 20.4371V11.25H21.302V20.4187H12.0621V26.5179H21.302Z" fill="#95C83D"/>
<path d="M62.4496 15.2196C63.7148 15.2196 64.8674 15.4179 65.9074 15.8143C66.9474 16.2107 67.8374 16.7786 68.5772 17.5179C69.3277 18.2571 69.9067 19.1571 70.3141 20.2179C70.7323 21.2679 70.9414 22.4518 70.9414 23.7696C70.9414 25.0982 70.7323 26.2982 70.3141 27.3696C69.9067 28.4304 69.3277 29.3357 68.5772 30.0857C67.8374 30.825 66.9474 31.3982 65.9074 31.8054C64.8674 32.2018 63.7148 32.4 62.4496 32.4C61.1737 32.4 60.0104 32.2018 58.9596 31.8054C57.9196 31.3982 57.019 30.825 56.2577 30.0857C55.5072 29.3357 54.9229 28.4304 54.5047 27.3696C54.0973 26.2982 53.8936 25.0982 53.8936 23.7696C53.8936 22.4518 54.0973 21.2679 54.5047 20.2179C54.9229 19.1571 55.5072 18.2571 56.2577 17.5179C57.019 16.7786 57.9196 16.2107 58.9596 15.8143C60.0104 15.4179 61.1737 15.2196 62.4496 15.2196ZM62.4496 28.7036C63.5969 28.7036 64.4385 28.3018 64.9746 27.4982C65.5214 26.6839 65.7948 25.4518 65.7948 23.8018C65.7948 22.1518 65.5214 20.925 64.9746 20.1214C64.4385 19.3179 63.5969 18.9161 62.4496 18.9161C61.2702 18.9161 60.4071 19.3179 59.8603 20.1214C59.3135 20.925 59.0401 22.1518 59.0401 23.8018C59.0401 25.4518 59.3135 26.6839 59.8603 27.4982C60.4071 28.3018 61.2702 28.7036 62.4496 28.7036Z" fill="black"/>
<path d="M77.7944 27.6107C78.1697 28.0179 78.5771 28.3071 79.0167 28.4786C79.4563 28.65 79.9173 28.7357 80.3998 28.7357C80.8608 28.7357 81.2844 28.6446 81.6704 28.4625C82.0563 28.2804 82.3887 27.9911 82.6675 27.5946C82.957 27.1875 83.1821 26.6625 83.343 26.0196C83.5038 25.3768 83.5842 24.5946 83.5842 23.6732C83.5842 22.7946 83.5199 22.0554 83.3912 21.4554C83.2626 20.8554 83.0803 20.3732 82.8444 20.0089C82.6192 19.6339 82.3458 19.3661 82.0242 19.2054C81.7025 19.0446 81.3433 18.9643 80.9466 18.9643C80.2175 18.9643 79.6171 19.0982 79.1454 19.3661C78.6736 19.6339 78.2233 20.025 77.7944 20.5393V27.6107ZM77.4888 17.5339C78.1429 16.8375 78.8827 16.2696 79.7083 15.8304C80.5446 15.3804 81.5363 15.1554 82.6836 15.1554C83.552 15.1554 84.3562 15.3482 85.096 15.7339C85.8358 16.1196 86.4738 16.6768 87.0099 17.4054C87.5459 18.1339 87.9641 19.0286 88.2643 20.0893C88.5753 21.1393 88.7307 22.3339 88.7307 23.6732C88.7307 24.9268 88.5538 26.0839 88.2 27.1446C87.8569 28.2054 87.369 29.1268 86.7364 29.9089C86.1146 30.6911 85.364 31.3018 84.4848 31.7411C83.6164 32.1804 82.6514 32.4 81.5899 32.4C80.7215 32.4 79.9924 32.2768 79.4027 32.0304C78.813 31.7839 78.2769 31.4518 77.7944 31.0339V37.4304H72.8087V15.4768H75.8966C76.5185 15.4768 76.9259 15.7554 77.1189 16.3125L77.4888 17.5339Z" fill="black"/>
<path d="M101.04 21.8089C101.04 21.4125 100.987 21.0268 100.88 20.6518C100.783 20.2768 100.617 19.9446 100.381 19.6554C100.156 19.3554 99.8556 19.1143 99.4803 18.9321C99.1051 18.75 98.6494 18.6589 98.1133 18.6589C97.1698 18.6589 96.4299 18.9321 95.8939 19.4786C95.3578 20.0143 95.0039 20.7911 94.8324 21.8089H101.04ZM94.7681 24.7018C94.9289 26.0946 95.3524 27.1071 96.0386 27.7393C96.7248 28.3607 97.6094 28.6714 98.6923 28.6714C99.2713 28.6714 99.7698 28.6018 100.188 28.4625C100.606 28.3232 100.976 28.1679 101.298 27.9964C101.63 27.825 101.93 27.6696 102.198 27.5304C102.477 27.3911 102.767 27.3214 103.067 27.3214C103.464 27.3214 103.764 27.4661 103.967 27.7554L105.415 29.5393C104.9 30.1286 104.343 30.6107 103.742 30.9857C103.153 31.35 102.541 31.6393 101.909 31.8536C101.287 32.0571 100.66 32.1964 100.027 32.2714C99.4053 32.3571 98.8102 32.4 98.242 32.4C97.0733 32.4 95.9743 32.2125 94.945 31.8375C93.9264 31.4518 93.0311 30.8839 92.2591 30.1339C91.4979 29.3839 90.8921 28.4518 90.4418 27.3375C90.0022 26.2232 89.7824 24.9268 89.7824 23.4482C89.7824 22.3339 89.97 21.2786 90.3453 20.2821C90.7313 19.2857 91.2781 18.4125 91.9857 17.6625C92.7041 16.9125 93.5672 16.3179 94.5751 15.8786C95.5936 15.4393 96.7409 15.2196 98.0168 15.2196C99.1211 15.2196 100.129 15.3911 101.04 15.7339C101.962 16.0768 102.75 16.575 103.405 17.2286C104.069 17.8821 104.584 18.6857 104.948 19.6393C105.324 20.5821 105.511 21.6536 105.511 22.8536C105.511 23.2286 105.495 23.5339 105.463 23.7696C105.431 24.0054 105.372 24.1929 105.286 24.3321C105.2 24.4714 105.083 24.5679 104.932 24.6214C104.793 24.675 104.611 24.7018 104.386 24.7018H94.7681Z" fill="black"/>
<path d="M111.963 17.2768C112.284 16.9768 112.617 16.6982 112.96 16.4411C113.303 16.1839 113.667 15.9696 114.053 15.7982C114.45 15.6161 114.874 15.4768 115.324 15.3804C115.785 15.2732 116.284 15.2196 116.82 15.2196C117.731 15.2196 118.535 15.3804 119.232 15.7018C119.94 16.0125 120.535 16.4518 121.017 17.0196C121.5 17.5768 121.864 18.2464 122.111 19.0286C122.357 19.8 122.481 20.6411 122.481 21.5518V32.1429H117.495V21.5518C117.495 20.7375 117.307 20.1054 116.932 19.6554C116.557 19.1946 116.005 18.9643 115.276 18.9643C114.729 18.9643 114.214 19.0821 113.732 19.3179C113.26 19.5429 112.799 19.8536 112.349 20.25V32.1429H107.363V15.4768H110.451C111.073 15.4768 111.48 15.7554 111.673 16.3125L111.963 17.2768Z" fill="black"/>
<path d="M130.05 27.6107C130.425 28.0179 130.832 28.3071 131.272 28.4786C131.712 28.65 132.173 28.7357 132.655 28.7357C133.116 28.7357 133.54 28.6446 133.926 28.4625C134.312 28.2804 134.644 27.9911 134.923 27.5946C135.212 27.1875 135.438 26.6625 135.598 26.0196C135.759 25.3768 135.84 24.5946 135.84 23.6732C135.84 22.7946 135.775 22.0554 135.647 21.4554C135.518 20.8554 135.336 20.3732 135.1 20.0089C134.875 19.6339 134.601 19.3661 134.28 19.2054C133.958 19.0446 133.599 18.9643 133.202 18.9643C132.473 18.9643 131.872 19.0982 131.401 19.3661C130.929 19.6339 130.479 20.025 130.05 20.5393V27.6107ZM129.744 17.5339C130.398 16.8375 131.138 16.2696 131.964 15.8304C132.8 15.3804 133.792 15.1554 134.939 15.1554C135.807 15.1554 136.612 15.3482 137.351 15.7339C138.091 16.1196 138.729 16.6768 139.265 17.4054C139.801 18.1339 140.219 19.0286 140.52 20.0893C140.831 21.1393 140.986 22.3339 140.986 23.6732C140.986 24.9268 140.809 26.0839 140.455 27.1446C140.112 28.2054 139.624 29.1268 138.992 29.9089C138.37 30.6911 137.619 31.3018 136.74 31.7411C135.872 32.1804 134.907 32.4 133.845 32.4C132.977 32.4 132.248 32.2768 131.658 32.0304C131.068 31.7839 130.532 31.4518 130.05 31.0339V37.4304H125.064V15.4768H128.152C128.774 15.4768 129.181 15.7554 129.374 16.3125L129.744 17.5339Z" fill="black"/>
<path d="M147.908 8.08393V32.1429H142.922V8.08393H147.908Z" fill="black"/>
<path d="M165.592 15.4768V32.1429H162.504C161.882 32.1429 161.474 31.8643 161.281 31.3071L160.992 30.3429C160.67 30.6536 160.338 30.9375 159.995 31.1946C159.652 31.4411 159.282 31.6554 158.885 31.8375C158.499 32.0089 158.076 32.1429 157.614 32.2393C157.164 32.3464 156.671 32.4 156.135 32.4C155.223 32.4 154.414 32.2446 153.706 31.9339C153.009 31.6125 152.42 31.1679 151.937 30.6C151.455 30.0321 151.09 29.3625 150.844 28.5911C150.597 27.8196 150.474 26.9732 150.474 26.0518V15.4768H155.459V26.0518C155.459 26.8768 155.647 27.5143 156.022 27.9643C156.398 28.4143 156.95 28.6393 157.679 28.6393C158.226 28.6393 158.735 28.5268 159.207 28.3018C159.689 28.0661 160.156 27.75 160.606 27.3536V15.4768H165.592Z" fill="black"/>
<path d="M178.934 19.125C178.806 19.3286 178.666 19.4732 178.516 19.5589C178.377 19.6446 178.194 19.6875 177.969 19.6875C177.733 19.6875 177.498 19.6393 177.262 19.5429C177.026 19.4357 176.768 19.3232 176.49 19.2054C176.222 19.0875 175.916 18.9804 175.573 18.8839C175.23 18.7768 174.838 18.7232 174.399 18.7232C173.766 18.7232 173.278 18.8464 172.935 19.0929C172.603 19.3286 172.437 19.6607 172.437 20.0893C172.437 20.4 172.544 20.6571 172.758 20.8607C172.984 21.0643 173.278 21.2464 173.643 21.4071C174.008 21.5571 174.42 21.7018 174.881 21.8411C175.342 21.9804 175.814 22.1357 176.297 22.3071C176.779 22.4786 177.251 22.6821 177.712 22.9179C178.173 23.1429 178.586 23.4268 178.95 23.7696C179.315 24.1018 179.604 24.5089 179.819 24.9911C180.044 25.4732 180.157 26.0518 180.157 26.7268C180.157 27.5518 180.006 28.3125 179.706 29.0089C179.406 29.7054 178.956 30.3054 178.355 30.8089C177.766 31.3125 177.031 31.7036 176.152 31.9821C175.283 32.2607 174.281 32.4 173.144 32.4C172.576 32.4 172.008 32.3464 171.44 32.2393C170.871 32.1321 170.319 31.9875 169.783 31.8054C169.258 31.6232 168.77 31.4089 168.32 31.1625C167.869 30.9054 167.483 30.6321 167.162 30.3429L168.32 28.5107C168.448 28.2964 168.609 28.1304 168.802 28.0125C169.006 27.8839 169.263 27.8196 169.574 27.8196C169.864 27.8196 170.121 27.8839 170.346 28.0125C170.582 28.1411 170.834 28.2804 171.102 28.4304C171.37 28.5804 171.681 28.7196 172.035 28.8482C172.399 28.9768 172.855 29.0411 173.402 29.0411C173.788 29.0411 174.115 29.0036 174.383 28.9286C174.651 28.8429 174.865 28.7304 175.026 28.5911C175.187 28.4518 175.305 28.2964 175.38 28.125C175.455 27.9536 175.493 27.7768 175.493 27.5946C175.493 27.2625 175.38 26.9893 175.155 26.775C174.93 26.5607 174.635 26.3786 174.27 26.2286C173.906 26.0679 173.488 25.9232 173.016 25.7946C172.555 25.6554 172.083 25.5 171.6 25.3286C171.118 25.1571 170.641 24.9536 170.169 24.7179C169.708 24.4714 169.295 24.1661 168.931 23.8018C168.566 23.4268 168.271 22.9714 168.046 22.4357C167.821 21.9 167.708 21.2518 167.708 20.4911C167.708 19.7839 167.842 19.1143 168.111 18.4821C168.389 17.8393 168.802 17.2768 169.349 16.7946C169.896 16.3125 170.582 15.9321 171.407 15.6536C172.233 15.3643 173.198 15.2196 174.302 15.2196C174.903 15.2196 175.482 15.2732 176.039 15.3804C176.608 15.4875 177.138 15.6375 177.632 15.8304C178.125 16.0232 178.575 16.2536 178.983 16.5214C179.39 16.7786 179.749 17.0625 180.06 17.3732L178.934 19.125Z" fill="black"/>
<path d="M181.341 29.6196C181.341 29.2339 181.41 28.875 181.55 28.5429C181.7 28.2107 181.898 27.9214 182.145 27.675C182.402 27.4286 182.702 27.2357 183.045 27.0964C183.389 26.9464 183.764 26.8714 184.171 26.8714C184.568 26.8714 184.938 26.9464 185.281 27.0964C185.624 27.2357 185.924 27.4286 186.182 27.675C186.439 27.9214 186.637 28.2107 186.777 28.5429C186.927 28.875 187.002 29.2339 187.002 29.6196C187.002 30.0054 186.927 30.3696 186.777 30.7125C186.637 31.0446 186.439 31.3339 186.182 31.5804C185.924 31.8268 185.624 32.0196 185.281 32.1589C184.938 32.2982 184.568 32.3679 184.171 32.3679C183.764 32.3679 183.389 32.2982 183.045 32.1589C182.702 32.0196 182.402 31.8268 182.145 31.5804C181.898 31.3339 181.7 31.0446 181.55 30.7125C181.41 30.3696 181.341 30.0054 181.341 29.6196Z" fill="black"/>
<path d="M200.777 18.2893C200.723 18.3429 200.67 18.3911 200.616 18.4339C200.573 18.4661 200.509 18.4821 200.423 18.4821C200.316 18.4821 200.171 18.4125 199.989 18.2732C199.807 18.1232 199.56 17.9625 199.249 17.7911C198.938 17.6196 198.547 17.4643 198.075 17.325C197.614 17.175 197.051 17.1 196.386 17.1C195.464 17.1 194.644 17.2661 193.926 17.5982C193.218 17.9196 192.618 18.3857 192.124 18.9964C191.631 19.6071 191.256 20.3464 190.999 21.2143C190.752 22.0821 190.629 23.0571 190.629 24.1393C190.629 25.2643 190.757 26.2607 191.015 27.1286C191.283 27.9964 191.658 28.7304 192.141 29.3304C192.623 29.9196 193.207 30.3696 193.894 30.6804C194.58 30.9911 195.341 31.1464 196.177 31.1464C196.949 31.1464 197.593 31.0554 198.107 30.8732C198.633 30.6911 199.062 30.4929 199.394 30.2786C199.737 30.0643 200.005 29.8661 200.198 29.6839C200.391 29.5018 200.552 29.4107 200.681 29.4107C200.809 29.4107 200.916 29.4643 201.002 29.5714L201.404 30.0857C201.158 30.4071 200.847 30.7071 200.471 30.9857C200.096 31.2643 199.673 31.5054 199.201 31.7089C198.729 31.9125 198.214 32.0679 197.657 32.175C197.11 32.2929 196.537 32.3518 195.936 32.3518C194.917 32.3518 193.985 32.1696 193.138 31.8054C192.301 31.4304 191.578 30.8946 190.966 30.1982C190.366 29.4911 189.894 28.6286 189.551 27.6107C189.219 26.5929 189.053 25.4357 189.053 24.1393C189.053 22.9179 189.213 21.8036 189.535 20.7964C189.857 19.7893 190.329 18.9214 190.95 18.1929C191.572 17.4643 192.328 16.9018 193.218 16.5054C194.119 16.0982 195.148 15.8946 196.306 15.8946C197.346 15.8946 198.268 16.0607 199.072 16.3929C199.876 16.725 200.579 17.175 201.179 17.7429L200.777 18.2893Z" fill="black"/>
<path d="M213.504 24.4125C211.982 24.4661 210.668 24.5893 209.564 24.7821C208.47 24.9643 207.564 25.2161 206.846 25.5375C206.138 25.8589 205.613 26.2446 205.27 26.6946C204.927 27.1339 204.755 27.6375 204.755 28.2054C204.755 28.7411 204.841 29.2071 205.013 29.6036C205.195 29.9893 205.431 30.3107 205.72 30.5679C206.02 30.8143 206.364 30.9964 206.75 31.1143C207.135 31.2321 207.538 31.2911 207.956 31.2911C208.578 31.2911 209.146 31.2268 209.661 31.0982C210.186 30.9589 210.668 30.7714 211.108 30.5357C211.558 30.2893 211.976 30 212.362 29.6679C212.748 29.3357 213.129 28.9768 213.504 28.5911V24.4125ZM204.096 18.4179C204.932 17.5821 205.811 16.95 206.733 16.5214C207.656 16.0929 208.701 15.8786 209.87 15.8786C210.727 15.8786 211.478 16.0179 212.121 16.2964C212.765 16.5643 213.295 16.9554 213.713 17.4696C214.142 17.9732 214.464 18.5893 214.678 19.3179C214.893 20.0357 215 20.8393 215 21.7286V32.1429H214.389C214.067 32.1429 213.869 31.9929 213.794 31.6929L213.569 29.6357C213.129 30.0643 212.689 30.45 212.25 30.7929C211.821 31.1357 211.371 31.425 210.899 31.6607C210.427 31.8964 209.918 32.0786 209.371 32.2071C208.824 32.3357 208.224 32.4 207.57 32.4C207.023 32.4 206.492 32.3196 205.978 32.1589C205.463 31.9982 205.002 31.7518 204.594 31.4196C204.198 31.0875 203.876 30.6643 203.629 30.15C203.394 29.625 203.276 28.9982 203.276 28.2696C203.276 27.5946 203.469 26.9679 203.855 26.3893C204.241 25.8107 204.846 25.3071 205.672 24.8786C206.498 24.45 207.554 24.1071 208.84 23.85C210.138 23.5929 211.692 23.4429 213.504 23.4V21.7286C213.504 20.25 213.183 19.1143 212.539 18.3214C211.907 17.5179 210.963 17.1161 209.709 17.1161C208.937 17.1161 208.277 17.2232 207.731 17.4375C207.194 17.6518 206.739 17.8875 206.364 18.1446C205.988 18.4018 205.683 18.6375 205.447 18.8518C205.211 19.0661 205.013 19.1732 204.852 19.1732C204.734 19.1732 204.637 19.1464 204.562 19.0929C204.487 19.0393 204.423 18.9696 204.369 18.8839L204.096 18.4179Z" fill="black"/>
</svg>
