<?xml version="1.0" standalone="no"?>
<!DOCTYPE svg PUBLIC "-//W3C//DTD SVG 20010904//EN"
 "http://www.w3.org/TR/2001/REC-SVG-20010904/DTD/svg10.dtd">
<svg version="1.0" xmlns="http://www.w3.org/2000/svg"
 width="260.000000pt" height="260.000000pt" viewBox="0 0 260.000000 260.000000"
 preserveAspectRatio="xMidYMid meet">
<metadata>
Created by potrace 1.14, written by Peter Selinger 2001-2017
</metadata>
<g transform="translate(0.000000,260.000000) scale(0.100000,-0.100000)"
fill="#000000" stroke="none">
<path d="M1269 2576 c-2 -3 -33 -6 -69 -7 -142 -6 -329 -58 -478 -133 -341
-173 -590 -495 -672 -871 -48 -220 -27 -503 54 -719 97 -256 311 -518 520
-635 l39 -22 99 67 c54 37 98 69 98 71 0 1 -26 16 -57 32 -179 90 -350 264
-447 454 -38 75 -80 189 -91 248 -3 13 -7 35 -10 49 -16 74 -21 230 -10 318 4
26 17 90 31 142 84 327 327 598 641 716 78 30 75 29 168 50 72 17 297 24 365
12 153 -28 204 -44 325 -104 271 -133 473 -382 549 -676 29 -109 37 -173 37
-283 -1 -368 -220 -739 -538 -911 -29 -15 -53 -31 -53 -35 0 -7 130 -105 168
-127 20 -12 29 -8 91 32 75 48 214 183 285 275 127 165 219 384 252 601 10 66
12 237 4 305 -15 122 -22 152 -51 250 -50 162 -119 292 -228 427 -172 214
-409 365 -680 433 -53 13 -123 27 -156 29 -147 13 -182 15 -186 12z"/>
<path d="M1139 1917 c0 -18 -1 -125 -1 -239 -1 -184 -3 -208 -17 -209 -9 0
-118 0 -243 0 l-228 0 0 -159 c0 -121 3 -160 13 -161 6 0 116 -1 242 -2 l230
-2 2 -230 c1 -126 2 -237 2 -245 1 -13 23 -15 154 -14 83 1 155 2 159 3 3 0 6
97 6 214 0 116 1 227 1 245 l1 32 133 -1 c72 0 182 0 242 0 l110 1 0 158 0
157 -200 2 c-110 1 -220 2 -245 3 l-45 0 1 240 1 240 -158 -1 -159 0 -1 -32z"/>
</g>
</svg>
