<svg width="154" height="37" viewBox="0 0 154 37" fill="none" xmlns="http://www.w3.org/2000/svg">
<path d="M145.433 0.220215H150.993V11.3413H145.433V0.220215ZM135.809 5.78075L135.488 5.88768C135.488 5.88768 137.413 7.49168 137.413 7.59861C137.52 7.70555 137.627 7.70555 137.52 8.02635C137.413 8.34715 137.306 8.66795 137.306 8.66795C137.306 8.66795 139.017 8.34715 139.231 8.24021C139.445 8.24021 139.552 8.24021 139.552 8.45408C139.552 8.66795 139.445 10.4858 139.445 10.4858H139.979C139.979 10.4858 139.872 8.56101 139.872 8.45408C139.872 8.24021 139.979 8.24021 140.193 8.24021C140.407 8.24021 142.118 8.66795 142.118 8.66795C142.118 8.66795 142.011 8.24021 141.904 8.02635C141.797 7.70555 141.904 7.70555 142.011 7.59861C142.118 7.49168 143.936 5.88768 143.936 5.88768L143.615 5.78075C143.401 5.67381 143.508 5.56688 143.508 5.45995C143.508 5.35301 143.829 4.28368 143.829 4.28368C143.829 4.28368 142.973 4.49755 142.867 4.49755C142.76 4.49755 142.653 4.49755 142.653 4.39061C142.653 4.28368 142.439 3.85595 142.439 3.85595C142.439 3.85595 141.476 4.92528 141.369 5.03221C141.156 5.24608 140.942 5.03221 141.049 4.81835C141.049 4.60448 141.583 2.35888 141.583 2.35888C141.583 2.35888 141.049 2.67968 140.835 2.78661C140.621 2.89355 140.514 2.89355 140.514 2.67968C140.407 2.46581 139.765 1.28955 139.765 1.18261C139.765 1.18261 139.124 2.46581 139.017 2.67968C138.91 2.89355 138.803 2.89355 138.696 2.78661C138.482 2.67968 137.948 2.35888 137.948 2.35888C137.948 2.35888 138.482 4.60448 138.482 4.81835C138.482 5.03221 138.375 5.13915 138.161 5.03221L137.092 3.85595C137.092 3.85595 136.985 4.17675 136.878 4.28368C136.878 4.39061 136.771 4.49755 136.664 4.39061C136.451 4.39061 135.595 4.17675 135.595 4.17675C135.595 4.17675 135.916 5.24608 136.023 5.35301C136.023 5.45995 136.023 5.67381 135.809 5.78075ZM128.644 0.220215H134.205V11.3413H128.644V0.220215Z" fill="white"/>
<path d="M152.17 33.5834C151.742 34.5458 150.887 34.8666 150.352 34.8666C149.71 34.8666 147.785 34.7596 147.785 29.7338C147.785 29.7338 147.785 19.5751 147.785 18.9335C147.785 15.6186 145.219 12.9452 138.589 12.9452C131.425 12.9452 131.318 16.474 131.318 17.3295C131.211 18.2919 131.745 19.3612 133.563 19.3612C135.167 19.3612 135.595 17.5434 135.809 16.9018C136.023 16.1532 136.13 14.0146 139.017 14.0146C141.476 14.0146 142.973 16.1532 143.08 19.2543C143.08 19.789 143.08 20.1098 143.08 20.4306C143.08 20.6444 143.08 20.7514 143.08 20.9652V21.0722C142.867 22.1415 142.332 22.6762 141.369 23.1039C140.086 23.7455 136.344 24.2802 135.916 24.3871C134.419 24.7079 130.248 25.7772 130.355 30.1615C130.462 34.4388 134.74 35.9359 137.734 35.829C140.621 35.722 142.332 34.5458 143.08 33.9042C143.508 33.5834 143.508 33.5834 143.829 34.0111C144.257 34.4388 145.647 35.829 148.962 35.829C152.384 35.829 152.811 34.225 153.025 33.6903C153.132 33.3695 152.384 33.0487 152.17 33.5834ZM138.803 34.7596C135.809 34.7596 135.06 32.3002 135.06 31.017C135.06 29.8407 135.702 27.3812 138.696 25.6703C138.696 25.6703 140.086 24.8148 142.76 23.7455C142.867 23.7455 142.973 23.7455 142.973 23.7455C142.973 23.7455 143.08 23.8524 143.08 23.9594V24.0663V24.1732V28.6644C143.08 32.1932 141.369 34.7596 138.803 34.7596ZM128.965 34.6527C128.537 34.5458 125.864 34.8666 125.864 26.7396C125.864 18.6127 125.864 1.18256 125.864 1.18256C125.864 0.861763 125.864 0.00629665 124.902 0.00629665C123.939 0.00629665 117.523 0.327097 117.096 0.43403C116.668 0.43403 116.347 0.968696 117.096 0.968696C117.844 1.07563 121.266 1.2895 121.266 6.95696C121.266 9.73723 121.266 12.5175 121.266 14.5492C121.266 14.6562 121.266 14.7631 121.266 14.7631C121.266 14.977 121.266 15.0839 121.159 15.1908C121.159 15.1908 121.159 15.1908 121.159 15.2978C121.052 15.4047 120.945 15.2978 120.624 15.0839C120.09 14.6562 117.63 13.1591 114.529 13.1591C109.503 13.1591 103.301 16.7948 103.301 24.2802C103.301 32.3002 108.969 36.1498 114.85 36.1498C117.737 36.1498 119.769 34.8666 120.517 34.4388C121.373 33.9042 121.266 34.0111 121.373 34.7596C121.48 35.2943 121.373 36.3636 122.87 36.2567C124.474 36.0428 128.324 35.6151 129.072 35.5082C129.821 35.1874 129.607 34.7596 128.965 34.6527ZM115.705 34.9735C111 34.9735 108.541 29.413 108.541 24.0663C108.541 18.185 111.856 14.2284 115.385 14.4423C119.983 14.7631 121.159 18.3988 121.266 24.9218C121.266 25.3495 121.266 25.7772 121.266 26.3119C121.159 32.7279 118.486 34.9735 115.705 34.9735ZM103.194 33.5834C102.767 34.5458 101.911 34.8666 101.376 34.8666C100.735 34.8666 98.81 34.7596 98.81 29.7338C98.81 29.7338 98.81 19.5751 98.81 18.9335C98.81 15.6186 96.2436 12.9452 89.6137 12.9452C82.4492 12.9452 82.3423 16.474 82.3423 17.3295C82.2353 18.2919 82.77 19.3612 84.5879 19.3612C86.1919 19.3612 86.6196 17.5434 86.8335 16.9018C87.0473 16.1532 87.1543 14.0146 90.0415 14.0146C92.5009 14.0146 94.1049 16.1532 94.1049 19.3612V19.4682C94.1049 19.5751 94.1049 19.682 94.1049 19.682V20.0028C94.1049 20.1098 94.1049 20.3236 94.1049 20.4306C93.998 22.0346 93.5703 22.5692 92.2871 23.2108C91.0039 23.8524 87.2612 24.3871 86.8335 24.494C85.3364 24.8148 81.166 25.8842 81.2729 30.2684C81.3799 34.5458 85.6572 36.0428 88.6513 35.9359C91.5385 35.829 93.2495 34.6527 93.998 34.0111C94.4257 33.6903 94.4257 33.6903 94.7465 34.118C95.1743 34.5458 96.5644 35.9359 99.8793 35.9359C103.301 35.9359 103.729 34.3319 103.943 33.7972C104.157 33.3695 103.515 33.0487 103.194 33.5834ZM89.9345 34.7596C86.9404 34.7596 86.1919 32.3002 86.1919 31.017C86.1919 29.8407 86.8335 27.3812 89.8276 25.6703C89.8276 25.6703 91.2177 24.8148 93.8911 23.7455C93.998 23.7455 94.1049 23.7455 94.1049 23.7455V23.8524C94.1049 23.9594 94.1049 24.0663 94.1049 24.2802V24.1732C94.1049 24.1732 94.1049 24.1732 94.1049 24.2802V28.7714C94.1049 32.1932 92.394 34.7596 89.9345 34.7596ZM79.6689 34.6527C78.8135 34.4388 77.3164 33.4764 77.3164 28.7714V20.2167C77.3164 18.185 77.5303 12.9452 69.5103 12.9452C65.3399 12.9452 62.9873 15.0839 62.7735 15.1908C62.4527 15.5116 62.2388 15.6186 62.1319 15.0839C62.0249 14.6562 61.8111 14.0146 61.7041 13.5868C61.5972 13.266 61.3833 12.9452 60.6348 13.0522C59.8863 13.1591 55.1812 13.9076 54.3257 14.1215C53.5772 14.3354 53.7911 14.6562 54.3257 14.7631C54.8604 14.87 57.4268 15.0839 57.4268 19.4682C57.4268 23.8524 57.4268 28.6644 57.4268 28.6644C57.4268 34.0111 56.3575 34.4388 55.3951 34.7596C54.1119 35.0804 54.7535 35.5082 55.2881 35.5082C55.2881 35.5082 64.8052 35.5082 65.0191 35.5082C65.6607 35.5082 65.9815 34.8666 64.6983 34.6527C63.4151 34.4388 62.2388 33.6903 62.2388 29.5199C62.2388 29.0922 62.2388 24.494 62.2388 23.6386C62.2388 21.393 61.7041 14.5492 67.9063 14.4423C72.2905 14.3354 72.7183 17.9711 72.7183 20.3236V29.413C72.7183 33.1556 71.6489 34.3319 70.3657 34.5458C69.1895 34.7596 69.4033 35.2943 70.0449 35.2943C70.2588 35.2943 79.9897 35.2943 79.9897 35.2943C80.5244 35.5082 81.0591 34.9735 79.6689 34.6527ZM53.6841 33.5834C53.2564 34.5458 52.4009 34.8666 51.8663 34.8666C51.2247 34.8666 49.2999 34.7596 49.2999 29.7338C49.2999 29.7338 49.2999 19.5751 49.2999 18.9335C49.2999 15.6186 46.7335 12.9452 40.1036 12.9452C32.9391 12.9452 32.8321 16.474 32.8321 17.3295C32.7252 18.2919 33.2599 19.3612 35.0777 19.3612C36.6817 19.3612 37.1095 17.5434 37.3233 16.9018C37.5372 16.1532 37.6441 14.0146 40.5313 14.0146C42.9908 14.0146 44.4879 16.1532 44.5948 19.2543C44.5948 19.789 44.5948 20.1098 44.5948 20.4306C44.5948 20.6444 44.5948 20.8583 44.4879 20.9652V21.0722C44.274 22.1415 43.7393 22.6762 42.7769 23.1039C41.4937 23.7455 37.7511 24.2802 37.3233 24.3871C35.8263 24.7079 31.6559 25.7772 31.7628 30.1615C31.8697 34.4388 36.1471 35.9359 39.1412 35.829C42.0284 35.722 43.7393 34.5458 44.4879 33.9042C44.9156 33.5834 44.9156 33.5834 45.2364 34.0111C45.6641 34.4388 47.0543 35.829 50.3692 35.829C53.7911 35.829 54.2188 34.225 54.4327 33.6903C54.6465 33.3695 53.898 33.0487 53.6841 33.5834ZM40.3175 34.7596C37.3233 34.7596 36.5748 32.3002 36.5748 31.017C36.5748 29.7338 37.2164 27.3812 40.2105 25.6703C40.2105 25.6703 41.6007 24.8148 44.274 23.7455C44.3809 23.7455 44.4879 23.7455 44.4879 23.7455C44.4879 23.7455 44.5948 23.8524 44.5948 23.9594C44.5948 23.9594 44.5948 24.0663 44.5948 24.1732V24.2802V28.7714C44.5948 32.1932 42.8839 34.7596 40.3175 34.7596ZM30.0519 25.4564C28.9825 28.8783 26.9508 34.4388 19.5724 34.6527C11.8732 34.7596 7.27508 29.5199 7.06122 19.789C6.74042 9.41643 11.2316 1.50336 18.1823 1.2895C25.9884 1.18256 28.7687 10.4858 28.8756 11.8759C28.9825 12.9452 30.3727 12.8383 30.3727 11.769C30.3727 11.2343 29.7311 2.03803 29.5172 0.968696C29.3033 -0.100637 28.4479 0.327097 28.234 0.75483C28.1271 1.07563 28.3409 0.43403 27.9132 1.39643C27.4855 2.35883 26.3092 1.82416 25.8815 1.71723C24.5983 1.18256 22.1388 -0.100637 18.1823 0.00629665C9.09295 0.220163 -0.210248 6.95696 0.00361842 18.7196C0.217485 30.1615 9.41375 36.5775 17.9684 36.4706C25.7745 36.3636 30.1588 31.4447 31.442 25.7772C31.8697 24.3871 30.4796 24.0663 30.0519 25.4564Z" fill="white"/>
</svg>
